<?xml version="1.0" encoding="utf-8"?>
<!-- Generator: Adobe Illustrator 13.0.0, SVG Export Plug-In . SVG Version: 6.00 Build 14948)  -->
<!DOCTYPE svg PUBLIC "-//W3C//DTD SVG 1.1//EN" "http://www.w3.org/Graphics/SVG/1.1/DTD/svg11.dtd">
<svg version="1.1" id="Layer_1" xmlns="http://www.w3.org/2000/svg" xmlns:xlink="http://www.w3.org/1999/xlink" x="0px" y="0px"
	 width="844.274px" height="980.965px" viewBox="0 0 844.274 980.965" enable-background="new 0 0 844.274 980.965"
	 xml:space="preserve">
<path d="M306.725,10.651C319.871,3.571,331.491,0,341.733,0c5.995,0,13.556,2.56,22.687,7.629
	c9.127,5.011,14.386,11.374,15.815,18.934c1.712,7.588,2.45,22.069,2.45,43.282c0,5.122-1.113,14.687-3.144,28.894
	c-1.979,14.155-2.946,25.339-2.946,33.365c0,6.13,0.548,11.209,1.431,15.19c11.116-1.979,19.825-2.996,25.828-2.996
	c9.172,0,19.045,2.996,29.647,9.085c10.703,6.139,26.06,18.215,46.303,36.481l-2.857,21.212c-2.905,1.021-17.06,4.292-42.341,9.917
	c-25.271,5.583-46.577,9.292-64.194,11.373v18.189c0,6.09-1.291,15.774-3.775,28.868c-2.398,13.144-3.787,24.836-3.787,34.914
	c7.152-2.004,21.308-7.354,42.572-15.937c21.163-8.572,41.457-12.862,60.731-12.862c31.266,0,56.635,5.856,75.814,17.385
	c19.279,11.688,28.963,29.672,28.963,53.958c0,60.715-10.326,106.273-30.991,136.669c-20.655,30.348-44.267,52.57-70.694,66.777
	c-3.923,2.073-12.817,1.842-26.606-0.718c-13.839-2.552-24.535-3.804-32.284-3.804c-13.841,0-27.208,2.519-39.942,7.589
	c28.132,42.544,106.994,92.445,236.958,149.539c129.868,57.253,208.816,91.884,236.904,104.038
	c-18.264,11.063-44.315,22.551-78.167,34.239c-33.989,11.576-61.059,17.432-81.354,17.432c-26.283-5.116-70.007-28.887-131.3-71.452
	c-61.29-42.5-127.325-104.254-198.164-185.164l7.561,118.332c0,38.534,3.367,76.749,9.823,114.723
	c6.688,37.979,10.013,60.552,10.013,67.512c0,16.267-2.125,31.731-6.09,46.376c-4.152,14.668-12.176,21.995-24.302,21.995
	c-11.253,0-26.428-11.689-45.568-34.912c-19.141-23.266-28.963-45.05-28.963-65.322c1.158-2.996,1.987-6.063,3.135-9.131
	c7.981,3.068,16.143,6.135,24.302,9.131V615.025c-19.412,31.358-49.343,65.255-90.021,101.733
	c-40.763,36.486-100.255,76.484-178.561,119.978L0,829.101c42.749-25.229,86.424-56.631,131.298-94.059
	c44.78-37.489,88.129-88.658,129.912-153.433c-4.154-4.074-9.18-6.8-15.314-8.418c-5.992-1.497-10.009-5.737-12.125-12.863
	c5.025-12.083,14.25-18.215,27.438-18.215c8.579,0,17.71,0,27.396,0c6.456-2.055,14.112-6.063,22.684-12.135v-37.972
	c-13.693,2.999-23.705,4.84-29.973,5.326c-6.32,0.506-14.207,0.778-23.798,0.778c-8.256,0-15.175,0-20.519,0l-6.226-20.267
	c9.455-7.237,21.023-13.967,34.769-20.218c13.556-6.184,28.269-13.473,44.087-21.813l1.661-40.951
	c-18.814,4.12-35.188,7.468-49.25,9.865c-13.932,2.492-25.271,3.786-33.483,3.786c-14.618,0-24.998-5.353-31.173-16.056
	c30.247-13.575,51.1-23.029,62.122-28.45c11.252-5.354,28.542-14.763,51.784-28.458v-94.055c-6.09,2.006-16.786,4.294-31.96,6.783
	c-15.166,2.511-31.309,3.804-48.556,3.804c-14.249,0-26.06-1.293-35.649-3.804c-9.55-2.489-11.948-10.36-6.877-23.498
	c19.465-7.125,41.508-14.714,66.136-22.788c24.536-8.11,43.675-16.186,56.906-24.321c0-17.229,0-34.59,0-52.367
	c0-17.708,0-35.694,0-53.96V53.197C311.29,33.988,309.629,19.713,306.725,10.651z M92.513,387.248c2.115,0,6.363,0,12.495,0
	c6.225,0,11.947,0,17.153,0c10.38,0,21.633,2.209,33.526,6.663c11.903,4.36,24.399,19.834,37.449,46.277
	c12.917,26.471,19.372,56.383,19.372,89.791c0,13.196-2.904,26.333-8.487,39.48c-5.806,13.213-11.714,17.777-18.034,13.649
	c-31.079-19.21-48.463-47.568-52.154-84.997c-3.647-37.465-17.34-67.325-41.32-89.599V387.248z M480.081,347.751
	c-8.025-3.072-23.748-1.573-47.496,4.565c-23.618,6.063-44.325,14.156-62.173,24.348v44h21.402c22.041,0,33.294,6.568,33.294,19.713
	c0,10.069-5.762,17.248-17.247,21.255c-16.236,3.074-28.732,6.139-37.449,9.086v44.043c23.064-5.003,38.555-8.574,46.262-10.561
	c7.699-2.005,17.018-7.355,28.175-16.003c11.022-8.575,20.938-24.279,29.519-47.04c8.667-22.781,12.999-43.789,12.999-63.064
	C487.366,359.896,484.967,349.801,480.081,347.751z"/>
</svg>
