<?xml version="1.0" encoding="utf-8"?>
<!-- Generator: Adobe Illustrator 13.0.0, SVG Export Plug-In . SVG Version: 6.00 Build 14948)  -->
<!DOCTYPE svg PUBLIC "-//W3C//DTD SVG 1.1//EN" "http://www.w3.org/Graphics/SVG/1.1/DTD/svg11.dtd">
<svg version="1.1" id="Layer_1" xmlns="http://www.w3.org/2000/svg" xmlns:xlink="http://www.w3.org/1999/xlink" x="0px" y="0px"
	 width="980.502px" height="986.145px" viewBox="0 0 980.502 986.145" enable-background="new 0 0 980.502 986.145"
	 xml:space="preserve">
<g>
	<path fill="#FFFFFF" d="M201.988,191.825c35.549,12,59.18,29.876,70.485,53.344c11.265,23.631,16.815,53.425,16.815,89.586
		c0,10.958,0,21.183,0,30.794c0,9.653,0,19.326,0,28.917c0,36.243-2.347,85.097-7.142,146.521
		c-4.775,61.527-7.184,98.933-7.184,112.218c27.733-33.712,55.487-67.526,83.24-101.238
		c-11.041,66.199-46.589,144.971-106.994,236.026C190.825,879.151,134.563,945.126,82.26,986.145
		c-6.224-3.674-21.488-7.592-45.772-11.775C12.183,970.146,0,949.943,0,913.741c0-13.265,0.551-24.101,1.857-32.528
		c7.143-4.897,18.958-10.877,34.794-18.203c16.04-7.224,31.304-13.714,46.14-19.836l71.833-43.467
		c26.917-32.487,42.038-72.894,44.997-121.135c3.184-48.324,5.816-94.117,8.347-137.584c-18.183,6.122-36.488,9.102-54.833,9.102
		c-9.571,0-22.794-6.652-39.12-19.876c-16.326-13.306-33.733-26.305-52.038-38.917C43.793,478.625,23.08,467.564,0,457.769
		c3.571-8.408,11.917-14.448,25.223-18.101c13.244-3.571,26.529-5.449,39.773-5.449c14.611,0,25.121,0.347,31.875,0.939
		c6.367,0.673,17.917,4.51,34.223,11.754c16.224,7.306,30.284,13.672,41.712,19.06c11.366,5.428,23.182,9.938,35.161,13.591
		c0-22.978-0.266-46.181-0.816-69.751c-0.653-23.509-1.714-43.671-3.571-60.588c-1.714-16.836-7.979-34.875-18.305-54.283
		c-10.591-19.183-17.917-32.834-22.04-40.671c-4-7.836-6.918-17.774-8.775-29.855c-1.714-12.101-3.204-21.713-4.347-28.937
		c7.041-2.388,15.775-4.306,25.876-5.449C186.05,188.764,194.845,189.438,201.988,191.825z"/>
	<path fill="#FFFFFF" d="M571.751,101.382c-14.652,49.466-29.346,105.585-44.365,168.275
		c-15.101,62.731-22.702,123.034-22.702,180.887c12.091-7.224,38.375-28.264,78.699-63.302
		c40.487-34.978,67.873-54.609,82.321-58.772c14.611-4.286,27.835-6.388,39.835-6.388c24.12,0,46.69,5.122,67.914,15.326
		c21.101,10.367,31.59,21.57,31.59,33.59c3.755,13.265-32.243,30.447-107.626,51.548c-75.506,21.101-140.809,50.895-196.305,89.525
		c0,13.265-0.918,42.019-2.796,85.934c-1.693,44.079-2.633,73.343-2.633,87.791c0,20.509,0,35.304,0,44.385
		c0,8.959,1.204,26.407,3.571,52.426c2.408,25.876,15.928,51.242,40.783,75.995c24.652,24.672,62.364,37.1,113.177,37.1
		c25.224,0,51.752-3.061,79.506-9.183c27.713-5.918,61.425-16.795,101.219-32.508c1.224-6.041,1.877-12.673,1.877-19.918
		c0-8.346-3.959-16.224-11.673-23.488c-7.959-7.285-13.02-18.039-15.346-32.59c33.671,8.429,62.608,18.061,86.729,28.958
		c24.202,10.896,48.201,21.162,72.362,30.773c8.49,9.611,12.612,20.488,12.612,32.59c0,27.732-24.938,51.568-75.017,71.526
		c-49.996,19.835-114.769,29.732-194.519,29.732c-120.646,0-200.835-20.427-240.608-61.506
		c-39.854-40.937-59.731-123.034-59.731-245.965c0-82.057,5.714-176.724,17.244-284.187
		c11.428-107.279,17.101-192.274,17.101-254.985c0-22.958-0.938-38.63-2.653-47.058c-1.694-8.49-8.061-26.019-18.958-52.426
		C430.505,8.551,446.177,0,470.359,0c19.325,0,37.917,7.938,56.088,23.55C544.529,39.263,559.548,65.221,571.751,101.382z"/>
</g>
</svg>
