<?xml version="1.0" encoding="utf-8"?>
<!-- Generator: Adobe Illustrator 13.0.0, SVG Export Plug-In . SVG Version: 6.00 Build 14948)  -->
<!DOCTYPE svg PUBLIC "-//W3C//DTD SVG 1.1//EN" "http://www.w3.org/Graphics/SVG/1.1/DTD/svg11.dtd">
<svg version="1.1" id="Layer_1" xmlns="http://www.w3.org/2000/svg" xmlns:xlink="http://www.w3.org/1999/xlink" x="0px" y="0px"
	 width="616.023px" height="631.527px" viewBox="0 0 616.023 631.527" enable-background="new 0 0 616.023 631.527"
	 xml:space="preserve">
<path fill-rule="evenodd" clip-rule="evenodd" d="M616.023,301.675c-35.392,0-70.784,0-106.175,0
	c-1.633,7.972-0.241,18.992-0.722,28.142c35.633,0,71.265,0,106.896,0c-5.378,95.539-40.961,162.434-93.546,213.072
	c-49.8,47.974-123.272,90.089-215.882,88.601C215.138,630,141.64,591.726,92.106,542.169C40.771,490.856,4.514,423.674,0,329.816
	c35.393,0,70.784,0,106.176,0c1.633-8.021,0.24-18.994,0.721-28.142c-35.632,0-71.288,0-106.896,0
	c5.426-94.146,40.914-164.019,92.825-213.073c51.265-48.454,124.978-88.36,214.49-88.601c92.947-0.24,162.05,40.819,212.378,86.487
	C571.028,133.118,612.183,207.144,616.023,301.675z M547.81,170.863c-15.295-26.196-33.544-48.143-57.651-69.607
	c-43.268-38.49-105.672-71.265-182.843-70.305c-78.083,0.961-139.96,32.055-184.26,72.394c-45.381,41.37-78.06,92.729-89.321,167.38
	c75.707,0,151.438,0,227.168,0c0-59.548,0-119.07,0-178.594c-72.969,16.592-123.752,61.444-154.006,123.057
	c30.926,0,61.852,0,92.803,0c0-9.629,0-19.209,0-28.838c-7.708,2.401-12.847,13.422-20.386,18.297
	c-7.299-6.555-16.447-11.262-23.914-17.576c20-24.059,43.003-45.188,75.249-56.979c-1.729,30.759-0.072,86.344-0.696,116.045
	c-55.801,0-111.579,0-167.38,0c15.415-53.231,42.979-96.74,80.173-128.698c37-31.814,85.454-55.97,148.363-61.18
	c0.479,17.191-1.104,41.635,1.44,59.066c9.124-1.68,21.32-0.24,31.646-0.721c0-19.688,0-39.377,0-59.066
	c123.994,15.223,196.938,85.287,228.536,190.599c-55.32-0.479-112.515,0.912-166.658-0.72c-0.12-29.125,0.07-87.063,0-115.325
	c31.31,12.75,55.561,32.584,74.529,57.651c-8.668,5.162-16.543,11.165-24.612,16.903c-2.784-2.882-6.338-6.363-9.843-9.869
	c-3.218-3.217-6.293-9.1-9.846-7.707c0,9.34,0,18.729,0,28.117c30.494,0.479,62.813-0.961,92.131,0.72
	c-27.589-61.516-80.798-107.232-153.311-123.776c0,59.523,0,119.046,0,178.594c70.496,0,144.785,0,214.466,0
	c4.323,0,11.573,1.729,12.678-2.113C576.021,229.281,564.185,198.908,547.81,170.863z M355.121,360.765
	c0,59.765,0,119.503,0,179.314c74.05-18.561,123.416-61.779,154.006-123.776c-30.493,0-64.685,0-92.826,0c0,9.629,0,19.209,0,28.837
	c7.348-2.497,13.158-12.654,19.688-18.296c3.602,3.409,7.685,4.97,12.678,8.477c1.945,1.345,11.815,7.155,11.935,9.819
	c0.023,0.625-6.122,6.675-7.731,8.451c-17.84,19.594-44.06,40.388-66.798,47.806c0.143-35.126-0.241-85.382,0-116.044
	c55.776,0,111.577,0,167.379,0c-15.103,53.904-43.651,96.405-80.892,128.698c-36.763,31.911-84.951,56.595-148.412,61.18
	c0-19.448,0-38.897,0-58.347c-10.998,0-21.995,0-33.039,0c0,19.69,0,39.378,0,59.066C167.5,560.536,94.65,490.665,63.292,385.353
	c55.778,0,111.555,0,167.356,0c-1.393,32.391-0.408,78.636-0.696,116.766c-30.638-13.711-55.873-32.729-74.553-58.419
	c8.716-5.066,16.423-11.261,24.635-16.855c3.024,2.833,6.41,6.844,9.844,10.588c3.122,3.362,6.892,8.284,9.821,7.708
	c0-9.628,0-19.208,0-28.837c-30.711,0-61.396,0-92.131,0c28.285,61.275,79.741,105.456,153.334,123.776c0-59.812,0-119.55,0-179.314
	c-75.73,0-151.461,0-227.168,0c11.285,74.219,43.725,126.442,89.321,167.333c44.492,39.905,106.368,72.441,184.957,72.441
	c77.577,0,140.464-30.95,184.259-71.001c43.46-39.833,79.741-95.899,89.993-168.101
	C507.975,359.805,430.612,361.198,355.121,360.765z M477.482,303.067c-48.6-3.722-104.665,0.48-153.288-2.113
	c0-51.552,0-103.103,0-154.679c-11.524-0.6-20.889-0.6-32.366,0c-0.864,52.44,0.384,106.249-0.72,155.399
	c-50.855,0-101.71,0-152.565,0c-1.584,8.452-0.528,21.514,0,28.142c50.615,0.479,103.127-0.961,152.565,0.72
	c-0.048,48.094,0.864,104.304,0,154.678c8.62,0.673,22.906,0.961,33.086,0c0-51.815,0-103.606,0-155.397
	c51.098,0,102.191,0,153.288,0C478.009,323.669,478.586,310.318,477.482,303.067z"/>
</svg>
