<?xml version="1.0" encoding="utf-8"?>
<!-- Generator: Adobe Illustrator 13.0.0, SVG Export Plug-In . SVG Version: 6.00 Build 14948)  -->
<!DOCTYPE svg PUBLIC "-//W3C//DTD SVG 1.1//EN" "http://www.w3.org/Graphics/SVG/1.1/DTD/svg11.dtd">
<svg version="1.1" id="Layer_1" xmlns="http://www.w3.org/2000/svg" xmlns:xlink="http://www.w3.org/1999/xlink" x="0px" y="0px"
	 width="987.701px" height="987.75px" viewBox="0 0 987.701 987.75" enable-background="new 0 0 987.701 987.75"
	 xml:space="preserve">
<g>
	<g>
		<path fill="#010101" d="M0,493.899C0.049,221.156,221.106,0.049,493.851,0l0,0c272.744,0.049,493.851,221.156,493.851,493.899l0,0
			c0,272.695-221.106,493.803-493.851,493.851l0,0v-24.848v-24.896c245.324-0.437,443.67-198.831,444.155-444.107l0,0
			C937.521,248.576,739.175,50.182,493.851,49.745l0,0C248.575,50.182,50.181,248.576,49.696,493.899l0,0
			c0.485,245.276,198.879,443.671,444.155,444.107l0,0v24.896v24.848C221.106,987.702,0.049,766.595,0,493.899L0,493.899z"/>
	</g>
	<g>
		<path fill="#010101" d="M106.768,493.875c0-213.778,173.329-387.058,387.107-387.106l0,0
			c213.804,0.049,387.058,173.328,387.058,387.106l0,0c0,213.779-173.254,387.059-387.058,387.107l0,0v-12.425v-12.472
			c200.068-0.316,361.846-162.166,362.21-362.211l0,0c-0.364-200.044-162.142-361.895-362.21-362.21l0,0
			c-200.045,0.315-361.895,162.166-362.21,362.21l0,0C131.98,693.92,293.83,855.77,493.875,856.086l0,0v12.472v12.425
			C280.097,880.934,106.768,707.654,106.768,493.875L106.768,493.875z"/>
	</g>
	<g>
		<path fill="#010101" d="M552.403,25.819l-24.727-2.378l-9.562,97.013c8.324,0.534,16.574,1.263,24.752,2.329L552.403,25.819z"/>
		<path fill="#010101" d="M368.835,39.068l-23.781,7.183l28.27,93.18c7.814-2.67,15.773-5,23.805-7.135L368.835,39.068z"/>
		<path fill="#010101" d="M204.315,121.474l-19.218,15.772l61.829,75.368c6.236-5.483,12.642-10.726,19.218-15.772L204.315,121.474z
			"/>
		<path fill="#010101" d="M459.976,23.441l-24.75,2.378l9.56,96.964c8.154-1.066,16.405-1.795,24.752-2.329L459.976,23.441z"/>
		<path fill="#010101" d="M282.522,72.166L260.611,83.91l45.91,85.852c7.159-4.125,14.486-8.007,21.936-11.696L282.522,72.166z"/>
		<path fill="#010101" d="M46.25,345.104l-7.23,23.732l93.252,28.293c2.16-8.057,4.44-15.967,7.109-23.78L46.25,345.104z"/>
		<path fill="#010101" d="M83.861,260.611l-11.744,21.937l85.948,45.958c3.688-7.473,7.522-14.802,11.696-21.984L83.861,260.611z"/>
		<path fill="#010101" d="M137.246,185.146l-15.797,19.171l75.369,61.876c5.047-6.6,10.288-13.006,15.748-19.218L137.246,185.146z"
			/>
		<path fill="#010101" d="M642.573,46.251l-23.756-7.183l-28.293,93.228c8.056,2.135,15.991,4.416,23.804,7.086L642.573,46.251z"/>
		<path fill="#010101" d="M915.56,282.548l-11.744-21.937l-85.875,45.91c4.173,7.134,8.007,14.512,11.695,21.937L915.56,282.548z"/>
		<path fill="#010101" d="M948.683,368.836l-7.28-23.732l-93.082,28.245c2.669,7.813,4.95,15.724,7.11,23.78L948.683,368.836z"/>
		<path fill="#010101" d="M25.818,435.323l-2.426,24.702l97.013,9.56c0.534-8.347,1.286-16.597,2.354-24.75L25.818,435.323z"/>
		<path fill="#010101" d="M964.31,460.025l-2.427-24.702l-96.941,9.512c1.068,8.153,1.82,16.403,2.354,24.75L964.31,460.025z"/>
		<path fill="#010101" d="M866.18,204.316l-15.724-19.171l-75.321,61.829c5.461,6.212,10.678,12.618,15.725,19.17L866.18,204.316z"
			/>
		<path fill="#010101" d="M727.042,83.91l-21.889-11.744l-45.933,85.899c7.448,3.689,14.776,7.522,21.959,11.696L727.042,83.91z"/>
		<path fill="#010101" d="M802.556,137.246l-19.17-15.772l-61.852,75.368c6.575,5.047,12.981,10.24,19.193,15.724L802.556,137.246z"
			/>
		<path fill="#010101" d="M185.097,850.457l19.218,15.772l61.804-75.321c-6.576-5.047-12.982-10.288-19.218-15.771L185.097,850.457z
			"/>
		<path fill="#010101" d="M618.817,948.634l23.756-7.183l-28.221-93.082c-7.813,2.67-15.772,4.95-23.78,7.136L618.817,948.634z"/>
		<path fill="#010101" d="M941.402,642.598l7.28-23.73l-93.228-28.294c-2.136,8.057-4.466,15.967-7.11,23.829L941.402,642.598z"/>
		<path fill="#010101" d="M527.677,964.31l24.727-2.475l-9.536-96.867c-8.178,1.066-16.428,1.843-24.752,2.377L527.677,964.31z"/>
		<path fill="#010101" d="M783.386,866.229l19.17-15.772l-61.78-75.271c-6.235,5.483-12.617,10.676-19.217,15.723L783.386,866.229z"
			/>
		<path fill="#010101" d="M23.392,527.678l2.426,24.75l96.94-9.56c-1.068-8.154-1.82-16.404-2.354-24.751L23.392,527.678z"/>
		<path fill="#010101" d="M903.815,727.091l11.744-21.888l-85.924-45.91c-3.664,7.426-7.522,14.754-11.646,21.937L903.815,727.091z"
			/>
		<path fill="#010101" d="M850.456,802.557l15.724-19.219l-75.271-61.78c-5.047,6.602-10.289,13.007-15.773,19.22L850.456,802.557z"
			/>
		<path fill="#010101" d="M705.153,915.536l21.889-11.696l-45.862-85.803c-7.158,4.125-14.486,7.961-21.936,11.647L705.153,915.536z
			"/>
		<path fill="#010101" d="M72.117,705.203l11.744,21.888l85.851-45.861c-4.125-7.183-7.983-14.511-11.647-21.985L72.117,705.203z"/>
		<path fill="#010101" d="M39.019,618.867l7.23,23.73l93.107-28.243c-2.646-7.814-4.975-15.725-7.11-23.781L39.019,618.867z"/>
		<path fill="#010101" d="M435.225,961.835l24.75,2.475l9.562-97.012c-8.347-0.536-16.598-1.264-24.752-2.33L435.225,961.835z"/>
		<path fill="#010101" d="M121.449,783.338l15.797,19.219l75.295-61.779c-5.459-6.213-10.701-12.667-15.772-19.22L121.449,783.338z"
			/>
		<path fill="#010101" d="M345.055,941.451l23.781,7.183l28.293-93.178c-8.056-2.137-16.015-4.417-23.829-7.087L345.055,941.451z"/>
		<path fill="#010101" d="M260.611,903.84l21.912,11.696l45.911-85.852c-7.45-3.687-14.778-7.522-21.936-11.695L260.611,903.84z"/>
		<path fill="#010101" d="M864.941,542.916l96.941,9.512l2.427-24.75l-97.014-9.561C866.762,526.464,866.01,534.714,864.941,542.916
			z"/>
	</g>
</g>
</svg>
