<?xml version="1.0" encoding="utf-8"?>
<!-- Generator: Adobe Illustrator 13.0.0, SVG Export Plug-In . SVG Version: 6.00 Build 14948)  -->
<!DOCTYPE svg PUBLIC "-//W3C//DTD SVG 1.1//EN" "http://www.w3.org/Graphics/SVG/1.1/DTD/svg11.dtd">
<svg version="1.1" id="Layer_1" xmlns="http://www.w3.org/2000/svg" xmlns:xlink="http://www.w3.org/1999/xlink" x="0px" y="0px"
	 width="995.548px" height="995.551px" viewBox="0 0 995.548 995.551" enable-background="new 0 0 995.548 995.551"
	 xml:space="preserve">
<g>
	<g>
		<g>
			<g>
				<path fill="#010101" d="M497.772,0c91.824,0.008,166.269,74.44,166.269,166.28l0,0c0,91.828-74.445,166.26-166.269,166.264l0,0
					c-91.824-0.008-166.269-74.436-166.269-166.268l0,0h4.123h4.147c0,43.649,17.669,83.119,46.271,111.728l0,0
					c28.609,28.594,68.079,46.279,111.728,46.279l0,0c43.64,0,83.118-17.682,111.727-46.275l0,0
					c28.603-28.613,46.279-68.079,46.279-111.728l0,0c0-43.657-17.677-83.122-46.279-111.736l0,0
					C580.89,25.947,541.412,8.27,497.772,8.27l0,0c-43.648,0-83.126,17.677-111.728,46.274l0,0
					c-28.602,28.614-46.271,68.079-46.271,111.731l0,0h-4.147h-4.123C331.503,74.44,405.948,0.008,497.772,0L497.772,0z"/>
			</g>
			<g>
				<path fill="#010101" d="M497.772,14.805c83.65,0.008,151.456,67.813,151.462,151.471l0,0
					c-0.007,83.651-67.813,151.459-151.462,151.464l0,0c-83.643-0.009-151.463-67.805-151.463-151.464l0,0h2.066h2.065
					c0,40.696,16.483,77.511,43.156,104.176l0,0c26.666,26.674,63.489,43.148,104.176,43.148l0,0
					c40.688,0,77.51-16.475,104.176-43.144l0,0c26.673-26.669,43.148-63.48,43.148-104.18l0,0c0-40.699-16.476-77.515-43.148-104.18
					l0,0C575.282,35.427,538.46,18.94,497.772,18.94l0,0c-40.688,0-77.51,16.487-104.176,43.156l0,0
					c-26.673,26.665-43.156,63.48-43.156,104.18l0,0h-2.065h-2.066C346.309,82.618,414.129,14.813,497.772,14.805L497.772,14.805z"
					/>
			</g>
			<path fill="#010101" d="M651.051,113.627l-1.396-3.897l-11.989,4.284c0.484,1.291,0.928,2.606,1.372,3.913L651.051,113.627z"/>
			<path fill="#010101" d="M619.23,58.966l-2.768-3.058l-9.48,8.593c0.936,1,1.863,2.025,2.775,3.058L619.23,58.966z"/>
			<path fill="#010101" d="M629.169,71.399l-2.46-3.316l-10.263,7.608c0.839,1.097,1.646,2.202,2.452,3.324L629.169,71.399z"/>
			<path fill="#010101" d="M507.785,4.514l-4.132-0.21l-0.63,12.78c1.381,0.049,2.761,0.105,4.132,0.194L507.785,4.514z"/>
			<path fill="#010101" d="M655.479,128.9l-1.001-4.001l-12.367,3.098c0.354,1.323,0.669,2.67,0.984,4.009L655.479,128.9z"/>
			<path fill="#010101" d="M659.529,176.297l0.211-4.123l-12.78-0.629c-0.048,1.38-0.104,2.76-0.193,4.131L659.529,176.297z"/>
			<path fill="#010101" d="M658.385,144.548l-0.605-4.09l-12.627,1.872c0.218,1.355,0.404,2.727,0.581,4.09L658.385,144.548z"/>
			<path fill="#010101" d="M659.74,160.395l-0.211-4.131l-12.763,0.629c0.089,1.371,0.146,2.751,0.193,4.131L659.74,160.395z"/>
			<path fill="#010101" d="M539.145,9.573l-4.009-1.009l-3.099,12.385c1.34,0.315,2.687,0.629,4.019,0.984L539.145,9.573z"/>
			<path fill="#010101" d="M554.313,14.381l-3.889-1.396l-4.301,12.021c1.308,0.443,2.614,0.887,3.897,1.372L554.313,14.381z"/>
			<path fill="#010101" d="M523.59,6.272l-4.083-0.605l-1.879,12.643c1.371,0.178,2.734,0.363,4.09,0.581L523.59,6.272z"/>
			<path fill="#010101" d="M568.925,20.65l-3.735-1.759l-5.463,11.538c1.259,0.573,2.518,1.146,3.752,1.751L568.925,20.65z"/>
			<path fill="#010101" d="M595.97,37.335l-3.324-2.461l-7.617,10.263c1.122,0.814,2.235,1.629,3.325,2.461L595.97,37.335z"/>
			<path fill="#010101" d="M582.858,28.331l-3.55-2.122l-6.567,10.956c1.194,0.694,2.388,1.388,3.558,2.114L582.858,28.331z"/>
			<path fill="#010101" d="M608.137,47.582l-3.059-2.775l-8.593,9.48c1.033,0.912,2.05,1.832,3.058,2.775L608.137,47.582z"/>
			<path fill="#010101" d="M637.835,84.736l-2.122-3.542l-10.94,6.56c0.719,1.169,1.412,2.355,2.106,3.55L637.835,84.736z"/>
			<path fill="#010101" d="M550.425,319.571l3.889-1.388l-4.284-11.989c-1.291,0.476-2.598,0.92-3.905,1.372L550.425,319.571z"/>
			<path fill="#010101" d="M565.189,313.673l3.735-1.758l-5.446-11.522c-1.234,0.605-2.493,1.178-3.743,1.751L565.189,313.673z"/>
			<path fill="#010101" d="M579.309,306.355l3.55-2.122l-6.56-10.949c-1.17,0.727-2.363,1.428-3.549,2.122L579.309,306.355z"/>
			<path fill="#010101" d="M519.507,326.905l4.083-0.613l-1.872-12.61c-1.355,0.218-2.719,0.395-4.09,0.581L519.507,326.905z"/>
			<path fill="#010101" d="M503.653,328.252l4.132-0.202l-0.63-12.756c-1.371,0.081-2.751,0.137-4.132,0.186L503.653,328.252z"/>
			<path fill="#010101" d="M535.136,323.992l4.009-1.009l-3.089-12.344c-1.332,0.347-2.671,0.662-4.019,0.977L535.136,323.992z"/>
			<path fill="#010101" d="M592.646,297.682l3.324-2.445l-7.616-10.271c-1.09,0.839-2.203,1.654-3.316,2.461L592.646,297.682z"/>
			<path fill="#010101" d="M626.709,264.49l2.46-3.324l-10.271-7.608c-0.798,1.113-1.613,2.227-2.452,3.316L626.709,264.49z"/>
			<path fill="#010101" d="M649.654,222.826l1.396-3.889l-12.006-4.3c-0.452,1.307-0.896,2.614-1.371,3.905L649.654,222.826z"/>
			<path fill="#010101" d="M643.385,237.445l1.768-3.735l-11.537-5.454c-0.573,1.25-1.138,2.509-1.743,3.743L643.385,237.445z"/>
			<path fill="#010101" d="M654.479,207.673l1.001-4.009l-12.384-3.106c-0.315,1.347-0.63,2.687-0.984,4.018L654.479,207.673z"/>
			<path fill="#010101" d="M635.713,251.379l2.122-3.55l-10.949-6.567c-0.693,1.194-1.395,2.38-2.113,3.559L635.713,251.379z"/>
			<path fill="#010101" d="M616.463,276.648l2.768-3.058l-9.473-8.585c-0.912,1.033-1.832,2.049-2.768,3.058L616.463,276.648z"/>
			<path fill="#010101" d="M657.779,192.111l0.605-4.091l-12.651-1.872c-0.177,1.364-0.363,2.735-0.581,4.09L657.779,192.111z"/>
			<path fill="#010101" d="M605.078,287.758l3.059-2.776l-8.594-9.472c-1,0.936-2.024,1.855-3.058,2.767L605.078,287.758z"/>
			<path fill="#010101" d="M645.161,98.855l-1.759-3.728l-11.53,5.446c0.605,1.235,1.17,2.485,1.743,3.735L645.161,98.855z"/>
			<path fill="#010101" d="M357.693,247.829l2.122,3.55l10.94-6.559c-0.726-1.17-1.419-2.364-2.114-3.55L357.693,247.829z"/>
			<path fill="#010101" d="M366.358,261.166l2.461,3.324l10.262-7.608c-0.839-1.097-1.654-2.21-2.46-3.324L366.358,261.166z"/>
			<path fill="#010101" d="M376.298,273.591l2.776,3.058l9.464-8.577c-0.937-1.009-1.855-2.033-2.768-3.066L376.298,273.591z"/>
			<path fill="#010101" d="M350.375,233.709l1.767,3.735l11.513-5.446c-0.605-1.234-1.177-2.493-1.75-3.743L350.375,233.709z"/>
			<path fill="#010101" d="M340.048,203.664l1,4.009l12.36-3.098c-0.355-1.332-0.661-2.671-0.976-4.018L340.048,203.664z"/>
			<path fill="#010101" d="M344.478,218.937l1.396,3.889l11.981-4.285c-0.484-1.291-0.928-2.598-1.372-3.897L344.478,218.937z"/>
			<path fill="#010101" d="M337.144,188.02l0.605,4.091l12.618-1.873c-0.217-1.355-0.395-2.727-0.58-4.09L337.144,188.02z"/>
			<path fill="#010101" d="M387.4,284.982l3.058,2.776l8.585-9.472c-1.033-0.912-2.058-1.832-3.058-2.775L387.4,284.982z"/>
			<path fill="#010101" d="M491.874,4.304l-4.123,0.21l0.622,12.764c1.372-0.089,2.751-0.145,4.131-0.194L491.874,4.304z"/>
			<path fill="#010101" d="M335.796,172.174l0.202,4.123l12.755-0.622c-0.081-1.371-0.137-2.751-0.186-4.131L335.796,172.174z"/>
			<path fill="#010101" d="M471.946,326.292l4.082,0.613l1.872-12.643c-1.364-0.186-2.727-0.363-4.083-0.581L471.946,326.292z"/>
			<path fill="#010101" d="M488.373,315.294l-0.622,12.756l4.123,0.202l0.629-12.772
				C491.124,315.432,489.744,315.375,488.373,315.294z"/>
			<path fill="#010101" d="M399.559,295.237l3.324,2.445l7.608-10.254c-1.113-0.807-2.227-1.622-3.316-2.453L399.559,295.237z"/>
			<path fill="#010101" d="M441.214,318.183l3.896,1.388l4.292-12.005c-1.307-0.444-2.614-0.887-3.897-1.372L441.214,318.183z"/>
			<path fill="#010101" d="M412.669,304.233l3.55,2.122l6.567-10.949c-1.194-0.693-2.388-1.387-3.558-2.114L412.669,304.233z"/>
			<path fill="#010101" d="M426.603,311.915l3.736,1.758l5.454-11.529c-1.25-0.573-2.509-1.146-3.744-1.751L426.603,311.915z"/>
			<path fill="#010101" d="M456.383,322.983l4.009,1.009l3.098-12.376c-1.339-0.315-2.687-0.621-4.01-0.977L456.383,322.983z"/>
			<path fill="#010101" d="M416.219,26.209l-3.55,2.122l6.559,10.949c1.17-0.726,2.364-1.428,3.558-2.122L416.219,26.209z"/>
			<path fill="#010101" d="M335.998,156.264l-0.202,4.131l12.772,0.629c0.048-1.38,0.104-2.76,0.186-4.131L335.998,156.264z"/>
			<path fill="#010101" d="M402.882,34.875l-3.324,2.461l7.616,10.263c1.089-0.839,2.203-1.654,3.324-2.461L402.882,34.875z"/>
			<path fill="#010101" d="M390.458,44.807l-3.058,2.775l8.584,9.472c1.009-0.936,2.025-1.856,3.058-2.768L390.458,44.807z"/>
			<path fill="#010101" d="M379.074,55.908l-2.776,3.058l9.472,8.593c0.912-1.033,1.831-2.057,2.775-3.066L379.074,55.908z"/>
			<path fill="#010101" d="M476.028,5.667l-4.082,0.605l1.872,12.619c1.355-0.217,2.719-0.403,4.083-0.581L476.028,5.667z"/>
			<path fill="#010101" d="M460.392,8.564l-4.009,1.009l3.098,12.352c1.323-0.347,2.671-0.661,4.01-0.976L460.392,8.564z"/>
			<path fill="#010101" d="M445.111,12.986l-3.896,1.396l4.292,11.989c1.291-0.476,2.598-0.92,3.905-1.372L445.111,12.986z"/>
			<path fill="#010101" d="M430.338,18.891l-3.736,1.759l5.455,11.521c1.234-0.605,2.485-1.178,3.735-1.75L430.338,18.891z"/>
			<path fill="#010101" d="M341.048,124.899l-1,4.001l12.385,3.106c0.315-1.347,0.629-2.686,0.976-4.018L341.048,124.899z"/>
			<path fill="#010101" d="M337.749,140.458l-0.605,4.09l12.643,1.872c0.185-1.364,0.363-2.735,0.58-4.09L337.749,140.458z"/>
			<path fill="#010101" d="M345.873,109.73l-1.396,3.897l12.005,4.292c0.452-1.307,0.895-2.614,1.372-3.905L345.873,109.73z"/>
			<path fill="#010101" d="M368.819,68.083l-2.461,3.316l10.263,7.608c0.806-1.114,1.622-2.227,2.46-3.316L368.819,68.083z"/>
			<path fill="#010101" d="M352.142,95.127l-1.767,3.728l11.53,5.454c0.573-1.25,1.145-2.5,1.75-3.735L352.142,95.127z"/>
			<path fill="#010101" d="M359.815,81.194l-2.122,3.542l10.948,6.559c0.694-1.186,1.388-2.38,2.114-3.55L359.815,81.194z"/>
		</g>
		<g>
			<g>
				<path fill="#010101" d="M497.772,663.007c91.824,0.008,166.269,74.44,166.269,166.275l0,0
					c0,91.828-74.445,166.262-166.269,166.269l0,0c-91.824-0.007-166.269-74.44-166.269-166.269l0,0h4.123h4.147
					c0,43.649,17.669,83.114,46.271,111.729l0,0c28.609,28.594,68.079,46.274,111.728,46.274l0,0
					c43.64,0,83.118-17.681,111.727-46.274l0,0c28.603-28.614,46.279-68.079,46.279-111.729l0,0
					c0-43.652-17.677-83.117-46.279-111.73l0,0c-28.609-28.598-68.087-46.274-111.727-46.274l0,0
					c-43.648,0-83.126,17.677-111.728,46.271l0,0c-28.602,28.617-46.271,68.078-46.271,111.734l0,0h-4.147h-4.123
					C331.503,737.444,405.948,663.015,497.772,663.007L497.772,663.007z"/>
			</g>
			<g>
				<path fill="#010101" d="M497.772,677.812c83.65,0.009,151.456,67.813,151.462,151.468l0,0
					c-0.007,83.65-67.813,151.459-151.462,151.467l0,0c-83.643-0.008-151.463-67.809-151.463-151.467l0,0h2.066h2.065
					c0,40.699,16.483,77.511,43.156,104.18l0,0c26.666,26.67,63.489,43.145,104.176,43.145l0,0
					c40.688,0,77.51-16.475,104.176-43.145l0,0c26.673-26.669,43.148-63.48,43.148-104.18l0,0
					c0-40.695-16.476-77.511-43.148-104.177l0,0c-26.666-26.669-63.488-43.159-104.176-43.159l0,0
					c-40.688,0-77.51,16.49-104.176,43.155l0,0c-26.673,26.665-43.156,63.48-43.156,104.181l0,0h-2.065h-2.066
					C346.309,745.625,414.129,677.821,497.772,677.812L497.772,677.812z"/>
			</g>
			<path fill="#010101" d="M651.051,776.635l-1.396-3.897l-11.989,4.284c0.484,1.292,0.928,2.606,1.372,3.913L651.051,776.635z"/>
			<path fill="#010101" d="M619.23,721.973l-2.768-3.059l-9.48,8.594c0.936,1.001,1.863,2.024,2.775,3.058L619.23,721.973z"/>
			<path fill="#010101" d="M629.169,734.407l-2.46-3.316l-10.263,7.607c0.839,1.099,1.646,2.203,2.452,3.325L629.169,734.407z"/>
			<path fill="#010101" d="M507.785,667.517l-4.132-0.21l-0.63,12.78c1.381,0.049,2.761,0.105,4.132,0.194L507.785,667.517z"/>
			<path fill="#010101" d="M655.479,791.908l-1.001-4.001l-12.367,3.098c0.354,1.323,0.669,2.67,0.984,4.01L655.479,791.908z"/>
			<path fill="#010101" d="M659.529,839.299l0.211-4.121l-12.78-0.63c-0.048,1.379-0.104,2.759-0.193,4.13L659.529,839.299z"/>
			<path fill="#010101" d="M658.385,807.552l-0.605-4.091l-12.627,1.872c0.218,1.355,0.404,2.728,0.581,4.09L658.385,807.552z"/>
			<path fill="#010101" d="M659.74,823.398l-0.211-4.132l-12.763,0.63c0.089,1.371,0.146,2.752,0.193,4.132L659.74,823.398z"/>
			<path fill="#010101" d="M539.145,672.577l-4.009-1.01l-3.099,12.385c1.34,0.314,2.687,0.63,4.019,0.985L539.145,672.577z"/>
			<path fill="#010101" d="M554.313,677.384l-3.889-1.395l-4.301,12.021c1.308,0.443,2.614,0.887,3.897,1.371L554.313,677.384z"/>
			<path fill="#010101" d="M523.59,669.277l-4.083-0.605l-1.879,12.643c1.371,0.178,2.734,0.363,4.09,0.58L523.59,669.277z"/>
			<path fill="#010101" d="M568.925,683.658l-3.735-1.764l-5.463,11.539c1.259,0.571,2.518,1.145,3.752,1.75L568.925,683.658z"/>
			<path fill="#010101" d="M595.97,700.343l-3.324-2.461l-7.617,10.262c1.122,0.815,2.235,1.63,3.325,2.461L595.97,700.343z"/>
			<path fill="#010101" d="M582.858,691.338l-3.55-2.122l-6.567,10.957c1.194,0.693,2.388,1.388,3.558,2.114L582.858,691.338z"/>
			<path fill="#010101" d="M608.137,710.589l-3.059-2.775l-8.593,9.479c1.033,0.912,2.05,1.832,3.058,2.776L608.137,710.589z"/>
			<path fill="#010101" d="M637.835,747.743l-2.122-3.542l-10.94,6.56c0.719,1.171,1.412,2.356,2.106,3.55L637.835,747.743z"/>
			<path fill="#010101" d="M550.425,982.574l3.889-1.388l-4.284-11.989c-1.291,0.476-2.598,0.921-3.905,1.372L550.425,982.574z"/>
			<path fill="#010101" d="M565.189,976.676l3.735-1.759l-5.446-11.521c-1.234,0.604-2.493,1.178-3.743,1.751L565.189,976.676z"/>
			<path fill="#010101" d="M579.309,969.359l3.55-2.122l-6.56-10.948c-1.17,0.726-2.363,1.428-3.549,2.122L579.309,969.359z"/>
			<path fill="#010101" d="M519.507,989.908l4.083-0.613l-1.872-12.61c-1.355,0.218-2.719,0.396-4.09,0.581L519.507,989.908z"/>
			<path fill="#010101" d="M503.653,991.255l4.132-0.201l-0.63-12.756c-1.371,0.08-2.751,0.137-4.132,0.185L503.653,991.255z"/>
			<path fill="#010101" d="M535.136,986.996l4.009-1.009l-3.089-12.344c-1.332,0.346-2.671,0.661-4.019,0.976L535.136,986.996z"/>
			<path fill="#010101" d="M592.646,960.685l3.324-2.444l-7.616-10.271c-1.09,0.839-2.203,1.653-3.316,2.46L592.646,960.685z"/>
			<path fill="#010101" d="M626.709,927.493l2.46-3.324l-10.271-7.607c-0.798,1.113-1.613,2.227-2.452,3.315L626.709,927.493z"/>
			<path fill="#010101" d="M649.654,885.83l1.396-3.89l-12.006-4.3c-0.452,1.308-0.896,2.613-1.371,3.904L649.654,885.83z"/>
			<path fill="#010101" d="M643.385,900.449l1.768-3.735l-11.537-5.455c-0.573,1.251-1.138,2.51-1.743,3.745L643.385,900.449z"/>
			<path fill="#010101" d="M654.479,870.677l1.001-4.01l-12.384-3.106c-0.315,1.348-0.63,2.688-0.984,4.018L654.479,870.677z"/>
			<path fill="#010101" d="M635.713,914.382l2.122-3.55l-10.949-6.568c-0.693,1.194-1.395,2.381-2.113,3.559L635.713,914.382z"/>
			<path fill="#010101" d="M616.463,939.651l2.768-3.057l-9.473-8.585c-0.912,1.032-1.832,2.049-2.768,3.059L616.463,939.651z"/>
			<path fill="#010101" d="M657.779,855.114l0.605-4.091l-12.651-1.872c-0.177,1.364-0.363,2.735-0.581,4.091L657.779,855.114z"/>
			<path fill="#010101" d="M605.078,950.762l3.059-2.776l-8.594-9.472c-1,0.936-2.024,1.855-3.058,2.768L605.078,950.762z"/>
			<path fill="#010101" d="M645.161,761.863l-1.759-3.728l-11.53,5.445c0.605,1.234,1.17,2.485,1.743,3.735L645.161,761.863z"/>
			<path fill="#010101" d="M357.693,910.833l2.122,3.55l10.94-6.56c-0.726-1.17-1.419-2.364-2.114-3.55L357.693,910.833z"/>
			<path fill="#010101" d="M366.358,924.168l2.461,3.324l10.262-7.607c-0.839-1.098-1.654-2.211-2.46-3.324L366.358,924.168z"/>
			<path fill="#010101" d="M376.298,936.594l2.776,3.057l9.464-8.576c-0.937-1.008-1.855-2.033-2.768-3.065L376.298,936.594z"/>
			<path fill="#010101" d="M350.375,896.713l1.767,3.735l11.513-5.445c-0.605-1.235-1.177-2.494-1.75-3.745L350.375,896.713z"/>
			<path fill="#010101" d="M340.048,866.667l1,4.01l12.36-3.099c-0.355-1.33-0.661-2.67-0.976-4.018L340.048,866.667z"/>
			<path fill="#010101" d="M344.478,881.94l1.396,3.89l11.981-4.285c-0.484-1.291-0.928-2.597-1.372-3.896L344.478,881.94z"/>
			<path fill="#010101" d="M337.144,851.023l0.605,4.091l12.618-1.872c-0.217-1.355-0.395-2.727-0.58-4.091L337.144,851.023z"/>
			<path fill="#010101" d="M387.4,947.986l3.058,2.776l8.585-9.473c-1.033-0.911-2.058-1.832-3.058-2.775L387.4,947.986z"/>
			<path fill="#010101" d="M491.874,667.307l-4.123,0.21l0.622,12.765c1.372-0.089,2.751-0.146,4.131-0.194L491.874,667.307z"/>
			<path fill="#010101" d="M335.796,835.178l0.202,4.121l12.755-0.621c-0.081-1.371-0.137-2.751-0.186-4.13L335.796,835.178z"/>
			<path fill="#010101" d="M471.946,989.294l4.082,0.613l1.872-12.643c-1.364-0.186-2.727-0.363-4.083-0.581L471.946,989.294z"/>
			<path fill="#010101" d="M488.373,978.298l-0.622,12.756l4.123,0.201l0.629-12.772
				C491.124,978.435,489.744,978.378,488.373,978.298z"/>
			<path fill="#010101" d="M399.559,958.241l3.324,2.444l7.608-10.255c-1.113-0.807-2.227-1.621-3.316-2.452L399.559,958.241z"/>
			<path fill="#010101" d="M441.214,981.186l3.896,1.388l4.292-12.005c-1.307-0.444-2.614-0.888-3.897-1.372L441.214,981.186z"/>
			<path fill="#010101" d="M412.669,967.237l3.55,2.122l6.567-10.948c-1.194-0.694-2.388-1.388-3.558-2.115L412.669,967.237z"/>
			<path fill="#010101" d="M426.603,974.917l3.736,1.759l5.454-11.529c-1.25-0.573-2.509-1.146-3.744-1.751L426.603,974.917z"/>
			<path fill="#010101" d="M456.383,985.987l4.009,1.009l3.098-12.377c-1.339-0.314-2.687-0.621-4.01-0.976L456.383,985.987z"/>
			<path fill="#010101" d="M416.219,689.212l-3.55,2.122l6.559,10.948c1.17-0.726,2.364-1.429,3.558-2.122L416.219,689.212z"/>
			<path fill="#010101" d="M335.998,819.266l-0.202,4.132l12.772,0.63c0.048-1.38,0.104-2.761,0.186-4.132L335.998,819.266z"/>
			<path fill="#010101" d="M402.882,697.877l-3.324,2.461l7.616,10.263c1.089-0.839,2.203-1.653,3.324-2.461L402.882,697.877z"/>
			<path fill="#010101" d="M390.458,707.81l-3.058,2.775l8.584,9.472c1.009-0.937,2.025-1.855,3.058-2.768L390.458,707.81z"/>
			<path fill="#010101" d="M379.074,718.912l-2.776,3.058l9.472,8.593c0.912-1.033,1.831-2.058,2.775-3.066L379.074,718.912z"/>
			<path fill="#010101" d="M476.028,668.671l-4.082,0.605l1.872,12.617c1.355-0.217,2.719-0.402,4.083-0.58L476.028,668.671z"/>
			<path fill="#010101" d="M460.392,671.567l-4.009,1.01l3.098,12.352c1.323-0.347,2.671-0.662,4.01-0.977L460.392,671.567z"/>
			<path fill="#010101" d="M445.111,675.99l-3.896,1.395l4.292,11.989c1.291-0.476,2.598-0.919,3.905-1.371L445.111,675.99z"/>
			<path fill="#010101" d="M430.338,681.894l-3.736,1.76l5.455,11.521c1.234-0.605,2.485-1.178,3.735-1.751L430.338,681.894z"/>
			<path fill="#010101" d="M341.048,787.902l-1,4.002l12.385,3.106c0.315-1.348,0.629-2.687,0.976-4.019L341.048,787.902z"/>
			<path fill="#010101" d="M337.749,803.458l-0.605,4.091l12.643,1.871c0.185-1.362,0.363-2.735,0.58-4.091L337.749,803.458z"/>
			<path fill="#010101" d="M345.873,772.734l-1.396,3.896l12.005,4.293c0.452-1.308,0.895-2.614,1.372-3.904L345.873,772.734z"/>
			<path fill="#010101" d="M368.819,731.086l-2.461,3.316l10.263,7.607c0.806-1.112,1.622-2.227,2.46-3.315L368.819,731.086z"/>
			<path fill="#010101" d="M352.142,758.13l-1.767,3.728l11.53,5.454c0.573-1.25,1.145-2.501,1.75-3.735L352.142,758.13z"/>
			<path fill="#010101" d="M359.815,744.198l-2.122,3.541l10.948,6.56c0.694-1.186,1.388-2.38,2.114-3.551L359.815,744.198z"/>
		</g>
	</g>
	<g>
		<g>
			<g>
				<g>
					<path fill="#010101" d="M0,497.776c0.008-91.828,74.44-166.268,166.276-166.268l0,0c91.828,0,166.261,74.44,166.269,166.268
						l0,0c-0.008,91.819-74.441,166.269-166.269,166.269l0,0v-4.123v-4.147c43.649,0,83.114-17.669,111.728-46.271l0,0
						c28.593-28.613,46.274-68.083,46.274-111.728l0,0c0-43.645-17.681-83.122-46.274-111.731l0,0
						c-28.614-28.598-68.079-46.275-111.728-46.275l0,0c-43.652,0-83.118,17.678-111.731,46.275l0,0
						C25.947,414.654,8.27,454.131,8.27,497.776l0,0c0,43.645,17.677,83.121,46.274,111.728l0,0
						c28.614,28.602,68.079,46.271,111.731,46.271l0,0v4.147v4.123C74.44,664.044,0.008,589.595,0,497.776L0,497.776z"/>
				</g>
				<g>
					<path fill="#010101" d="M14.805,497.776c0.008-83.651,67.813-151.459,151.467-151.467l0,0
						c83.65,0.008,151.459,67.816,151.467,151.467l0,0c-0.008,83.639-67.809,151.464-151.467,151.464l0,0v-2.066v-2.065
						c40.699,0,77.51-16.487,104.18-43.156l0,0c26.669-26.665,43.144-63.488,43.144-104.176l0,0
						c0-40.691-16.475-77.511-43.144-104.18l0,0c-26.669-26.669-63.48-43.148-104.18-43.148l0,0
						c-40.696,0-77.511,16.479-104.176,43.148l0,0c-26.669,26.669-43.157,63.488-43.157,104.18l0,0
						c0,40.688,16.487,77.511,43.157,104.176l0,0c26.665,26.669,63.48,43.156,104.176,43.156l0,0v2.065v2.066
						C82.618,649.24,14.813,581.415,14.805,497.776L14.805,497.776z"/>
				</g>
				<path fill="#010101" d="M113.628,344.497l-3.897,1.396l4.284,11.989c1.291-0.484,2.606-0.928,3.913-1.372L113.628,344.497z"/>
				<path fill="#010101" d="M58.966,376.318l-3.058,2.768l8.593,9.48c1-0.936,2.025-1.864,3.058-2.775L58.966,376.318z"/>
				<path fill="#010101" d="M71.399,366.378l-3.316,2.461l7.608,10.263c1.097-0.839,2.202-1.646,3.324-2.453L71.399,366.378z"/>
				<path fill="#010101" d="M4.514,487.764l-0.21,4.13l12.78,0.629c0.049-1.379,0.105-2.759,0.194-4.131L4.514,487.764z"/>
				<path fill="#010101" d="M128.9,340.068l-4.001,1l3.098,12.369c1.324-0.355,2.671-0.67,4.01-0.984L128.9,340.068z"/>
				<path fill="#010101" d="M176.293,336.018l-4.123-0.209l-0.63,12.779c1.38,0.049,2.76,0.105,4.131,0.194L176.293,336.018z"/>
				<path fill="#010101" d="M144.545,337.164l-4.09,0.605l1.872,12.626c1.355-0.218,2.727-0.403,4.09-0.581L144.545,337.164z"/>
				<path fill="#010101" d="M160.391,335.808l-4.131,0.209l0.629,12.764c1.372-0.089,2.751-0.146,4.131-0.194L160.391,335.808z"/>
				<path fill="#010101" d="M9.573,456.402l-1.009,4.01l12.384,3.098c0.315-1.339,0.63-2.687,0.985-4.018L9.573,456.402z"/>
				<path fill="#010101" d="M14.382,441.234l-1.396,3.889l12.021,4.3c0.443-1.307,0.888-2.614,1.371-3.897L14.382,441.234z"/>
				<path fill="#010101" d="M6.273,471.958l-0.605,4.082l12.643,1.88c0.178-1.372,0.363-2.735,0.581-4.09L6.273,471.958z"/>
				<path fill="#010101" d="M20.65,426.623l-1.759,3.735l11.537,5.462c0.573-1.259,1.146-2.518,1.751-3.752L20.65,426.623z"/>
				<path fill="#010101" d="M37.335,399.579l-2.461,3.324l10.263,7.616c0.815-1.122,1.63-2.235,2.461-3.324L37.335,399.579z"/>
				<path fill="#010101" d="M28.331,412.689l-2.122,3.55l10.957,6.567c0.694-1.194,1.388-2.388,2.114-3.558L28.331,412.689z"/>
				<path fill="#010101" d="M47.582,387.412l-2.776,3.058l9.48,8.592c0.912-1.033,1.832-2.049,2.775-3.058L47.582,387.412z"/>
				<path fill="#010101" d="M84.736,357.713l-3.542,2.121l6.56,10.941c1.17-0.718,2.356-1.412,3.55-2.106L84.736,357.713z"/>
				<path fill="#010101" d="M319.567,445.124l-1.388-3.889l-11.989,4.284c0.476,1.291,0.92,2.598,1.372,3.905L319.567,445.124z"/>
				<path fill="#010101" d="M313.669,430.358l-1.759-3.735l-11.521,5.446c0.605,1.234,1.178,2.493,1.751,3.744L313.669,430.358z"/>
				<path fill="#010101" d="M306.352,416.239l-2.122-3.55l-10.949,6.56c0.727,1.169,1.428,2.364,2.122,3.55L306.352,416.239z"/>
				<path fill="#010101" d="M326.9,476.04l-0.613-4.082l-12.61,1.872c0.218,1.355,0.396,2.719,0.581,4.09L326.9,476.04z"/>
				<path fill="#010101" d="M328.248,491.894l-0.202-4.13l-12.756,0.629c0.081,1.372,0.138,2.751,0.186,4.131L328.248,491.894z"/>
				<path fill="#010101" d="M323.988,460.412l-1.009-4.01l-12.344,3.09c0.347,1.331,0.662,2.67,0.977,4.018L323.988,460.412z"/>
				<path fill="#010101" d="M297.678,402.903l-2.445-3.324l-10.271,7.616c0.839,1.089,1.653,2.203,2.46,3.316L297.678,402.903z"/>
				<path fill="#010101" d="M264.486,368.839l-3.324-2.461l-7.608,10.271c1.113,0.799,2.227,1.613,3.316,2.453L264.486,368.839z"/>
				<path fill="#010101" d="M222.822,345.893l-3.889-1.396l-4.301,12.005c1.308,0.452,2.614,0.896,3.906,1.372L222.822,345.893z"/>
				<path fill="#010101" d="M237.441,352.162l-3.736-1.767l-5.454,11.538c1.25,0.573,2.509,1.138,3.744,1.743L237.441,352.162z"/>
				<path fill="#010101" d="M207.67,341.068l-4.01-1l-3.106,12.385c1.348,0.314,2.687,0.629,4.018,0.984L207.67,341.068z"/>
				<path fill="#010101" d="M251.375,359.834l-3.55-2.121l-6.568,10.948c1.194,0.694,2.38,1.396,3.558,2.114L251.375,359.834z"/>
				<path fill="#010101" d="M276.644,379.085l-3.058-2.768l-8.584,9.472c1.033,0.912,2.049,1.832,3.058,2.768L276.644,379.085z"/>
				<path fill="#010101" d="M192.106,337.769l-4.09-0.605l-1.872,12.65c1.364,0.178,2.735,0.363,4.09,0.581L192.106,337.769z"/>
				<path fill="#010101" d="M287.754,390.47l-2.775-3.058l-9.472,8.593c0.936,1,1.855,2.025,2.768,3.058L287.754,390.47z"/>
				<path fill="#010101" d="M98.855,350.387l-3.728,1.759l5.446,11.529c1.235-0.605,2.485-1.17,3.735-1.743L98.855,350.387z"/>
				<path fill="#010101" d="M247.825,637.855l3.55-2.122l-6.56-10.94c-1.17,0.726-2.364,1.421-3.55,2.114L247.825,637.855z"/>
				<path fill="#010101" d="M261.162,629.19l3.324-2.461l-7.608-10.263c-1.097,0.839-2.21,1.653-3.324,2.461L261.162,629.19z"/>
				<path fill="#010101" d="M273.586,619.25l3.058-2.774l-8.576-9.465c-1.008,0.937-2.033,1.855-3.066,2.768L273.586,619.25z"/>
				<path fill="#010101" d="M233.706,645.173l3.736-1.768l-5.446-11.514c-1.235,0.605-2.494,1.179-3.744,1.751L233.706,645.173z"/>
				<path fill="#010101" d="M203.66,655.5l4.01-1.001l-3.098-12.36c-1.331,0.355-2.67,0.662-4.018,0.977L203.66,655.5z"/>
				<path fill="#010101" d="M218.933,651.071l3.889-1.396l-4.284-11.98c-1.292,0.484-2.598,0.928-3.897,1.371L218.933,651.071z"/>
				<path fill="#010101" d="M188.016,658.405l4.09-0.605l-1.872-12.619c-1.355,0.219-2.727,0.396-4.09,0.582L188.016,658.405z"/>
				<path fill="#010101" d="M284.979,608.148l2.775-3.058l-9.472-8.585c-0.912,1.033-1.832,2.058-2.775,3.059L284.979,608.148z"/>
				<path fill="#010101" d="M4.304,503.673l0.21,4.123l12.764-0.621c-0.089-1.372-0.146-2.752-0.194-4.131L4.304,503.673z"/>
				<path fill="#010101" d="M172.17,659.751l4.123-0.201l-0.621-12.756c-1.372,0.08-2.751,0.137-4.131,0.186L172.17,659.751z"/>
				<path fill="#010101" d="M326.288,523.602l0.613-4.083l-12.642-1.871c-0.186,1.362-0.363,2.727-0.581,4.082L326.288,523.602z"/>
				<path fill="#010101" d="M315.291,507.175l12.756,0.621l0.202-4.123l-12.772-0.629
					C315.428,504.423,315.372,505.803,315.291,507.175z"/>
				<path fill="#010101" d="M295.233,595.99l2.445-3.325l-10.255-7.607c-0.807,1.113-1.622,2.227-2.453,3.315L295.233,595.99z"/>
				<path fill="#010101" d="M318.179,554.333l1.388-3.896l-12.005-4.293c-0.443,1.308-0.888,2.614-1.372,3.897L318.179,554.333z"/>
				<path fill="#010101" d="M304.229,582.878l2.122-3.55l-10.949-6.567c-0.694,1.193-1.388,2.388-2.114,3.559L304.229,582.878z"/>
				<path fill="#010101" d="M311.91,568.945l1.759-3.736l-11.529-5.453c-0.573,1.25-1.146,2.51-1.751,3.743L311.91,568.945z"/>
				<path fill="#010101" d="M322.979,539.166l1.009-4.011l-12.376-3.098c-0.315,1.34-0.622,2.687-0.977,4.01L322.979,539.166z"/>
				<path fill="#010101" d="M26.209,579.329l2.122,3.55l10.949-6.559c-0.726-1.171-1.428-2.365-2.122-3.559L26.209,579.329z"/>
				<path fill="#010101" d="M156.26,659.55l4.131,0.201l0.629-12.771c-1.379-0.049-2.759-0.105-4.131-0.186L156.26,659.55z"/>
				<path fill="#010101" d="M34.875,592.665l2.461,3.325l10.263-7.617c-0.839-1.089-1.654-2.202-2.461-3.324L34.875,592.665z"/>
				<path fill="#010101" d="M44.806,605.09l2.776,3.058l9.472-8.584c-0.936-1.009-1.855-2.025-2.767-3.059L44.806,605.09z"/>
				<path fill="#010101" d="M55.908,616.475l3.058,2.774l8.592-9.472c-1.033-0.912-2.057-1.831-3.066-2.776L55.908,616.475z"/>
				<path fill="#010101" d="M5.667,519.519l0.605,4.083l12.619-1.872c-0.218-1.355-0.403-2.72-0.581-4.082L5.667,519.519z"/>
				<path fill="#010101" d="M8.564,535.155l1.009,4.011l12.352-3.099c-0.347-1.323-0.662-2.67-0.977-4.01L8.564,535.155z"/>
				<path fill="#010101" d="M12.986,550.437l1.396,3.896l11.989-4.292c-0.476-1.291-0.92-2.598-1.372-3.905L12.986,550.437z"/>
				<path fill="#010101" d="M18.892,565.208l1.759,3.736l11.521-5.454c-0.605-1.234-1.178-2.485-1.751-3.735L18.892,565.208z"/>
				<path fill="#010101" d="M124.899,654.5l4.001,1.001l3.106-12.385c-1.347-0.314-2.687-0.63-4.018-0.977L124.899,654.5z"/>
				<path fill="#010101" d="M140.455,657.799l4.09,0.605l1.872-12.643c-1.363-0.187-2.735-0.363-4.09-0.582L140.455,657.799z"/>
				<path fill="#010101" d="M109.731,649.674l3.897,1.396l4.292-12.006c-1.307-0.452-2.614-0.896-3.905-1.371L109.731,649.674z"/>
				<path fill="#010101" d="M68.083,626.729l3.316,2.461l7.608-10.263c-1.114-0.808-2.227-1.622-3.316-2.461L68.083,626.729z"/>
				<path fill="#010101" d="M95.127,643.406l3.728,1.768l5.454-11.53c-1.25-0.572-2.5-1.146-3.735-1.751L95.127,643.406z"/>
				<path fill="#010101" d="M81.194,635.733l3.542,2.122l6.56-10.948c-1.186-0.693-2.381-1.389-3.55-2.114L81.194,635.733z"/>
			</g>
			<g>
				<g>
					<path fill="#010101" d="M663.003,497.776c0.009-91.828,74.44-166.268,166.276-166.268l0,0
						c91.828,0,166.26,74.44,166.269,166.268l0,0c-0.009,91.819-74.44,166.269-166.269,166.269l0,0v-4.123v-4.147
						c43.648,0,83.114-17.669,111.729-46.271l0,0c28.593-28.613,46.274-68.083,46.274-111.728l0,0
						c0-43.645-17.682-83.122-46.274-111.731l0,0c-28.614-28.598-68.08-46.275-111.729-46.275l0,0
						c-43.652,0-83.118,17.678-111.731,46.275l0,0c-28.597,28.609-46.274,68.087-46.274,111.731l0,0
						c0,43.645,17.678,83.121,46.274,111.728l0,0c28.613,28.602,68.079,46.271,111.731,46.271l0,0v4.147v4.123
						C737.443,664.044,663.012,589.595,663.003,497.776L663.003,497.776z"/>
				</g>
				<g>
					<path fill="#010101" d="M677.809,497.776c0.008-83.651,67.813-151.459,151.467-151.467l0,0
						c83.65,0.008,151.459,67.816,151.468,151.467l0,0c-0.009,83.639-67.809,151.464-151.468,151.464l0,0v-2.066v-2.065
						c40.7,0,77.511-16.487,104.18-43.156l0,0c26.669-26.665,43.145-63.488,43.145-104.176l0,0
						c0-40.691-16.476-77.511-43.145-104.18l0,0c-26.669-26.669-63.479-43.148-104.18-43.148l0,0
						c-40.695,0-77.511,16.479-104.176,43.148l0,0c-26.669,26.669-43.156,63.488-43.156,104.18l0,0
						c0,40.688,16.487,77.511,43.156,104.176l0,0c26.665,26.669,63.48,43.156,104.176,43.156l0,0v2.065v2.066
						C745.621,649.24,677.816,581.415,677.809,497.776L677.809,497.776z"/>
				</g>
				<path fill="#010101" d="M776.631,344.497l-3.896,1.396l4.284,11.989c1.29-0.484,2.606-0.928,3.912-1.372L776.631,344.497z"/>
				<path fill="#010101" d="M721.97,376.318l-3.059,2.768l8.594,9.48c0.999-0.936,2.024-1.864,3.057-2.775L721.97,376.318z"/>
				<path fill="#010101" d="M734.402,366.378l-3.315,2.461l7.607,10.263c1.098-0.839,2.203-1.646,3.324-2.453L734.402,366.378z"/>
				<path fill="#010101" d="M667.518,487.764l-0.21,4.13l12.78,0.629c0.048-1.379,0.104-2.759,0.193-4.131L667.518,487.764z"/>
				<path fill="#010101" d="M791.904,340.068l-4.002,1l3.099,12.369c1.323-0.355,2.67-0.67,4.009-0.984L791.904,340.068z"/>
				<path fill="#010101" d="M839.296,336.018l-4.123-0.209l-0.629,12.779c1.38,0.049,2.76,0.105,4.131,0.194L839.296,336.018z"/>
				<path fill="#010101" d="M807.548,337.164l-4.091,0.605l1.873,12.626c1.355-0.218,2.727-0.403,4.09-0.581L807.548,337.164z"/>
				<path fill="#010101" d="M823.395,335.808l-4.132,0.209l0.63,12.764c1.371-0.089,2.751-0.146,4.131-0.194L823.395,335.808z"/>
				<path fill="#010101" d="M672.576,456.402l-1.008,4.01l12.384,3.098c0.315-1.339,0.63-2.687,0.984-4.018L672.576,456.402z"/>
				<path fill="#010101" d="M677.385,441.234l-1.396,3.889l12.021,4.3c0.443-1.307,0.888-2.614,1.372-3.897L677.385,441.234z"/>
				<path fill="#010101" d="M669.276,471.958l-0.605,4.082l12.643,1.88c0.178-1.372,0.364-2.735,0.582-4.09L669.276,471.958z"/>
				<path fill="#010101" d="M683.654,426.623l-1.759,3.735l11.537,5.462c0.573-1.259,1.145-2.518,1.751-3.752L683.654,426.623z"/>
				<path fill="#010101" d="M700.338,399.579l-2.459,3.324l10.262,7.616c0.814-1.122,1.63-2.235,2.461-3.324L700.338,399.579z"/>
				<path fill="#010101" d="M691.334,412.689l-2.121,3.55l10.956,6.567c0.694-1.194,1.388-2.388,2.114-3.558L691.334,412.689z"/>
				<path fill="#010101" d="M710.585,387.412l-2.774,3.058l9.479,8.592c0.911-1.033,1.832-2.049,2.775-3.058L710.585,387.412z"/>
				<path fill="#010101" d="M747.739,357.713l-3.542,2.121l6.56,10.941c1.169-0.718,2.355-1.412,3.55-2.106L747.739,357.713z"/>
				<path fill="#010101" d="M982.57,445.124l-1.388-3.889l-11.989,4.284c0.476,1.291,0.919,2.598,1.371,3.905L982.57,445.124z"/>
				<path fill="#010101" d="M976.673,430.358l-1.76-3.735l-11.521,5.446c0.605,1.234,1.179,2.493,1.751,3.744L976.673,430.358z"/>
				<path fill="#010101" d="M969.354,416.239l-2.122-3.55l-10.948,6.56c0.727,1.169,1.429,2.364,2.122,3.55L969.354,416.239z"/>
				<path fill="#010101" d="M989.904,476.04l-0.613-4.082l-12.61,1.872c0.218,1.355,0.396,2.719,0.581,4.09L989.904,476.04z"/>
				<path fill="#010101" d="M991.251,491.894l-0.201-4.13l-12.756,0.629c0.081,1.372,0.138,2.751,0.186,4.131L991.251,491.894z"/>
				<path fill="#010101" d="M986.991,460.412l-1.008-4.01l-12.345,3.09c0.347,1.331,0.662,2.67,0.977,4.018L986.991,460.412z"/>
				<path fill="#010101" d="M960.682,402.903l-2.445-3.324l-10.271,7.616c0.839,1.089,1.654,2.203,2.461,3.316L960.682,402.903z"/>
				<path fill="#010101" d="M927.489,368.839l-3.324-2.461l-7.608,10.271c1.113,0.799,2.227,1.613,3.316,2.453L927.489,368.839z"/>
				<path fill="#010101" d="M885.825,345.893l-3.889-1.396l-4.301,12.005c1.308,0.452,2.614,0.896,3.905,1.372L885.825,345.893z"/>
				<path fill="#010101" d="M900.444,352.162l-3.734-1.767l-5.455,11.538c1.25,0.573,2.51,1.138,3.743,1.743L900.444,352.162z"/>
				<path fill="#010101" d="M870.673,341.068l-4.01-1l-3.106,12.385c1.349,0.314,2.688,0.629,4.019,0.984L870.673,341.068z"/>
				<path fill="#010101" d="M914.378,359.834l-3.55-2.121l-6.567,10.948c1.194,0.694,2.381,1.396,3.559,2.114L914.378,359.834z"/>
				<path fill="#010101" d="M939.647,379.085l-3.058-2.768l-8.585,9.472c1.033,0.912,2.05,1.832,3.059,2.768L939.647,379.085z"/>
				<path fill="#010101" d="M855.11,337.769l-4.091-0.605l-1.872,12.65c1.364,0.178,2.735,0.363,4.091,0.581L855.11,337.769z"/>
				<path fill="#010101" d="M950.758,390.47l-2.775-3.058l-9.473,8.593c0.937,1,1.855,2.025,2.768,3.058L950.758,390.47z"/>
				<path fill="#010101" d="M761.858,350.387l-3.728,1.759l5.445,11.529c1.235-0.605,2.485-1.17,3.736-1.743L761.858,350.387z"/>
				<path fill="#010101" d="M910.828,637.855l3.55-2.122l-6.559-10.94c-1.171,0.726-2.364,1.421-3.55,2.114L910.828,637.855z"/>
				<path fill="#010101" d="M924.165,629.19l3.324-2.461l-7.608-10.263c-1.098,0.839-2.211,1.653-3.324,2.461L924.165,629.19z"/>
				<path fill="#010101" d="M936.59,619.25l3.058-2.774l-8.576-9.465c-1.008,0.937-2.033,1.855-3.066,2.768L936.59,619.25z"/>
				<path fill="#010101" d="M896.71,645.173l3.734-1.768l-5.446-11.514c-1.233,0.605-2.493,1.179-3.743,1.751L896.71,645.173z"/>
				<path fill="#010101" d="M866.663,655.5l4.01-1.001l-3.098-12.36c-1.331,0.355-2.67,0.662-4.019,0.977L866.663,655.5z"/>
				<path fill="#010101" d="M881.937,651.071l3.889-1.396l-4.284-11.98c-1.291,0.484-2.598,0.928-3.897,1.371L881.937,651.071z"/>
				<path fill="#010101" d="M851.02,658.405l4.091-0.605l-1.872-12.619c-1.355,0.219-2.727,0.396-4.091,0.582L851.02,658.405z"/>
				<path fill="#010101" d="M947.982,608.148l2.775-3.058l-9.472-8.585c-0.912,1.033-1.832,2.058-2.776,3.059L947.982,608.148z"/>
				<path fill="#010101" d="M667.308,503.673l0.21,4.123l12.764-0.621c-0.089-1.372-0.146-2.752-0.193-4.131L667.308,503.673z"/>
				<path fill="#010101" d="M835.173,659.751l4.123-0.201l-0.621-12.756c-1.371,0.08-2.751,0.137-4.131,0.186L835.173,659.751z"/>
				<path fill="#010101" d="M989.291,523.602l0.613-4.083l-12.643-1.871c-0.186,1.362-0.363,2.727-0.581,4.082L989.291,523.602z"/>
				<path fill="#010101" d="M978.294,507.175l12.756,0.621l0.201-4.123l-12.771-0.629
					C978.432,504.423,978.375,505.803,978.294,507.175z"/>
				<path fill="#010101" d="M958.236,595.99l2.445-3.325l-10.255-7.607c-0.807,1.113-1.622,2.227-2.452,3.315L958.236,595.99z"/>
				<path fill="#010101" d="M981.183,554.333l1.388-3.896l-12.006-4.293c-0.443,1.308-0.887,2.614-1.371,3.897L981.183,554.333z"/>
				<path fill="#010101" d="M967.232,582.878l2.122-3.55l-10.948-6.567c-0.693,1.193-1.389,2.388-2.114,3.559L967.232,582.878z"/>
				<path fill="#010101" d="M974.913,568.945l1.76-3.736l-11.53-5.453c-0.572,1.25-1.146,2.51-1.751,3.743L974.913,568.945z"/>
				<path fill="#010101" d="M985.983,539.166l1.008-4.011l-12.376-3.098c-0.314,1.34-0.621,2.687-0.977,4.01L985.983,539.166z"/>
				<path fill="#010101" d="M689.213,579.329l2.121,3.55l10.949-6.559c-0.727-1.171-1.428-2.365-2.121-3.559L689.213,579.329z"/>
				<path fill="#010101" d="M819.263,659.55l4.132,0.201l0.629-12.771c-1.38-0.049-2.76-0.105-4.131-0.186L819.263,659.55z"/>
				<path fill="#010101" d="M697.879,592.665l2.459,3.325l10.264-7.617c-0.84-1.089-1.654-2.202-2.461-3.324L697.879,592.665z"/>
				<path fill="#010101" d="M707.811,605.09l2.774,3.058l9.473-8.584c-0.936-1.009-1.856-2.025-2.768-3.059L707.811,605.09z"/>
				<path fill="#010101" d="M718.911,616.475l3.059,2.774l8.592-9.472c-1.032-0.912-2.058-1.831-3.065-2.776L718.911,616.475z"/>
				<path fill="#010101" d="M668.671,519.519l0.605,4.083l12.619-1.872c-0.218-1.355-0.404-2.72-0.582-4.082L668.671,519.519z"/>
				<path fill="#010101" d="M671.568,535.155l1.008,4.011l12.352-3.099c-0.346-1.323-0.66-2.67-0.976-4.01L671.568,535.155z"/>
				<path fill="#010101" d="M675.989,550.437l1.396,3.896l11.989-4.292c-0.476-1.291-0.92-2.598-1.372-3.905L675.989,550.437z"/>
				<path fill="#010101" d="M681.896,565.208l1.759,3.736l11.521-5.454c-0.604-1.234-1.178-2.485-1.751-3.735L681.896,565.208z"/>
				<path fill="#010101" d="M787.902,654.5l4.002,1.001l3.105-12.385c-1.347-0.314-2.686-0.63-4.018-0.977L787.902,654.5z"/>
				<path fill="#010101" d="M803.457,657.799l4.091,0.605l1.872-12.643c-1.363-0.187-2.734-0.363-4.09-0.582L803.457,657.799z"/>
				<path fill="#010101" d="M772.734,649.674l3.896,1.396l4.293-12.006c-1.308-0.452-2.615-0.896-3.905-1.371L772.734,649.674z"/>
				<path fill="#010101" d="M731.087,626.729l3.315,2.461l7.608-10.263c-1.113-0.808-2.228-1.622-3.316-2.461L731.087,626.729z"/>
				<path fill="#010101" d="M758.131,643.406l3.728,1.768l5.454-11.53c-1.251-0.572-2.501-1.146-3.736-1.751L758.131,643.406z"/>
				<path fill="#010101" d="M744.197,635.733l3.542,2.122l6.559-10.948c-1.186-0.693-2.38-1.389-3.55-2.114L744.197,635.733z"/>
			</g>
		</g>
		<g>
			<path fill="none" d="M653.632,206.988c-9.613,33.455-29.689,62.459-56.484,83.259c5.474,1.84,9.5,5.124,14.732,7.201
				c13.239-22.446,26.523-44.847,40.018-67.034c-2.537-1.763-3.393-2.929-3.501-5.499c-0.392-9.286,15.426-9.988,14.506,0.5
				c-0.396,4.506-4.256,6.777-11.005,6.003c-9.657,17.471-21.921,39.989-32.515,59.026c-0.884,1.59-5.22,7.491-4.998,8.504
				c0.314,1.484,5.664,3.675,6.995,4.502c2.961,1.823,4.97,3.808,7.503,4.498c15.116-20.569,29.775-41.587,45.024-62.028
				c-0.479-2.82-3.178-4.591-2.005-9c2.017-7.58,14.459-5.104,14.007,2.997c-0.19,3.396-5.749,9.133-11.001,5.502
				c-14.357,21.663-29.231,42.806-43.52,64.533c4.252,3.748,9.104,6.902,13.506,10.5c16.725-20.118,34.233-39.461,51.022-59.522
				c-9.593-10.614,12.289-17.326,12.006-4.502c-0.134,6.003-6.692,7.572-12.006,6.003c-16.196,19.989-32.833,39.53-48.525,60.026
				c2.517,2.485,4.941,5.063,8.008,7.003c20.917-15.6,42.196-30.833,60.022-49.522c-4.038-6.531,0.706-13.522,7.004-12.506
				c10.807,1.747,3.969,20.659-6.504,12.506c-18.843,18.173-34.523,39.505-50.021,61.027c2.581,2.085,5.099,4.24,6.502,7.499
				c20.958-15.559,40.846-32.191,60.531-49.018c-5.856-11.424,16.205-17.253,13.503-1.501c-1.345,3.309-8.738,6.039-11.506,2.001
				c-20.521,16.157-39.264,34.1-59.522,50.522c3.114,4.886,6.435,9.569,10.501,13.502c21.845-14.176,42.982-29.054,64.533-43.52
				c-6.431-11.062,13.042-14.732,13.005-3.498c-0.023,6.761-8.463,8.996-13.51,4.502c-20.488,15.523-41.82,30.207-62.524,45.521
				c3.304,4.696,6.027,9.977,9.501,14.502c22.195-12.824,44.354-25.677,67.533-37.512c-5.09-12.732,16.653-15.366,13.503-1.005
				c-2.021,4.796-10.432,5.006-13.503,1.005c-21.586,14.099-45.052,26.314-66.533,40.514c3.3,3.8,4.853,9.347,7.822,13.478
				c20.691-26.439,49.394-46.279,82.472-55.88c-15.788-28.771-35.503-54.327-57.779-77.148
				C707.813,241.766,682.524,222.334,653.632,206.988z"/>
			<path fill="none" d="M585.367,448.512c30.151,4.175,59.959,8.697,90.109,12.88c3.651-15.926,9.642-30.953,17.605-44.705
				c-9.666-23.636-23.124-43.479-39.188-60.717C631.768,387.529,607.753,417.208,585.367,448.512z M630.888,422.5
				c-6.68-6.907-1.948-18.432,7.003-19.508c3.261-0.392,6.326,0.314,8.5,2C657.635,413.698,642.776,434.796,630.888,422.5z"/>
			<path fill="none" d="M654.395,639.593c15.588-17.556,29.013-37.271,38.688-60.732c-7.959-13.752-13.95-28.771-17.605-44.694
				c-30.018,4.147-59.708,8.626-89.608,12.89C606.946,577.667,631.958,608.676,654.395,639.593z M637.391,566.564
				c16.201-2.48,16.884,22.354,2.001,22.507C625.074,589.224,624.276,568.565,637.391,566.564z"/>
			<path fill="none" d="M546.85,585.073c-3.545,30.272-8.572,60.52-12.654,90.344c15.91,3.646,30.921,9.629,44.665,17.576
				c23.52-9.621,43.439-22.845,60.531-38.893C608.369,631.271,578.026,607.752,546.85,585.073z M568.359,641.094
				c0-2.666,0-5.338,0-8.004c3.861-10.379,20.684-8.83,22.507,1.501C593.339,648.541,573.532,653.572,568.359,641.094z"/>
			<path fill="none" d="M643.394,657.101c-16.971,15.814-36.423,29.15-59.341,39.018c3.05,1.92,6.03,3.938,8.939,6.047
				c22.22-10.266,41.277-23.699,57.904-39.562C648.154,661.006,645.867,658.961,643.394,657.101z"/>
			<path fill="none" d="M663.402,650.598c15.16-16.6,28.57-35.697,38.82-57.667c-2.117-2.912-4.135-5.901-6.06-8.96
				c-9.911,22.887-23.2,42.395-38.763,59.625C659.643,645.689,660.635,649.029,663.402,650.598z"/>
			<path fill="none" d="M765.444,651.599c8.431-11.783,19.336,9.669,6.503,11.005c-5.845,0.608-9.081-4.087-7.5-10.505
				c-22.727-12.622-45.455-25.241-68.034-38.018c-2.077,5.45-7.479,10.159-8.499,15.012c20.416,15.092,43.414,30.279,62.023,45.517
				c-21.675-14.337-42.874-29.159-64.529-43.52c-2.916,5.083-7.204,8.798-10,14.01c19.997,16.516,39.102,33.927,59.022,50.519
				c9.501-9.456,17.951,10.764,6.003,12.006c-5.93,0.613-10.363-5.592-6.503-11.506c-20.65-16.027-40.175-33.188-61.028-49.021
				c-2.086,2.916-4.59,5.409-7.002,8.004c16.342,20.513,30.384,43.317,50.521,60.026c6.222-3.893,11.961,0.952,12.006,5.503
				c0.121,12.573-20.864,6.526-13.006-4.002c-16.846-20.332-39.787-34.576-60.522-51.022c-1.735,3.433-5.858,4.481-7.508,8.003
				c16.476,19.714,32.034,40.333,49.021,59.527c4.627-2.099,11.699,0.124,11.51,6.502c-0.367,12.32-21.26,5.817-12.506-6.002
				c-17.266-19.251-33.668-39.364-51.022-58.526c-3.921,3.751-8.407,6.935-13.006,10.004c14.159,22.188,28.973,43.726,44.02,65.029
				c4.554-3.743,9.509,1.937,10,3.502c2.658,8.351-11.21,14.168-13.506,5.003c-0.964-3.878,0.371-5.854,2.505-8.505
				c-15.781-20.573-30.384-42.313-46.024-63.028c-4.236,3.43-8.896,6.442-13.998,9.004c12.058,23.285,25.681,45.012,37.513,68.527
				c5.62-2.275,11.138,0.996,11.005,6.503c-0.343,13.925-23.422,3.166-11.005-6.503c-13.877-21.639-26.713-44.314-40.018-66.526
				c-5.055,2.234-9.452,5.124-14.571,7.302c26.705,20.788,46.719,49.731,56.315,83.106c28.48-15.382,54.146-34.734,76.305-56.893
				c23.381-23.382,43.116-48.938,58.668-78.063c-33.343-9.585-62.263-29.565-83.046-56.227c-2.247,4.877-5.03,9.213-7.137,14.235
				C720.453,625.228,742.894,638.467,765.444,651.599z M756.44,686.115c-5.97,0.101-9.326-6.632-5.998-11.505
				C758.953,662.144,770.83,685.869,756.44,686.115z"/>
			<path fill="none" d="M501.334,473.022c-18.662-2.15-31.313,12.228-27.512,33.015c5.374,11.44,17.233,20.339,32.51,15.507
				c8.46-2.675,16.358-12.001,16.512-23.51C523.009,485.032,513.17,474.39,501.334,473.022z"/>
			<path fill="none" d="M547.851,412.996c0.804,10.533,2.555,20.125,4.006,30.013c22.365-21.615,44.392-44.218,66.526-66.53
				c22.163-22.345,45.399-43.951,66.025-66.526C639.424,344.836,593.113,378.387,547.851,412.996z"/>
			<path fill="none" d="M492.33,458.516c-17.456,1.9-31.579,14.93-34.015,32.014c-3.841,26.887,14.845,44.731,33.515,47.021
				c28.57,3.506,46.186-18.576,46.016-40.018C537.665,474.427,519.14,455.595,492.33,458.516z M527.842,504.037
				c-2.557,13.595-15.265,23.749-28.509,24.511c-14.155,0.815-25.713-8.725-30.013-19.009c-7.818-18.665,5.373-38.38,22.51-41.518
				C515.066,463.769,531.719,483.455,527.842,504.037z"/>
			<path fill="none" d="M684.408,683.614c-33.523-45.674-68.043-90.359-101.537-136.058c-10.529,1.146-20.646,2.698-30.515,4.499
				c44.085,43.95,88.104,87.97,132.052,132.059C685.582,685.118,685.582,683.892,684.408,683.614z"/>
			<path fill="none" d="M312.249,684.114c45.593-33.777,90.952-67.784,136.062-102.042c-2.364-9.146-2.163-20.852-5.003-29.513
				C400.034,596.486,354.595,640.924,312.249,684.114z"/>
			<path fill="none" d="M310.249,311.454c34.878,44.992,68.393,91.343,103.046,136.558c10.049-1.122,19.335-3.01,29.514-4.002
				C400.414,400.365,353.893,353.849,310.249,311.454z"/>
			<path fill="none" d="M657.4,352.468c15.784,16.843,28.928,36.323,38.743,59.132c1.924-3.054,3.94-6.043,6.055-8.956
				c-10.202-22.123-23.47-41.179-39.296-57.675C660.93,347.33,658.885,349.621,657.4,352.468z"/>
			<path fill="none" d="M530.347,465.52c6.556,8.447,12.449,17.561,13.003,32.014c42.547-0.117,85.259-0.068,127.984-0.008
				c0.017-11.461,1.238-22.64,3.518-33.431c-41.401-5.958-82.836-11.884-124.496-17.584
				C543.854,451.021,537.165,459.67,530.347,465.52z"/>
			<path fill="none" d="M448.81,410.499c3.567-30.272,8.625-60.511,12.7-90.359c-15.915-3.643-30.925-9.621-44.669-17.564
				c-23.527,9.629-43.455,22.853-60.571,38.893C387.299,364.296,417.639,387.812,448.81,410.499z M415.295,343.468
				c16.668-1.698,15.096,24.145-0.5,22.511C401.676,364.599,401.688,344.848,415.295,343.468z"/>
			<path fill="none" d="M345.264,332.96c2.13,1.875,4.397,3.606,7.003,5.006c17.266-15.366,36.617-28.646,59.381-38.518
				c-3.038-1.908-6.006-3.917-8.903-6.019c-11.819,5.619-22.78,12.094-32.97,19.024C361.045,318.389,352.186,324.622,345.264,332.96
				z"/>
			<path fill="none" d="M230.713,343.969c-4.216,5.849-13.591,2.299-13.502-4.006c0.141-10.183,18.706-8.605,13.502,3.505
				c23.256,12.26,45.787,25.246,68.531,38.013c2.589-5.409,6.446-9.561,9.004-15.002c-21.288-14.563-41.89-29.804-62.524-45.021
				c-2.824,1.113-3.361,2.538-6.503,2.497c-8.912-0.104-10.009-16.261,2.997-14.002c3.187,1.678,6.1,6.58,3.506,11.001
				c21.763,14.257,42.862,29.167,64.525,43.52c3.211-4.962,7.002-9.331,10.504-14.002c-20.662-16.019-39.329-34.04-59.527-50.522
				c-4.986,4.772-12.538,0.379-12.506-5.006c0.065-10.832,19.953-8.189,13.506,5.006c20.889,15.628,39.744,33.289,61.027,48.518
				c1.363-3.634,4.841-5.164,6.503-8.503c-16.576-20.268-30.828-42.871-50.522-60.023c-11.114,8.201-16.306-12.97-4.002-12.506
				c5.511,0.209,8.931,7.136,5.002,12.005c17.266,19.416,39.259,34.104,60.026,50.022c2.905-2.267,6.108-4.236,8.004-7.503
				c-16.031-20.15-32.68-39.683-48.522-60.031c-1.629,1.207-4.59,1.082-7.503,1.005c-2.739-2.324-4.542-4.155-4.502-7.003
				c0.205-13.03,22.127-4.345,12.505,5.999c17.274,19.243,33.733,39.304,51.023,58.526c3.84-4.163,9.415-6.592,13.005-11
				c-14.902-21.114-28.876-43.161-44.02-64.033c-5.954,3.57-10.101-1.912-10.505-4.498c-1.594-10.266,14.506-11.332,14.506-1.504
				c0,2.497-3.102,4.207-3.001,6.002c0.064,1.077,4.405,5.285,6.002,7.507c13.054,18.169,27.408,39.119,40.018,55.021
				c4.752-2.748,8.895-6.111,14.006-8.5c-12.106-23.079-25.286-45.081-37.517-68.03c-8.246,1.255-11.078-3.018-11.005-7.003
				c0.162-8.637,14.741-9.689,14.506,0.5c-0.064,3.034-1.452,4.047-3.501,6.003c14.131,21.55,26.48,44.883,40.519,66.53
				c4.486-2.63,9.347-4.897,13.929-7.435c-26.54-20.703-46.452-49.47-56.073-82.634c-35.758,19.412-67.006,44.811-91.917,73.562
				c-16.12,18.609-30.594,38.771-42.769,61.144c33.196,9.634,61.983,29.578,82.687,56.158c2.614-4.679,4.732-9.843,7.604-14.26
				C275.378,370.67,253.013,357.35,230.713,343.969z"/>
			<path fill="none" d="M639.392,340.968c-17.419-15.572-37.186-28.787-60.547-38.409c-13.736,7.943-28.739,13.917-44.638,17.568
				c4.313,30.021,8.827,59.85,12.643,90.372C577.941,387.561,608.991,364.587,639.392,340.968z M568.359,350.472
				c5.301-12.126,24.354-7.511,22.507,6.002c-1.489,10.92-18.585,12.651-22.507,1.997
				C568.359,355.805,568.359,353.138,568.359,350.472z"/>
			<path fill="none" d="M650.896,332.463c-16.898-15.438-35.874-28.799-57.944-39.062c-2.909,2.114-5.891,4.127-8.94,6.047
				c22.83,9.972,42.221,23.377,59.882,38.518C646.354,336.256,648.791,334.525,650.896,332.463z"/>
			<path fill="none" d="M465.318,465.52c8.552-6.455,17.088-12.921,32.014-13.006c-0.117-42.632-0.068-85.438-0.008-128.251
				c-11.364-0.037-22.445-1.247-33.144-3.506c-5.999,41.708-11.989,83.429-17.871,125.254
				C452.618,452.538,459.558,458.436,465.318,465.52z"/>
			<path fill="none" d="M332.258,344.469c-15.023,17.302-28.465,36.182-38.8,58.175c2.102,2.893,4.103,5.858,6.011,8.892
				c9.843-22.78,23.184-42.06,38.792-59.067C336.671,349.39,334.412,346.982,332.258,344.469z"/>
			<path fill="none" d="M445.309,549.053c3.55-0.799,7.157-6.665,10.004-9.504c3.655-3.647,6.923-6.438,10.005-9.506
				c-6.701-8.305-12.28-17.729-13.006-32.009c-42.547,0.117-85.264,0.068-127.989,0.008c-0.017,11.514-1.255,22.736-3.554,33.568
				c34.007,4.925,68.018,9.79,102.03,14.441C430.076,547.048,440.597,550.122,445.309,549.053z"/>
			<path fill="none" d="M343.763,765.15c7.35,4.583,1.694,14.426-5.502,13.006c-9.109-1.804-5.249-18.326,5.002-13.51
				c12.711-22.801,25.665-45.363,38.017-68.527c-5.204-2.634-9.722-5.954-14.506-9.004c-14.854,21.329-29.973,42.39-45.521,63.028
				c1.726,2.359,2.993,3.707,3.001,6.003c0.044,9.306-17.096,9.605-14.506-2.001c0.77-3.441,6.18-6.869,11.005-4.002
				c14.41-21.437,28.86-42.838,43.52-64.028c-3.735-4.434-9.178-7.164-13.506-11.005c-16.472,20.211-34.387,38.98-50.523,59.526
				c4.316,4.676,0.742,11.654-4.502,12.006c-11.606,0.771-9.291-19.206,4.001-13.506c16.137-20.215,33.306-39.397,48.522-60.528
				c-2.888-1.944-5.01-4.658-8.004-6.502c-20.819,15.866-42.712,30.655-60.026,50.021c0.762,1.574,1.67,2.998,2.001,5.003
				c-1.497,4.95-4.18,7.257-8,7.003c-8.339-0.561-9.081-14.445,0.496-14.507c2.993-0.02,2.057,1.311,5.502,1.501
				c18.714-17.968,34.072-39.296,49.522-60.523c-3.4-1.327-4.792-7.137-8.003-7.007C301.97,664,281.332,679.539,262.227,696.62
				c5.68,12.743-13.942,14.381-13.506,3.502c0.234-5.794,8.363-9.279,13.01-4.503c19.15-17.532,39.824-33.539,58.522-51.523
				c-3.97-3.864-6.592-9.076-10.505-13.005c-21.114,14.736-42.527,29.17-64.024,43.52c2.88,6.135-1.417,11.904-7.008,11.505
				c-12.441-0.893-3.453-22.611,6.503-11.505c20.63-15.548,41.628-30.74,63.029-45.517c-2.873-5.302-6.083-10.259-9.504-15.012
				c-22.147,13.37-45.625,25.407-68.03,38.519c4.752,11.844-13.926,13.029-13.502,2.501c0.262-6.604,9.314-8.928,14.001-4.002
				c22.292-13.225,44.883-26.149,66.53-40.019c-3.385-3.728-4.66-9.564-7.762-13.574c-20.751,26.548-49.574,46.448-82.795,56.028
				c2.106,3.897,4.26,7.762,6.523,11.57c30.235,50.902,74.102,94.075,128.368,123.265c9.633-33.369,29.678-62.298,56.416-83.061
				c-5.43-1.868-9.464-5.14-14.712-7.189C370.598,720.618,357.281,742.983,343.763,765.15z"/>
			<path fill="none" d="M344.764,662.604c16.657,15.834,35.702,29.278,57.909,39.558c2.917-2.118,5.91-4.139,8.968-6.063
				c-22.809-9.984-42.185-23.394-59.874-38.493C349.448,659.285,347.217,661.055,344.764,662.604z"/>
			<path fill="none" d="M435.805,595.078c-22.793,17.104-46.747,34.402-69.031,51.019c-3.526,2.631-7.73,5.151-10.004,9.005
				c17.366,15.277,36.956,28.331,60.055,37.876c13.728-7.936,28.719-13.91,44.605-17.557c-4.24-30.247-8.496-60.479-13.119-90.348
				C444.014,587.953,440.081,591.867,435.805,595.078z M416.796,648.597c-15.144,0.525-14.999-20.009-3.001-22.506
				C430.496,622.614,431.831,648.078,416.796,648.597z"/>
			<path fill="none" d="M549.352,551.058c-0.602-3.889-6.588-7.592-9.501-10.505c-3.759-3.756-6.47-7.197-10.004-10.004
				c0.154-1.017-1.448,0.101-1.505,0.5c-7.208,6.797-16.414,11.594-30.009,12.005c0.117,42.628,0.063,85.421,0.004,128.227
				c11.372,0.036,22.462,1.251,33.168,3.514c5.474-37.754,10.961-75.331,16.346-112.231
				C548.416,558.694,549.678,553.131,549.352,551.058z"/>
			<path fill="none" d="M410.793,547.056c-30.433-4.074-60.317-8.693-90.609-12.909c-3.651,15.923-9.642,30.941-17.597,44.693
				c9.564,23.41,22.836,43.112,38.674,60.253C364.801,608.777,387.307,577.428,410.793,547.056z M354.768,566.564
				c16.742-2.544,16.262,21.825,2.501,22.507C343.553,589.756,340.117,568.788,354.768,566.564z"/>
			<path fill="none" d="M338.261,643.095c-15.781-16.854-28.937-36.335-38.743-59.159c-1.912,3.041-3.921,6.018-6.027,8.919
				c10.295,22.208,23.656,41.353,39.268,58.244C334.267,648.106,336.841,646.177,338.261,643.095z"/>
			<path fill="none" d="M341.262,356.474c-15.797,17.166-29.098,36.84-38.679,60.229c7.951,13.736,13.934,28.734,17.588,44.641
				c30.489-4.163,60.826-8.476,90.622-13.333C386.92,418.196,364.91,386.516,341.262,356.474z M345.765,408.994
				c5.486-10.177,22.751-6.732,22.51,5.503C367.976,430.003,340.173,429.023,345.765,408.994z"/>
			<path fill="none" d="M305.246,223.415c-3.615-3.058-4.76-8.58-9.004-11.005c-15.366,11.808-30.763,23.591-44.016,37.517
				c3.615,3.384,7.12,6.882,10.501,10.504C275.329,246.522,291.288,235.969,305.246,223.415z"/>
			<path fill="none" d="M732.434,735.636c-12.792,13.386-27.577,24.782-42.519,36.017c3.743,3.09,5.324,8.347,9,11.501
				c15.914-11.594,31.574-23.441,44.52-38.013C739.211,742.527,737.307,737.601,732.434,735.636z"/>
			<path fill="none" d="M770.951,690.116c-10.295,15.887-22.898,29.461-35.52,43.021c3.961,3.037,6.441,7.563,11.005,10.004
				c13.194-13.986,25.81-28.549,37.021-44.52C779.27,695.8,775.489,692.578,770.951,690.116z"/>
			<path fill="none" d="M260.226,732.635c-13.441-12.569-24.406-27.613-36.016-42.02c-4.309,2.191-7.963,5.044-11.505,8.005
				c6.752,10.447,17.314,24.03,27.016,34.516c1.238,1.339,9.024,10.568,10.5,10.504c1.085-0.048,4.591-5.091,5.006-5.503
				C257.245,736.117,259.484,734.975,260.226,732.635z"/>
			<path fill="none" d="M224.71,305.452c10.294-16.052,23.341-29.356,35.516-43.524c-3.88-2.949-6.806-6.861-10.505-10.004
				c-13.409,14.104-26.132,28.896-37.517,45.024C216.392,299.768,220.2,302.962,224.71,305.452z"/>
			<path fill="none" d="M733.435,260.431c2.957-4.042,7.454-6.547,10-11.009c-14.2-13.143-28.403-26.282-45.021-37.013
				c-2.912,3.921-5.341,8.327-8.499,12.005C705.816,235.021,719.811,247.542,733.435,260.431z"/>
			<path fill="none" d="M261.73,735.636c-2.497,4.176-7.193,6.148-9.504,10.506c14.229,13.114,28.379,26.31,45.016,37.012
				c2.643-4.025,5.656-7.681,8.004-12.005C289.626,760.429,276.293,747.417,261.73,735.636z"/>
			<path fill="none" d="M735.432,261.928c12.195,14.156,25.281,27.412,35.52,43.524c4.425-2.739,8.879-5.458,12.506-9.004
				c-11.813-15.544-24.039-30.651-37.518-44.524C742.148,254.973,739.724,259.383,735.432,261.928z"/>
			<path d="M414.795,365.979c15.596,1.634,17.169-24.208,0.5-22.511C401.688,344.848,401.676,364.599,414.795,365.979z"/>
			<path d="M590.866,356.474c1.848-13.514-17.206-18.129-22.507-6.002c0,2.667,0,5.333,0,8
				C572.281,369.125,589.377,367.395,590.866,356.474z"/>
			<path d="M345.765,408.994c-5.592,20.03,22.211,21.01,22.51,5.503C368.516,402.261,351.25,398.816,345.765,408.994z"/>
			<path d="M646.391,404.992c-2.174-1.687-5.239-2.392-8.5-2c-8.951,1.077-13.683,12.602-7.003,19.508
				C642.776,434.796,657.635,413.698,646.391,404.992z"/>
			<path d="M491.83,468.021c-17.137,3.138-30.328,22.853-22.51,41.518c4.3,10.284,15.858,19.824,30.013,19.009
				c13.244-0.762,25.952-10.916,28.509-24.511C531.719,483.455,515.066,463.769,491.83,468.021z M506.332,521.544
				c-15.277,4.832-27.137-4.066-32.51-15.507c-3.8-20.787,8.851-35.165,27.512-33.015c11.836,1.368,21.675,12.01,21.51,25.012
				C522.69,509.543,514.792,518.87,506.332,521.544z"/>
			<path d="M357.269,589.071c13.761-0.682,14.241-25.051-2.501-22.507C340.117,568.788,343.553,589.756,357.269,589.071z"/>
			<path d="M639.392,589.071c14.883-0.153,14.2-24.987-2.001-22.507C624.276,568.565,625.074,589.224,639.392,589.071z"/>
			<path d="M413.795,626.091c-11.998,2.497-12.143,23.031,3.001,22.506C431.831,648.078,430.496,622.614,413.795,626.091z"/>
			<path d="M590.866,634.591c-1.823-10.331-18.646-11.88-22.507-1.501c0,2.666,0,5.338,0,8.004
				C573.532,653.572,593.339,648.541,590.866,634.591z"/>
			<path d="M750.442,674.61c-3.328,4.873,0.028,11.605,5.998,11.505C770.83,685.869,758.953,662.144,750.442,674.61z"/>
			<path d="M250.221,280.941c24.91-28.751,56.158-54.149,91.917-73.562c-2.352-8.097-4.079-16.451-5.148-25.016
				c-33.474,17.298-62.33,39.223-88.769,63.557c-15.33-15.124-31.502-32.083-47.018-47.517c-0.593-0.589-5.417-6.592-7.507-4.502
				c-1.839,1.843,3.913,5.406,5.002,6.503c16.402,16.398,32.377,33.015,48.025,48.521c-25.072,25.757-47.207,54.452-64.504,87.983
				c8.641,1.065,17.068,2.804,25.233,5.176C219.627,319.712,234.101,299.55,250.221,280.941z M296.242,212.41
				c4.244,2.425,5.39,7.947,9.004,11.005c-13.958,12.554-29.917,23.107-42.519,37.017c-3.381-3.623-6.886-7.12-10.501-10.504
				C265.479,236.001,280.876,224.217,296.242,212.41z M249.721,251.923c3.699,3.143,6.625,7.056,10.505,10.004
				c-12.175,14.168-25.221,27.472-35.516,43.524c-4.51-2.489-8.318-5.684-12.506-8.504
				C223.588,280.819,236.312,266.027,249.721,251.923z"/>
			<path d="M777.95,342.964c3.15-14.361-18.593-11.727-13.503,1.005C767.519,347.971,775.93,347.761,777.95,342.964z"/>
			<path d="M764.447,343.969c-23.179,11.835-45.338,24.688-67.533,37.512c-3.474-4.526-6.197-9.807-9.501-14.502
				c20.704-15.313,42.036-29.997,62.524-45.521c5.047,4.494,13.486,2.259,13.51-4.502c0.037-11.234-19.436-7.564-13.005,3.498
				c-21.551,14.466-42.688,29.344-64.533,43.52c-4.066-3.934-7.387-8.617-10.501-13.502c20.259-16.422,39.002-34.366,59.522-50.522
				c2.768,4.038,10.161,1.307,11.506-2.001c2.702-15.752-19.359-9.923-13.503,1.501c-19.686,16.827-39.573,33.459-60.531,49.018
				c-1.403-3.259-3.921-5.414-6.502-7.499c15.498-21.522,31.179-42.854,50.021-61.027c10.473,8.153,17.311-10.759,6.504-12.506
				c-6.298-1.017-11.042,5.975-7.004,12.506c-17.826,18.689-39.105,33.922-60.022,49.522c-3.066-1.94-5.491-4.518-8.008-7.003
				c15.692-20.497,32.329-40.038,48.525-60.026c5.313,1.569,11.872,0,12.006-6.003c0.283-12.824-21.599-6.112-12.006,4.502
				c-16.789,20.062-34.298,39.405-51.022,59.522c-4.401-3.598-9.254-6.753-13.506-10.5c14.288-21.727,29.162-42.87,43.52-64.533
				c5.252,3.631,10.811-2.106,11.001-5.502c0.452-8.101-11.99-10.577-14.007-2.997c-1.173,4.409,1.525,6.18,2.005,9
				c-15.249,20.44-29.908,41.458-45.024,62.028c-2.533-0.69-4.542-2.675-7.503-4.498c-1.331-0.827-6.681-3.018-6.995-4.502
				c-0.222-1.013,4.114-6.914,4.998-8.504c10.594-19.037,22.857-41.555,32.515-59.026c6.749,0.774,10.609-1.497,11.005-6.003
				c0.92-10.489-14.897-9.786-14.506-0.5c0.108,2.57,0.964,3.736,3.501,5.499c-13.494,22.187-26.778,44.588-40.018,67.034
				c-5.232-2.078-9.259-5.361-14.732-7.201c-1.384,1.073-2.779,2.126-4.195,3.155c22.07,10.263,41.046,23.623,57.944,39.062
				c-2.105,2.062-4.542,3.792-7.003,5.503c-17.661-15.14-37.052-28.545-59.882-38.518c-1.697,1.069-3.424,2.102-5.167,3.11
				c23.361,9.622,43.128,22.837,60.547,38.409c-30.4,23.62-61.45,46.593-92.542,69.531c-3.815-30.522-8.329-60.35-12.643-90.372
				c-11.698,2.683-23.865,4.147-36.379,4.147c-0.169,0-0.334-0.012-0.504-0.012c-0.061,42.813-0.109,85.619,0.008,128.251
				c-14.926,0.084-23.462,6.551-32.014,13.006c-5.76-7.084-12.7-12.982-19.008-19.509c5.881-41.825,11.872-83.545,17.871-125.254
				c-0.896-0.19-1.779-0.416-2.67-0.617c-4.075,29.848-9.133,60.087-12.7,90.359c-31.171-22.688-61.511-46.203-92.541-69.031
				c17.116-16.04,37.044-29.263,60.571-38.893c-1.751-1.013-3.485-2.049-5.192-3.126c-22.764,9.871-42.116,23.151-59.381,38.518
				c-2.606-1.4-4.873-3.131-7.003-5.006c6.922-8.338,15.781-14.571,24.511-20.505c10.19-6.93,21.151-13.405,32.97-19.024
				c-1.533-1.109-3.041-2.251-4.534-3.417c-4.583,2.538-9.443,4.805-13.929,7.435c-14.039-21.647-26.387-44.98-40.519-66.53
				c2.049-1.956,3.437-2.969,3.501-6.003c0.234-10.189-14.345-9.137-14.506-0.5c-0.073,3.986,2.759,8.258,11.005,7.003
				c12.231,22.95,25.411,44.952,37.517,68.03c-5.111,2.389-9.254,5.752-14.006,8.5c-12.61-15.902-26.964-36.852-40.018-55.021
				c-1.597-2.222-5.938-6.43-6.002-7.507c-0.101-1.795,3.001-3.505,3.001-6.002c0-9.827-16.1-8.762-14.506,1.504
				c0.404,2.586,4.551,8.068,10.505,4.498c15.144,20.873,29.118,42.919,44.02,64.033c-3.59,4.409-9.166,6.837-13.005,11
				c-17.291-19.222-33.75-39.283-51.023-58.526c9.622-10.343-12.3-19.028-12.505-5.999c-0.041,2.849,1.763,4.68,4.502,7.003
				c2.913,0.077,5.874,0.202,7.503-1.005c15.842,20.348,32.491,39.881,48.522,60.031c-1.896,3.268-5.099,5.236-8.004,7.503
				c-20.767-15.918-42.761-30.606-60.026-50.022c3.929-4.869,0.508-11.796-5.002-12.005c-12.304-0.464-7.112,20.707,4.002,12.506
				c19.694,17.152,33.947,39.755,50.522,60.023c-1.662,3.34-5.14,4.869-6.503,8.503c-21.284-15.229-40.139-32.89-61.027-48.518
				c6.446-13.195-13.441-15.838-13.506-5.006c-0.032,5.386,7.52,9.778,12.506,5.006c20.198,16.483,38.865,34.503,59.527,50.522
				c-3.502,4.672-7.293,9.041-10.504,14.002c-21.663-14.353-42.762-29.263-64.525-43.52c2.594-4.421-0.319-9.323-3.506-11.001
				c-13.006-2.259-11.909,13.897-2.997,14.002c3.142,0.041,3.679-1.384,6.503-2.497c20.634,15.217,41.236,30.458,62.524,45.021
				c-2.558,5.442-6.415,9.593-9.004,15.002c-22.744-12.768-45.275-25.753-68.531-38.013c5.204-12.11-13.361-13.688-13.502-3.505
				c-0.089,6.305,9.286,9.855,13.502,4.006c22.3,13.38,44.665,26.701,67.03,40.014c-2.872,4.417-4.99,9.581-7.604,14.26
				c1.129,1.449,2.238,2.913,3.32,4.401c10.335-21.993,23.776-40.873,38.8-58.175c2.154,2.514,4.413,4.921,6.002,8
				c-15.608,17.008-28.948,36.287-38.792,59.067c1.073,1.698,2.105,3.425,3.114,5.167c9.581-23.389,22.881-43.063,38.679-60.229
				c23.648,30.042,45.658,61.722,69.531,91.538c-29.796,4.857-60.132,9.169-90.622,13.333c2.691,11.715,4.16,23.894,4.16,36.427
				c0,0.089-0.008,0.178-0.008,0.271c42.725,0.061,85.441,0.109,127.989-0.008c0.726,14.281,6.305,23.705,13.006,32.009
				c-3.082,3.067-6.35,5.858-10.005,9.506c-2.848,2.839-6.454,8.705-10.004,9.504c-4.712,1.068-15.232-2.005-22.51-3.002
				c-34.012-4.651-68.022-9.517-102.03-14.441c-0.182,0.851-0.391,1.689-0.584,2.537c30.292,4.216,60.176,8.835,90.609,12.909
				c-23.487,30.372-45.993,61.721-69.531,92.037c-15.838-17.141-29.11-36.843-38.674-60.253c-0.997,1.718-2.014,3.417-3.07,5.096
				c9.807,22.824,22.962,42.306,38.743,59.159c-1.42,3.082-3.994,5.011-5.502,8.004c-15.612-16.892-28.973-36.036-39.268-58.244
				c-1.142,1.573-2.316,3.122-3.51,4.651c3.102,4.01,4.377,9.847,7.762,13.574c-21.647,13.869-44.238,26.794-66.53,40.019
				c-4.688-4.926-13.74-2.603-14.001,4.002c-0.424,10.528,18.254,9.343,13.502-2.501c22.405-13.111,45.883-25.148,68.03-38.519
				c3.421,4.753,6.632,9.71,9.504,15.012c-21.401,14.776-42.398,29.969-63.029,45.517c-9.956-11.106-18.944,10.612-6.503,11.505
				c5.591,0.399,9.888-5.37,7.008-11.505c21.497-14.35,42.91-28.783,64.024-43.52c3.913,3.929,6.535,9.141,10.505,13.005
				c-18.698,17.984-39.373,33.991-58.522,51.523c-4.647-4.776-12.776-1.291-13.01,4.503c-0.436,10.879,19.187,9.241,13.506-3.502
				c19.105-17.081,39.744-32.619,59.527-49.022c3.211-0.13,4.603,5.68,8.003,7.007c-15.45,21.228-30.808,42.556-49.522,60.523
				c-3.445-0.19-2.509-1.521-5.502-1.501c-9.577,0.062-8.835,13.946-0.496,14.507c3.82,0.254,6.502-2.053,8-7.003
				c-0.331-2.005-1.239-3.429-2.001-5.003c17.314-19.366,39.207-34.155,60.026-50.021c2.994,1.844,5.116,4.558,8.004,6.502
				c-15.216,21.131-32.385,40.313-48.522,60.528c-13.292-5.7-15.607,14.276-4.001,13.506c5.244-0.352,8.818-7.33,4.502-12.006
				c16.136-20.546,34.051-39.315,50.523-59.526c4.328,3.841,9.771,6.571,13.506,11.005c-14.66,21.19-29.11,42.592-43.52,64.028
				c-4.825-2.867-10.235,0.561-11.005,4.002c-2.59,11.606,14.551,11.307,14.506,2.001c-0.008-2.296-1.275-3.644-3.001-6.003
				c15.547-20.639,30.667-41.699,45.521-63.028c4.784,3.05,9.302,6.37,14.506,9.004c-12.352,23.164-25.305,45.727-38.017,68.527
				c-10.251-4.816-14.111,11.706-5.002,13.51c7.197,1.42,12.853-8.423,5.502-13.006c13.518-22.167,26.834-44.532,40.018-67.03
				c5.248,2.05,9.282,5.321,14.712,7.189c1.376-1.069,2.768-2.122,4.18-3.147c-22.208-10.279-41.252-23.724-57.909-39.558
				c2.453-1.549,4.684-3.319,7.003-4.998c17.689,15.1,37.065,28.509,59.874,38.493c1.707-1.073,3.437-2.11,5.184-3.122
				c-23.099-9.545-42.688-22.599-60.055-37.876c2.274-3.854,6.478-6.374,10.004-9.005c22.284-16.616,46.238-33.914,69.031-51.019
				c4.276-3.211,8.209-7.125,12.506-10.005c4.623,29.868,8.878,60.101,13.119,90.348c11.707-2.683,23.877-4.151,36.399-4.151
				c0.17,0,0.34,0.012,0.509,0.012c0.06-42.806,0.113-85.599-0.004-128.227c13.595-0.411,22.801-5.208,30.009-12.005
				c0.057-0.399,1.659-1.517,1.505-0.5c3.534,2.807,6.245,6.248,10.004,10.004c2.913,2.913,8.899,6.616,9.501,10.505
				c0.326,2.073-0.936,7.636-1.501,11.505c-5.385,36.9-10.872,74.478-16.346,112.231c0.903,0.189,1.791,0.416,2.69,0.622
				c4.082-29.824,9.109-60.071,12.654-90.344c31.177,22.68,61.52,46.198,92.542,69.027c-17.092,16.048-37.012,29.271-60.531,38.893
				c1.751,1.012,3.482,2.053,5.192,3.126c22.918-9.867,42.37-23.203,59.341-39.018c2.474,1.86,4.761,3.905,7.503,5.503
				c-16.627,15.862-35.685,29.296-57.904,39.562c1.461,1.061,2.893,2.15,4.316,3.256c5.119-2.178,9.517-5.067,14.571-7.302
				c13.305,22.212,26.141,44.888,40.018,66.526c-11.832-23.516-25.455-45.242-37.513-68.527c5.103-2.562,9.762-5.574,13.998-9.004
				c15.641,20.715,30.243,42.455,46.024,63.028c-2.134,2.65-3.469,4.627-2.505,8.505c2.296,9.165,16.164,3.348,13.506-5.003
				c-0.491-1.565-5.446-7.245-10-3.502c-15.047-21.304-29.86-42.842-44.02-65.029c4.599-3.069,9.085-6.253,13.006-10.004
				c17.354,19.162,33.757,39.275,51.022,58.526c-8.754,11.819,12.139,18.322,12.506,6.002c0.189-6.378-6.883-8.601-11.51-6.502
				c-16.987-19.194-32.546-39.813-49.021-59.527c1.649-3.521,5.772-4.57,7.508-8.003c20.735,16.446,43.677,30.69,60.522,51.022
				c-7.858,10.528,13.127,16.575,13.006,4.002c-0.045-4.551-5.784-9.396-12.006-5.503c-20.138-16.709-34.18-39.514-50.521-60.026
				c2.412-2.595,4.916-5.088,7.002-8.004c20.854,15.833,40.378,32.994,61.028,49.021c-3.86,5.914,0.573,12.119,6.503,11.506
				c11.948-1.242,3.498-21.462-6.003-12.006c-19.921-16.592-39.025-34.003-59.022-50.519c2.796-5.212,7.084-8.927,10-14.01
				c21.655,14.36,42.854,29.183,64.529,43.52c-18.609-15.237-41.607-30.425-62.023-45.517c1.02-4.853,6.422-9.562,8.499-15.012
				c22.579,12.776,45.308,25.396,68.034,38.018c-1.581,6.418,1.655,11.113,7.5,10.505c12.833-1.336,1.928-22.788-6.503-11.005
				c-22.551-13.132-44.991-26.371-67.03-40.019c2.106-5.022,4.89-9.358,7.137-14.235c-1.134-1.453-2.243-2.921-3.328-4.414
				c-10.25,21.97-23.66,41.067-38.82,57.667c-2.768-1.569-3.76-4.909-6.002-7.002c15.563-17.23,28.852-36.738,38.763-59.625
				c-1.061-1.682-2.081-3.388-3.081-5.11c-9.675,23.462-23.1,43.177-38.688,60.732c-22.437-30.917-47.448-61.927-68.526-92.537
				c29.9-4.264,59.591-8.742,89.608-12.89c-2.688-11.706-4.151-23.877-4.151-36.395c0-0.081,0.009-0.161,0.009-0.246
				c-42.726-0.061-85.438-0.109-127.984,0.008c-0.554-14.454-6.447-23.567-13.003-32.014c6.818-5.849,13.507-14.499,20.009-19.009
				c41.66,5.7,83.095,11.626,124.496,17.584c0.189-0.908,0.416-1.803,0.625-2.703c-30.15-4.183-59.958-8.705-90.109-12.88
				c22.386-31.305,46.4-60.983,68.527-92.542c16.063,17.237,29.521,37.081,39.188,60.717c0.991-1.715,2.008-3.413,3.062-5.087
				c-9.815-22.809-22.959-42.289-38.743-59.132c1.484-2.848,3.529-5.139,5.502-7.499c15.826,16.496,29.094,35.552,39.296,57.675
				c1.15-1.585,2.336-3.142,3.538-4.683c-2.97-4.131-4.522-9.678-7.822-13.478C719.396,370.283,742.861,358.068,764.447,343.969z
				 M413.294,448.012c-34.653-45.214-68.167-91.566-103.046-136.558c43.644,42.395,90.165,88.911,132.56,132.555
				C432.63,445.002,423.343,446.89,413.294,448.012z M312.249,684.114c42.346-43.189,87.785-87.628,131.059-131.555
				c2.84,8.661,2.639,20.367,5.003,29.513C403.201,616.33,357.842,650.336,312.249,684.114z M582.871,547.556
				c33.494,45.698,68.014,90.384,101.537,136.058c1.174,0.278,1.174,1.504,0,0.5c-43.947-44.089-87.967-88.108-132.052-132.059
				C562.225,550.254,572.342,548.702,582.871,547.556z M537.846,497.534c0.17,21.441-17.446,43.523-46.016,40.018
				c-18.669-2.29-37.355-20.134-33.515-47.021c2.437-17.084,16.56-30.114,34.015-32.014
				C519.14,455.595,537.665,474.427,537.846,497.534z M618.383,376.479c-22.135,22.312-44.161,44.915-66.526,66.53
				c-1.451-9.888-3.202-19.48-4.006-30.013c45.263-34.609,91.573-68.16,136.558-103.042
				C663.782,332.528,640.546,354.135,618.383,376.479z"/>
			<path d="M730.429,264.933c22.276,22.821,41.991,48.377,57.779,77.148c8.126-2.356,16.509-4.091,25.104-5.156
				c-17.254-33.539-39.179-62.403-63.876-88.5c15.491-15.58,32.128-31.95,47.521-47.021c2.05-2.005,5.249-4.716,5.007-8.003
				c-3.304-0.133-5.059,3.55-7.003,5.502c-16.02,16.015-32.285,32.381-48.525,47.521c-25.476-25.177-54.238-47.065-87.754-64.206
				c-1.048,8.479-2.747,16.75-5.051,24.769C682.524,222.334,707.813,241.766,730.429,264.933z M783.457,296.448
				c-3.627,3.546-8.081,6.265-12.506,9.004c-10.238-16.112-23.324-29.368-35.52-43.524c4.292-2.545,6.717-6.955,10.508-10.004
				C759.418,265.796,771.645,280.904,783.457,296.448z M743.435,249.422c-2.546,4.461-7.043,6.967-10,11.009
				c-13.624-12.889-27.618-25.411-43.52-36.016c3.158-3.679,5.587-8.084,8.499-12.005
				C715.031,223.14,729.234,236.279,743.435,249.422z"/>
			<path d="M729.929,731.635c-22.159,22.158-47.824,41.511-76.305,56.893c2.308,8.031,4.011,16.313,5.059,24.801
				c33.544-17.27,62.335-39.296,88.254-64.187c15.345,15.54,32.801,32.217,48.025,47.518c1.831,1.844,3.651,6.249,7.003,5.002
				c0.254-3.174-3.062-5.539-5.007-7.499c-13.747-13.897-26.459-26.311-40.518-40.518c-1.621-1.643-7.063-5.511-7.004-7.003
				c0,0.032,5.737-6.516,8.009-9.005c3.283-3.61,6.28-5.906,8.499-8.504c18.105-21.206,34.133-44.507,47.385-70.511
				c-8.464-1.054-16.726-2.748-24.732-5.051C773.045,682.698,753.31,708.253,729.929,731.635z M698.915,783.154
				c-3.676-3.154-5.257-8.411-9-11.501c14.941-11.234,29.727-22.631,42.519-36.017c4.873,1.965,6.777,6.891,11.001,9.505
				C730.489,759.712,714.829,771.56,698.915,783.154z M746.437,743.14c-4.563-2.44-7.044-6.967-11.005-10.004
				c12.621-13.56,25.225-27.134,35.52-43.021c4.538,2.462,8.318,5.685,12.506,8.505C772.246,714.591,759.631,729.154,746.437,743.14
				z"/>
			<path d="M213.709,665.105c-2.263-3.809-4.417-7.673-6.523-11.57c-8.063,2.324-16.378,4.038-24.902,5.092
				c17.366,33.62,39.534,62.435,64.44,88.515c-15.539,15.354-32.752,32.249-48.025,47.521c-1.727,1.728-5.906,4.333-4.502,7.499
				c2.993-0.378,4.986-3.348,7.007-5.502c13.292-14.171,25.959-27.04,40.515-40.514c1.513-1.404,6.063-7.015,7.002-7.004
				c0.694,0.009,6.136,6.266,8.504,8.505c3.501,3.308,6.951,5.833,9.504,8.003c21.219,18.017,44.411,34.116,70.274,47.453
				c1.057-8.468,2.763-16.726,5.075-24.733C287.811,759.18,243.944,716.007,213.709,665.105z M250.221,743.64
				c-1.476,0.064-9.262-9.165-10.5-10.504c-9.702-10.485-20.264-24.068-27.016-34.516c3.542-2.961,7.197-5.813,11.505-8.005
				c11.61,14.406,22.575,29.45,36.016,42.02c-0.742,2.34-2.981,3.481-4.998,5.502C254.812,738.549,251.306,743.592,250.221,743.64z
				 M252.226,746.142c2.312-4.357,7.007-6.33,9.504-10.506c14.563,11.78,27.896,24.793,43.516,35.513
				c-2.348,4.324-5.361,7.979-8.004,12.005C280.605,772.452,266.455,759.256,252.226,746.142z"/>
			<path d="M662.902,771.149c0.133-5.507-5.385-8.778-11.005-6.503C639.48,774.315,662.56,785.074,662.902,771.149z"/>
		</g>
	</g>
</g>
</svg>
