<?xml version="1.0" encoding="utf-8"?>
<!-- Generator: Adobe Illustrator 13.0.0, SVG Export Plug-In . SVG Version: 6.00 Build 14948)  -->
<!DOCTYPE svg PUBLIC "-//W3C//DTD SVG 1.1//EN" "http://www.w3.org/Graphics/SVG/1.1/DTD/svg11.dtd">
<svg version="1.1" id="Layer_1" xmlns="http://www.w3.org/2000/svg" xmlns:xlink="http://www.w3.org/1999/xlink" x="0px" y="0px"
	 width="771.798px" height="990.788px" viewBox="0 0 771.798 990.788" enable-background="new 0 0 771.798 990.788"
	 xml:space="preserve">
<path fill="#FFFFFF" d="M0,540.744c26.345,14.881,49.949,42.229,71.044,82.064c21.037,39.991,35.647,77.974,43.696,113.872
	c8.009,35.976,21.056,70.466,39.295,103.468c18.297,33.158,27.445,54.234,27.445,63.402c0,14.822-2.238,24.704-6.871,29.877
	c-4.67,5.21-9.187,8.839-13.703,11.155C83.358,914.957,40.897,879.252,33.37,837.66c-7.373-41.688-16.83-113.293-28.12-214.852
	L0,540.744z M422.617,17.071c3.358,13.751,5.288,27.444,5.288,41.109c0,14.813-2.007,32.501-6.176,53.037
	c-3.782,20.525-5.771,33.129-5.771,37.645c13.298,2.268,28.584,1.457,45.954-2.567c17.293-3.87,36.015-8.782,55.971-14.553
	c33.62,0,50.335,23.904,50.335,71.922c-19.416,9.168-44.776,19.648-76.178,31.575c-31.402,11.976-60.815,22.08-88.145,30.061
	c-4.517,17.071-12.256,40.974-23.064,71.845c-10.808,30.822-20.362,55.787-28.275,75.251c42.19-11.744,85.018-24.164,128.424-37.104
	c46.707-9.458,92.873-14.244,138.595-14.244c54.678,0,93.857,7.72,117.25,23.228c23.275,15.392,34.972,47.189,34.972,95.208
	c0,102.928-20.748,213.885-62.379,332.852c-41.669,119.005-86.522,178.45-134.329,178.45c-26.287,0-51.455-4.517-75.252-13.703
	c-24.106-9.148-80.617-36.517-169.476-82.142l34.162,5.075c-3.281-21.559-5.674-50.644-6.833-87.218
	c-1.081-36.478-1.698-56.435-1.698-59.869L254.551,788.83c-9.052,0-17.062-6.292-24.318-18.837
	c-7.45-12.468-11.079-23.334-11.079-32.502c0-5.636,14.282-19.647,42.924-41.92c28.835-22.215,58.364-53.867,88.858-94.881
	c-26.325,1.043-43.425,1.681-51.493,1.681c-7.99,0-18.798-2.259-32.463-6.833c17.177-7.854,34.239-16.231,51.338-25.187
	c-14.822-6.698-29.163-15.691-42.672-26.904c-13.839-11.117-25.148-22.891-34.296-35.271c-27.33,8.02-52.594,14.852-75.156,20.584
	c-22.852,5.771-37.828,8.511-44.583,8.511c-4.632,0-9.418-1.12-14.668-3.357c-5.018-2.277-9.458-4.055-12.815-5.153
	c16.058-13.693,37.867-26.558,65.891-38.485c28.005-11.985,47.71-20.265,59.136-24.839c-10.287-7.98-18.335-15.382-23.971-22.225
	c34.509-12.497,61.143-35.647,79.941-69.297c19.069-33.698,28.487-63.063,28.487-88.164c-22.871,2.316-42.827,4.343-60.082,5.974
	c-17.1,1.824-36.574,2.625-58.306,2.625c-41.167,0-79.054-12.545-113.292-37.722c33.466-4.526,71.662-11.358,114.431-20.4
	c42.827-9.226,90.73-24.579,143.999-46.253c0-50.248-3.011-79.874-9.032-88.974c-15.865-10.316-32.174-25.119-49.216-44.506
	c0-14.813,4.787-27.938,14.031-39.42C295.506,5.799,312.452,0,336.866,0C359.004,0,387.587,5.799,422.617,17.071z M280.645,484.272
	l51.435,34.239c0,5.713,0,12.545,0,20.535c0,8.028-1.718,16.579-5.25,25.592c12.526-3.319,31.652-21.076,57.379-52.959
	c25.708-31.933,37.249-55.344,35.011-70.157c-3.262-3.397-8.415-5.144-15.324-5.144c-14.804,0-31.595,4.005-50.451,11.976
	C334.628,456.335,310.367,468.311,280.645,484.272z M350.936,658.861l1.622,27.292l-35.03,13.741L350.936,658.861z M489.551,423.438
	c4.478,2.529,8.53,5.278,11.735,8.29c3.551,3.146,5.307,6.967,5.307,11.542c0,11.561-11.851,30.012-35.126,55.295
	c-23.393,25.41-35.648,38.668-36.69,39.865c11.329,0,23.392,0.309,35.899,0.888c12.545,0.618,18.875,3.667,18.875,9.535
	c0,9.225-6.021,18.122-18.084,26.788c-11.947,8.588-21.887,15.247-29.935,19.898v47.864c18.238-3.436,29.144-5.153,32.637-5.153
	c20.361,0,34.181,9.747,40.936,29.067c-34.123,9.147-55.585,17.756-64.115,25.746c-8.686,8.028-15.171,14.243-19.764,18.76
	c-4.459,37.712-7.99,71.334-10.268,100.979c-2.239,29.741-7.393,61.047-15.402,94.07c15.903,0,32.231,0.616,48.811,1.813
	c16.579,1.119,33.409,2.277,50.471,3.339c25.091,0,47.439-6.215,66.778-18.837c19.319-12.604,39.913-70.041,61.626-172.525
	c21.674-102.542,32.482-175.459,32.482-219.038c0-33.177-9.148-56.28-27.329-69.452c-18.354-13.124-41.688-19.773-70.176-19.773
	c-13.703,0-28.988,1.506-45.413,4.651C506.342,420.118,495.148,422.241,489.551,423.438z"/>
</svg>
