<?xml version="1.0" encoding="utf-8"?>
<!-- Generator: Adobe Illustrator 13.0.0, SVG Export Plug-In . SVG Version: 6.00 Build 14948)  -->
<!DOCTYPE svg PUBLIC "-//W3C//DTD SVG 1.1//EN" "http://www.w3.org/Graphics/SVG/1.1/DTD/svg11.dtd">
<svg version="1.1" id="Layer_1" xmlns="http://www.w3.org/2000/svg" xmlns:xlink="http://www.w3.org/1999/xlink" x="0px" y="0px"
	 width="984.674px" height="982.717px" viewBox="0 0 984.674 982.717" enable-background="new 0 0 984.674 982.717"
	 xml:space="preserve">
<path fill="#FFFFFF" d="M694.036,268.743c0,8.042,0.836,23.75,2.918,47.139c2.081,23.423,3.099,43.068,3.099,59.139
	c40.014-8.063,74.87-11.965,104.275-11.965c65.349,0,111.831,19.34,139.292,58.166c27.415,38.77,41.054,94.798,41.054,168.437
	c-73.399,120.347-130.333,212.193-170.348,275.663c-40.013,63.55-72.97,95.251-98.236,95.251c-18.842,0-36.191-13.978-52.093-42.139
	c-16.195-28.025-33.545-42.063-52.365-42.063c-26.622,0-80.457,8.382-161.344,25.008c-80.774,16.93-131.985,26.554-153.428,29.2
	c-9.433-14.702-14.002-28.682-14.002-42.082c0-10.722,1.877-22.146,6.017-34.201c15.902,0,32.663-2.285,50.193-6.978
	c17.168-4.628,26.624-9.705,28.071-15.065c-52.184-65.484-78.264-154.401-78.264-266.708c-8.098,1.391-33.25,4.774-75.141,10.078
	c-42.209,5.36-72.542,8.007-91.361,8.007c-2.624,10.653-2.375,29.416,1.018,56.029c3.37,26.859,6.356,50.192,8.957,70.346
	c18.819,16.026,35.445,39.415,50.306,70.076c14.566,30.909,40.037,95.046,76.092,192.561c-22.8,6.785-40.76,10.076-54.151,10.076
	c-53.428,0-93.555-30.151-120.359-90.319C57.612,832.252,29.541,743.38,0,625.713l82.358,26.104
	c6.763-17.418,11.197-31.193,13.21-41.111c2.081-10.09,3.845-18.401,5.179-25.098c14.861-18.673,40.127-35.444,75.754-50.157
	c47.636-16.105,83.149-28.071,106.356-36.112V437.27c16.015-2.737,30.017-0.306,42.208,6.91c11.944,7.34,22.1,18.457,30.017,33.104
	c32.097-17.293,65.167-31.057,99.278-41.111c33.997-10.021,67.858-16.354,101.222-19.057c1.358-3.958,1.9-12,1.9-24.067
	c0-20.063-3.234-46.71-9.998-80.152c-6.627-33.466-13.21-60.903-19.973-82.245c13.346-8.019,27.347-12.068,42.027-12.068
	c16.083,0,33.432,3.687,52.251,11.061C640.495,236.985,664.607,250.07,694.036,268.743z M623.688,0
	c56.21,18.751,90.32,31.113,102.377,37.063c12.056,6.118,22.121,23.75,30.038,53.257c-30.581,12-87.221,40.749-169.329,86.214
	c-82.223,45.432-136.804,68.187-163.585,68.187l24.112-34.144c-14.68,0-29.541,0.306-44.108,1.041
	c-14.726,0.667-28.862,0.938-42.072,0.938c-48.248,0-86.927-3.223-116.333-9.986c-29.473-6.695-59.445-22.076-90.207-46.132
	c25.289-12.068,98.734-36.485,220.474-73.186C496.749,46.563,579.717,18.751,623.688,0z M381.094,545.47
	c25.47,34.834,41.054,71.568,47.252,110.326c5.858,38.747,11.469,74.192,16.942,106.347c37.458-12.057,63.833-41.473,79.236-88.251
	c15.359-46.777,22.959-106.379,22.959-178.513c-36.055,3.959-69.125,9.985-99.141,18.027
	C418.19,521.47,395.843,532.135,381.094,545.47z M694.036,451.249c-29.111,90.909-62.136,171.151-98.44,240.638
	c-36.463,69.589-81.905,119.679-136.351,150.407c46.778-10.722,97.988-22.619,153.587-36.088
	c55.304-13.301,93.554-32.368,114.273-57.16c20.584-24.724,43.113-62.215,67.248-112.307c23.977-50.158,35.852-89.9,35.852-119.316
	c0-4.017,0-8.009,0-12.059c-2.601-5.303-11.128-13.311-25.266-23.964c-14.251-10.755-25.877-18.458-34.721-23.174
	c-8.822-4.569-20.584-6.978-35.626-6.978H694.036z"/>
</svg>
