<?xml version="1.0" encoding="utf-8"?>
<!-- Generator: Adobe Illustrator 13.0.0, SVG Export Plug-In . SVG Version: 6.00 Build 14948)  -->
<!DOCTYPE svg PUBLIC "-//W3C//DTD SVG 1.1//EN" "http://www.w3.org/Graphics/SVG/1.1/DTD/svg11.dtd">
<svg version="1.1" id="Layer_1" xmlns="http://www.w3.org/2000/svg" xmlns:xlink="http://www.w3.org/1999/xlink" x="0px" y="0px"
	 width="390.501px" height="569.353px" viewBox="0 0 390.501 569.353" enable-background="new 0 0 390.501 569.353"
	 xml:space="preserve">
<g>
	<path fill="#343466" d="M0,0v569.353h390.501v-42.648V0H0z M109.951,17.346l3.512,23.134l67.302-14.11
		c1.357,7.097,6.07,14.175,10.782,14.175c0.323-7.078,1.677-14.175,3.676-14.175c2.023,0,3.382,7.097,3.728,14.175
		c4.711,0,9.396-7.078,10.754-14.175l67.33,14.11l3.514-23.134v0.119l16.186,25.344l-16.186,25.385v-0.185l-3.514-23.148
		l-67.33,14.123c-1.357-5.673-6.043-12.766-10.754-12.766c-0.346,7.093-1.705,14.189-3.728,14.189
		c-1.999,0-3.353-7.097-3.676-14.189c-4.712,0-9.425,7.093-10.782,12.766l-67.302-14.098l-3.512,23.203V17.346z M109.951,17.303
		v50.759L93.736,42.689L109.951,17.303z M280.548,552.021l-3.514-23.133l-67.303,14.107c-1.359-7.094-6.07-14.189-10.781-14.189
		c-0.32,7.096-1.678,14.189-3.702,14.189c-1.995,0-3.353-7.094-3.702-14.189c-4.712,0-9.425,7.096-10.752,14.189l-67.358-14.121
		l-3.485,23.146v-0.105l-16.215-25.359l16.215-25.383v0.145l3.512,23.178l67.332-14.111c1.327,5.67,6.04,12.766,10.752,12.766
		c0.35-7.096,1.707-14.189,3.702-14.189c2.024,0,3.381,7.094,3.702,14.189c4.711,0,9.422-7.096,10.781-12.766l67.275,14.096
		l3.541-23.201V552.021z M280.548,552.06v-50.754l16.213,25.371L280.548,552.06z M363.398,554.738
		c-6.709-16.666-24.865-37.686-32.879-44.848l-0.293,0.281c13.018,19.141,20.607,35.514,19.699,42.822
		c-4.629-1.16-9.9-1.746-13.416-2.344c0-22.787-10.809-39.453-15.494-44.125l-0.293,0.291c4.367,12.566,6.441,31.576,4.686,42.078
		c-4.951-1.438-11.102-1.742-14.322-2.039c8.76-27.473,3.514-43.262-0.293-52.896c-3.516,1.758-8.494,1.465-12.006-2.037
		c-2.184-2.197-3.275-5.059-3.303-7.867H95.335c0.078,2.953-0.987,5.949-3.276,8.229c-3.486,3.498-8.464,3.791-11.979,2.049
		c-3.783,9.65-9.053,25.438-0.293,52.912c-3.222,0.279-9.345,0.584-14.324,2.049c-2.049-10.822,0.293-29.523,4.688-42.092
		l-0.293-0.305c-4.688,4.686-15.496,21.338-15.496,44.143c-3.516,0.584-8.761,1.17-13.441,2.326
		c-0.883-7.293,6.708-23.668,19.727-42.805l-0.293-0.297c-8.041,7.176-26.171,28.207-32.879,44.873
		c-3.811,0.295-11.103,1.156-16.641,2.623c1.438-5.551,2.609-12.555,2.9-16.373c16.669-6.711,37.701-24.84,44.859-32.893
		l-0.293-0.279c-19.141,13.004-35.514,20.607-42.808,19.727c1.146-4.656,1.729-9.943,2.342-13.43
		c22.788,0,39.457-10.822,44.113-15.494l-0.265-0.307c-12.593,4.391-31.604,6.441-42.118,4.686
		c1.467-4.965,1.76-11.113,2.051-14.322c27.475,8.771,43.261,3.512,52.898-0.293c-1.729-3.502-1.436-8.48,2.051-11.994
		c2.422-2.424,5.646-3.463,8.733-3.248V96.122c-3.222,0.357-6.603-0.651-9.107-3.168c-3.487-3.515-3.806-8.494-2.046-11.994
		c-9.64-3.809-25.427-9.051-52.904-0.294c-0.263-3.22-0.584-9.341-2.049-14.321c10.81-2.051,29.526,0.291,42.092,4.671l0.317-0.276
		c-4.711-4.677-21.377-15.495-44.165-15.495c-0.559-3.515-1.17-8.76-2.343-13.446c7.322-0.891,23.695,6.722,42.836,19.727
		l0.293-0.292c-7.162-8.04-28.221-26.173-44.887-32.88c-0.293-3.792-1.143-11.102-2.605-16.666
		c5.536,1.467,12.564,2.637,16.37,2.943c6.709,16.652,24.839,37.685,32.878,44.846l0.293-0.279
		C47.253,40.056,39.666,23.67,40.545,16.372c4.659,1.145,9.93,1.747,13.445,2.346c0,22.787,10.809,39.453,15.495,44.125l0.291-0.291
		c-4.392-12.582-6.444-31.576-4.685-42.092c4.951,1.45,11.1,1.743,14.324,2.049C70.655,49.97,75.9,65.76,79.709,75.408
		c3.511-1.756,8.464-1.449,12.006,2.038c2.182,2.197,3.273,5.058,3.301,7.866h200.15c-0.109-2.952,0.957-5.966,3.271-8.241
		c3.488-3.485,8.469-3.795,11.982-2.034c3.777-9.651,9.051-25.439,0.293-52.913c3.221-0.279,9.344-0.586,14.295-2.039
		c2.078,10.813-0.293,29.513-4.658,42.078l0.264,0.295c4.713-4.673,15.496-21.328,15.496-44.143
		c3.516-0.571,8.785-1.156,13.473-2.328c0.879,7.308-6.736,23.68-19.727,42.821l0.291,0.296
		c8.016-7.161,26.143-28.207,32.883-44.873c3.801-0.295,11.1-1.16,16.637-2.623c-1.439,5.551-2.609,12.552-2.93,16.372
		c-16.666,6.708-37.672,24.84-44.834,32.88l0.293,0.293c19.115-13.006,35.488-20.609,42.811-19.727
		c-1.17,4.656-1.729,9.943-2.344,13.43c-22.814,0-39.453,10.821-44.113,15.495l0.266,0.305c12.564-4.393,31.576-6.441,42.092-4.686
		c-1.463,4.965-1.73,11.101-2.023,14.324c-27.504-8.773-43.262-3.517-52.898,0.293c1.73,3.502,1.438,8.467-2.051,11.979
		c-2.422,2.423-5.645,3.462-8.732,3.249v377.43c3.221-0.357,6.604,0.664,9.105,3.168c3.486,3.514,3.779,8.48,2.049,11.994
		c9.639,3.793,25.426,9.051,52.898,0.277c0.268,3.236,0.586,9.357,2.049,14.336c-10.834,2.053-29.521-0.305-42.09-4.668
		l-0.318,0.275c4.686,4.674,21.352,15.482,44.168,15.482c0.561,3.514,1.145,8.771,2.316,13.445
		c-7.295,0.904-23.666-6.711-42.838-19.727l-0.264,0.305c7.16,8.027,28.191,26.156,44.861,32.881
		c0.291,3.791,1.17,11.102,2.633,16.652C374.207,556.214,367.207,555.042,363.398,554.738z M25.504,314.187
		c7.053-2.73,14.188-12.338,14.188-21.938c-7.136-0.689-14.188-3.432-14.188-7.546c0-4.113,7.053-6.869,14.188-7.533
		c0-9.612-7.136-19.208-14.188-21.95l14.083-137.228l-23.136-7.176h0.16l25.317-16.185l25.372,16.211h-0.188l-23.133,7.162
		L58.117,255.22c-5.699,2.742-12.779,12.338-12.779,21.95c7.08,0.664,14.19,3.42,14.19,7.533c0,4.115-7.11,6.857-14.19,7.546
		c0,9.6,7.08,19.207,12.779,21.938L44.008,451.324l23.185,7.201H16.451l23.136-7.176L25.504,314.187z M67.167,458.525L41.798,474.75
		l-25.374-16.225H67.167z M364.996,255.165c-7.082,2.742-14.191,12.34-14.191,21.949c7.109,0.693,14.191,3.437,14.191,7.537
		c0,4.127-7.082,6.866-14.191,7.545c0,9.6,7.109,19.207,14.191,21.951l-14.109,137.229l23.133,7.174h-0.131l-25.32,16.186
		l-25.369-16.211h0.184l23.111-7.162l-14.111-137.215c5.697-2.744,12.777-12.352,12.777-21.951
		c-7.08-0.68-14.188-3.418-14.188-7.545c0-4.101,7.107-6.844,14.188-7.537c0-9.609-7.08-19.207-12.777-21.949l14.111-137.121
		l-23.189-7.201h50.715l-23.105,7.175L364.996,255.165z M323.304,110.83l25.373-16.212l25.396,16.212H323.304z"/>
</g>
</svg>
