<?xml version="1.0" encoding="utf-8"?>
<!-- Generator: Adobe Illustrator 13.0.0, SVG Export Plug-In . SVG Version: 6.00 Build 14948)  -->
<!DOCTYPE svg PUBLIC "-//W3C//DTD SVG 1.1//EN" "http://www.w3.org/Graphics/SVG/1.1/DTD/svg11.dtd">
<svg version="1.1" id="Layer_1" xmlns="http://www.w3.org/2000/svg" xmlns:xlink="http://www.w3.org/1999/xlink" x="0px" y="0px"
	 width="381.316px" height="592.593px" viewBox="0 0 381.316 592.593" enable-background="new 0 0 381.316 592.593"
	 xml:space="preserve">
<path fill="#981B1E" d="M158.615,0c7.029,0,14.75,0.188,23.215,0.478c8.494,0.322,15.312,1.907,20.583,4.859
	c4.71,5.818,9.21,11.517,13.63,17.041c4.445,5.591,7.48,13.019,9.211,22.374c-5.219,8.772-10.226,17.228-14.858,25.425
	c-0.638,3.515-1.222,11.102-1.808,22.802c-0.506,11.677-0.826,27.172-0.826,46.418c18.77-6.415,38.71-10.662,59.529-12.699
	c20.979-2.023,40.252-3.622,57.877-4.817c20.713,8.743,35.301,17.971,43.607,27.648c8.362,9.624,12.541,24.079,12.541,43.379
	c0,19.861-3.86,41.348-11.397,64.428c-7.639,23.041-16.211,39.736-25.901,49.956c-9.664,10.224-19.94,17.359-31.121,21.473
	c-4.712-8.161-6.686-15.201-6.126-21.058c-13.495,9.359-29.177,15.333-47.306,17.971c-18.158,2.633-35.063,4.537-50.877,5.725
	c-1.145,30.96-1.996,63.694-2.556,98.156c-0.586,34.502-0.852,62.564-0.852,84.142c0,11.7-1.357,25.623-3.995,41.663
	c-2.69,16.041-7.188,28.513-13.63,37.23c-5.829-4.045-10.009-15.811-12.647-35.166c-2.633-19.302-3.991-51.57-3.991-96.775
	L168.2,336.644c-4.633,0-9.371,0-14.268,0c-4.952,0-11.132,0-18.718,0c-9.769,0-18.77,0-26.81,0
	c-3.459,9.357-11.233,14.058-23.398,14.058c-4.049,0-9.398-0.747-16.081-2.224c-6.682-1.449-13.551-8.039-20.766-19.714
	c-7.271-11.698-13.818-29.671-19.94-53.912c-6.097-24.238-12.328-49.223-18.691-74.94C3.219,174.192,0,159.563,0,156.062
	l20.123,0.894c16.909,8.744,28.037,16.198,33.309,22.375c5.351,6.109,9.076,10.65,11.394,13.577
	c15.175-8.783,32.134-18.01,50.848-27.619c18.718-9.65,36.208-16.533,52.527-20.608V53.524c0-16.386-4.633-30.082-14.001-41.183
	L158.615,0z M73.639,209.361c3.512,16.853,7.957,31.348,13.363,43.567c5.402,12.18,9.586,23.601,12.991,34.33
	c3.221,10.77,6.284,18.744,9.373,23.959c8.25-4.446,17.49-8.106,27.605-10.874c10.145-2.796,20.556-5.617,31.229-8.386V184.124
	c-17.037,2.314-34.53,5.376-52.659,9.158C97.676,197.021,83.595,202.413,73.639,209.361z M289.921,169.241
	c-18.904,0-35.089,1.158-48.614,3.434c-13.045,3.475-23.588,6.017-31.867,7.746c0,6.376-0.266,18.464-0.852,36.273
	c-0.506,17.84-0.826,30.514-0.826,38.004c0,14.402,0,23.854,0,28.516c5.323,0,13.683,0,25.265,0c11.634,0,21.271,0,28.941,0
	c8.996,0,16.529,0,22.761,0c6.176,0,11.635,0,16.451,0c4.687-10.545,9.957-28.102,15.574-52.633
	c5.594-24.534,8.414-38.578,8.414-42.077C325.168,175.63,313.455,169.241,289.921,169.241z"/>
</svg>
