<?xml version="1.0" encoding="utf-8"?>
<!-- Generator: Adobe Illustrator 13.0.0, SVG Export Plug-In . SVG Version: 6.00 Build 14948)  -->
<!DOCTYPE svg PUBLIC "-//W3C//DTD SVG 1.1//EN" "http://www.w3.org/Graphics/SVG/1.1/DTD/svg11.dtd">
<svg version="1.1" id="Layer_1" xmlns="http://www.w3.org/2000/svg" xmlns:xlink="http://www.w3.org/1999/xlink" x="0px" y="0px"
	 width="519.917px" height="522.442px" viewBox="0 0 519.917 522.442" enable-background="new 0 0 519.917 522.442"
	 xml:space="preserve">
<path fill="#356734" d="M236.678,0c13.417,5.883,20.18,14.176,20.18,24.823c0,4.727-0.961,10.77-2.904,18.132
	c-1.996,7.402-3.965,13.469-5.83,18.168c6.363,3.529,12.861,7.228,19.225,11.063c6.494,3.82,10.781,7.55,13.096,11.049
	c1.865-1.146,9.586-6.097,23.348-14.884c13.713-8.743,23.164-18.713,28.486-29.801l17.492-2.639
	c11.049,0,18.715,4.477,22.764,13.313c4.18,8.839,5.67,17.559,4.445,26.146c-2.396,0-5.912,0-10.543,0
	c-7.588,0-19.354,4.244-35.432,12.726c-16.137,8.451-25.27,12.699-27.584,12.699c1.65,1.703,5.83,7.268,12.646,16.691
	c6.709,9.411,12.67,15.813,17.941,19.289c18.08-4.116,33.574-10.838,46.51-20.197c12.861-9.355,24.176-18.74,34.078-28.032
	c10.012,1.746,19.035,5.659,27.184,11.796c8.307,6.109,12.299,13.603,12.299,22.377c0,4.672-1.225,8.331-3.861,10.967
	c-2.715,2.701-7.215,6.628-13.631,11.795c-1.17,1.196-5.99,1.035-14.031-0.412c-8.227-1.479-16.078-3.344-23.721-5.725
	c-11.076,2.927-20.631,5.883-28.938,8.771c-8.094,2.93-14.59,5.563-19.303,7.922c21.115,22.787,39.111,40.439,54.018,53.003
	c14.936,12.582,28.246,22.937,40.199,31.164c12.008,8.132,27.395,14.43,46.164,18.81c18.637,4.406,28.223,8.026,28.941,10.953
	c-14.084,12.86-33.705,19.302-58.838,19.302c-14.586,0-25.344-1.357-32.4-3.965c-6.947-2.638-14.988-7.428-23.613-14.456
	c-9.371-14.03-25.211-32.866-47.387-56.519c-22.178-23.697-37.484-41.479-46.113-53.476c-8.41-11.992-18.635-26.142-30.666-42.437
	C268.946,102.218,255.952,87.814,242,75.369c-25.211,40.531-50.343,75.446-75.473,104.864
	c-25.027,29.352-43.794,50.797-56.014,64.307c25.078-11.674,42.808-18.807,52.926-21.483c10.276-2.634,23.906-3.913,40.812-3.913
	c3.486,13.498,0.214,29.71-9.826,48.546c-10.167,18.77-20.844,36.461-32.291,52.886l-65.839,23.827
	c-0.506,1.8-2.82,5.778-6.947,11.927c-3.993,6.137-6.044,11.543-6.044,16.201c5.139-3.501,14.721-7.428,28.486-11.834
	c13.712-4.367,23.481-6.59,29.391-6.59c4.049,0,7.909,1.345,11.368,3.953c3.541,2.609,5.991,6.816,7.401,12.634
	c1.49,5.816,2.184,12.192,2.184,19.167c0,33.691-3.913,59.249-11.768,76.713c-7.905,17.451-17.732,28.807-29.365,33.973
	c-11.66,5.244-20.473,7.879-26.248,7.879c-12.86,0-22.869-6.298-29.792-18.876c-7.083-12.524-11.849-21.469-14.481-26.701
	c-2.638-5.31-4.555-11.716-5.777-19.302c12.271,9.332,21.804,16.08,28.486,20.128c6.813,4.109,11.848,5.882,15.254,5.271
	c10.621,0,18.928-3.729,25.077-11.223c6.179-7.547,11.581-17.383,16.216-29.536c4.633-12.153,7-20.552,7-25.173
	c0-12.126-5.271-18.197-15.734-18.197c-2.979,0-14.482,2.795-34.663,8.32c-20.099,5.563-30.775,8.333-31.92,8.333
	c-5.936,1.772-8.76-0.612-8.76-7.015c0-4.686,1.175-8.453,3.543-11.407l30.669-58.745c8.572-1.73,18.369-4.084,28.911-7.001
	c10.411-2.901,22.098-8.172,34.985-15.761c9.314-14.041,15.224-23.374,17.542-28.061c2.314-4.698,4.953-11.42,7.962-20.193
	c-8.281-1.703-14.962-2.637-20.181-2.637c-4.18,0-9.079,0.641-14.989,1.799c-5.777,1.157-9.904,1.729-12.223,1.729
	c-4.738,0-9.634-1.144-14.906-3.528c-1.143,0.641-13.497,11.608-37.272,32.922C46.06,304.881,22.896,318.487,0,324.302
	c4.126-6.387,9.533-12.404,16.267-17.968c6.766-5.538,12.939-10.612,18.85-15.337c13.366-15.758,29.259-34.462,47.282-56.105
	c18.13-21.604,31.575-38.256,40.335-49.93c-15.762-14.045-24.813-22.499-27.13-25.426c-2.396-2.955-4.445-7.615-6.256-14.057
	c-1.678-6.456-2.69-12.565-3.01-18.386c-0.317-5.813-0.716-10.22-1.302-13.15c4.629,0,9.983,0.161,15.758,0.454
	c5.912,0.254,11.45,2.022,16.668,5.205c5.271,3.246,10.089,7.359,14.456,12.312c4.364,4.991,9.582,9.81,15.306,14.469
	c5.857-9.358,13.897-20.604,24.174-33.758c10.224-13.11,16.215-27.578,17.944-43.392c-6.948,3.458-13.442,6.293-19.22,8.346
	c-5.857,2.034-13.766,3.061-23.723,3.061c-22.203,0-34.155-9.172-35.886-27.487c30.986-4.702,57.477-14.765,79.732-30.124
	C212.479,7.651,227.999,0,236.678,0z M224.458,198.95l11.315-3.434c10.036,4.617,16.77,8.413,20.711,11.338
	c3.779,2.931,5.592,8.202,5.592,15.792c0,9.328-1.678,17.556-5.219,24.504c9.318,0,21.617-3.769,36.846-11.394
	c15.176-7.547,25.85-11.822,31.945-12.7c6.18-0.825,10.943-1.279,14.484-1.279c9.371,0,15.309,2.026,17.941,6.11
	c2.689,4.087,4.289,7.869,4.875,11.385c0.584,3.524,0.902,5.883,0.902,7.039c0,9.358-4.445,14.019-13.258,14.019
	c-6.363,0-14.961,2.341-25.85,7.001c-10.781,4.659-18.77,7.04-24.094,7.04v27.49l-4.365,32.956
	c5.324-0.547,14.59-3.766,28.033-9.607c13.496-5.832,24.947-8.137,34.209-7.045c12.273,1.773,20.5,4.406,24.549,7.909
	c4.045,3.541,6.123,13.472,6.123,29.831c-42.57,0-76.193,5.537-100.768,16.625v6.137c23.268,11.713,48.668,30.67,75.795,56.97
	c27.209,26.308,40.838,49.136,40.838,68.384c0,4.085-2.502,8.037-7.506,11.832c-4.9,3.795-10.438,5.698-16.217,5.698
	c-3.459,0-9.633-1.476-18.393-4.38c-8.813-2.93-20.58-20.564-35.49-53.018c-14.986-32.469-30.615-55.389-47.016-68.834
	c-17.412,46.178-35.539,78.896-54.256,98.199c-18.77,19.246-44.698,28.924-78.058,28.924c28.033-13.473,49.252-27.74,63.575-42.955
	c14.296-15.202,27.077-45.007,38.069-89.439c-13.363,7.629-23.773,13.193-31.042,16.691c-7.347,3.477-16.211,5.271-26.81,5.271
	c-7.533,0-14.293-2.957-20.071-8.77c-5.856-5.887-7.001-10.224-3.463-13.193c12.782,1.197,27.953-2.637,45.579-11.381
	c19.22-11.114,35.568-20.407,49.064-28.06c2.822-9.332,5.088-21.445,6.553-36.368c1.41-14.883,2.182-24.106,2.182-27.623v-11.377
	c-3.143-0.615-5.912-0.868-8.359-0.868c-2.506,0-4.418,0-5.594,0c-4.363,0-7.824,0-10.354,0c-2.424,0-4.232,0-5.459,0
	c-7.397,9.944-14.721,19.875-22.124,29.806c-7.397,8.175-17.809,15.762-31.359,22.801c7.586-16.945,15.416-36.724,23.639-59.196
	C220.33,245.272,224.458,222.35,224.458,198.95z"/>
</svg>
