<?xml version="1.0" encoding="utf-8"?>
<!-- Generator: Adobe Illustrator 13.0.0, SVG Export Plug-In . SVG Version: 6.00 Build 14948)  -->
<!DOCTYPE svg PUBLIC "-//W3C//DTD SVG 1.1//EN" "http://www.w3.org/Graphics/SVG/1.1/DTD/svg11.dtd">
<svg version="1.1" id="Layer_1" xmlns="http://www.w3.org/2000/svg" xmlns:xlink="http://www.w3.org/1999/xlink" x="0px" y="0px"
	 width="486.554px" height="658.443px" viewBox="0 0 486.554 658.443" enable-background="new 0 0 486.554 658.443"
	 xml:space="preserve">
<g>
	<path fill="none" d="M331.214,196.636l3.205-17.518c-10.022-3.183-18.447-7.974-25.076-14.337
		c-6.617-6.337-10.477-14.058-11.502-23.059c-3.22,2.093-6.695,4.088-10.355,5.913c-3.729,1.904-6.682,3.088-8.813,3.607
		l-1.611,20.739c4.314-1.092,8.174-1.904,11.581-2.424c3.407-0.506,6.495-1.051,9.198-1.598l2.37,8.773l-23.149,7.176l-3.913,19.897
		l19.86-6.399l1.612,8.783c-3.729,2.145-7.843,4.113-12.341,5.978c-4.568,1.822-8.359,3.048-11.516,3.595
		c-0.517,3.699-0.904,7.135-1.157,10.315c-0.319,3.222-1.276,6.922-2.823,11.167c3.211-1.063,7.137-2.407,11.889-3.991
		c4.83-1.612,7.975-2.931,9.582-3.954c4.183,7.4,6.883,11.901,8.043,13.539c1.023,1.568,5.721,6.616,14.269,15.107
		c1.61-2.639,2.637-5.564,3.153-8.748c0.571-3.18,1.091-5.84,1.61-7.997c-2.127-3.702-5.083-7.271-8.743-10.743
		c-3.729-3.449-7.148-6.751-10.289-9.931l7.839-8.786c1.093,2.703,3.727,5.725,8.04,9.171c4.181,3.437,7.586,6.498,10.289,9.161
		c0-3.183,1.664-10.358,4.822-21.473l-18.334-17.561l7.148-7.943L331.214,196.636z"/>
	<path fill="none" d="M194.317,278.62l3.916-21.473c-3.664-2.674-6.55-3.993-8.682-3.993c-1.091,6.403-0.957,11.675,0.388,15.945
		C191.296,273.35,192.709,276.528,194.317,278.62z"/>
	<path fill="none" d="M268.331,142.496c10.089,0,18.447-3.314,25.129-9.97c6.63-6.629,9.904-14.976,9.904-25.077
		c0-10.065-3.406-18.582-10.355-25.465c-6.869-6.909-15.175-10.342-24.678-10.342c-10.039,0-18.718,3.299-25.797,9.954
		c-7.258,6.629-10.799,15.241-10.799,25.853c0,10.102,3.541,18.448,10.799,25.077C249.613,139.182,258.292,142.496,268.331,142.496z
		 M265.108,89.932c11.699,0,17.556,5.854,17.556,17.518c0,4.271-1.742,8.105-5.214,11.579c-3.411,3.435-7.455,5.14-12.342,5.14
		c-4.181,0-8.105-1.572-11.9-4.752c-3.73-3.184-5.59-7.176-5.59-11.967C247.618,95.785,253.475,89.932,265.108,89.932z"/>
	<path fill="none" d="M199.911,220.528l-19.941-6.376c5.271,4.791,7.971,10.451,7.971,17.105c0,6.63,3.996,9.944,11.971,9.944
		V220.528z"/>
	<path fill="none" d="M352.364,176.734c-1.865,0.52-4.367,1.346-7.587,2.384l-3.981,20.696l20.699-0.799
		c-1.091-4.219-1.61-7.975-1.61-11.153c0-5.817,0.52-10.608,1.61-14.312C357.251,175.163,354.229,176.189,352.364,176.734z"/>
	<path fill="none" d="M142.549,200.627c4.755-0.559,8.362-1.611,10.743-3.219c2.371-1.546,4.633-3.703,6.75-6.367l4.818,8.773
		l-3.14,3.184l15.106,7.971l4.686-9.568l17.557,4.791l0.842-18.329c-3.795-1.065-7.843-2.224-12.354-3.568
		c-4.569-1.315-8.613-3.288-12.342-5.948l4.754-8.787l19.1,7.176c-1.09-9.586-2.114-16.202-3.207-19.9
		c-4.698,1.61-9.014,2.384-12.738,2.384c-10.023,0-20.967-5.274-32.601-15.949c0,13.817-1.865,23.627-5.59,29.483
		c-3.223,3.729-6.11,7.429-8.744,11.158L142.549,200.627z"/>
	<path fill="none" d="M187.94,148.859c10.039,0,18.465-3.314,25.08-9.931c6.63-6.655,9.904-15.015,9.904-25.116
		c0-10.066-3.41-18.543-10.288-25.453c-6.884-6.881-15.177-10.356-24.696-10.356c-10.088,0-18.766,3.314-25.836,9.956
		c-7.214,6.63-10.809,15.242-10.809,25.854c0,10.102,3.595,18.461,10.809,25.116C169.175,145.545,177.853,148.859,187.94,148.859z
		 M185.573,96.292c11.635,0,17.544,5.86,17.544,17.521c0,4.285-1.796,8.105-5.271,11.581c-3.407,3.433-7.521,5.138-12.272,5.138
		c-4.314,0-8.24-1.573-11.966-4.754c-3.729-3.182-5.595-7.174-5.595-11.965C168.013,102.152,173.873,96.292,185.573,96.292z"/>
	<path fill="none" d="M299.823,281.03c2.902-4.249,4.833-7.431,5.926-9.546c-3.156-3.223-6.695-7.561-10.744-13.15
		c-3.982-5.567-7.52-10.477-10.677-14.725c-7.001,2.156-13.817,3.981-20.765,5.59c-1.09,7.429-2.115,14.856-3.154,22.285
		l17.425-9.586l5.669,11.197c-3.805,2.633-3.992,5.843-0.839,9.543c3.21,3.699,5.847,7.428,7.974,11.13
		C293.848,289.547,296.937,285.302,299.823,281.03z"/>
	<path fill="none" d="M215.856,366.195c1.025-3.18,2.249-6.59,3.541-10.316c1.344-3.729,3.021-6.883,5.136-9.584
		c-1.608-1.027-5.271-4.752-11.128-11.115c-5.842-6.376-10.021-11.17-12.726-14.351c0,8.521,1.931,17.267,5.591,26.304
		C211.476,357.195,214.763,363.585,215.856,366.195z"/>
	<path fill="none" d="M224.533,264.31c-2.114-2.661-3.405-4.367-3.991-5.18c-0.508-0.796-1.027-1.729-1.546-2.756l3.929-8.01
		l-12.725,5.59l-3.93,20.71C212.062,271.484,218.239,268.008,224.533,264.31z"/>
	<path fill="none" d="M206.271,310.514l23.084,24.666l6.311-18.303L210.2,288.202c-9.014,4.248-13.512,10.065-13.512,17.49
		c0,3.21,0.267,5.847,0.771,8.001L206.271,310.514z"/>
	<path fill="none" d="M227.357,290.586c2.967,4.232,7.015,7.961,12.352,11.154c1.025-5.83,2.118-11.674,3.21-17.53
		c-1.664-3.687-7.254-10.092-16.773-19.128c1.091,4.271,1.598,6.922,1.598,8.014c0,4.231-2.184,7.428-6.363,9.543
		C222.419,283.703,224.401,286.338,227.357,290.586z"/>
	<path fill="none" d="M320.92,300.928l-19.939,7.975l-9.569,21.511c5.91-3.728,12.473-8.384,19.993-13.921
		C318.74,310.897,321.947,305.692,320.92,300.928z"/>
	<path fill="none" d="M258.427,352.271c13.563-12.434,21.857-24.787,25.076-37.006c1.092-4.751,0-10.092-3.219-15.945
		c-3.223-5.819-6.631-12.18-10.289-19.091c-0.576,0.545-2.572,1.318-6.045,2.41c-3.41,1.064-6.682,2.09-9.904,3.153l-2.436,14.363
		c3.728,0,6.682-0.546,8.799-1.608c2.064-1.053,4.18-1.865,6.375-2.371l4.752,8.748l-26.232,11.114l-5.595,16.717l17.56-6.335
		l3.141,7.947l-26.291,13.537l-9.585,31.055l11.132,13.539C237.259,378.16,244.915,364.785,258.427,352.271z"/>
	<path fill="none" d="M266.784,169.559l0.773-15.947c-6.883,0-14.923-2.595-23.867-7.932c-9.064-5.311-14.07-10.066-15.174-14.311
		c-1.533,3.698-4.232,7.56-7.975,11.512c-3.66,3.981-7.905,7.843-12.727,11.543l2.385,19.127c6.935-3.725,12.472-6.066,16.783-7.172
		l3.981,9.557l-19.157,8.746v19.902l14.338-5.568c1.091,1.053,1.985,2.542,2.82,4.367c0.842,1.904,1.48,3.607,1.999,5.219
		l-19.992,10.342l0.835,23.055l12.726-6.334c0,5.856,2.319,12.059,6.816,18.688c4.499,6.656,9.905,11.568,16.269,14.748l3.992-19.9
		c-3.154-3.18-6.695-7.041-10.74-11.565c-3.995-4.515-7.271-8.585-9.905-12.354l6.294-9.517c2.131,4.219,4.953,7.813,8.429,10.74
		c3.406,2.929,6.694,5.432,9.904,7.563c-0.521-1.065,0.132-4.512,2.062-10.358c1.796-5.856,2.756-9.036,2.756-9.556
		c-1.598-2.637-4.301-4.913-8.027-6.774c-3.673-1.838-7.336-3.57-11.127-5.152l4.049-10.342c1.021-1.611,3.537-1.104,7.52,1.568
		c4.059,2.677,7.014,5.048,9.132,7.175l2.381-19.94l-19.032-11.899l4.694-8.773L266.784,169.559z"/>
	<path fill="none" d="M141.711,114.197c0-1.824,0-3.023,0-3.568c1.61-8.477,2.384-14.586,2.384-18.289
		c0-3.181-1.293-7.176-3.927-11.967c-1.091,8.494-1.864,14.352-2.371,17.557c-0.519,3.156-1.607,8.201-3.22,15.109l7.972,7.148
		C141.977,118.098,141.711,116.074,141.711,114.197z"/>
	<path fill="none" d="M348.757,295.338c7.975-3.699,15.948-6.629,23.866-8.718c8.027-2.145,15.948-4.235,23.923-6.392l-37.5,1.598
		L348.757,295.338z"/>
	<path fill="none" d="M364.705,207.763l-27.836,3.206l-3.224,18.332l14.352-2.409l0.76,10.354
		c-2.689,1.092-6.098,1.982-10.276,2.799c-4.314,0.77-7.786,1.157-10.424,1.157l-6.363,20.696l10.289-2.341v12.7
		c-3.673-0.481-5.468,0.571-5.468,3.179c0,2.157,2.062,8.773,6.31,19.901l14.334-14.308c0-1.065-0.319-2.798-0.837-5.18
		c-0.521-2.37-3.928-8.612-10.291-18.703l8.747-7.176c1.544,3.729,3.22,7.56,4.752,11.542c1.677,3.992,3.794,7.08,6.376,9.158
		c1.598-2.664,3.141-5.005,4.817-7.162c1.612-2.131,3.982-5.045,7.136-8.747L354.36,230.87l9.572-4.791
		c2.131,3.222,4.057,6.534,5.922,9.97c1.865,3.449,3.795,5.725,5.979,6.791c1.677-1.638,3.219-4.406,4.817-8.402
		c1.545-3.979,2.584-6.454,3.157-7.546c-3.73-2.677-7.455-5.473-11.185-8.399C368.95,215.642,366.313,212.034,364.705,207.763z"/>
	<path fill="none" d="M361.11,313.693c-14.152,7.947-31.443,18.037-52.156,30.255c-20.699,12.223-37.938,24.92-51.686,38.189v29.488
		c4.687-2.158,9.516-3.18,14.268-3.18s9.001,0,12.792,0c4.183-12.25,7.337-21.514,9.52-27.877c2.062-6.361,4.765-13.018,7.905-19.9
		c2.637,1.572,5.219,3.18,7.59,4.752c2.449,1.611,3.606,3.184,3.606,4.795c-2.13,4.764-4.248,10.088-6.362,15.918
		c-2.197,5.844-3.994,12.221-5.606,19.09l18.264,3.223c6.431-21.768,19.743-46.205,39.802-73.268l8.813,14.293
		c-10.088,13.857-16.268,23.125-18.717,27.916c-2.367,4.75-7.773,16.455-16.317,35.01c2.114-1.584,9.316,2.158,21.536,11.154
		c9-17.014,19.927-36.873,33.054-59.703c12.923-22.826,26.356-44.042,40.187-63.694c-1.611-0.546-3.607-0.931-5.991-1.21
		c-2.368-0.266-5.712-0.398-9.957-0.398c-6.31,0-12.856,0.559-19.487,1.608C385.483,301.181,375.19,305.692,361.11,313.693z"/>
	<path fill="none" d="M385.349,143.269c7.521-5.816,11.197-14.311,11.197-25.438c0-4.271-0.773-7.746-2.385-10.381
		c-4.245,4.271-7.467,8.225-9.584,11.967c1.024,2.637,1.544,6.615,1.544,11.953C386.121,136.64,385.868,140.632,385.349,143.269z"/>
	<path fill="none" d="M430.355,212.969c6.63-6.656,9.901-15.014,9.901-25.106c0-10.063-3.406-18.556-10.289-25.466
		c-6.869-6.881-15.105-10.354-24.625-10.354c-10.155,0-18.768,3.341-25.903,9.97c-7.2,6.617-10.742,15.242-10.742,25.851
		c0,10.093,3.542,18.45,10.742,25.106c7.136,6.629,15.748,9.93,25.903,9.93C415.382,222.898,423.74,219.598,430.355,212.969z
		 M386.96,187.862c0-11.673,5.909-17.53,17.557-17.53c11.634,0,17.478,5.857,17.478,17.53c0,11.153-5.844,16.722-17.478,16.722
		C392.869,204.584,386.96,199.016,386.96,187.862z"/>
	<path fill="none" d="M282.664,421.556c-5.856,0.266-14.08,1.703-24.622,4.377c0,14.336,2.752,26.012,8.358,35.037
		c5.59,9.014,14.976,13.539,28.221,13.539c21.216,0,35.3-3.434,42.248-10.385c6.817-6.84,11.128-16.133,12.66-27.832
		c-15.363-10.102-31.562-15.121-48.549-15.121C294.621,421.171,288.511,421.302,282.664,421.556z"/>
	<path fill="none" d="M234.892,425.164v-8.787c-5.271-3.725-12.992-10.34-23.084-19.9c-10.102-9.543-19.486-29.059-28.299-58.502
		c-8.744-29.486-13.378-55.202-13.884-77.233c-0.585-22.016-6.884-34.37-19.102-37.033c-14.334-3.18-27.968,1.479-40.959,13.926
		c-13.06,12.499-19.608,27.195-19.608,44.192c6.432-1.598,11.449-2.368,15.175-2.368c7.974,0,13.245,3.048,15.883,9.132
		c2.7,6.109,4.046,15.521,4.046,28.286c0,4.245-0.254,12.312-0.773,24.278c-0.572,11.93-0.836,21.381-0.836,28.26
		c0,17,0.385,28.674,1.224,35.037c0.772,6.363,2.768,16.332,5.921,29.871c3.211,13.539,9.068,26.143,17.479,37.805
		c8.493,11.674,19.556,19.139,33.055,22.283c13.578,3.18,21.989,5.043,25.143,5.563c3.156,0.547,7.908,0.799,14.271,0.799
		c7.975,0,15.123-0.506,21.551-1.57c6.363-1.066,15.176-3.727,26.238-7.936c-10.56-6.918-18.854-15.826-24.641-26.688
		C237.778,453.703,234.892,440.566,234.892,425.164z M195.862,458.599c-3.153-2.674-6.441-5.988-9.904-9.969
		c-3.473-3.953-5.988-6.748-7.586-8.361c0,4.25,0.318,10.225,0.826,17.945c0.519,7.682,0.771,13.656,0.771,17.879
		c-7.974-6.883-13.686-12.193-17.104-15.922c-3.464-3.725-7.591-9.971-12.342-18.674c-4.751-8.787-7.839-19.395-9.197-31.895
		c-1.28-12.445-1.931-24.281-1.931-35.395l11.9-2.424c0,12.766,0.707,22.189,1.996,28.271c1.345,6.098,2.755,12.596,4.367,19.518
		l6.428,20.695c0.521-1.064,0.773-3.697,0.773-7.971c0-5.273,0-10.609,0-15.922l8.747-8.732l33.437,43.783L195.862,458.599z"/>
	<path fill="none" d="M130.984,173.939c6.682-6.629,9.956-14.992,9.956-25.08c0-10.063-3.41-18.582-10.346-25.49
		c-6.881-6.884-15.119-10.33-24.691-10.33c-10.035,0-18.717,3.314-25.849,9.944c-7.202,6.655-10.743,15.268-10.743,25.876
		c0,10.088,3.541,18.451,10.743,25.08c7.132,6.615,15.813,9.971,25.849,9.971C115.995,183.91,124.42,180.555,130.984,173.939z
		 M93.165,162.396c-3.726-3.179-5.59-7.174-5.59-11.966c0-11.634,5.842-17.478,17.556-17.478c11.634,0,17.547,5.844,17.547,17.478
		c0,4.286-1.799,8.132-5.271,11.581c-3.41,3.434-7.455,5.137-12.276,5.137C100.886,167.148,96.894,165.577,93.165,162.396z"/>
	<path fill="none" d="M105.903,428.343c-2.634-15.398-3.992-34.234-3.992-56.559l-30.215,0.813
		c-4.821,1.051-10.359,2.117-16.656,3.184c-6.494,1.092-13.896,3.697-22.373,7.971c9.063,11.127,15.359,19.9,19.088,26.264
		c3.791,6.361,7.718,17.01,11.9,31.867c7.521-6.363,14.08-10.225,19.993-11.582C89.439,428.984,96.894,428.343,105.903,428.343z"/>
	<polygon fill="none" points="111.494,192.652 114.651,210.173 131.421,203.808 127.441,187.862 	"/>
	<path fill="none" d="M318.086,159.602c7.202,6.656,15.827,9.957,25.853,9.957c10.155,0,18.514-3.301,25.143-9.957
		c6.617-6.629,9.971-14.987,9.971-25.053c0-10.088-3.473-18.609-10.354-25.492c-6.948-6.904-15.11-10.354-24.759-10.354
		c-10.025,0-18.65,3.313-25.853,9.969c-7.136,6.63-10.727,15.242-10.727,25.877C307.359,144.614,310.95,152.973,318.086,159.602z
		 M342.394,117.83c11.7,0,17.491,5.83,17.491,17.491c0,4.249-1.729,8.106-5.138,11.541c-3.408,3.45-7.589,5.18-12.354,5.18
		c-4.244,0-8.228-1.611-11.953-4.794c-3.672-3.18-5.537-7.135-5.537-11.927C324.903,123.66,330.694,117.83,342.394,117.83z"/>
	<path fill="none" d="M90.729,441.07c-6.311,2.676-10.81,5.699-13.513,9.131c-2.634,3.502-4.751,6.246-6.293,8.398
		c2.635,4.756,5.908,10.227,9.904,16.336c3.979,6.109,11.312,9.115,21.854,9.115c2.132,0,6.311-1.301,12.355-3.979
		c6.096-2.637,9.77-3.979,10.795-3.979c-7.455-9.014-12.473-20.42-15.107-34.211L90.729,441.07z"/>
	<path fill="#356734" d="M342.394,152.042c4.765,0,8.945-1.729,12.354-5.18c3.408-3.435,5.138-7.292,5.138-11.541
		c0-11.661-5.791-17.491-17.491-17.491c-11.699,0-17.49,5.83-17.49,17.491c0,4.792,1.865,8.747,5.537,11.927
		C334.166,150.431,338.149,152.042,342.394,152.042z"/>
	<path fill="#356734" d="M421.994,187.862c0-11.673-5.844-17.53-17.478-17.53c-11.647,0-17.557,5.857-17.557,17.53
		c0,11.153,5.909,16.722,17.557,16.722C416.15,204.584,421.994,199.016,421.994,187.862z"/>
	<path fill="#356734" d="M122.678,150.431c0-11.634-5.913-17.478-17.547-17.478c-11.714,0-17.556,5.844-17.556,17.478
		c0,4.792,1.864,8.787,5.59,11.966c3.729,3.181,7.721,4.752,11.966,4.752c4.821,0,8.866-1.703,12.276-5.137
		C120.879,158.563,122.678,154.717,122.678,150.431z"/>
	<path fill="#356734" d="M185.573,130.531c4.752,0,8.865-1.705,12.272-5.138c3.476-3.476,5.271-7.296,5.271-11.581
		c0-11.66-5.909-17.521-17.544-17.521c-11.7,0-17.561,5.86-17.561,17.521c0,4.791,1.865,8.783,5.595,11.965
		C177.333,128.958,181.259,130.531,185.573,130.531z"/>
	<path fill="#343466" d="M401.298,231.643c11.633,0,21.801-2.887,30.348-8.744c8.358-5.82,13.883-12.088,16.268-18.703
		c2.383-6.631,2.769-12.312,1.157-17.106c5.271-3.179,11.966-7.307,19.94-12.377c7.974-5.019,13.752-9.385,17.543-13.087
		l-4.817-11.194c-6.362,6.403-11.835,11.194-16.333,14.351c-4.498,3.18-10.224,5.844-17.105,7.971
		c16.975-21.216,24.442-37.685,22.245-49.383c-1.026,1.092-4.235,2.156-9.507,3.182c0.506,4.818-0.384,9.705-2.77,14.762
		c-2.379,5.044-7.585,12.045-15.56,21.084c-2.184-3.698-4.245-6.361-6.362-7.973c5.843-12.701,9.572-22.4,11.184-29.03
		c1.542-6.655,2.38-15.817,2.38-27.464l-9.651,2.357c-1.021,12.206-2.049,21.111-3.139,26.675
		c-1.04,5.564-3.674,13.151-7.922,22.696l-8.744-5.59c1.039-6.363,2.516-14.311,4.311-23.881c1.864-9.559,2.838-19.102,2.838-28.646
		c0-7.429-1.865-12.474-5.606-15.149l-4.751,8.772c1.61,1.586,2.448,4.498,2.448,8.748c0,3.737-1.357,11.166-4.061,22.32
		c-2.7,11.114-4.499,19.634-5.59,25.49l-11.128,0.773c4.246-9.039,6.43-17.236,6.43-24.666c0-5.337-0.705-9.158-2.049-11.568
		c-1.293-2.406-2.77-4.379-4.381-5.975c0-1.584,1.812-5.563,5.604-11.928c3.729-6.375,5.524-11.396,5.524-15.148l-8.743-4.765
		c-1.611,6.923-4.367,14.188-8.293,21.871c-4.049,7.747-8.176,13.149-12.354,16.333c-1.599-2.611-0.119-9.56,4.313-20.674
		c4.564-11.154,6.814-20.193,6.814-27.072c0-5.302-0.52-9.293-1.612-11.957l-8.743,3.184c1.039,6.908,1.039,12.338,0,16.29
		c-1.092,3.995-5.07,14.511-11.953,31.509l-7.135-5.59c1.598-9.583,2.37-19.129,2.37-28.675c0-17.53-2.117-31.055-6.433-40.611
		c-1.541,0.547-3.021,0.931-4.298,1.198c-1.358,0.279-2.249,2.275-2.769,5.978c3.154,7.454,4.699,15.652,4.699,24.692
		c0,9.545-1.292,20.447-3.926,32.666l-8.041,1.571c-0.506-7.429-1.16-18.743-1.93-33.853c-0.773-15.146-5.726-24.531-14.721-28.26
		l-0.773,11.157c4.699,11.114,7.131,21.469,7.131,31.016c0,3.737-0.318,10.354-0.821,19.939l-7.921,2.382c0-3.699,0-8.784,0-15.149
		c0-6.359-2.703-12.727-8.027-19.099c2.117-6.367,3.275-12.477,3.275-18.316c0-4.768-0.389-8.201-0.907-10.357l-8.678,3.991
		c1.61,3.729,1.091,9.41-1.612,17.093c-2.686,7.747-6.615,15.561-11.887,23.508c0.506-5.816,1.025-12.18,1.545-19.102
		c0.573-6.883,0.826-14.587,0.826-23.081c0-8.521-1.346-15.402-4.049-20.699l-8.742,7.161c2.633,2.131,3.99,6.363,3.99,12.739
		c-1.09,7.454-1.863,14.337-2.383,20.696c-0.518,6.367-0.77,11.931-0.77,16.722l-9.651-3.982
		c-1.026-10.063-2.302-20.831-3.913-32.251C272.375,20.032,268.331,9.517,261.955,0l-4.687,11.128
		c3.141,4.245,5.455,11.38,7.067,21.482c1.677,10.093,2.448,19.888,2.448,29.474l-8.742,0.772
		c-3.224-12.181-7.083-24.652-11.582-37.421c-4.502-12.738-10.795-20.963-18.717-24.663l-4.818,8.744
		c8.561,5.311,14.334,13.446,17.558,24.308c3.208,10.874,5.59,21.604,7.136,32.212l-8.748,4.831
		c-1.611-10.648-3.34-18.076-5.136-22.308c-1.864-4.247-6.498-9.333-13.966-15.15l-3.912,10.384l8.677,6.338
		c-0.517,3.18-1.476,6.908-2.769,11.153c-1.342,4.245-4.11,9.839-8.359,16.719l-5.59-4.792c3.157-12.726,5.084-20.713,5.59-23.893
		c0.52-3.184,0.773-7.935,0.773-14.297c0-6.402-1.542-11.968-4.752-16.719l-7.135,7.935c1.092,6.373,1.598,10.647,1.598,12.739
		c0,5.336-0.506,10.635-1.598,15.945c-1.105,5.297-2.132,10.607-3.223,15.945l-8.744-2.421c0-21.22-0.52-36.355-1.545-45.393
		c-1.093-8.995-4.046-13.244-8.811-12.725l-1.598,10.341c1.598,2.678,2.367,10.358,2.367,23.123
		c-0.506,5.818-0.77,10.744-0.77,14.696c0,3.979,0,7.547,0,10.73l-8.8,2.423c0-15.947-1.742-29.738-5.151-41.413
		c-3.407-11.674-9.198-18.849-17.038-21.513c0.52,1.093,0.52,2.93,0,5.59c-0.641,2.677-1.157,5.045-1.677,7.176
		c4.311,1.025,7.333,6.109,9.132,15.109c1.86,9.04,3.857,21.51,6.041,37.459l-8.796,6.322c-3.677-9-7.521-15.906-11.582-20.7
		c-3.913-4.751-9.386-7.944-16.268-9.542v10.354c4.18,1.052,9,5.817,14.337,14.337c-3.659,1.052-7.455,1.569-11.18,1.569
		c0,8.52-0.136,13.83-0.388,15.948c-0.268,2.117-1.743,7.136-4.314,15.109l-4.045-3.145c0-13.827-0.773-25.368-2.45-34.66
		c-1.542-9.264-5.205-16.588-11.062-21.898l-3.207,12.739c4.246,6.909,6.43,15.389,6.43,25.491c0,3.686-0.253,9-0.838,15.906
		l-11.129,1.584c-3.729-14.308-7.389-25.728-10.799-34.247c-3.406-8.455-9.971-16.429-19.42-23.884l-0.892,12.766
		c4.302,4.755,8.48,11.275,12.792,19.516c4.248,8.198,7.135,17.359,8.746,27.461l-7.975,4.752
		c-1.61-9.543-4.244-17.103-7.974-22.696c-3.673-5.537-9.329-8.332-16.652-8.332v9.558c4.686,2.118,8.415,5.553,11.063,10.344
		c2.69,4.764,5.073,10.611,7.2,17.529c-0.518,0.506-1.488,1.318-2.768,2.371c-1.293,1.065-2.516,2.93-3.541,5.564
		c-3.207-3.181-6.561-6.07-10.023-8.744c-3.473-2.664-7.854-4.25-13.123-4.795l-1.545,9.559c8.427,1.596,15.108,6.363,19.809,14.361
		c-1.027,7.428-1.547,13.285-1.547,17.493c0,9.036,1.799,16.08,5.538,21.099c3.781,5.069,8.48,9.704,14.401,13.948
		c5.779,4.275,12.661,6.616,20.635,7.136l3.992,23.894l-48.545-25.466l-2.318,9.573c7.844,3.193,14.791,6.494,20.568,9.943
		c5.922,3.473,13.058,7.813,21.617,13.111c-10.17,5.856-18.528,19.9-25.146,42.208c-6.629,22.324-18.968,40.614-37.046,54.925
		l8.041,8c3.155-2.157,8.174-6.405,15.108-12.765c10.036-7.935,18.011-12.992,23.919-15.136l-8.027,31.854l6.363,3.992
		c3.729-6.373,7.268-13.417,10.796-21.098c3.41-7.683,5.406-12.088,5.991-13.149c3.142-1.599,5.205-1.865,6.297-0.773
		c1.023,1.066,1.608,3.446,1.608,7.176c0,2.117-0.585,8.227-1.608,18.289c-1.092,10.062-1.611,18.076-1.611,23.894
		c-30.734,0-55.428,3.475-73.943,10.318C9.25,369.96,0,376.873,0,383.751c0,6.336,4.044,10.223,11.952,11.541
		c7.975,1.346,16.787,13.922,26.305,37.803c9.516,23.896,17.809,41.705,24.627,53.34c6.947,11.699,20.765,17.529,41.409,17.529
		c8.04,0,14.655-1.328,19.993-3.992c5.205-2.662,9.772-5.27,13.511-7.934c2.638,3.729,7.642,7.414,15.11,11.117
		c7.386,3.727,14.857,7.465,22.309,11.154l-9.583,54.148l-3.912,39.803c-2.77,2.66-6.564,4.498-11.582,5.59
		c-5.14,1.066-16.587,3.18-34.663,6.363l3.22,13.537c10.542,0,18.329-0.52,23.016-1.611c4.833-1.051,10.157-2.088,15.948-3.18
		c0,6.363-1.093,14.338-3.141,23.92c2.048,1.572,3.979,2.609,5.523,3.184c1.679,0.477,4.313,1.314,7.971,2.379
		c1.027-4.244,2.504-10.102,4.367-17.529c1.865-7.416,3.355-11.434,4.447-11.953c1.545,1.611,3.143,2.928,4.686,4.02
		c1.611,1.025,3.475,1.291,5.603,0.771c1.092-0.52,2.571-2.541,4.433-5.975c1.799-3.449,3.542-6.498,5.141-9.174l-18.316-9.504
		c1.092-2.156,1.345-5.604,0.826-10.396c2.634-0.508,5.536-0.797,8.742-0.797l0.84-11.131c-2.7-0.543-5.137-1.088-7.268-1.607
		c-2.049-0.533-3.141-1.572-3.141-3.145c2.634-11.699,5.523-23.801,8.743-36.23c3.21-12.516,6.097-21.926,8.747-28.303
		c1.598,0.559,4.817,1.611,9.572,3.195c4.245,0,8.49,0,12.805,0c7.32,0,16.387-0.932,27.064-2.811
		c10.541-1.82,17.17-2.752,19.805-2.752c-5.791,18.037-9.65,33.303-11.516,45.777c-1.861,12.473-2.754,28.285-2.754,47.361
		c-12.808,4.244-22.057,6.363-27.914,6.363l-1.545,11.951l24.692-0.771c1.546,4.768,0.253,13.246-3.979,25.465l12.726,7.174
		c0.52-2.156,2.315-6.523,5.206-13.148c2.9-6.658,5.336-11.289,7.533-13.926c3.727,2.129,7.709,4.34,11.953,6.75
		c4.246,2.424,9.264,4.633,15.11,6.762l8.743-13.512c-1.611-1.611-7.839-5.564-18.648-11.928
		c-10.93-6.402-16.904-10.342-17.932-11.953c0-5.855-0.33-8.785-0.771-8.785c3.663,0,7.641,1.104,11.821,3.182
		c1.677-4.23,1.677-7.682,0-10.344l-9.503-3.992c0-5.818,2.049-17.107,5.975-33.824c3.979-16.717,8.092-32.213,12.342-46.576
		c15.371-6.883,30.229-13.672,44.566-20.289c14.334-6.656,24.037-13.961,29.125-21.895c5.082-7.973,9.65-18.195,13.883-30.643
		c4.311-12.5,9.836-24.854,16.787-37.033c6.813-12.219,17.102-28.807,30.601-49.77c13.577-20.965,25.919-39.683,37.047-56.134
		c-7.455-8.494-22.312-12.765-44.567-12.765v-10.358c-2.703-0.504-7.201-0.773-13.564-0.773s-12.088,0.27-17.105,0.773
		c-5.018,0.588-9.77,1.357-13.949,2.41l8.04-11.953c7.839-0.479,16.651-1.188,26.169-1.957c9.52-0.813,16.013-1.703,19.154-2.808
		l0.772-10.345c-9.065,1.571-16.971,2.795-23.919,3.568c-6.817,0.799-11.635,0.68-14.338-0.386l8.813-15.922
		C395.772,231.389,398.087,231.643,401.298,231.643z M394.161,107.449c1.611,2.635,2.385,6.109,2.385,10.381
		c0,11.128-3.677,19.622-11.197,25.438c0.52-2.637,0.772-6.629,0.772-11.899c0-5.338-0.52-9.316-1.544-11.953
		C386.694,115.674,389.916,111.721,394.161,107.449z M318.086,108.672c7.202-6.655,15.827-9.969,25.853-9.969
		c9.648,0,17.811,3.449,24.759,10.354c6.882,6.883,10.354,15.404,10.354,25.492c0,10.065-3.354,18.424-9.971,25.053
		c-6.629,6.656-14.987,9.957-25.143,9.957c-10.025,0-18.65-3.301-25.853-9.957c-7.136-6.629-10.727-14.987-10.727-25.053
		C307.359,123.914,310.95,115.302,318.086,108.672z M361.495,199.016l-20.699,0.799l3.981-20.696
		c3.22-1.038,5.722-1.864,7.587-2.384c1.864-0.545,4.887-1.571,9.131-3.184c-1.091,3.703-1.61,8.494-1.61,14.312
		C359.885,191.041,360.404,194.797,361.495,199.016z M327.288,208.602c-3.158,11.114-4.822,18.29-4.822,21.473
		c-2.703-2.663-6.108-5.725-10.289-9.161c-4.313-3.446-6.947-6.468-8.04-9.171l-7.839,8.786c3.141,3.18,6.561,6.481,10.289,9.931
		c3.66,3.473,6.616,7.041,8.743,10.743c-0.52,2.157-1.039,4.817-1.61,7.997c-0.517,3.184-1.543,6.109-3.153,8.748
		c-8.548-8.491-13.245-13.539-14.269-15.107c-1.16-1.638-3.86-6.139-8.043-13.539c-1.607,1.023-4.752,2.342-9.582,3.954
		c-4.752,1.584-8.678,2.929-11.889,3.991c1.547-4.245,2.504-7.945,2.823-11.167c0.253-3.181,0.641-6.616,1.157-10.315
		c3.156-0.547,6.947-1.772,11.516-3.595c4.498-1.864,8.611-3.833,12.341-5.978l-1.612-8.783l-19.86,6.399l3.913-19.897l23.149-7.176
		l-2.37-8.773c-2.703,0.547-5.791,1.092-9.198,1.598c-3.407,0.52-7.267,1.332-11.581,2.424l1.611-20.739
		c2.131-0.52,5.084-1.703,8.813-3.607c3.66-1.825,7.136-3.82,10.355-5.913c1.025,9.001,4.885,16.722,11.502,23.059
		c6.629,6.363,15.054,11.154,25.076,14.337l-3.205,17.518l-15.111-13.538l-7.148,7.943L327.288,208.602z M198.233,257.147
		l-3.916,21.473c-1.608-2.092-3.021-5.271-4.378-9.521c-1.345-4.271-1.479-9.542-0.388-15.945
		C191.684,253.154,194.569,254.474,198.233,257.147z M187.94,231.258c0-6.654-2.699-12.314-7.971-17.105l19.941,6.376v20.674
		C191.937,241.202,187.94,237.888,187.94,231.258z M210.2,288.202l25.465,28.674l-6.311,18.303l-23.084-24.666l-8.811,3.18
		c-0.505-2.154-0.771-4.791-0.771-8.001C196.688,298.268,201.187,292.45,210.2,288.202z M264.336,180.687l-2.381,19.94
		c-2.118-2.127-5.073-4.498-9.132-7.175c-3.982-2.673-6.498-3.18-7.52-1.568l-4.049,10.342c3.791,1.582,7.454,3.314,11.127,5.152
		c3.727,1.861,6.43,4.138,8.027,6.774c0,0.52-0.96,3.699-2.756,9.556c-1.93,5.847-2.582,9.293-2.062,10.358
		c-3.21-2.131-6.498-4.634-9.904-7.563c-3.476-2.928-6.298-6.521-8.429-10.74l-6.294,9.517c2.634,3.769,5.91,7.839,9.905,12.354
		c4.045,4.524,7.586,8.386,10.74,11.565l-3.992,19.9c-6.363-3.18-11.77-8.092-16.269-14.748c-4.497-6.629-6.816-12.831-6.816-18.688
		l-12.726,6.334l-0.835-23.055l19.992-10.342c-0.519-1.611-1.157-3.314-1.999-5.219c-0.835-1.825-1.729-3.314-2.82-4.367
		l-14.338,5.568v-19.902l19.157-8.746l-3.981-9.557c-4.312,1.105-9.849,3.447-16.783,7.172l-2.385-19.127
		c4.821-3.7,9.066-7.562,12.727-11.543c3.742-3.952,6.441-7.813,7.975-11.512c1.104,4.244,6.109,9,15.174,14.311
		c8.944,5.337,16.984,7.932,23.867,7.932l-0.773,15.947l-16.786-9.545l-4.694,8.773L264.336,180.687z M226.146,265.082
		c9.52,9.036,15.109,15.441,16.773,19.128c-1.092,5.856-2.185,11.7-3.21,17.53c-5.337-3.193-9.385-6.922-12.352-11.154
		c-2.956-4.248-4.938-6.883-5.978-7.947c4.18-2.115,6.363-5.312,6.363-9.543C227.743,272.004,227.236,269.353,226.146,265.082z
		 M210.2,253.954l12.725-5.59l-3.929,8.01c0.519,1.026,1.038,1.96,1.546,2.756c0.586,0.813,1.877,2.519,3.991,5.18
		c-6.294,3.698-12.472,7.175-18.263,10.354L210.2,253.954z M213.405,335.179c5.856,6.363,9.52,10.088,11.128,11.115
		c-2.114,2.701-3.792,5.855-5.136,9.584c-1.292,3.727-2.516,7.137-3.541,10.316c-1.094-2.609-4.381-9-9.586-19.063
		c-3.66-9.037-5.591-17.784-5.591-26.304C203.384,324.009,207.563,328.803,213.405,335.179z M234.118,347.904l26.291-13.537
		l-3.141-7.947l-17.56,6.335l5.595-16.717l26.232-11.114l-4.752-8.748c-2.195,0.506-4.311,1.318-6.375,2.371
		c-2.117,1.063-5.071,1.608-8.799,1.608l2.436-14.363c3.223-1.063,6.494-2.089,9.904-3.153c3.473-1.092,5.469-1.865,6.045-2.41
		c3.658,6.911,7.066,13.271,10.289,19.091c3.219,5.854,4.311,11.194,3.219,15.945c-3.219,12.22-11.513,24.573-25.076,37.006
		c-13.512,12.514-21.168,25.889-22.762,40.227l-11.132-13.539L234.118,347.904z M282.664,282.639c-3.153-3.7-2.966-6.91,0.839-9.543
		l-5.669-11.197l-17.425,9.586c1.039-7.429,2.064-14.856,3.154-22.285c6.947-1.608,13.764-3.434,20.765-5.59
		c3.157,4.248,6.694,9.157,10.677,14.725c4.049,5.59,7.588,9.928,10.744,13.15c-1.093,2.115-3.023,5.297-5.926,9.546
		c-2.887,4.271-5.976,8.517-9.186,12.738C288.511,290.066,285.874,286.338,282.664,282.639z M300.98,308.902l19.939-7.975
		c1.027,4.765-2.18,9.97-9.516,15.564c-7.521,5.537-14.083,10.193-19.993,13.921L300.98,308.902z M306.587,293.769
		c0.438-2.13,1.595-4.794,3.207-7.977c1.61-3.153,3.409-6.334,5.536-9.517l4.821,15.109L306.587,293.769z M308.569,76.006
		c1.29-1.318,2.582-3.594,3.607-6.786c2.114,4.831,3.153,10.354,3.153,16.757c0,6.363-1.357,11.953-3.926,16.721
		c-1.157-9.039-3.541-16.468-7.268-22.324C305.749,78.802,307.224,77.363,308.569,76.006z M242.534,81.597
		c7.079-6.655,15.758-9.954,25.797-9.954c9.503,0,17.809,3.433,24.678,10.342c6.949,6.883,10.355,15.399,10.355,25.465
		c0,10.102-3.274,18.448-9.904,25.077c-6.682,6.655-15.04,9.97-25.129,9.97c-10.039,0-18.718-3.314-25.797-9.97
		c-7.258-6.629-10.799-14.976-10.799-25.077C231.735,96.838,235.276,88.226,242.534,81.597z M230.192,70.032
		c0.52,2.659,0.772,5.337,0.772,7.971c0,2.663-1.929,6.109-5.659,10.356l-3.152-3.994L230.192,70.032z M162.104,87.959
		c7.07-6.642,15.748-9.956,25.836-9.956c9.52,0,17.813,3.476,24.696,10.356c6.878,6.91,10.288,15.387,10.288,25.453
		c0,10.102-3.274,18.461-9.904,25.116c-6.615,6.616-15.041,9.931-25.08,9.931c-10.088,0-18.766-3.314-25.836-9.931
		c-7.214-6.655-10.809-15.015-10.809-25.116C151.296,103.201,154.891,94.589,162.104,87.959z M150.523,143.269
		c11.634,10.675,22.577,15.949,32.601,15.949c3.725,0,8.04-0.773,12.738-2.384c1.093,3.698,2.117,10.314,3.207,19.9l-19.1-7.176
		l-4.754,8.787c3.729,2.66,7.772,4.633,12.342,5.948c4.511,1.345,8.559,2.503,12.354,3.568l-0.842,18.329l-17.557-4.791
		l-4.686,9.568l-15.106-7.971l3.14-3.184l-4.818-8.773c-2.117,2.664-4.379,4.821-6.75,6.367c-2.381,1.607-5.988,2.66-10.743,3.219
		l-6.359-16.717c2.634-3.729,5.521-7.43,8.744-11.158C148.658,166.896,150.523,157.086,150.523,143.269z M137.797,97.93
		c0.507-3.205,1.28-9.063,2.371-17.557c2.634,4.791,3.927,8.786,3.927,11.967c0,3.703-0.773,9.813-2.384,18.289
		c0,0.545,0,1.744,0,3.568c0,1.877,0.266,3.9,0.838,5.99l-7.972-7.148C136.189,106.131,137.278,101.086,137.797,97.93z
		 M80.055,173.939c-7.202-6.629-10.743-14.992-10.743-25.08c0-10.608,3.541-19.221,10.743-25.876
		c7.132-6.63,15.813-9.944,25.849-9.944c9.572,0,17.811,3.446,24.691,10.33c6.936,6.908,10.346,15.428,10.346,25.49
		c0,10.088-3.274,18.451-9.956,25.08c-6.564,6.615-14.989,9.971-25.081,9.971C95.868,183.91,87.187,180.555,80.055,173.939z
		 M131.421,203.808l-16.77,6.365l-3.157-17.521l15.947-4.79L131.421,203.808z M51.755,410.015
		c-3.729-6.363-10.025-15.137-19.088-26.264c8.477-4.273,15.879-6.879,22.373-7.971c6.297-1.066,11.835-2.133,16.656-3.184
		l30.215-0.813c0,22.324,1.358,41.16,3.992,56.559c-9.01,0-16.464,0.641-22.255,1.957c-5.913,1.357-12.472,5.219-19.993,11.582
		C59.473,427.025,55.546,416.376,51.755,410.015z M115.036,480.072c-6.045,2.678-10.224,3.979-12.355,3.979
		c-10.542,0-17.875-3.006-21.854-9.115c-3.996-6.109-7.27-11.58-9.904-16.336c1.542-2.152,3.659-4.896,6.293-8.398
		c2.703-3.432,7.202-6.455,13.513-9.131l19.995,0.813c2.635,13.791,7.652,25.197,15.107,34.211
		C124.806,476.093,121.132,477.435,115.036,480.072z M242.093,499.201c-6.428,1.064-13.576,1.57-21.551,1.57
		c-6.363,0-11.115-0.252-14.271-0.799c-3.153-0.52-11.564-2.383-25.143-5.563c-13.499-3.145-24.562-10.609-33.055-22.283
		c-8.41-11.662-14.268-24.266-17.479-37.805c-3.153-13.539-5.148-23.508-5.921-29.871c-0.839-6.363-1.224-18.037-1.224-35.037
		c0-6.879,0.264-16.33,0.836-28.26c0.52-11.966,0.773-20.033,0.773-24.278c0-12.765-1.346-22.177-4.046-28.286
		c-2.638-6.084-7.909-9.132-15.883-9.132c-3.726,0-8.743,0.771-15.175,2.368c0-16.997,6.549-31.693,19.608-44.192
		c12.991-12.446,26.625-17.105,40.959-13.926c12.218,2.663,18.517,15.018,19.102,37.033c0.506,22.031,5.14,47.747,13.884,77.233
		c8.813,29.443,18.197,48.959,28.299,58.502c10.092,9.561,17.813,16.176,23.084,19.9v8.787c0,15.402,2.887,28.539,8.799,39.414
		c5.787,10.861,14.081,19.77,24.641,26.688C257.269,495.474,248.456,498.134,242.093,499.201z M336.869,464.125
		c-6.948,6.951-21.032,10.385-42.248,10.385c-13.245,0-22.631-4.525-28.221-13.539c-5.606-9.025-8.358-20.701-8.358-35.037
		c10.542-2.674,18.766-4.111,24.622-4.377c5.847-0.254,11.957-0.385,18.316-0.385c16.987,0,33.186,5.02,48.549,15.121
		C347.997,447.992,343.687,457.285,336.869,464.125z M411.652,298.547c4.245,0,7.589,0.133,9.957,0.398
		c2.384,0.279,4.38,0.664,5.991,1.21c-13.83,19.651-27.264,40.868-40.187,63.694c-13.127,22.83-24.054,42.689-33.054,59.703
		c-12.22-8.996-19.422-12.738-21.536-11.154c8.544-18.555,13.95-30.26,16.317-35.01c2.449-4.791,8.629-14.059,18.717-27.916
		l-8.813-14.293c-20.059,27.063-33.371,51.5-39.802,73.268l-18.264-3.223c1.612-6.869,3.409-13.246,5.606-19.09
		c2.114-5.83,4.232-11.154,6.362-15.918c0-1.611-1.157-3.184-3.606-4.795c-2.371-1.572-4.953-3.18-7.59-4.752
		c-3.141,6.883-5.844,13.539-7.905,19.9c-2.183,6.363-5.337,15.627-9.52,27.877c-3.791,0-8.04,0-12.792,0s-9.581,1.021-14.268,3.18
		v-29.488c13.748-13.27,30.986-25.967,51.686-38.189c20.713-12.219,38.004-22.308,52.156-30.255
		c14.08-8.001,24.373-12.513,31.055-13.538C398.796,299.105,405.343,298.547,411.652,298.547z M396.546,280.229
		c-7.975,2.156-15.896,4.247-23.923,6.392c-7.918,2.089-15.892,5.019-23.866,8.718l10.289-13.512L396.546,280.229z M380.65,234.438
		c-1.599,3.996-3.141,6.765-4.817,8.402c-2.184-1.066-4.113-3.342-5.979-6.791c-1.865-3.436-3.791-6.748-5.922-9.97l-9.572,4.791
		l13.498,23.893c-3.153,3.702-5.523,6.616-7.136,8.747c-1.677,2.157-3.22,4.498-4.817,7.162c-2.582-2.078-4.699-5.166-6.376-9.158
		c-1.532-3.982-3.208-7.813-4.752-11.542l-8.747,7.176c6.363,10.091,9.771,16.333,10.291,18.703c0.518,2.382,0.837,4.114,0.837,5.18
		l-14.334,14.308c-4.248-11.128-6.31-17.744-6.31-19.901c0-2.607,1.795-3.66,5.468-3.179v-12.7l-10.289,2.341l6.363-20.696
		c2.638,0,6.109-0.388,10.424-1.157c4.179-0.816,7.587-1.707,10.276-2.799l-0.76-10.354l-14.352,2.409l3.224-18.332l27.836-3.206
		c1.607,4.271,4.245,7.879,7.918,10.729c3.729,2.927,7.454,5.723,11.185,8.399C383.234,227.983,382.195,230.459,380.65,234.438z
		 M379.439,212.969c-7.2-6.656-10.742-15.014-10.742-25.106c0-10.608,3.542-19.233,10.742-25.851
		c7.136-6.629,15.748-9.97,25.903-9.97c9.52,0,17.756,3.474,24.625,10.354c6.883,6.91,10.289,15.402,10.289,25.466
		c0,10.093-3.271,18.45-9.901,25.106c-6.615,6.629-14.974,9.93-25.013,9.93C395.188,222.898,386.575,219.598,379.439,212.969z"/>
	<path fill="#981B1E" d="M164.86,416.376c0,5.313,0,10.648,0,15.922c0,4.273-0.253,6.906-0.773,7.971l-6.428-20.695
		c-1.612-6.922-3.022-13.42-4.367-19.518c-1.289-6.082-1.996-15.506-1.996-28.271l-11.9,2.424c0,11.113,0.65,22.949,1.931,35.395
		c1.358,12.5,4.446,23.107,9.197,31.895c4.751,8.703,8.878,14.949,12.342,18.674c3.419,3.729,9.131,9.039,17.104,15.922
		c0-4.223-0.253-10.197-0.771-17.879c-0.508-7.721-0.826-13.695-0.826-17.945c1.598,1.613,4.113,4.408,7.586,8.361
		c3.463,3.98,6.751,7.295,9.904,9.969l11.182-7.172l-33.437-43.783L164.86,416.376z"/>
	<path fill="#356734" d="M265.108,124.168c4.887,0,8.931-1.705,12.342-5.14c3.472-3.474,5.214-7.308,5.214-11.579
		c0-11.664-5.856-17.518-17.556-17.518c-11.634,0-17.49,5.854-17.49,17.518c0,4.791,1.859,8.783,5.59,11.967
		C257.003,122.596,260.928,124.168,265.108,124.168z"/>
</g>
</svg>
