<?xml version="1.0" encoding="utf-8"?>
<!-- Generator: Adobe Illustrator 13.0.0, SVG Export Plug-In . SVG Version: 6.00 Build 14948)  -->
<!DOCTYPE svg PUBLIC "-//W3C//DTD SVG 1.1//EN" "http://www.w3.org/Graphics/SVG/1.1/DTD/svg11.dtd">
<svg version="1.1" id="Layer_1" xmlns="http://www.w3.org/2000/svg" xmlns:xlink="http://www.w3.org/1999/xlink" x="0px" y="0px"
	 width="115.17px" height="647.637px" viewBox="0 0 115.17 647.637" enable-background="new 0 0 115.17 647.637"
	 xml:space="preserve">
<g>
	<path fill="#356734" d="M112.336,618.965c1.795,2.09,2.834,4.367,2.834,6.752c0,12.109-25.784,21.92-57.678,21.92
		C25.787,647.637,0,637.827,0,625.717c0-2.385,1.092-4.662,2.769-6.752c6.231-37.1,10.04-79.281,10.04-124.074
		c0-44.777-3.809-86.938-10.04-123.994C1.092,368.766,0,366.448,0,364.106c0-12.127,25.787-21.961,57.492-21.961
		c31.894,0,57.678,9.834,57.678,21.961c0,2.342-1.039,4.66-2.834,6.791c-6.229,37.057-9.904,79.217-9.904,123.994
		C102.432,539.684,106.107,581.866,112.336,618.965z M64.563,517.721c0-3.887-3.09-7.045-7.07-7.045l0,0
		c-3.742,0-6.882,3.158-6.882,7.045v76.805c0,3.928,3.14,7.014,6.882,7.014l0,0c3.98,0,7.07-3.086,7.07-7.014V517.721z
		 M64.563,395.188c0-3.82-3.09-6.975-7.07-6.975l0,0c-3.742,0-6.882,3.154-6.882,6.975v76.941c0,3.834,3.14,6.973,6.882,6.973l0,0
		c3.98,0,7.07-3.139,7.07-6.973V395.188z"/>
	<path fill="#356734" d="M112.336,276.825c1.795,2.048,2.834,4.366,2.834,6.774c0,12.086-25.784,21.922-57.678,21.922
		C25.787,305.521,0,295.686,0,283.6c0-2.408,1.092-4.727,2.769-6.774c6.231-37.139,10.04-79.229,10.04-124.102
		c0-44.755-3.809-86.871-10.04-123.983C1.092,26.649,0,24.334,0,21.993C0,9.879,25.787,0,57.492,0
		c31.894,0,57.678,9.879,57.678,21.993c0,2.341-1.039,4.656-2.834,6.747c-6.229,37.112-9.904,79.229-9.904,123.983
		C102.432,197.596,106.107,239.687,112.336,276.825z M64.563,175.577c0-3.86-3.09-6.974-7.07-6.974l0,0
		c-3.742,0-6.882,3.113-6.882,6.974v76.874c0,3.887,3.14,6.976,6.882,6.976l0,0c3.98,0,7.07-3.089,7.07-6.976V175.577z
		 M64.563,53.049c0-3.849-3.09-6.979-7.07-6.979l0,0c-3.742,0-6.882,3.13-6.882,6.979v76.979c0,3.777,3.14,6.936,6.882,6.936l0,0
		c3.98,0,7.07-3.158,7.07-6.936V53.049z"/>
</g>
</svg>
