<?xml version="1.0" encoding="utf-8"?>
<!-- Generator: Adobe Illustrator 13.0.0, SVG Export Plug-In . SVG Version: 6.00 Build 14948)  -->
<!DOCTYPE svg PUBLIC "-//W3C//DTD SVG 1.1//EN" "http://www.w3.org/Graphics/SVG/1.1/DTD/svg11.dtd">
<svg version="1.1" id="Layer_1" xmlns="http://www.w3.org/2000/svg" xmlns:xlink="http://www.w3.org/1999/xlink" x="0px" y="0px"
	 width="421.758px" height="647.637px" viewBox="0 0 421.758 647.637" enable-background="new 0 0 421.758 647.637"
	 xml:space="preserve">
<g>
	<path fill="#356734" d="M112.268,618.965c1.943,2.09,2.904,4.367,2.904,6.752c0,12.109-25.854,21.92-57.612,21.92
		c-31.841,0-57.56-9.811-57.56-21.92c0-2.385,0.958-4.662,2.769-6.752c6.313-37.1,9.905-79.281,9.905-124.074
		c0-44.777-3.593-86.938-9.905-123.994C0.958,368.766,0,366.448,0,364.106c0-12.127,25.719-21.961,57.56-21.961
		c31.759,0,57.612,9.834,57.612,21.961c0,2.342-0.961,4.66-2.904,6.791c-6.229,37.057-9.77,79.217-9.77,123.994
		C102.498,539.684,106.039,581.866,112.268,618.965z M64.561,517.721c0-3.887-3.222-7.045-7.001-7.045l0,0
		c-3.86,0-7.03,3.158-7.03,7.045v76.805c0,3.928,3.17,7.014,7.03,7.014l0,0c3.779,0,7.001-3.086,7.001-7.014V517.721z
		 M64.561,395.188c0-3.82-3.222-6.975-7.001-6.975l0,0c-3.86,0-7.03,3.154-7.03,6.975v76.941c0,3.834,3.17,6.973,7.03,6.973l0,0
		c3.779,0,7.001-3.139,7.001-6.973V395.188z"/>
	<path fill="#981B1E" d="M265.563,276.825c1.859,2.048,2.82,4.366,2.82,6.774c0,12.086-25.771,21.922-57.479,21.922
		c-31.894,0-57.744-9.836-57.744-21.922c0-2.408,1.094-4.727,2.9-6.774c6.364-37.139,9.825-79.229,9.825-124.102
		c0-44.755-3.461-86.871-9.825-123.983c-1.807-2.091-2.9-4.406-2.9-6.747C153.16,9.879,179.011,0,210.904,0
		c31.708,0,57.479,9.879,57.479,21.993c0,2.341-0.961,4.656-2.82,6.747c-6.231,37.112-9.827,79.229-9.827,123.983
		C255.736,197.596,259.332,239.687,265.563,276.825z M217.799,175.577c0-3.86-3.088-6.974-6.895-6.974l0,0
		c-3.993,0-7.081,3.113-7.081,6.974v76.874c0,3.887,3.088,6.976,7.081,6.976l0,0c3.807,0,6.895-3.089,6.895-6.976V175.577z
		 M217.799,53.049c0-3.849-3.088-6.979-6.895-6.979l0,0c-3.993,0-7.081,3.13-7.081,6.979v76.979c0,3.777,3.088,6.936,7.081,6.936
		l0,0c3.807,0,6.895-3.158,6.895-6.936V53.049z"/>
	<path fill="#356734" d="M418.802,618.965c1.916,2.09,2.956,4.367,2.956,6.752c0,12.109-25.854,21.92-57.693,21.92
		c-31.681,0-57.529-9.811-57.529-21.92c0-2.385,0.957-4.662,2.82-6.752c6.229-37.1,9.822-79.281,9.822-124.074
		c0-44.777-3.593-86.938-9.822-123.994c-1.863-2.131-2.82-4.449-2.82-6.791c0-12.127,25.849-21.961,57.529-21.961
		c31.84,0,57.693,9.834,57.693,21.961c0,2.342-1.04,4.66-2.956,6.791c-6.257,37.057-9.716,79.217-9.716,123.994
		C409.086,539.684,412.545,581.866,418.802,618.965z M371.013,517.721c0-3.887-3.006-7.045-6.948-7.045l0,0
		c-3.778,0-6.949,3.158-6.949,7.045v76.805c0,3.928,3.171,7.014,6.949,7.014l0,0c3.942,0,6.948-3.086,6.948-7.014V517.721z
		 M371.013,395.188c0-3.82-3.006-6.975-6.948-6.975l0,0c-3.778,0-6.949,3.154-6.949,6.975v76.941c0,3.834,3.171,6.973,6.949,6.973
		l0,0c3.942,0,6.948-3.139,6.948-6.973V395.188z"/>
</g>
</svg>
