<?xml version="1.0" encoding="utf-8"?>
<!-- Generator: Adobe Illustrator 13.0.0, SVG Export Plug-In . SVG Version: 6.00 Build 14948)  -->
<!DOCTYPE svg PUBLIC "-//W3C//DTD SVG 1.1//EN" "http://www.w3.org/Graphics/SVG/1.1/DTD/svg11.dtd">
<svg version="1.1" id="Layer_1" xmlns="http://www.w3.org/2000/svg" xmlns:xlink="http://www.w3.org/1999/xlink" x="0px" y="0px"
	 width="421.758px" height="647.637px" viewBox="0 0 421.758 647.637" enable-background="new 0 0 421.758 647.637"
	 xml:space="preserve">
<g>
	<g>
		<path fill="#356734" d="M112.533,618.965c1.729,2.09,2.769,4.367,2.769,6.752c0,12.109-25.85,21.92-57.69,21.92
			C25.85,647.637,0,637.827,0,625.717c0-2.385,1.224-4.662,2.9-6.752c6.284-37.1,9.904-79.281,9.904-124.074
			c0-44.777-3.62-86.938-9.904-123.994c-1.677-2.131-2.9-4.449-2.9-6.791c0-12.127,25.85-21.961,57.611-21.961
			c31.841,0,57.69,9.834,57.69,21.961c0,2.342-1.039,4.66-2.769,6.791c-6.363,37.057-9.984,79.217-9.984,123.994
			C102.549,539.684,106.17,581.866,112.533,618.965z M64.69,517.721c0-3.887-3.166-7.045-7.079-7.045l0,0
			c-3.86,0-6.948,3.158-6.948,7.045v76.805c0,3.928,3.088,7.014,6.948,7.014l0,0c3.913,0,7.079-3.086,7.079-7.014V517.721z
			 M64.69,395.188c0-3.82-3.166-6.975-7.079-6.975l0,0c-3.86,0-6.948,3.154-6.948,6.975v76.941c0,3.834,3.088,6.973,6.948,6.973l0,0
			c3.913,0,7.079-3.139,7.079-6.973V395.188z"/>
		<path fill="#356734" d="M112.533,276.825c1.729,2.048,2.769,4.366,2.769,6.774c0,12.086-25.85,21.922-57.69,21.922
			C25.85,305.521,0,295.686,0,283.6c0-2.408,1.224-4.727,2.9-6.774c6.284-37.139,9.904-79.229,9.904-124.102
			c0-44.755-3.62-86.871-9.904-123.983C1.224,26.649,0,24.334,0,21.993C0,9.879,25.85,0,57.611,0c31.841,0,57.69,9.879,57.69,21.993
			c0,2.341-1.039,4.656-2.769,6.747c-6.363,37.112-9.984,79.229-9.984,123.983C102.549,197.596,106.17,239.687,112.533,276.825z
			 M64.69,175.577c0-3.86-3.166-6.974-7.079-6.974l0,0c-3.86,0-6.948,3.113-6.948,6.974v76.874c0,3.887,3.088,6.976,6.948,6.976l0,0
			c3.913,0,7.079-3.089,7.079-6.976V175.577z M64.69,53.049c0-3.849-3.166-6.979-7.079-6.979l0,0c-3.86,0-6.948,3.13-6.948,6.979
			v76.979c0,3.777,3.088,6.936,6.948,6.936l0,0c3.913,0,7.079-3.158,7.079-6.936V53.049z"/>
	</g>
	<g>
		<path fill="#356734" d="M418.989,618.965c1.782,2.09,2.769,4.367,2.769,6.752c0,12.109-25.854,21.92-57.559,21.92
			c-31.842,0-57.56-9.811-57.56-21.92c0-2.385,0.986-4.662,2.848-6.752c6.097-37.1,9.826-79.281,9.826-124.074
			c0-44.777-3.729-86.938-9.826-123.994c-1.861-2.131-2.848-4.449-2.848-6.791c0-12.127,25.718-21.961,57.56-21.961
			c31.705,0,57.559,9.834,57.559,21.961c0,2.342-0.986,4.66-2.769,6.791c-6.311,37.057-9.904,79.217-9.904,123.994
			C409.085,539.684,412.679,581.866,418.989,618.965z M371.2,517.721c0-3.887-3.141-7.045-7.001-7.045l0,0
			c-3.914,0-6.949,3.158-6.949,7.045v76.805c0,3.928,3.035,7.014,6.949,7.014l0,0c3.86,0,7.001-3.086,7.001-7.014V517.721z
			 M371.2,395.188c0-3.82-3.141-6.975-7.001-6.975l0,0c-3.914,0-6.949,3.154-6.949,6.975v76.941c0,3.834,3.035,6.973,6.949,6.973
			l0,0c3.86,0,7.001-3.139,7.001-6.973V395.188z"/>
		<path fill="#356734" d="M418.989,276.825c1.782,2.048,2.769,4.366,2.769,6.774c0,12.086-25.854,21.922-57.559,21.922
			c-31.842,0-57.56-9.836-57.56-21.922c0-2.408,0.986-4.727,2.848-6.774c6.097-37.139,9.826-79.229,9.826-124.102
			c0-44.755-3.729-86.871-9.826-123.983c-1.861-2.091-2.848-4.406-2.848-6.747C306.64,9.879,332.357,0,364.199,0
			c31.705,0,57.559,9.879,57.559,21.993c0,2.341-0.986,4.656-2.769,6.747c-6.311,37.112-9.904,79.229-9.904,123.983
			C409.085,197.596,412.679,239.687,418.989,276.825z M371.2,175.577c0-3.86-3.141-6.974-7.001-6.974l0,0
			c-3.914,0-6.949,3.113-6.949,6.974v76.874c0,3.887,3.035,6.976,6.949,6.976l0,0c3.86,0,7.001-3.089,7.001-6.976V175.577z
			 M371.2,53.049c0-3.849-3.141-6.979-7.001-6.979l0,0c-3.914,0-6.949,3.13-6.949,6.979v76.979c0,3.777,3.035,6.936,6.949,6.936l0,0
			c3.86,0,7.001-3.158,7.001-6.936V53.049z"/>
	</g>
</g>
</svg>
