<?xml version="1.0" encoding="utf-8"?>
<!-- Generator: Adobe Illustrator 13.0.0, SVG Export Plug-In . SVG Version: 6.00 Build 14948)  -->
<!DOCTYPE svg PUBLIC "-//W3C//DTD SVG 1.1//EN" "http://www.w3.org/Graphics/SVG/1.1/DTD/svg11.dtd">
<svg version="1.1" id="Layer_1" xmlns="http://www.w3.org/2000/svg" xmlns:xlink="http://www.w3.org/1999/xlink" x="0px" y="0px"
	 width="421.623px" height="647.637px" viewBox="0 0 421.623 647.637" enable-background="new 0 0 421.623 647.637"
	 xml:space="preserve">
<g>
	<g>
		<g>
			<path fill="#356734" d="M112.267,618.965c1.76,2.09,2.904,4.367,2.904,6.752c0,12.109-25.906,21.92-57.664,21.92
				C25.718,647.637,0,637.827,0,625.717c0-2.385,0.988-4.662,2.77-6.752c6.175-37.1,9.852-79.281,9.852-124.074
				c0-44.777-3.677-86.938-9.852-123.994C0.988,368.766,0,366.448,0,364.106c0-12.127,25.718-21.961,57.507-21.961
				c31.758,0,57.664,9.834,57.664,21.961c0,2.342-1.145,4.66-2.904,6.791c-6.28,37.057-9.901,79.217-9.901,123.994
				C102.365,539.684,105.986,581.866,112.267,618.965z M64.428,517.721c0-3.887-3.062-7.045-6.921-7.045l0,0
				c-3.943,0-7.03,3.158-7.03,7.045v76.805c0,3.928,3.087,7.014,7.03,7.014l0,0c3.859,0,6.921-3.086,6.921-7.014V517.721z
				 M64.428,395.188c0-3.82-3.062-6.975-6.921-6.975l0,0c-3.943,0-7.03,3.154-7.03,6.975v76.941c0,3.834,3.087,6.973,7.03,6.973l0,0
				c3.859,0,6.921-3.139,6.921-6.973V395.188z"/>
			<path fill="#356734" d="M112.267,276.825c1.76,2.048,2.904,4.366,2.904,6.774c0,12.086-25.906,21.922-57.664,21.922
				C25.718,305.521,0,295.686,0,283.6c0-2.408,0.988-4.727,2.77-6.774c6.175-37.139,9.852-79.229,9.852-124.102
				c0-44.755-3.677-86.871-9.852-123.983C0.988,26.649,0,24.334,0,21.993C0,9.879,25.718,0,57.507,0
				c31.758,0,57.664,9.879,57.664,21.993c0,2.341-1.145,4.656-2.904,6.747c-6.28,37.112-9.901,79.229-9.901,123.983
				C102.365,197.596,105.986,239.687,112.267,276.825z M64.428,175.577c0-3.86-3.062-6.974-6.921-6.974l0,0
				c-3.943,0-7.03,3.113-7.03,6.974v76.874c0,3.887,3.087,6.976,7.03,6.976l0,0c3.859,0,6.921-3.089,6.921-6.976V175.577z
				 M64.428,53.049c0-3.849-3.062-6.979-6.921-6.979l0,0c-3.943,0-7.03,3.13-7.03,6.979v76.979c0,3.777,3.087,6.936,7.03,6.936l0,0
				c3.859,0,6.921-3.158,6.921-6.936V53.049z"/>
		</g>
		<g>
			<path fill="#356734" d="M418.802,618.965c1.729,2.09,2.821,4.367,2.821,6.752c0,12.109-25.715,21.92-57.611,21.92
				c-31.815,0-57.478-9.811-57.478-21.92c0-2.385,0.958-4.662,2.769-6.752c6.229-37.1,9.771-79.281,9.771-124.074
				c0-44.777-3.541-86.938-9.771-123.994c-1.811-2.131-2.769-4.449-2.769-6.791c0-12.127,25.662-21.961,57.478-21.961
				c31.896,0,57.611,9.834,57.611,21.961c0,2.342-1.092,4.66-2.821,6.791c-6.363,37.057-9.77,79.217-9.77,123.994
				C409.032,539.684,412.438,581.866,418.802,618.965z M371.016,517.721c0-3.887-3.088-7.045-7.004-7.045l0,0
				c-3.86,0-6.948,3.158-6.948,7.045v76.805c0,3.928,3.088,7.014,6.948,7.014l0,0c3.916,0,7.004-3.086,7.004-7.014V517.721z
				 M371.016,395.188c0-3.82-3.088-6.975-7.004-6.975l0,0c-3.86,0-6.948,3.154-6.948,6.975v76.941c0,3.834,3.088,6.973,6.948,6.973
				l0,0c3.916,0,7.004-3.139,7.004-6.973V395.188z"/>
			<path fill="#356734" d="M418.802,276.825c1.729,2.048,2.821,4.366,2.821,6.774c0,12.086-25.715,21.922-57.611,21.922
				c-31.815,0-57.478-9.836-57.478-21.922c0-2.408,0.958-4.727,2.769-6.774c6.229-37.139,9.771-79.229,9.771-124.102
				c0-44.755-3.541-86.871-9.771-123.983c-1.811-2.091-2.769-4.406-2.769-6.747C306.534,9.879,332.196,0,364.012,0
				c31.896,0,57.611,9.879,57.611,21.993c0,2.341-1.092,4.656-2.821,6.747c-6.363,37.112-9.77,79.229-9.77,123.983
				C409.032,197.596,412.438,239.687,418.802,276.825z M371.016,175.577c0-3.86-3.088-6.974-7.004-6.974l0,0
				c-3.86,0-6.948,3.113-6.948,6.974v76.874c0,3.887,3.088,6.976,6.948,6.976l0,0c3.916,0,7.004-3.089,7.004-6.976V175.577z
				 M371.016,53.049c0-3.849-3.088-6.979-7.004-6.979l0,0c-3.86,0-6.948,3.13-6.948,6.979v76.979c0,3.777,3.088,6.936,6.948,6.936
				l0,0c3.916,0,7.004-3.158,7.004-6.936V53.049z"/>
		</g>
	</g>
	<path fill="#981B1E" d="M265.51,447.86c1.86,2.145,2.821,4.434,2.821,6.777c0,12.127-25.771,21.963-57.48,21.963
		c-31.893,0-57.689-9.836-57.689-21.963c0-2.344,0.904-4.633,2.903-6.777c6.175-37.068,9.718-79.254,9.718-124.005
		c0-44.847-3.543-86.963-9.718-124.102c-1.999-2.052-2.903-4.367-2.903-6.685c0-12.193,25.797-21.99,57.689-21.99
		c31.71,0,57.48,9.797,57.48,21.99c0,2.317-0.961,4.633-2.821,6.75c-6.311,37.073-9.853,79.189-9.853,124.036
		C255.657,368.606,259.199,410.792,265.51,447.86z M217.8,346.657c0-3.861-3.167-7.018-6.949-7.018l0,0
		c-3.991,0-7.001,3.156-7.001,7.018v76.859c0,3.9,3.01,7.041,7.001,7.041l0,0c3.782,0,6.949-3.141,6.949-7.041V346.657z
		 M217.8,224.152c0-3.821-3.167-7.004-6.949-7.004l0,0c-3.991,0-7.001,3.183-7.001,7.004v76.91c0,3.796,3.01,6.975,7.001,6.975l0,0
		c3.782,0,6.949-3.179,6.949-6.975V224.152z"/>
</g>
</svg>
