<?xml version="1.0" encoding="utf-8"?>
<!-- Generator: Adobe Illustrator 13.0.0, SVG Export Plug-In . SVG Version: 6.00 Build 14948)  -->
<!DOCTYPE svg PUBLIC "-//W3C//DTD SVG 1.1//EN" "http://www.w3.org/Graphics/SVG/1.1/DTD/svg11.dtd">
<svg version="1.1" id="Layer_1" xmlns="http://www.w3.org/2000/svg" xmlns:xlink="http://www.w3.org/1999/xlink" x="0px" y="0px"
	 width="421.705px" height="647.637px" viewBox="0 0 421.705 647.637" enable-background="new 0 0 421.705 647.637"
	 xml:space="preserve">
<g>
	<path fill="#356734" d="M112.349,618.965c1.783,2.09,2.769,4.367,2.769,6.752c0,12.109-25.743,21.92-57.505,21.92
		C25.798,647.637,0,637.827,0,625.717c0-2.385,0.987-4.662,2.849-6.752c6.283-37.1,9.904-79.281,9.904-124.074
		c0-44.777-3.621-86.938-9.904-123.994C0.987,368.766,0,366.448,0,364.106c0-12.127,25.798-21.961,57.612-21.961
		c31.762,0,57.505,9.834,57.505,21.961c0,2.342-0.985,4.66-2.769,6.791c-6.179,37.057-9.904,79.217-9.904,123.994
		C102.444,539.684,106.17,581.866,112.349,618.965z M64.56,517.721c0-3.887-3.141-7.045-6.947-7.045l0,0
		c-3.861,0-6.949,3.158-6.949,7.045v76.805c0,3.928,3.088,7.014,6.949,7.014l0,0c3.807,0,6.947-3.086,6.947-7.014V517.721z
		 M64.56,395.188c0-3.82-3.141-6.975-6.947-6.975l0,0c-3.861,0-6.949,3.154-6.949,6.975v76.941c0,3.834,3.088,6.973,6.949,6.973l0,0
		c3.807,0,6.947-3.139,6.947-6.973V395.188z"/>
	<path fill="#356734" d="M112.349,276.825c1.783,2.048,2.769,4.366,2.769,6.774c0,12.086-25.743,21.922-57.505,21.922
		C25.798,305.521,0,295.686,0,283.6c0-2.408,0.987-4.727,2.849-6.774c6.283-37.139,9.904-79.229,9.904-124.102
		c0-44.755-3.621-86.871-9.904-123.983C0.987,26.649,0,24.334,0,21.993C0,9.879,25.798,0,57.612,0
		c31.762,0,57.505,9.879,57.505,21.993c0,2.341-0.985,4.656-2.769,6.747c-6.179,37.112-9.904,79.229-9.904,123.983
		C102.444,197.596,106.17,239.687,112.349,276.825z M64.56,175.577c0-3.86-3.141-6.974-6.947-6.974l0,0
		c-3.861,0-6.949,3.113-6.949,6.974v76.874c0,3.887,3.088,6.976,6.949,6.976l0,0c3.807,0,6.947-3.089,6.947-6.976V175.577z
		 M64.56,53.049c0-3.849-3.141-6.979-6.947-6.979l0,0c-3.861,0-6.949,3.13-6.949,6.979v76.979c0,3.777,3.088,6.936,6.949,6.936l0,0
		c3.807,0,6.947-3.158,6.947-6.936V53.049z"/>
	<path fill="#356734" d="M265.642,618.965c1.729,2.09,2.689,4.367,2.689,6.752c0,12.109-25.666,21.92-57.481,21.92
		c-31.893,0-57.556-9.811-57.556-21.92c0-2.385,1.037-4.662,2.77-6.752c6.362-37.1,9.899-79.281,9.899-124.074
		c0-44.777-3.537-86.938-9.899-123.994c-1.732-2.131-2.77-4.449-2.77-6.791c0-12.127,25.663-21.961,57.556-21.961
		c31.815,0,57.481,9.834,57.481,21.961c0,2.342-0.961,4.66-2.689,6.791c-6.311,37.057-9.85,79.217-9.85,123.994
		C255.792,539.684,259.332,581.866,265.642,618.965z M217.855,517.721c0-3.887-3.09-7.045-7.004-7.045l0,0
		c-3.861,0-7.001,3.158-7.001,7.045v76.805c0,3.928,3.14,7.014,7.001,7.014l0,0c3.915,0,7.004-3.086,7.004-7.014V517.721z
		 M217.855,395.188c0-3.82-3.09-6.975-7.004-6.975l0,0c-3.861,0-7.001,3.154-7.001,6.975v76.941c0,3.834,3.14,6.973,7.001,6.973l0,0
		c3.915,0,7.004-3.139,7.004-6.973V395.188z"/>
	<path fill="#356734" d="M265.642,276.825c1.729,2.048,2.689,4.366,2.689,6.774c0,12.086-25.666,21.922-57.481,21.922
		c-31.893,0-57.556-9.836-57.556-21.922c0-2.408,1.037-4.727,2.77-6.774c6.362-37.139,9.899-79.229,9.899-124.102
		c0-44.755-3.537-86.871-9.899-123.983c-1.732-2.091-2.77-4.406-2.77-6.747C153.295,9.879,178.958,0,210.851,0
		c31.815,0,57.481,9.879,57.481,21.993c0,2.341-0.961,4.656-2.689,6.747c-6.311,37.112-9.85,79.229-9.85,123.983
		C255.792,197.596,259.332,239.687,265.642,276.825z M217.855,175.577c0-3.86-3.09-6.974-7.004-6.974l0,0
		c-3.861,0-7.001,3.113-7.001,6.974v76.874c0,3.887,3.14,6.976,7.001,6.976l0,0c3.915,0,7.004-3.089,7.004-6.976V175.577z
		 M217.855,53.049c0-3.849-3.09-6.979-7.004-6.979l0,0c-3.861,0-7.001,3.13-7.001,6.979v76.979c0,3.777,3.14,6.936,7.001,6.936l0,0
		c3.915,0,7.004-3.158,7.004-6.936V53.049z"/>
	<path fill="#356734" d="M418.802,618.965c1.863,2.09,2.902,4.367,2.902,6.752c0,12.109-25.797,21.92-57.559,21.92
		s-57.611-9.811-57.611-21.92c0-2.385,1.012-4.662,2.768-6.752c6.229-37.1,9.959-79.281,9.959-124.074
		c0-44.777-3.73-86.938-9.959-123.994c-1.756-2.131-2.768-4.449-2.768-6.791c0-12.127,25.85-21.961,57.611-21.961
		s57.559,9.834,57.559,21.961c0,2.342-1.039,4.66-2.902,6.791c-6.178,37.057-9.771,79.217-9.771,123.994
		C409.031,539.684,412.625,581.866,418.802,618.965z M371.015,517.721c0-3.887-3.008-7.045-6.869-7.045l0,0
		c-3.861,0-7.082,3.158-7.082,7.045v76.805c0,3.928,3.221,7.014,7.082,7.014l0,0c3.861,0,6.869-3.086,6.869-7.014V517.721z
		 M371.015,395.188c0-3.82-3.008-6.975-6.869-6.975l0,0c-3.861,0-7.082,3.154-7.082,6.975v76.941c0,3.834,3.221,6.973,7.082,6.973
		l0,0c3.861,0,6.869-3.139,6.869-6.973V395.188z"/>
	<path fill="#356734" d="M418.802,276.825c1.863,2.048,2.902,4.366,2.902,6.774c0,12.086-25.797,21.922-57.559,21.922
		s-57.611-9.836-57.611-21.922c0-2.408,1.012-4.727,2.768-6.774c6.229-37.139,9.959-79.229,9.959-124.102
		c0-44.755-3.73-86.871-9.959-123.983c-1.756-2.091-2.768-4.406-2.768-6.747C306.535,9.879,332.384,0,364.146,0
		s57.559,9.879,57.559,21.993c0,2.341-1.039,4.656-2.902,6.747c-6.178,37.112-9.771,79.229-9.771,123.983
		C409.031,197.596,412.625,239.687,418.802,276.825z M371.015,175.577c0-3.86-3.008-6.974-6.869-6.974l0,0
		c-3.861,0-7.082,3.113-7.082,6.974v76.874c0,3.887,3.221,6.976,7.082,6.976l0,0c3.861,0,6.869-3.089,6.869-6.976V175.577z
		 M371.015,53.049c0-3.849-3.008-6.979-6.869-6.979l0,0c-3.861,0-7.082,3.13-7.082,6.979v76.979c0,3.777,3.221,6.936,7.082,6.936
		l0,0c3.861,0,6.869-3.158,6.869-6.936V53.049z"/>
</g>
</svg>
