<?xml version="1.0" encoding="utf-8"?>
<!-- Generator: Adobe Illustrator 13.0.0, SVG Export Plug-In . SVG Version: 6.00 Build 14948)  -->
<!DOCTYPE svg PUBLIC "-//W3C//DTD SVG 1.1//EN" "http://www.w3.org/Graphics/SVG/1.1/DTD/svg11.dtd">
<svg version="1.1" id="Layer_1" xmlns="http://www.w3.org/2000/svg" xmlns:xlink="http://www.w3.org/1999/xlink" x="0px" y="0px"
	 width="421.677px" height="647.637px" viewBox="0 0 421.677 647.637" enable-background="new 0 0 421.677 647.637"
	 xml:space="preserve">
<g>
	<g>
		<path fill="#356734" d="M112.267,276.825c1.811,2.048,2.824,4.366,2.824,6.774c0,12.086-25.771,21.922-57.611,21.922
			C25.796,305.521,0,295.686,0,283.6c0-2.408,0.903-4.727,2.716-6.774c6.283-37.139,9.904-79.229,9.904-124.102
			c0-44.755-3.621-86.871-9.904-123.983C0.903,26.649,0,24.334,0,21.993C0,9.879,25.796,0,57.479,0
			c31.84,0,57.611,9.879,57.611,21.993c0,2.341-1.014,4.656-2.824,6.747c-6.229,37.112-9.902,79.229-9.902,123.983
			C102.364,197.596,106.037,239.687,112.267,276.825z M64.506,175.577c0-3.86-3.167-6.974-7.026-6.974l0,0
			c-3.834,0-7.057,3.113-7.057,6.974v76.874c0,3.887,3.223,6.976,7.057,6.976l0,0c3.859,0,7.026-3.089,7.026-6.976V175.577z
			 M64.506,53.049c0-3.849-3.167-6.979-7.026-6.979l0,0c-3.834,0-7.057,3.13-7.057,6.979v76.979c0,3.777,3.223,6.936,7.057,6.936
			l0,0c3.859,0,7.026-3.158,7.026-6.936V53.049z"/>
		<path fill="#356734" d="M418.8,276.825c1.732,2.048,2.877,4.366,2.877,6.774c0,12.086-25.852,21.922-57.721,21.922
			c-31.705,0-57.5-9.836-57.5-21.922c0-2.408,0.957-4.727,2.711-6.774c6.363-37.139,9.959-79.229,9.959-124.102
			c0-44.755-3.596-86.871-9.959-123.983c-1.754-2.091-2.711-4.406-2.711-6.747C306.457,9.879,332.251,0,363.957,0
			c31.869,0,57.721,9.879,57.721,21.993c0,2.341-1.145,4.656-2.877,6.747c-6.363,37.112-9.904,79.229-9.904,123.983
			C408.896,197.596,412.437,239.687,418.8,276.825z M371.015,175.577c0-3.86-3.145-6.974-7.059-6.974l0,0
			c-3.805,0-7.025,3.113-7.025,6.974v76.874c0,3.887,3.221,6.976,7.025,6.976l0,0c3.914,0,7.059-3.089,7.059-6.976V175.577z
			 M371.015,53.049c0-3.849-3.145-6.979-7.059-6.979l0,0c-3.805,0-7.025,3.13-7.025,6.979v76.979c0,3.777,3.221,6.936,7.025,6.936
			l0,0c3.914,0,7.059-3.158,7.059-6.936V53.049z"/>
		<path fill="#356734" d="M119.48,309.29c0.375,2.25,0,4.022-1.089,5.14c-5.672,5.656-28.568-7.974-51.012-30.442
			c-22.441-22.499-36.178-45.327-30.534-50.956c1.278-1.131,2.902-1.48,5.217-1.188c21.724-12.871,44.035-30.002,64.932-50.969
			c20.9-20.898,38.02-43.141,50.929-64.879c-0.318-2.25,0.054-4.021,1.094-5.166c5.672-5.629,28.539,8.026,51.064,30.443
			c22.442,22.512,36.125,45.365,30.401,50.982c-1.146,1.157-2.822,1.453-5.135,1.2c-21.807,12.857-43.983,29.989-64.881,50.913
			C149.513,265.309,132.394,287.552,119.48,309.29z M132.979,228.236c1.864-1.795,1.093-5.459-1.73-8.227l0,0
			c-2.637-2.74-6.362-3.446-8.118-1.678l-35.942,35.889c-1.729,1.824-0.959,5.498,1.73,8.228l0,0
			c2.717,2.703,6.389,3.499,8.12,1.703L132.979,228.236z M190.14,171.039c1.943-1.825,1.036-5.498-1.599-8.227l0,0
			c-2.847-2.664-6.362-3.434-8.227-1.638l-35.885,35.849c-1.866,1.822-1.04,5.499,1.729,8.224l0,0
			c2.688,2.799,6.361,3.542,8.172,1.707L190.14,171.039z"/>
		<path fill="#356734" d="M188.541,193.456c-2.396,0.253-4.071-0.043-5.165-1.2c-5.727-5.617,7.988-28.471,30.43-50.982
			c22.496-22.417,45.34-36.072,50.982-30.443c1.092,1.145,1.41,2.916,1.172,5.166c12.912,21.738,30.031,43.98,50.928,64.879
			c20.875,20.967,43.209,38.098,64.936,50.969c2.184-0.293,3.912,0.057,5.219,1.188c5.453,5.629-8.121,28.457-30.564,50.956
			c-22.443,22.469-45.311,36.099-50.982,30.442c-1.092-1.117-1.49-2.89-1.146-5.14c-12.855-21.738-30.109-43.981-50.928-64.921
			C232.441,223.445,210.265,206.313,188.541,193.456z M269.552,206.954c1.813,1.835,5.406,1.063,8.178-1.707l0,0
			c2.74-2.725,3.541-6.401,1.729-8.224l-35.943-35.849c-1.807-1.796-5.4-1.026-8.168,1.638l0,0
			c-2.771,2.729-3.543,6.401-1.732,8.227L269.552,206.954z M326.714,264.086c1.861,1.861,5.455,1.065,8.225-1.638l0,0
			c2.715-2.729,3.41-6.403,1.676-8.228l-35.885-35.889c-1.729-1.769-5.512-1.063-8.148,1.678l0,0
			c-2.77,2.768-3.537,6.432-1.756,8.227L326.714,264.086z"/>
	</g>
	<g>
		<path fill="#356734" d="M309.167,370.897c-1.754-2.131-2.711-4.449-2.711-6.791c0-12.127,25.713-21.961,57.5-21.961
			c31.869,0,57.721,9.834,57.721,21.961c0,2.342-1.145,4.66-2.877,6.791c-6.363,37.057-9.904,79.217-9.904,123.994
			c0,44.793,3.541,86.975,9.904,124.074c1.732,2.09,2.877,4.367,2.877,6.752c0,12.109-25.852,21.92-57.721,21.92
			c-31.787,0-57.5-9.811-57.5-21.92c0-2.385,0.957-4.662,2.711-6.752c6.363-37.1,9.959-79.281,9.959-124.074
			C319.126,450.114,315.531,407.954,309.167,370.897z M357.062,472.129c0,3.834,3.09,6.973,6.895,6.973l0,0
			c3.914,0,7.059-3.139,7.059-6.973v-76.941c0-3.82-3.145-6.975-7.059-6.975l0,0c-3.805,0-6.895,3.154-6.895,6.975V472.129z
			 M357.062,594.526c0,3.928,3.09,7.014,6.895,7.014l0,0c3.914,0,7.059-3.086,7.059-7.014v-76.805c0-3.887-3.145-7.045-7.059-7.045
			l0,0c-3.805,0-6.895,3.158-6.895,7.045V594.526z"/>
		<path fill="#356734" d="M2.716,370.897C0.903,368.766,0,366.448,0,364.106c0-12.127,25.717-21.961,57.479-21.961
			c31.84,0,57.611,9.834,57.611,21.961c0,2.342-1.014,4.66-2.824,6.791c-6.229,37.057-9.902,79.217-9.902,123.994
			c0,44.793,3.673,86.975,9.902,124.074c1.811,2.09,2.824,4.367,2.824,6.752c0,12.109-25.771,21.92-57.611,21.92
			C25.717,647.637,0,637.827,0,625.717c0-2.385,0.903-4.662,2.716-6.752c6.283-37.1,9.904-79.281,9.904-124.074
			C12.62,450.114,8.999,407.954,2.716,370.897z M50.423,472.129c0,3.834,3.223,6.973,7.057,6.973l0,0
			c3.859,0,7.026-3.139,7.026-6.973v-76.941c0-3.82-3.167-6.975-7.026-6.975l0,0c-3.834,0-7.057,3.154-7.057,6.975V472.129z
			 M50.423,594.526c0,3.928,3.223,7.014,7.057,7.014l0,0c3.859,0,7.026-3.086,7.026-7.014v-76.805c0-3.887-3.167-7.045-7.026-7.045
			l0,0c-3.834,0-7.057,3.158-7.057,7.045V594.526z"/>
		<path fill="#356734" d="M301.953,338.389c-0.238-2.289,0.135-4.061,1.092-5.18c5.727-5.629,28.568,7.975,51.064,30.486
			c22.574,22.492,36.205,45.297,30.482,50.955c-1.09,1.119-2.768,1.477-5.217,1.184c-21.727,12.896-43.902,29.99-64.879,50.93
			c-20.822,20.898-37.994,43.141-50.932,64.906c0.4,2.289-0.051,4.018-1.143,5.148c-5.537,5.66-28.488-7.971-51.012-30.457
			c-22.418-22.494-36.047-45.322-30.4-50.98c1.17-1.066,2.901-1.41,5.136-1.197c21.752-12.857,44.062-29.988,64.88-50.891
			C272.003,382.331,289.097,360.125,301.953,338.389z M288.511,419.399c-1.785,1.84-0.961,5.498,1.678,8.242l0,0
			c2.768,2.754,6.361,3.527,8.227,1.664l35.885-35.916c1.813-1.795,1.039-5.494-1.676-8.225l0,0
			c-2.77-2.676-6.416-3.477-8.229-1.637L288.511,419.399z M231.351,476.6c-1.73,1.865-1.012,5.498,1.621,8.229l0,0
			c2.771,2.699,6.363,3.473,8.283,1.701l35.807-35.914c1.941-1.795,1.117-5.523-1.598-8.223l0,0
			c-2.766-2.703-6.547-3.438-8.174-1.639L231.351,476.6z"/>
		<path fill="#356734" d="M232.972,454.184c2.32-0.213,4.104,0.131,5.195,1.197c5.723,5.658-7.961,28.486-30.538,50.98
			c-22.443,22.486-45.26,36.117-50.85,30.457c-1.17-1.131-1.436-2.859-1.224-5.148c-12.94-21.766-30.032-44.008-51.009-64.906
			c-20.82-20.939-43.13-38.033-64.8-50.93c-2.318,0.293-4.047-0.064-5.139-1.184c-5.669-5.658,7.909-28.463,30.404-50.955
			c22.495-22.512,45.257-36.115,50.98-30.486c1.04,1.119,1.489,2.891,1.093,5.18c12.992,21.736,30.162,43.941,51.01,64.904
			C189.101,424.196,211.302,441.327,232.972,454.184z M151.937,440.754c-1.786-1.799-5.38-1.064-8.148,1.639l0,0
			c-2.768,2.699-3.541,6.428-1.756,8.223L178,486.53c1.729,1.771,5.512,0.998,8.145-1.701l0,0c2.771-2.703,3.542-6.363,1.677-8.229
			L151.937,440.754z M94.858,383.528c-1.865-1.84-5.539-0.996-8.254,1.703l0,0c-2.743,2.768-3.463,6.363-1.785,8.158l35.994,35.916
			c1.759,1.863,5.482,1.09,8.252-1.664l0,0c2.557-2.744,3.408-6.402,1.547-8.242L94.858,383.528z"/>
	</g>
</g>
</svg>
