<?xml version="1.0" encoding="utf-8"?>
<!-- Generator: Adobe Illustrator 13.0.0, SVG Export Plug-In . SVG Version: 6.00 Build 14948)  -->
<!DOCTYPE svg PUBLIC "-//W3C//DTD SVG 1.1//EN" "http://www.w3.org/Graphics/SVG/1.1/DTD/svg11.dtd">
<svg version="1.1" id="Layer_1" xmlns="http://www.w3.org/2000/svg" xmlns:xlink="http://www.w3.org/1999/xlink" x="0px" y="0px"
	 width="340.704px" height="533.771px" viewBox="0 0 340.704 533.771" enable-background="new 0 0 340.704 533.771"
	 xml:space="preserve">
<g>
	<path fill="#343466" d="M270.715,0c13.63,0,28.711,4.831,45.231,14.538c16.533,9.674,24.758,21.059,24.758,34.143
		c0,3.952-1.995,7.401-5.976,10.224c-3.995,2.86-8.24,4.271-12.807,4.271c-14.814-7.389-35.848-14.202-63.202-20.473
		c-27.287-6.268-55.2-9.382-83.688-9.382c-27.33,0-51.209,2.276-71.723,6.813c-20.511,4.564-41.544,9.385-63.174,14.521
		c-9.133,0-16.652-0.983-22.67-2.979c-5.949-1.999-10.967-3.567-14.922-4.698L0,33.32l49.492-7.337
		c15.945-3.248,32.174-6.494,48.708-9.742c26.741-3.249,55.358-6.748,85.831-10.568C214.484,1.904,243.359,0,270.715,0z"/>
	<path fill="#981B1E" d="M217.083,401.363c-4.66-2.236-10.185-3.407-16.587-3.407c-8.746,0-18.328,2.263-28.832,6.761
		c-0.559,6.179-1.156,12.38-1.742,18.517c4.018-0.546,15.24-2.674,33.688-6.296c18.426-3.674,34.252-5.509,47.498-5.509
		c22.494,0,39.348,3.831,50.567,11.394c11.224,7.612,16.84,21.832,16.84,42.598c0,17.678-7.097,32.466-21.339,44.392
		c-14.241,11.967-31.054,17.945-50.383,17.945c-14.242,0-28.487-3.703-42.729-11.089c-15.905-9.717-31.854-19.395-47.802-29.032
		c-4.564,3.406-10.102,5.524-16.652,6.389c-6.563,0.865-12.699,1.839-18.368,3.021c-2.861-2.313-6.682-5.843-11.542-10.703
		c-4.844-4.856-6.975-10.381-6.391-16.651c5.141-0.547,13.953-1.253,26.492-2.157c12.499-0.839,19.647-1.25,21.313-1.25
		l-2.547-23.949c-13.656,2.891-25.169,5.206-34.579,6.909c-9.358,1.733-21.513,4.634-36.301,8.652
		c5.657,13.206,10.182,24.268,13.63,33.172c3.434,8.878,5.137,15.655,5.137,20.22c0,14.988-5.109,22.482-15.334,22.482
		c-6.295,0-10.702-4.725-13.27-14.12c-2.518-9.411-4.832-18.477-6.818-27.329c-1.996-8.8-3.859-18.358-5.537-28.605
		c-9.129,1.158-18.063,2.7-26.94,4.723c-8.813,1.959-14.044,2.956-15.788,2.956c-2.275,0-5.682-0.572-10.223-1.703
		c10.809-5.113,19.739-8.521,26.915-10.263c7.109-1.664,14.362-3.407,21.765-5.11l-4.244-11.983l-5.141-10.782l-3.447-13.071
		c11.316,3.94,18.781,7.866,22.483,11.661c3.659,3.86,7.48,9.039,11.433,15.63l76.26-17.067v-13.669
		c-9.953,2.275-19.923,4.564-29.894,6.853c2.861-1.131,7.398-3.699,13.669-7.651c6.271-3.996,11.381-6.244,15.359-6.818
		c-0.57-3.379-0.291-6.467,0.865-9.289c-8.542,1.704-16.105,3.114-22.625,4.233c-6.564,1.13-9.521,3.673-8.975,7.585
		c-2.861,0-5.43-0.663-7.679-2.087c-2.292-1.412-4.567-3.25-6.816-5.498c-2.861,0-4.271-2.529-4.271-7.616
		c1.118-8.451,1.703-14.949,1.703-19.447c-3.45-7.853-7.148-16.172-11.128-24.92c-3.956-8.742-5.978-14.24-5.978-16.49
		c1.772-1.41,3.501-2.477,5.205-3.184c1.729-0.703,3.472-1.062,5.175-1.062c2.319,0,4.756,0.743,7.363,2.154
		c2.568,1.384,5.751,3.955,9.521,7.655c3.751,3.726,6.202,7.131,7.331,10.25c1.186,3.152,2.05,5.537,2.596,7.267
		c2.357,0,5.79-0.704,10.425-2.157c4.593-1.41,10.677-3.821,18.153-7.267V333.89l-29.828,0.891c-1.157-2.301-2.064-4.886-2.61-7.707
		c10.263-7.975,22.644-14.63,37.142-20.059c14.535-5.433,23.334-11.809,26.461-19.197c3.141-7.399,5.726-13.124,7.682-17.105
		c1.996-3.979,2.996-7.972,2.996-11.964c-11.93,1.704-22.898,3.407-32.867,5.15c-9.997,1.664-18.928,4.819-26.902,9.385
		c6.229,7.974,8.801,15.08,7.682,21.323c-1.161,6.259-5.152,9.412-11.93,9.412c-6.854-3.41-10.674-5.686-11.578-6.843
		c-0.825-1.131-1.826-7.682-2.956-19.622c-8.548-1.117-14.495-1.41-17.945-0.891c-10.223,2.861-17.384,4.726-21.337,5.59
		c-4.019,0.84-8.268,1.253-12.831,1.253c-5.114,0-11.927-1.839-20.474-5.498L27.304,265.47l18.779-1.571h29.02
		c10.263,0,19.103-1.411,26.504-4.274c1.118-4.539,0.865-9.972-0.877-16.238c-1.704-6.242-2.529-9.931-2.529-11.128
		c0-3.952,1.437-7.389,4.406-10.224c1.756-3.436,4.07-5.978,7.027-7.682c2.927-1.703,5.563-3.434,7.947-5.109l6.177,6.813
		c0.545,2.251,0.995,5.685,1.277,10.223c0.293,4.595,0.743,9.425,1.355,14.564c0,7.402,1.664,11.927,5.113,13.63
		c10.25-2.822,21.469-5.817,33.718-8.931c12.26-3.157,22.056-4.406,29.458-3.861l0.865-15.402
		c-2.343-7.358-6.656-13.63-12.857-18.783c-6.206-5.109-9.906-10.249-11.063-15.359c1.131-6.816,7.682-10.249,19.674-10.249
		c4.537,0,10.197,0.729,17.037,2.144c6.855,1.424,11.673,4.123,14.538,8.105c2.834,3.992,4.817,8.268,5.974,12.831l-2.568,31.574
		l28.195-3.406c7.4,0,15.08-0.292,23.027-0.878c8-0.546,12.818-0.825,14.521-0.825c5.699,0.572,11.424,1.118,17.08,1.703
		c2.861,1.145,6.004,5.14,9.411,11.953l-0.825,18.224c-9.133,2.315-17.399,3.473-24.798,3.473c-1.704,0-10.386-1.276-26.063-3.888
		c-15.629-2.606-30.006-3.925-43.09-3.925c-2.889,0-6.136,3.222-9.839,9.56c-3.7,6.389-9.836,15.652-18.354,27.805
		c2.834,1.118,6.947,1.411,12.381,0.839c5.428-0.546,10.965-1.131,16.65-1.677c10.264,0,16.491,0.838,18.783,2.541
		c2.275,1.707,3.434,7.429,3.434,17.067v15.373c0,17.066-0.747,30.482-2.184,40.12c-1.449,9.704-4.538,16.813-9.172,21.351
		L217.083,401.363z M148.566,368.937l-22.176,2.569c-3.447,8.52-2.607,14.204,2.477,17.04c6.523-2.25,13.113-4.818,19.699-7.682
		V368.937z M250.588,437.12c-2.796-1.025-6.137-2.026-10.066-2.891c-3.926-0.838-7.268-0.971-10.088-0.411l-7.56,1.704
		c2.834,1.982,5.136,4.777,6.812,8.293c1.747,3.499,3.704,7.001,5.979,10.503v33.317c-8.799,2.861-14.402,4.271-16.717,4.271
		l-10.611-1.704v-22.255c-12.43,3.446-20.566,5.857-24.426,7.267c-3.861,1.451-10.224,5.019-19.128,10.679
		c6.23,2.288,17.105,5.563,32.626,9.834c15.561,4.271,25.305,6.15,29.256,5.564c9.066-1.73,19.49-3.821,31.352-6.402
		c11.857-2.568,17.81-9.543,17.81-20.927c0-11.924-1.132-19.832-3.341-23.788C270.195,446.222,262.928,441.843,250.588,437.12z
		 M169.922,462.01c1.677-0.546,7.651-1.542,17.94-2.996c10.319-1.407,17.132-2.992,20.474-4.695v-18.796
		c-4.525-1.704-10.797-1.428-18.768,0.865c-7.974,2.275-13.951,3.432-17.943,3.432c-1.117,4.541-1.703,8.521-1.703,11.928V462.01z
		 M217.921,319.392h-18.97l-22.177,4.235v18.849c2.891,0,6.682,0,11.384,0c4.07,0,11.088,1.664,21.059,5.071v6.017l-18.424,8.518
		c-8.787,2.292-13.447,3.995-14.019,5.152c-0.612,1.119-0.612,4.528,0,10.223l35.849-2.541c2.276-2.292,4.844-4.541,7.707-6.856
		c1.679-8.546,2.544-15.626,2.544-21.338C222.874,339.904,221.195,330.802,217.921,319.392z"/>
</g>
</svg>
