<?xml version="1.0" encoding="utf-8"?>
<!-- Generator: Adobe Illustrator 13.0.0, SVG Export Plug-In . SVG Version: 6.00 Build 14948)  -->
<!DOCTYPE svg PUBLIC "-//W3C//DTD SVG 1.1//EN" "http://www.w3.org/Graphics/SVG/1.1/DTD/svg11.dtd">
<svg version="1.1" id="Layer_1" xmlns="http://www.w3.org/2000/svg" xmlns:xlink="http://www.w3.org/1999/xlink" x="0px" y="0px"
	 width="374.008px" height="618.322px" viewBox="0 0 374.008 618.322" enable-background="new 0 0 374.008 618.322"
	 xml:space="preserve">
<g>
	<path fill="#981B1E" d="M231.578,485.916c-4.66-2.236-10.185-3.408-16.587-3.408c-8.747,0-18.316,2.264-28.832,6.762
		c-0.546,6.178-1.157,12.379-1.703,18.516c4.018-0.545,15.201-2.674,33.663-6.295c18.451-3.674,34.265-5.51,47.509-5.51
		c22.482,0,39.322,3.832,50.581,11.395c11.184,7.611,16.813,21.832,16.813,42.598c0,17.678-7.109,32.465-21.352,44.391
		c-14.216,11.967-31.028,17.945-50.384,17.945c-14.241,0-28.447-3.703-42.688-11.088c-15.948-9.717-31.893-19.395-47.815-29.033
		c-4.591,3.406-10.128,5.525-16.679,6.389c-6.563,0.865-12.674,1.84-18.355,3.021c-2.863-2.313-6.695-5.842-11.516-10.703
		c-4.856-4.855-6.975-10.381-6.429-16.65c5.137-0.547,13.948-1.254,26.491-2.158c12.538-0.838,19.647-1.25,21.351-1.25
		l-2.542-23.949c-13.699,2.891-25.215,5.207-34.626,6.91c-9.355,1.732-21.482,4.633-36.271,8.652
		c5.63,13.205,10.168,24.268,13.631,33.172c3.406,8.877,5.149,15.654,5.149,20.219c0,14.988-5.11,22.482-15.373,22.482
		c-6.271,0-10.664-4.725-13.245-14.119c-2.543-9.412-4.817-18.477-6.844-27.33c-1.955-8.799-3.83-18.357-5.537-28.605
		c-9.119,1.158-18.063,2.701-26.902,4.723c-8.812,1.959-14.054,2.957-15.787,2.957c-2.289,0-5.725-0.572-10.249-1.703
		c10.796-5.113,19.77-8.521,26.901-10.264c7.136-1.664,14.377-3.406,21.805-5.109l-4.283-11.984l-5.141-10.781l-3.406-13.072
		c11.285,3.941,18.77,7.867,22.469,11.662c3.673,3.859,7.467,9.039,11.42,15.629l76.289-17.066v-13.67
		c-9.996,2.275-19.967,4.564-29.938,6.854c2.861-1.131,7.399-3.699,13.67-7.652c6.271-3.996,11.381-6.244,15.36-6.818
		c-0.546-3.379-0.28-6.467,0.907-9.289c-8.589,1.705-16.109,3.115-22.67,4.234c-6.55,1.129-9.519,3.672-8.932,7.584
		c-2.863,0-5.432-0.662-7.682-2.086c-2.316-1.412-4.605-3.25-6.855-5.498c-2.859,0-4.271-2.529-4.271-7.617
		c1.118-8.451,1.703-14.949,1.703-19.447c-3.41-7.852-7.11-16.172-11.089-24.92c-3.995-8.742-6.017-14.24-6.017-16.49
		c1.769-1.41,3.501-2.477,5.244-3.184c1.704-0.703,3.433-1.061,5.179-1.061c2.276,0,4.751,0.742,7.359,2.154
		c2.568,1.383,5.752,3.955,9.517,7.654c3.729,3.727,6.206,7.131,7.323,10.25c1.158,3.152,2.022,5.537,2.607,7.268
		c2.318,0,5.79-0.705,10.385-2.158c4.633-1.41,10.674-3.82,18.197-7.266v-13.658l-29.871,0.891
		c-1.157-2.301-2.025-4.885-2.598-7.707c10.25-7.975,22.631-14.629,37.126-20.059c14.537-5.432,23.351-11.809,26.464-19.197
		c3.153-7.398,5.726-13.123,7.681-17.105c2.022-3.979,3.022-7.971,3.022-11.963c-11.956,1.703-22.922,3.406-32.881,5.15
		c-9.969,1.664-18.939,4.818-26.887,9.385c6.24,7.973,8.812,15.08,7.691,21.322c-1.158,6.26-5.15,9.412-11.967,9.412
		c-6.814-3.41-10.674-5.686-11.539-6.842c-0.868-1.131-1.838-7.682-2.955-19.623c-8.587-1.117-14.538-1.41-17.945-0.891
		c-10.25,2.861-17.426,4.727-21.351,5.59c-4.019,0.84-8.294,1.254-12.819,1.254c-5.111,0-11.965-1.84-20.512-5.498l-11.967-12.539
		l18.811-1.57h29.029c10.223,0,19.102-1.412,26.49-4.275c1.131-4.539,0.838-9.971-0.892-16.238
		c-1.677-6.242-2.541-9.93-2.541-11.127c0-3.953,1.449-7.389,4.406-10.224c1.769-3.436,4.11-5.978,7.065-7.682
		c2.93-1.703,5.564-3.434,7.909-5.109l6.176,6.813c0.571,2.251,1.025,5.685,1.319,10.223c0.252,4.594,0.741,9.424,1.314,14.564
		c0,7.402,1.707,11.926,5.113,13.629c10.263-2.822,21.512-5.816,33.732-8.93c12.245-3.158,22.054-4.406,29.443-3.861l0.903-15.402
		c-2.38-7.359-6.694-13.63-12.857-18.784c-6.218-5.109-9.904-10.249-11.101-15.359c1.131-6.816,7.691-10.249,19.687-10.249
		c4.524,0,10.224,0.729,17.037,2.144c6.843,1.424,11.66,4.123,14.525,8.105c2.859,3.992,4.829,8.268,5.974,12.831l-2.567,31.574
		l28.207-3.406c7.386,0,15.067-0.291,23.041-0.877c8.015-0.547,12.831-0.826,14.495-0.826c5.725,0.572,11.424,1.119,17.105,1.703
		c2.864,1.145,5.991,5.141,9.398,11.953l-0.838,18.225c-9.133,2.314-17.36,3.473-24.758,3.473c-1.733,0-10.411-1.277-26.081-3.889
		c-15.651-2.605-30.015-3.924-43.113-3.924c-2.89,0-6.096,3.221-9.795,9.559c-3.729,6.389-9.839,15.652-18.359,27.805
		c2.796,1.119,6.909,1.412,12.341,0.84c5.43-0.547,10.967-1.131,16.692-1.678c10.249,0,16.494,0.838,18.77,2.541
		c2.249,1.707,3.406,7.43,3.406,17.068v15.373c0,17.066-0.732,30.482-2.184,40.119c-1.449,9.705-4.497,16.814-9.157,21.352
		L231.578,485.916z M163.104,453.488l-22.219,2.57c-3.407,8.52-2.607,14.203,2.475,17.039c6.565-2.25,13.154-4.818,19.744-7.682
		V453.488z M265.082,521.671c-2.755-1.025-6.109-2.025-10.065-2.891c-3.913-0.838-7.268-0.971-10.063-0.41l-7.585,1.703
		c2.859,1.982,5.149,4.777,6.853,8.293c1.706,3.5,3.702,7.002,5.978,10.504v33.316c-8.813,2.861-14.402,4.271-16.744,4.271
		l-10.611-1.703V552.5c-12.446,3.447-20.578,5.857-24.413,7.268c-3.886,1.451-10.249,5.018-19.127,10.678
		c6.244,2.289,17.079,5.563,32.639,9.834c15.521,4.271,25.305,6.15,29.217,5.564c9.066-1.73,19.49-3.82,31.391-6.402
		c11.818-2.568,17.771-9.543,17.771-20.926c0-11.924-1.118-19.832-3.342-23.789C284.73,530.773,277.433,526.394,265.082,521.671z
		 M184.456,546.562c1.637-0.547,7.652-1.543,17.944-2.996c10.315-1.408,17.089-2.992,20.443-4.695v-18.797
		c-4.538-1.703-10.809-1.428-18.779,0.865c-7.948,2.275-13.953,3.432-17.944,3.432c-1.118,4.541-1.664,8.521-1.664,11.928V546.562z
		 M232.416,403.943h-18.928l-22.22,4.236v18.848c2.892,0,6.726,0,11.382,0c4.113,0,11.113,1.664,21.085,5.072v6.016l-18.422,8.518
		c-8.773,2.293-13.473,3.996-14.045,5.152c-0.584,1.119-0.584,4.529,0,10.223l35.85-2.541c2.276-2.291,4.857-4.541,7.705-6.855
		c1.707-8.547,2.546-15.627,2.546-21.338C237.369,424.457,235.705,415.353,232.416,403.943z"/>
	<g>
		<path fill="#343466" d="M307.427,163.129c1.131,0,4.113-0.732,8.944-2.143c4.817-1.426,8.677-1.543,11.498-0.425
			c17.106,8.517,29.032,14.948,35.889,19.194c6.844,4.271,10.25,11.249,10.25,20.923c-0.572,3.995-4.406,7.402-11.513,10.267
			c-7.135,2.861-12.979,3.979-17.52,3.433c-7.972-1.157-15.653-2.567-23.055-4.274c-7.389-1.729-15.402-2.568-23.919-2.568
			c-64.323,0-118.698,2.568-163.091,7.682c-58.066,11.927-92.527,18.489-103.365,19.608c-1.677,0.61-6.975-2.663-15.784-9.773
			C6.923,217.92,1.677,206.951,0,192.162c10.782-0.546,21.325-0.986,31.546-1.318c10.252-0.253,22.512-1.254,36.713-2.982
			L307.427,163.129z"/>
		<path fill="#343466" d="M87.935,30.734c1.13-2.278,13.922-4.365,38.416-6.389c24.465-1.97,41.066-3.702,49.813-5.113
			c8.743-1.424,15.451-2.699,20.246-3.83c4.791-1.188,12.246-3.69,22.377-7.709L237.369,0c12.032,2.834,20.445,6.563,25.237,11.101
			c4.831,4.563,7.201,9.678,7.201,15.39c0,4.537-0.546,8.105-1.664,10.674c-1.157,2.542-2.582,4.952-4.288,7.267l-43.553,6.816
			l-50.384,9.398c-15.946,2.848-29.606,4.231-40.986,4.231c-3.446,0-8.105-0.702-14.123-2.091
			c-5.936-1.407-11.928-5.721-17.932-12.818C90.929,42.832,87.935,36.46,87.935,30.734z"/>
	</g>
</g>
</svg>
