<?xml version="1.0" encoding="utf-8"?>
<!-- Generator: Adobe Illustrator 13.0.0, SVG Export Plug-In . SVG Version: 6.00 Build 14948)  -->
<!DOCTYPE svg PUBLIC "-//W3C//DTD SVG 1.1//EN" "http://www.w3.org/Graphics/SVG/1.1/DTD/svg11.dtd">
<svg version="1.1" id="Layer_1" xmlns="http://www.w3.org/2000/svg" xmlns:xlink="http://www.w3.org/1999/xlink" x="0px" y="0px"
	 width="374.9px" height="637.093px" viewBox="0 0 374.9 637.093" enable-background="new 0 0 374.9 637.093" xml:space="preserve">
<g>
	<path fill="#981B1E" d="M235.932,504.686c-4.66-2.236-10.197-3.407-16.642-3.407c-8.705,0-18.317,2.263-28.807,6.761
		c-0.586,6.179-1.146,12.38-1.729,18.517c4.021-0.546,15.228-2.674,33.704-6.296c18.423-3.674,34.236-5.509,47.468-5.509
		c22.471,0,39.321,3.831,50.585,11.394c11.18,7.612,16.853,21.832,16.853,42.598c0,17.678-7.136,32.466-21.353,44.392
		c-14.243,11.967-31.069,17.945-50.422,17.945c-14.193,0-28.46-3.703-42.677-11.089c-15.921-9.717-31.896-19.395-47.813-29.032
		c-4.608,3.406-10.146,5.524-16.666,6.389c-6.551,0.865-12.7,1.839-18.343,3.021c-2.877-2.313-6.737-5.843-11.555-10.703
		c-4.849-4.856-6.976-10.381-6.39-16.651c5.137-0.547,13.949-1.253,26.487-2.157c12.516-0.839,19.621-1.25,21.325-1.25
		l-2.556-23.949c-13.655,2.891-25.212,5.206-34.583,6.909c-9.398,1.733-21.51,4.634-36.314,8.652
		c5.645,13.206,10.198,24.268,13.632,33.172c3.409,8.878,5.165,15.655,5.165,20.22c0,14.988-5.108,22.482-15.389,22.482
		c-6.255,0-10.674-4.725-13.229-14.12c-2.558-9.411-4.82-18.477-6.815-27.329c-1.997-8.8-3.861-18.358-5.538-28.605
		c-9.132,1.158-18.102,2.7-26.94,4.723c-8.813,1.959-14.059,2.956-15.787,2.956c-2.29,0-5.699-0.572-10.25-1.703
		c10.834-5.113,19.778-8.521,26.94-10.263c7.11-1.664,14.376-3.407,21.752-5.11l-4.262-11.983l-5.136-10.782l-3.41-13.071
		c11.314,3.94,18.77,7.866,22.472,11.661c3.647,3.86,7.479,9.039,11.396,15.63l76.298-17.067v-13.669
		c-9.956,2.275-19.939,4.564-29.896,6.853c2.821-1.131,7.401-3.699,13.659-7.651c6.281-3.996,11.396-6.244,15.386-6.818
		c-0.585-3.379-0.292-6.467,0.852-9.289c-8.547,1.704-16.105,3.114-22.656,4.233c-6.573,1.13-9.529,3.673-8.944,7.585
		c-2.847,0-5.432-0.663-7.694-2.087c-2.263-1.412-4.551-3.25-6.841-5.498c-2.823,0-4.234-2.529-4.234-7.616
		c1.118-8.451,1.677-14.949,1.677-19.447c-3.407-7.853-7.106-16.172-11.102-24.92c-3.992-8.742-5.988-14.24-5.988-16.49
		c1.782-1.41,3.486-2.477,5.216-3.184c1.733-0.703,3.463-1.062,5.166-1.062c2.288,0,4.766,0.743,7.376,2.154
		c2.581,1.384,5.748,3.955,9.504,7.655c3.724,3.726,6.229,7.131,7.349,10.25c1.144,3.152,2.05,5.537,2.608,7.267
		c2.34,0,5.777-0.704,10.381-2.157c4.633-1.41,10.703-3.821,18.184-7.267v-13.657l-29.845,0.891
		c-1.144-2.301-2.049-4.886-2.581-7.707c10.25-7.975,22.604-14.63,37.112-20.059c14.508-5.433,23.32-11.809,26.464-19.197
		c3.114-7.399,5.695-13.124,7.692-17.105c1.998-3.979,2.982-7.972,2.982-11.964c-11.954,1.704-22.897,3.407-32.881,5.15
		c-9.957,1.664-18.9,4.819-26.889,9.385c6.258,7.974,8.813,15.08,7.695,21.323c-1.171,6.259-5.136,9.412-11.927,9.412
		c-6.843-3.41-10.675-5.686-11.582-6.843c-0.825-1.131-1.835-7.682-2.953-19.622c-8.546-1.117-14.536-1.41-17.944-0.891
		c-10.25,2.861-17.385,4.726-21.35,5.59c-4.022,0.84-8.281,1.253-12.835,1.253c-5.109,0-11.927-1.839-20.5-5.498l-11.927-12.538
		l18.77-1.571h29.046c10.25,0,19.089-1.411,26.49-4.274c1.118-4.539,0.825-9.972-0.88-16.238c-1.704-6.242-2.529-9.931-2.529-11.128
		c0-3.952,1.436-7.389,4.394-10.224c1.784-3.436,4.101-5.978,7.057-7.682c2.928-1.703,5.563-3.434,7.932-5.109l6.149,6.813
		c0.559,2.251,1.013,5.685,1.305,10.223c0.292,4.595,0.747,9.425,1.358,14.564c0,7.402,1.677,11.927,5.084,13.63
		c10.249-2.822,21.512-5.817,33.732-8.931c12.27-3.157,22.044-4.406,29.472-3.861l0.878-15.402
		c-2.371-7.358-6.654-13.63-12.886-18.783c-6.203-5.109-9.902-10.249-11.049-15.359c1.116-6.816,7.693-10.249,19.646-10.249
		c4.555,0,10.224,0.729,17.067,2.144c6.813,1.424,11.687,4.123,14.508,8.105c2.851,3.992,4.82,8.268,6.018,12.831l-2.582,31.574
		l28.165-3.406c7.428,0,15.07-0.292,23.058-0.878c7.983-0.546,12.831-0.825,14.535-0.825c5.672,0.572,11.393,1.118,17.065,1.703
		c2.848,1.145,5.962,5.14,9.425,11.953l-0.878,18.224c-9.105,2.315-17.359,3.473-24.762,3.473c-1.729,0-10.381-1.276-26.063-3.888
		c-15.653-2.606-30.028-3.925-43.074-3.925c-2.903,0-6.152,3.222-9.852,9.56c-3.7,6.389-9.823,15.652-18.343,27.805
		c2.822,1.118,6.923,1.411,12.353,0.839c5.404-0.546,10.942-1.131,16.667-1.677c10.25,0,16.504,0.838,18.767,2.541
		c2.263,1.707,3.41,7.429,3.41,17.067v15.373c0,17.066-0.72,30.482-2.184,40.12c-1.411,9.704-4.502,16.813-9.132,21.351
		L235.932,504.686z M167.402,472.259l-22.176,2.569c-3.433,8.52-2.638,14.204,2.45,17.04c6.55-2.25,13.149-4.818,19.726-7.682
		V472.259z M269.419,540.442c-2.795-1.025-6.147-2.026-10.088-2.891c-3.887-0.838-7.24-0.971-10.063-0.411l-7.589,1.704
		c2.851,1.982,5.14,4.777,6.843,8.293c1.729,3.499,3.699,7.001,5.99,10.503v33.317c-8.813,2.861-14.401,4.271-16.721,4.271
		l-10.62-1.704v-22.255c-12.434,3.446-20.579,5.857-24.44,7.267c-3.859,1.451-10.249,5.019-19.114,10.679
		c6.229,2.288,17.089,5.563,32.637,9.834c15.524,4.271,25.294,6.15,29.233,5.564c9.052-1.73,19.486-3.821,31.361-6.402
		c11.82-2.568,17.813-9.543,17.813-20.927c0-11.924-1.147-19.832-3.384-23.788C289.041,549.544,281.748,545.165,269.419,540.442z
		 M188.754,565.332c1.678-0.546,7.643-1.542,17.944-2.996c10.329-1.407,17.146-2.992,20.474-4.695v-18.796
		c-4.552-1.704-10.836-1.428-18.77,0.865c-7.988,2.275-13.95,3.432-17.944,3.432c-1.12,4.541-1.704,8.521-1.704,11.928V565.332z
		 M236.754,422.714h-18.953l-22.204,4.235v18.849c2.9,0,6.682,0,11.395,0c4.074,0,11.075,1.664,21.058,5.071v6.017l-18.421,8.518
		c-8.786,2.292-13.473,3.995-14.031,5.152c-0.611,1.119-0.611,4.528,0,10.223l35.833-2.541c2.292-2.292,4.872-4.541,7.694-6.856
		c1.704-8.546,2.556-15.626,2.556-21.338C241.68,443.227,240.029,434.124,236.754,422.714z"/>
	<g>
		<path fill="#343466" d="M329.669,198.114c12.512,2.275,23.188,6.43,32.027,12.364c8.81,5.991,13.204,14.084,13.204,24.347
			c0,6.844-0.984,10.796-2.98,11.992c-1.972,1.119-6.979,1.664-14.965,1.664c-22.762,0-48.079-0.703-76.007-2.141
			c-27.902-1.387-48.642-2.104-62.298-2.104c-47.253,0-84.284,1.677-111.043,5.123c-31.893,8.546-54.362,13.659-67.489,15.363
			c-7.932,1.157-16.612-1.996-26.007-9.385C4.738,247.937,0,239.101,0,228.874c26.169-1.729,55.403-3.699,87.589-5.975
			c32.106-2.29,62.162-4.861,90.063-7.682L329.669,198.114z"/>
		<path fill="#343466" d="M267.293,0c2.874,0,6.974,1,12.406,2.982c5.376,1.997,9.237,4.406,11.525,7.241
			c2.236,2.86,3.437,6.297,3.437,10.289c0,4.524-0.454,8.639-1.279,12.341c-0.878,3.726-9.425,6.856-25.639,9.425
			c-16.238,2.567-32.638,4.948-49.093,7.227l-81.145,8.561c-19.355,0-33.598-1.999-42.703-5.991
			c-9.078-3.94-14.804-12.246-17.067-24.745c3.411-1.131,21.779-2.863,55.084-5.153c33.278-2.248,55.511-4.271,66.611-5.935
			c11.102-1.747,23.641-4.834,37.593-9.425C250.973,2.276,261.035,0,267.293,0z"/>
		<path fill="#343466" d="M213.515,111.017c15.359,0,23.056,6.271,23.056,18.77l-0.853,17.945c-29.631,0-51.675,0.834-66.184,2.568
			c-14.538,1.703-28.326,3.405-41.427,5.109c-3.408-2.821-6.548-5.682-9.398-8.52c-2.847-2.861-4.551-6.268-5.109-10.247
			l0.851-8.563c26.969-5.137,48.533-9.25,64.586-12.377C195.143,112.585,206.618,111.017,213.515,111.017z"/>
	</g>
</g>
</svg>
