<?xml version="1.0" encoding="utf-8"?>
<!-- Generator: Adobe Illustrator 13.0.0, SVG Export Plug-In . SVG Version: 6.00 Build 14948)  -->
<!DOCTYPE svg PUBLIC "-//W3C//DTD SVG 1.1//EN" "http://www.w3.org/Graphics/SVG/1.1/DTD/svg11.dtd">
<svg version="1.1" id="Layer_1" xmlns="http://www.w3.org/2000/svg" xmlns:xlink="http://www.w3.org/1999/xlink" x="0px" y="0px"
	 width="351.896px" height="602.919px" viewBox="0 0 351.896 602.919" enable-background="new 0 0 351.896 602.919"
	 xml:space="preserve">
<g>
	<path fill="#981B1E" d="M225.681,470.513c-4.66-2.236-10.196-3.408-16.585-3.408c-8.761,0-18.347,2.264-28.862,6.762
		c-0.529,6.178-1.145,12.379-1.704,18.516c3.995-0.545,15.229-2.674,33.68-6.295c18.421-3.674,34.265-5.51,47.522-5.51
		c22.471,0,39.321,3.832,50.529,11.395c11.235,7.611,16.853,21.832,16.853,42.598c0,17.678-7.11,32.465-21.351,44.391
		c-14.246,11.967-31.016,17.945-50.371,17.945c-14.244,0-28.487-3.703-42.702-11.088c-15.949-9.717-31.897-19.395-47.842-29.033
		c-4.581,3.406-10.092,5.525-16.665,6.389c-6.551,0.865-12.699,1.84-18.346,3.021c-2.874-2.313-6.682-5.842-11.525-10.703
		c-4.874-4.855-6.975-10.381-6.416-16.65c5.137-0.547,13.949-1.254,26.487-2.158c12.515-0.838,19.648-1.25,21.325-1.25
		l-2.554-23.949c-13.658,2.891-25.16,5.207-34.585,6.91c-9.371,1.732-21.482,4.633-36.313,8.652
		c5.673,13.205,10.197,24.268,13.63,33.172c3.462,8.877,5.167,15.654,5.167,20.219c0,14.988-5.085,22.482-15.335,22.482
		c-6.283,0-10.677-4.725-13.258-14.119c-2.529-9.412-4.848-18.477-6.845-27.33c-1.968-8.799-3.859-18.357-5.536-28.605
		c-9.131,1.158-18.05,2.701-26.915,4.723c-8.786,1.959-14.058,2.957-15.787,2.957c-2.288,0-5.698-0.572-10.25-1.703
		c10.81-5.113,19.78-8.521,26.915-10.264c7.109-1.664,14.378-3.406,21.779-5.109l-4.262-11.984l-5.137-10.781l-3.437-13.072
		c11.314,3.941,18.77,7.867,22.499,11.662c3.674,3.859,7.455,9.039,11.42,15.629l76.248-17.066v-13.67
		c-9.959,2.275-19.915,4.564-29.898,6.854c2.877-1.131,7.401-3.699,13.656-7.652c6.283-3.996,11.397-6.244,15.388-6.818
		c-0.584-3.379-0.291-6.467,0.854-9.289c-8.548,1.705-16.082,3.115-22.632,4.234c-6.547,1.129-9.503,3.672-8.971,7.584
		c-2.822,0-5.402-0.662-7.667-2.086c-2.29-1.412-4.578-3.25-6.814-5.498c-2.877,0-4.288-2.529-4.288-7.617
		c1.118-8.451,1.704-14.949,1.704-19.447c-3.433-7.852-7.134-16.172-11.103-24.92c-3.965-8.742-6.014-14.24-6.014-16.49
		c1.781-1.41,3.512-2.477,5.216-3.184c1.732-0.703,3.488-1.061,5.219-1.061c2.292,0,4.737,0.742,7.348,2.154
		c2.582,1.383,5.723,3.955,9.53,7.654c3.729,3.727,6.179,7.131,7.323,10.25c1.171,3.152,2.022,5.537,2.607,7.268
		c2.314,0,5.751-0.705,10.384-2.158c4.604-1.41,10.675-3.82,18.157-7.266v-13.658l-29.816,0.891
		c-1.175-2.301-2.026-4.885-2.611-7.707c10.249-7.975,22.63-14.629,37.138-20.059c14.513-5.432,23.321-11.809,26.465-19.197
		c3.14-7.398,5.696-13.123,7.666-17.105c2.025-3.979,2.982-7.971,2.982-11.963c-11.927,1.703-22.868,3.406-32.851,5.15
		c-9.958,1.664-18.932,4.818-26.862,9.385c6.229,7.973,8.809,15.08,7.638,21.322c-1.144,6.26-5.135,9.412-11.927,9.412
		c-6.843-3.41-10.672-5.686-11.58-6.842c-0.826-1.131-1.836-7.682-2.953-19.623c-8.547-1.117-14.485-1.41-17.893-0.891
		c-10.275,2.861-17.438,4.727-21.403,5.59c-3.994,0.84-8.254,1.254-12.778,1.254c-5.113,0-11.956-1.84-20.528-5.498l-11.954-12.539
		l18.77-1.57h29.046c10.249,0,19.089-1.412,26.491-4.275c1.145-4.539,0.878-9.971-0.882-16.238
		c-1.703-6.242-2.528-9.93-2.528-11.127c0-3.952,1.438-7.389,4.394-10.224c1.785-3.436,4.099-5.978,7.057-7.682
		c2.927-1.703,5.591-3.434,7.931-5.109l6.18,6.813c0.559,2.251,1.035,5.685,1.274,10.223c0.293,4.595,0.747,9.424,1.358,14.565
		c0,7.402,1.704,11.926,5.114,13.629c10.249-2.822,21.482-5.816,33.728-8.93c12.25-3.158,22.045-4.406,29.447-3.861l0.878-15.403
		c-2.345-7.358-6.655-13.63-12.86-18.783c-6.202-5.109-9.901-10.249-11.075-15.359c1.119-6.816,7.695-10.249,19.675-10.249
		c4.527,0,10.223,0.729,17.039,2.144c6.87,1.424,11.688,4.123,14.534,8.105c2.825,3.992,4.82,8.268,5.992,12.831l-2.581,31.574
		l28.194-3.406c7.397,0,15.093-0.292,23.027-0.878c8.015-0.546,12.831-0.825,14.534-0.825c5.725,0.572,11.395,1.118,17.094,1.703
		c2.821,1.144,5.986,5.14,9.397,11.953l-0.852,18.225c-9.132,2.314-17.358,3.473-24.788,3.473c-1.703,0-10.381-1.277-26.063-3.889
		c-15.626-2.605-30.004-3.924-43.074-3.924c-2.903,0-6.152,3.221-9.852,9.559c-3.699,6.389-9.796,15.652-18.343,27.805
		c2.822,1.119,6.922,1.412,12.381,0.84c5.428-0.547,10.939-1.131,16.639-1.678c10.25,0,16.505,0.838,18.822,2.541
		c2.236,1.707,3.407,7.43,3.407,17.068v15.373c0,17.066-0.747,30.482-2.209,40.119c-1.438,9.705-4.5,16.814-9.159,21.352
		L225.681,470.513z M157.154,438.085l-22.179,2.57c-3.406,8.52-2.606,14.203,2.477,17.039c6.551-2.25,13.124-4.818,19.702-7.682
		V438.085z M259.173,506.269c-2.769-1.025-6.152-2.025-10.066-2.891c-3.911-0.838-7.266-0.971-10.088-0.41l-7.563,1.703
		c2.825,1.982,5.14,4.777,6.817,8.293c1.73,3.5,3.699,7.002,6.017,10.504v33.316c-8.812,2.861-14.429,4.271-16.746,4.271
		l-10.622-1.703v-22.256c-12.434,3.447-20.578,5.857-24.386,7.268c-3.886,1.451-10.276,5.018-19.141,10.678
		c6.228,2.289,17.062,5.563,32.613,9.834c15.547,4.271,25.29,6.15,29.256,5.564c9.053-1.73,19.46-3.82,31.334-6.402
		c11.875-2.568,17.813-9.543,17.813-20.926c0-11.924-1.118-19.832-3.327-23.789C278.817,515.371,271.524,510.992,259.173,506.269z
		 M178.529,531.16c1.652-0.547,7.643-1.543,17.919-2.996c10.329-1.408,17.145-2.992,20.473-4.695v-18.797
		c-4.524-1.703-10.808-1.428-18.77,0.865c-7.961,2.275-13.949,3.432-17.944,3.432c-1.118,4.541-1.678,8.521-1.678,11.928V531.16z
		 M226.508,388.541h-18.933l-22.229,4.236v18.848c2.9,0,6.708,0,11.394,0c4.075,0,11.103,1.664,21.085,5.072v6.016l-18.447,8.518
		c-8.786,2.293-13.445,3.996-14.031,5.152c-0.559,1.119-0.559,4.529,0,10.223l35.86-2.541c2.291-2.291,4.846-4.541,7.721-6.855
		c1.677-8.547,2.527-15.627,2.527-21.338C231.455,409.054,229.778,399.951,226.508,388.541z"/>
	<path fill="#343466" d="M294.661,0c11.926,0,23.32,2.673,34.155,8.105c10.809,5.43,18.477,12.085,23.08,20.032
		c0,14.844-1.036,30.763-3.034,47.868c-1.971,17.039-5.271,33.277-9.797,48.641c-4.55,15.373-11.527,32.479-20.926,51.245
		c-9.397,18.81-21.509,28.168-36.313,28.168c-1.118,0-2.714-1.131-4.688-3.407c-1.994-2.248-4.978-3.992-8.969-5.109
		c-33.012,0-64.347,0.571-93.926,1.703c-29.631,1.158-60.06,3.406-91.396,6.813c-3.965,3.981-7.8,6.433-11.502,7.267
		c-3.699,0.842-8.704,1.026-14.936,0.415c-10.81,0-22.92-13.765-36.313-41.37C6.735,142.723,0,101.336,0,46.069
		c0-9.639,9.718-17.334,29.072-23.046c7.399,1.707,12.22,3.437,14.509,5.114c24.494-3.927,45.257-6.948,62.376-8.944
		c17.041-1.996,30.989-2.996,41.824-2.996c46.671,0,81.146-1.703,103.322-5.109C265.322,7.678,279.805,3.952,294.661,0z
		 M95.681,44.405c-4.019,0-10.25,0.956-18.797,2.979c-8.516,2-14.533,3.289-17.939,3.835l-1.707,33.308
		c0,19.381,1.838,37.549,5.563,54.655c3.676,17.066,9.799,29.871,18.346,38.417c10.224-1.118,20.206-1.825,29.924-2.157
		c9.638-0.253,20.765-2.088,33.251-5.525c-6.257-1.702-11.795-4.698-16.612-8.973c-4.847-4.271-8.839-10.832-11.953-19.645
		c-3.144-8.839-6.737-25.88-10.702-51.21C101.087,64.756,97.943,49.475,95.681,44.405z M192.934,35.845
		c-3.302,0.586-11.207,1.133-23.588,1.704c-12.433,0.546-23.933,1.996-34.37,4.285c0.669,4.554,1.119,9.092,1.358,13.659
		c0.215,4.524,0.346,9.97,0.346,16.198c0,5.152-0.292,10.266-0.878,15.403c-0.532,5.108-0.826,10.263-0.826,15.375
		c0,3.979,0.826,10.661,2.582,20.059c1.732,9.385,4.288,17.81,7.747,25.198c5.166,8.521,9.214,15.919,12.114,22.189l24.146-0.863
		c9.184-19.902,16.987-37.846,23.268-53.765c6.363-15.976,10.358-30.47,12.088-43.597c1.145-7.359-1.598-14.748-8.254-22.217
		C200.362,42.117,195.144,37.549,192.934,35.845z M284.411,32.436h-59.795c14.242,9.174,22.656,15.764,25.212,19.782
		c2.554,3.979,3.808,11.154,3.808,21.473c0,26.326-7.669,47.267-23.031,62.722c-19.94,14.337-33.864,24.626-41.877,30.938
		l47.867-4.25c10.783,0,18.504,0.297,23.029,0.842c4.58,0.572,8.254,1.435,11.127,2.569c5.699-15.403,9.665-30.353,11.953-44.847
		c2.266-14.512,4.288-26.876,5.992-37.138c1.703-10.263,2.82-17.36,3.405-21.352c0.534-3.981,0.827-7.136,0.827-9.385
		C292.929,45.789,290.08,38.706,284.411,32.436z"/>
</g>
</svg>
