<?xml version="1.0" encoding="utf-8"?>
<!-- Generator: Adobe Illustrator 13.0.0, SVG Export Plug-In . SVG Version: 6.00 Build 14948)  -->
<!DOCTYPE svg PUBLIC "-//W3C//DTD SVG 1.1//EN" "http://www.w3.org/Graphics/SVG/1.1/DTD/svg11.dtd">
<svg version="1.1" id="Layer_1" xmlns="http://www.w3.org/2000/svg" xmlns:xlink="http://www.w3.org/1999/xlink" x="0px" y="0px"
	 width="390.262px" height="634.525px" viewBox="0 0 390.262 634.525" enable-background="new 0 0 390.262 634.525"
	 xml:space="preserve">
<g>
	<path fill="#981B1E" d="M245.276,502.119c-4.634-2.236-10.172-3.408-16.587-3.408c-8.76,0-18.342,2.264-28.806,6.762
		c-0.586,6.178-1.227,12.379-1.759,18.516c3.995-0.545,15.176-2.674,33.705-6.295c18.398-3.674,34.212-5.51,47.443-5.51
		c22.521,0,39.348,3.832,50.607,11.395c11.184,7.611,16.854,21.832,16.854,42.598c0,17.678-7.136,32.465-21.404,44.391
		c-14.219,11.967-30.99,17.945-50.344,17.945c-14.298,0-28.486-3.703-42.703-11.088c-15.948-9.717-31.893-19.395-47.842-29.033
		c-4.577,3.406-10.089,5.525-16.665,6.389c-6.55,0.865-12.672,1.84-18.368,3.021c-2.85-2.313-6.711-5.842-11.528-10.703
		c-4.817-4.855-6.95-10.381-6.415-16.65c5.135-0.547,13.948-1.254,26.543-2.158c12.485-0.838,19.617-1.25,21.297-1.25l-2.531-23.949
		c-13.682,2.891-25.186,5.207-34.58,6.91c-9.397,1.732-21.538,4.633-36.343,8.652c5.673,13.205,10.172,24.268,13.634,33.172
		c3.407,8.877,5.162,15.654,5.162,20.219c0,14.988-5.082,22.482-15.385,22.482c-6.232,0-10.651-4.725-13.232-14.119
		c-2.503-9.412-4.82-18.477-6.817-27.33c-1.997-8.799-3.86-18.357-5.538-28.605c-9.131,1.158-18.075,2.701-26.941,4.723
		c-8.812,1.959-14.004,2.957-15.76,2.957c-2.314,0-5.725-0.572-10.276-1.703c10.86-5.113,19.809-8.521,26.942-10.264
		c7.135-1.664,14.401-3.406,21.804-5.109l-4.313-11.984l-5.137-10.781l-3.407-13.072c11.313,3.941,18.767,7.867,22.496,11.662
		c3.673,3.859,7.454,9.039,11.394,15.629l76.299-17.066v-13.67c-9.957,2.275-19.993,4.564-29.95,6.854
		c2.903-1.131,7.402-3.699,13.686-7.652c6.308-3.996,11.396-6.244,15.387-6.818c-0.585-3.379-0.267-6.467,0.878-9.289
		c-8.599,1.705-16.133,3.115-22.68,4.234c-6.55,1.129-9.532,3.672-8.947,7.584c-2.821,0-5.402-0.662-7.639-2.086
		c-2.318-1.412-4.633-3.25-6.896-5.498c-2.825,0-4.235-2.529-4.235-7.617c1.147-8.451,1.681-14.949,1.681-19.447
		c-3.411-7.852-7.084-16.172-11.075-24.92c-3.994-8.742-5.966-14.24-5.966-16.49c1.729-1.41,3.46-2.477,5.192-3.184
		c1.729-0.703,3.406-1.061,5.138-1.061c2.317,0,4.764,0.742,7.401,2.154c2.58,1.383,5.725,3.955,9.529,7.654
		c3.729,3.727,6.179,7.131,7.322,10.25c1.171,3.152,1.996,5.537,2.582,7.268c2.314,0,5.777-0.705,10.411-2.158
		c4.629-1.41,10.673-3.82,18.181-7.266v-13.658l-29.815,0.891c-1.227-2.301-2.078-4.885-2.636-7.707
		c10.223-7.975,22.629-14.629,37.164-20.059c14.457-5.432,23.268-11.809,26.412-19.197c3.166-7.398,5.72-13.123,7.721-17.105
		c1.994-3.979,2.952-7.971,2.952-11.963c-11.953,1.703-22.866,3.406-32.851,5.15c-9.956,1.664-18.904,4.818-26.862,9.385
		c6.228,7.973,8.784,15.08,7.64,21.322c-1.145,6.26-5.137,9.412-11.953,9.412c-6.816-3.41-10.674-5.686-11.527-6.842
		c-0.824-1.131-1.863-7.682-2.955-19.623c-8.598-1.117-14.537-1.41-17.944-0.891c-10.275,2.861-17.412,4.727-21.323,5.59
		c-4.075,0.84-8.308,1.254-12.858,1.254c-5.087,0-11.983-1.84-20.529-5.498L55.51,366.224l18.793-1.57h28.994
		c10.275,0,19.088-1.412,26.489-4.275c1.144-4.539,0.826-9.971-0.907-16.238c-1.676-6.242-2.502-9.93-2.502-11.127
		c0-3.953,1.41-7.389,4.449-10.225c1.729-3.436,4.044-5.977,7-7.681c2.954-1.703,5.592-3.434,7.905-5.109l6.18,6.813
		c0.559,2.25,1.009,5.684,1.327,10.223c0.268,4.594,0.721,9.424,1.307,14.564c0,7.402,1.729,11.926,5.14,13.629
		c10.223-2.822,21.482-5.816,33.702-8.93c12.275-3.158,22.045-4.406,29.446-3.861l0.905-15.402
		c-2.398-7.359-6.63-13.63-12.857-18.784c-6.18-5.109-9.904-10.249-11.076-15.359c1.172-6.816,7.666-10.249,19.675-10.249
		c4.498,0,10.221,0.729,17.036,2.144c6.817,1.424,11.635,4.123,14.538,8.105c2.82,3.992,4.817,8.268,5.987,12.831l-2.581,31.574
		l28.169-3.406c7.397,0,15.119-0.291,23.08-0.877c7.986-0.547,12.805-0.826,14.455-0.826c5.725,0.572,11.447,1.119,17.12,1.703
		c2.899,1.145,5.99,5.141,9.45,11.953l-0.905,18.225c-9.131,2.314-17.357,3.473-24.761,3.473c-1.729,0-10.407-1.277-26.037-3.889
		c-15.678-2.605-30.028-3.924-43.152-3.924c-2.824,0-6.096,3.221-9.773,9.559c-3.726,6.389-9.822,15.652-18.367,27.805
		c2.82,1.119,6.921,1.412,12.327,0.84c5.481-0.547,10.992-1.131,16.718-1.678c10.223,0,16.478,0.838,18.796,2.541
		c2.236,1.707,3.407,7.43,3.407,17.068v15.373c0,17.066-0.773,30.482-2.21,40.119c-1.464,9.705-4.498,16.814-9.185,21.352
		L245.276,502.119z M176.773,469.691l-22.229,2.57c-3.407,8.52-2.582,14.203,2.503,17.039c6.549-2.25,13.125-4.818,19.726-7.682
		V469.691z M278.768,537.875c-2.77-1.025-6.098-2.025-10.093-2.891c-3.938-0.838-7.267-0.971-10.036-0.41l-7.585,1.703
		c2.82,1.982,5.137,4.777,6.813,8.293c1.729,3.5,3.729,7.002,5.99,10.504v33.316c-8.812,2.861-14.402,4.271-16.721,4.271
		l-10.621-1.703v-22.256c-12.406,3.447-20.577,5.857-24.438,7.268c-3.835,1.451-10.224,5.018-19.089,10.678
		c6.229,2.289,17.037,5.563,32.613,9.834c15.548,4.271,25.316,6.15,29.257,5.564c9.052-1.73,19.463-3.82,31.364-6.402
		c11.844-2.568,17.757-9.543,17.757-20.926c0-11.924-1.092-19.832-3.354-23.789C298.386,546.976,291.118,542.597,278.768,537.875z
		 M198.125,562.765c1.624-0.547,7.669-1.543,17.943-2.996c10.304-1.408,17.12-2.992,20.447-4.695v-18.797
		c-4.551-1.703-10.809-1.428-18.77,0.865c-7.987,2.275-13.949,3.432-17.941,3.432c-1.147,4.541-1.68,8.521-1.68,11.928V562.765z
		 M246.102,420.146h-18.957l-22.203,4.236v18.848c2.904,0,6.709,0,11.394,0c4.101,0,11.129,1.664,21.086,5.072v6.016l-18.448,8.518
		c-8.76,2.293-13.447,3.996-14.031,5.152c-0.56,1.119-0.56,4.529,0,10.223l35.832-2.541c2.32-2.291,4.874-4.541,7.696-6.855
		c1.759-8.547,2.584-15.627,2.584-21.338C251.054,440.66,249.377,431.556,246.102,420.146z"/>
	<g>
		<path fill="#343466" d="M300.568,0c13.127,0,20.953,2.996,23.535,8.936c2.502,5.987,4.236,10.555,5.088,13.669
			c0.824,3.153-0.136,5.564-2.958,7.267l-23.105,10.25c-11.956,2.861-20.181,4.834-24.735,5.979
			c-4.577,1.131-12.539,1.703-23.933,1.703c0,1.704,1.599,3.128,4.687,4.246c3.166,1.2,4.711,2.318,4.711,3.449
			c-1.226,10.249-3.275,18.927-6.175,26.036c-2.824,7.136-6.444,16.081-10.944,26.915c5.141,0,12.993-1.41,23.535-4.285
			c10.489-2.823,17.173-4.234,20.076-4.234c6.227,0,16.184,2.957,29.814,8.931c13.712,5.978,21.937,10.677,24.841,14.083
			c2.821,3.45,4.366,6.141,4.685,8.107c0.267,2.025-0.374,4.688-2.131,8.135c-1.144,1.703-3.273,3.407-6.415,5.137
			c-3.14,1.676-6.44,6.271-9.77,13.673c-3.488,7.386-7.03,15.905-10.677,25.623c-3.809,9.677-6.441,17.04-8.172,22.175v12.792
			c0.586,0,6.307-1.117,17.116-3.433c10.782-2.25,17.093-3.088,18.77-2.502c11.954,2.278,19.809,4.658,23.456,7.228
			c3.726,2.542,9.848,8.974,18.395,19.224l-3.407,16.237c-3.406,0.575-7.267,0.999-11.581,1.253
			c-4.232,0.293-9.771,0.424-16.639,0.424c-4.5,0-12.22-0.838-23.028-2.58c-10.809-1.664-18.503-2.504-23.081-2.504
			c-18.186,0-35.168,0.412-50.798,1.254c-15.626,0.836-27.714,1.861-36.339,2.992c-20.447,0-36.26,1.414-47.389,4.274
			c-11.049,2.861-22.551,5.976-34.582,9.425c-6.232,0-11.636-2.025-16.215-6.018c-4.552-3.979-9.37-9.678-14.535-17.066
			c-5.643,10.799-9.957,17.931-12.779,21.341c-2.822,3.407-5.99,5.149-9.398,5.149c-5.724-2.861-11.262-6.695-16.639-11.581
			c-5.406-4.817-8.121-12.338-8.121-22.601l14.537-78.578v-33.305c-9.717,13.124-21.909,29.868-36.714,50.381
			C28.701,198.116,14.189,211.519,0,217.763c30.19-46.657,54.23-88.389,72.175-125.101C90.117,55.909,99.037,25.881,99.037,2.571
			h18.796c11.635,3.382,23.64,8.811,35.86,16.213c0,3.409-0.827,6.55-2.635,9.385l-10.357,7.681
			c-9.317,16.53-16.958,29.737-23.003,39.707c-6.122,9.996-11.445,16.975-16.079,20.927c4.498,2.861,9.397,5.403,14.535,7.681
			c-2.316,14.827-3.857,28.204-4.683,40.158c-0.908,11.93-1.358,26.171-1.358,42.705c0,16.518,0.184,28.125,0.45,34.968
			c0.24,6.856,0.96,13.416,2.104,19.675c5.725-1.118,14.669-2.411,26.94-3.821c12.22-1.45,24.626-2.118,37.165-2.118
			c2.77-7.904,5.672-17.395,8.493-28.417c2.904-10.997,5.141-22.163,6.896-33.479l5.962-34.74l-40.117,6.813
			c-4.635-1.743-7.59-4.578-9.001-8.49c-1.463-3.956-2.69-7.363-3.86-10.198l59.795-10.314l5.991-62.766
			c-2.902,0.613-5.856,0.905-9,0.905c-3.088,0-5.271,0-6.364,0c-9.13,0-15.704-1.729-19.673-5.205
			c-3.991-3.446-7.987-11.154-11.979-23.212c7.402-1.133,17.945-2.293,31.652-3.411c13.632-1.157,28.594-3.18,44.809-6.043
			c16.214-2.835,28.434-5.604,36.714-8.173C285.315,6.43,293.17,3.45,300.568,0z M284.357,129.801
			c-6.23-1.743-11.953-2.582-17.092-2.582c-6.255,0-11.529,0.586-15.813,1.744c-4.26,1.117-7.801,1.955-10.679,2.541
			c-1.676,9.119-4.949,25.906-9.795,50.371c-4.87,24.504-7.826,40.453-8.998,47.842l51.967-8.547
			c2.318-10.835,4.633-21.219,6.947-31.16c2.318-9.971,3.463-22.67,3.463-38.007V129.801z"/>
	</g>
</g>
</svg>
