<?xml version="1.0" encoding="utf-8"?>
<!-- Generator: Adobe Illustrator 13.0.0, SVG Export Plug-In . SVG Version: 6.00 Build 14948)  -->
<!DOCTYPE svg PUBLIC "-//W3C//DTD SVG 1.1//EN" "http://www.w3.org/Graphics/SVG/1.1/DTD/svg11.dtd">
<svg version="1.1" id="Layer_1" xmlns="http://www.w3.org/2000/svg" xmlns:xlink="http://www.w3.org/1999/xlink" x="0px" y="0px"
	 width="341.652px" height="648.22px" viewBox="0 0 341.652 648.22" enable-background="new 0 0 341.652 648.22"
	 xml:space="preserve">
<g>
	<path fill="#981B1E" d="M220.545,515.814c-4.688-2.236-10.224-3.408-16.666-3.408c-8.68,0-18.237,2.264-28.805,6.762
		c-0.561,6.178-1.148,12.379-1.734,18.516c4.049-0.545,15.255-2.674,33.705-6.295c18.452-3.674,34.266-5.51,47.523-5.51
		c22.496,0,39.266,3.832,50.529,11.395c11.263,7.611,16.852,21.832,16.852,42.598c0,17.678-7.082,32.465-21.352,44.391
		c-14.218,11.967-31.067,17.945-50.343,17.945c-14.272,0-28.487-3.703-42.756-11.088c-15.896-9.717-31.896-19.395-47.789-29.033
		c-4.551,3.406-10.089,5.525-16.639,6.389c-6.577,0.865-12.752,1.84-18.396,3.021c-2.824-2.313-6.685-5.842-11.503-10.703
		c-4.899-4.855-7.026-10.381-6.44-16.65c5.136-0.547,13.948-1.254,26.487-2.158c12.542-0.838,19.621-1.25,21.354-1.25l-2.585-23.949
		c-13.63,2.891-25.132,5.207-34.583,6.91c-9.398,1.732-21.482,4.633-36.261,8.652c5.595,13.205,10.146,24.268,13.633,33.172
		c3.408,8.877,5.137,15.654,5.137,20.219c0,14.988-5.137,22.482-15.359,22.482c-6.311,0-10.677-4.725-13.259-14.119
		c-2.555-9.412-4.82-18.477-6.816-27.33c-1.996-8.799-3.859-18.357-5.537-28.605c-9.105,1.158-18.13,2.701-26.942,4.723
		c-8.785,1.959-14.056,2.957-15.813,2.957c-2.236,0-5.646-0.572-10.223-1.703c10.809-5.113,19.753-8.521,26.94-10.264
		c7.084-1.664,14.351-3.406,21.754-5.109l-4.263-11.984l-5.136-10.781l-3.407-13.072c11.313,3.941,18.768,7.867,22.443,11.662
		c3.672,3.859,7.533,9.039,11.446,15.629l76.246-17.066v-13.67c-9.957,2.275-19.915,4.564-29.896,6.854
		c2.851-1.131,7.401-3.699,13.711-7.652c6.229-3.996,11.368-6.244,15.36-6.818c-0.586-3.379-0.318-6.467,0.825-9.289
		c-8.546,1.705-16.053,3.115-22.63,4.234c-6.547,1.129-9.503,3.672-8.943,7.584c-2.875,0-5.461-0.662-7.696-2.086
		c-2.262-1.412-4.577-3.25-6.813-5.498c-2.848,0-4.26-2.529-4.26-7.617c1.091-8.451,1.675-14.949,1.675-19.447
		c-3.406-7.852-7.132-16.172-11.127-24.92c-3.992-8.742-5.962-14.24-5.962-16.49c1.782-1.41,3.512-2.477,5.192-3.184
		c1.73-0.703,3.486-1.061,5.215-1.061c2.318,0,4.769,0.742,7.323,2.154c2.582,1.383,5.805,3.955,9.53,7.654
		c3.729,3.727,6.231,7.131,7.322,10.25c1.146,3.152,2.049,5.537,2.635,7.268c2.318,0,5.777-0.705,10.411-2.158
		c4.577-1.41,10.673-3.82,18.128-7.266v-13.658l-29.815,0.891c-1.174-2.301-2.078-4.885-2.585-7.707
		c10.224-7.975,22.578-14.629,37.113-20.059c14.537-5.432,23.32-11.809,26.49-19.197c3.141-7.398,5.725-13.123,7.639-17.105
		c1.999-3.979,3.035-7.971,3.035-11.963c-11.979,1.703-22.894,3.406-32.851,5.15c-10.035,1.664-18.983,4.818-26.941,9.385
		c6.229,7.973,8.783,15.08,7.691,21.322c-1.145,6.26-5.137,9.412-11.953,9.412c-6.813-3.41-10.674-5.686-11.581-6.842
		c-0.825-1.131-1.782-7.682-2.954-19.623c-8.545-1.117-14.458-1.41-17.943-0.891c-10.224,2.861-17.359,4.727-21.324,5.59
		c-3.996,0.84-8.254,1.254-12.806,1.254c-5.14,0-11.956-1.84-20.525-5.498l-11.956-12.539l18.77-1.57h29.072
		c10.224,0,19.088-1.412,26.491-4.275c1.091-4.539,0.851-9.971-0.908-16.238c-1.647-6.242-2.501-9.93-2.501-11.127
		c0-3.953,1.412-7.389,4.364-10.225c1.813-3.436,4.128-5.977,7.085-7.682c2.899-1.703,5.537-3.434,7.904-5.109l6.18,6.814
		c0.586,2.25,1.035,5.684,1.274,10.223c0.32,4.594,0.773,9.424,1.358,14.564c0,7.402,1.678,11.926,5.14,13.629
		c10.224-2.822,21.482-5.816,33.702-8.93c12.275-3.158,22.045-4.406,29.447-3.861l0.904-15.402
		c-2.371-7.359-6.682-13.631-12.857-18.784c-6.23-5.109-9.905-10.249-11.074-15.359c1.117-6.816,7.664-10.249,19.617-10.249
		c4.58,0,10.224,0.729,17.119,2.144c6.817,1.424,11.635,4.123,14.455,8.105c2.904,3.992,4.9,8.268,6.044,12.831l-2.581,31.574
		l28.167-3.406c7.399,0,15.12-0.291,23.028-0.877c8.04-0.547,12.857-0.826,14.536-0.826c5.724,0.572,11.449,1.119,17.091,1.703
		c2.849,1.145,5.992,5.141,9.398,11.953l-0.851,18.225c-9.132,2.314-17.359,3.473-24.735,3.473c-1.756,0-10.434-1.277-26.115-3.889
		c-15.628-2.605-30.029-3.924-43.074-3.924c-2.904,0-6.124,3.221-9.853,9.559c-3.646,6.389-9.822,15.652-18.315,27.805
		c2.82,1.119,6.948,1.412,12.354,0.84c5.456-0.547,10.994-1.131,16.64-1.678c10.302,0,16.53,0.838,18.767,2.541
		c2.266,1.707,3.489,7.43,3.489,17.068v15.373c0,17.066-0.773,30.482-2.185,40.119c-1.489,9.705-4.577,16.814-9.21,21.352
		L220.545,515.814z M151.989,483.386l-22.177,2.57c-3.406,8.52-2.582,14.203,2.449,17.039c6.552-2.25,13.181-4.818,19.728-7.682
		V483.386z M254.035,551.57c-2.824-1.025-6.179-2.025-10.091-2.891c-3.913-0.838-7.267-0.971-10.089-0.41l-7.59,1.703
		c2.904,1.982,5.141,4.777,6.869,8.293c1.761,3.5,3.674,7.002,5.992,10.504v33.316c-8.813,2.861-14.403,4.271-16.722,4.271
		l-10.595-1.703v-22.256c-12.486,3.447-20.578,5.857-24.439,7.268c-3.859,1.451-10.302,5.018-19.166,10.678
		c6.228,2.289,17.088,5.563,32.664,9.834c15.496,4.271,25.266,6.15,29.258,5.564c9-1.73,19.49-3.82,31.308-6.402
		c11.848-2.568,17.813-9.543,17.813-20.926c0-11.924-1.091-19.832-3.328-23.789C273.654,560.671,266.387,556.292,254.035,551.57z
		 M173.34,576.46c1.678-0.547,7.669-1.543,17.945-2.996c10.354-1.408,17.172-2.992,20.525-4.695v-18.797
		c-4.577-1.703-10.888-1.428-18.796,0.865c-7.959,2.275-13.949,3.432-17.94,3.432c-1.148,4.541-1.734,8.521-1.734,11.928V576.46z
		 M221.369,433.841h-18.957l-22.176,4.236v18.848c2.876,0,6.682,0,11.367,0c4.049,0,11.075,1.664,21.032,5.072v6.016l-18.395,8.518
		c-8.813,2.293-13.499,3.996-14.005,5.152c-0.639,1.119-0.639,4.529,0,10.223l35.807-2.541c2.317-2.291,4.873-4.541,7.72-6.855
		c1.679-8.547,2.503-15.627,2.503-21.338C226.266,454.355,224.671,445.251,221.369,433.841z"/>
	<g>
		<path fill="#343466" d="M164.793,0c12.036,0,20.263,3.153,24.762,9.425c4.552,6.268,6.869,15.08,6.869,26.464
			c0,7.971-0.693,18.635-2.183,32.012c-1.411,13.407-2.131,21.22-2.131,23.47l92.273-12.792c13.071,0,25.612,2.729,37.565,8.106
			c11.953,5.429,18.504,12.698,19.623,21.791c1.144,11.927-9.984,17.94-33.253,17.94c-9.716,0-30.482-0.703-62.379-2.156
			c-31.894-1.408-55.8-2.115-71.692-2.115c-25.08,2.861-51.196,6.136-78.193,9.836c-26.993,3.689-47.974,8.934-62.748,15.79
			c-6.256-3.448-12.939-7.682-20.075-12.834C6.097,129.827,1.732,122.438,0,112.721l164.793-18.77v-23.92
			c-2.313-19.354-4.23-30.578-5.721-33.731c-1.41-3.114-9.773-14.083-24.998-32.853c6.229-1.133,11.818-1.997,16.64-2.583
			C155.531,0.293,160.296,0,164.793,0z"/>
		<path fill="#343466" d="M78.564,167.376l28.168,0.907c5.136,1.664,10.674,3.271,16.665,4.656
			c5.962,1.441,12.646,5.019,20.046,10.678c-18.768,25.08-40.252,46.003-64.479,62.75c-24.176,16.824-43.928,29.23-59.291,37.205
			l-10.303-0.908c15.948-16.491,30.618-34.273,43.981-53.336C66.743,210.239,75.157,189.618,78.564,167.376z"/>
		<path fill="#343466" d="M319.367,254.5c0,12.538-2.239,19.94-6.816,22.215c-4.551,2.25-9.052,2.25-13.686,0
			c-4.498-2.274-8.49-4.523-11.896-6.842c-3.463-2.289-11.717-12.924-24.814-32.025c-13.123-19.062-28.435-41.958-46.111-68.742
			c-1.171-2.848-0.585-5.39,1.732-7.678c15.359,0,36.152,9.354,62.324,28.19C306.268,208.4,319.367,230.031,319.367,254.5z"/>
	</g>
</g>
</svg>
