<?xml version="1.0" encoding="utf-8"?>
<!-- Generator: Adobe Illustrator 13.0.0, SVG Export Plug-In . SVG Version: 6.00 Build 14948)  -->
<!DOCTYPE svg PUBLIC "-//W3C//DTD SVG 1.1//EN" "http://www.w3.org/Graphics/SVG/1.1/DTD/svg11.dtd">
<svg version="1.1" id="Layer_1" xmlns="http://www.w3.org/2000/svg" xmlns:xlink="http://www.w3.org/1999/xlink" x="0px" y="0px"
	 width="340.518px" height="641.597px" viewBox="0 0 340.518 641.597" enable-background="new 0 0 340.518 641.597"
	 xml:space="preserve">
<g>
	<path fill="#981B1E" d="M238.208,509.19c-4.688-2.236-10.224-3.407-16.588-3.407c-8.729,0-18.315,2.263-28.858,6.761
		c-0.532,6.179-1.17,12.38-1.675,18.517c3.995-0.546,15.174-2.674,33.625-6.296c18.448-3.674,34.262-5.509,47.52-5.509
		c22.495,0,39.349,3.831,50.531,11.394c11.261,7.612,16.849,21.832,16.849,42.598c0,17.678-7.077,32.466-21.35,44.392
		c-14.216,11.967-30.99,17.945-50.342,17.945c-14.271,0-28.485-3.703-42.706-11.089c-15.943-9.717-31.892-19.395-47.837-29.032
		c-4.555,3.406-10.093,5.524-16.639,6.389c-6.578,0.865-12.674,1.839-18.399,3.021c-2.82-2.313-6.682-5.843-11.499-10.703
		c-4.899-4.856-6.948-10.381-6.444-16.651c5.139-0.547,13.951-1.253,26.49-2.157c12.539-0.839,19.674-1.25,21.351-1.25
		l-2.502-23.949c-13.683,2.891-25.212,5.206-34.661,6.909c-9.32,1.733-21.486,4.634-36.263,8.652
		c5.644,13.206,10.172,24.268,13.632,33.172c3.405,8.878,5.14,15.655,5.14,20.22c0,14.988-5.089,22.482-15.363,22.482
		c-6.228,0-10.674-4.725-13.26-14.12c-2.502-9.411-4.817-18.477-6.812-27.329c-1.971-8.8-3.861-18.358-5.512-28.605
		c-9.133,1.158-18.077,2.7-26.943,4.723c-8.812,1.959-14.082,2.956-15.76,2.956c-2.318,0-5.724-0.572-10.302-1.703
		c10.81-5.113,19.806-8.521,26.94-10.263c7.162-1.664,14.352-3.407,21.751-5.11l-4.26-11.983l-5.139-10.782l-3.407-13.071
		c11.316,3.94,18.77,7.866,22.521,11.661c3.65,3.86,7.455,9.039,11.368,15.63l76.328-17.067v-13.669
		c-10.036,2.275-19.993,4.564-29.977,6.853c2.9-1.131,7.403-3.699,13.709-7.651c6.231-3.996,11.368-6.244,15.364-6.818
		c-0.586-3.379-0.32-6.467,0.903-9.289c-8.625,1.704-16.132,3.114-22.71,4.233c-6.549,1.13-9.503,3.673-8.917,7.585
		c-2.847,0-5.406-0.663-7.669-2.087c-2.313-1.412-4.634-3.25-6.869-5.498c-2.82,0-4.258-2.529-4.258-7.616
		c1.091-8.451,1.677-14.949,1.677-19.447c-3.406-7.853-7.054-16.172-11.049-24.92c-3.991-8.742-6.044-14.24-6.044-16.49
		c1.786-1.41,3.542-2.477,5.271-3.184c1.677-0.703,3.411-1.062,5.141-1.062c2.314,0,4.765,0.743,7.401,2.154
		c2.556,1.384,5.723,3.955,9.503,7.655c3.726,3.726,6.177,7.131,7.347,10.25c1.148,3.152,1.973,5.537,2.559,7.267
		c2.315,0,5.803-0.704,10.408-2.157c4.633-1.41,10.677-3.821,18.21-7.267v-13.657l-29.898,0.891
		c-1.17-2.301-1.995-4.886-2.581-7.707c10.224-7.975,22.628-14.63,37.112-20.059c14.535-5.433,23.347-11.809,26.487-19.197
		c3.144-7.399,5.726-13.124,7.643-17.105c2.075-3.979,3.036-7.972,3.036-11.964c-11.954,1.704-22.897,3.407-32.854,5.15
		c-9.984,1.664-18.98,4.819-26.889,9.385c6.231,7.974,8.813,15.08,7.669,21.323c-1.171,6.259-5.167,9.412-11.98,9.412
		c-6.815-3.41-10.677-5.686-11.502-6.843c-0.903-1.131-1.864-7.682-2.956-19.622c-8.625-1.117-14.535-1.41-17.94-0.891
		c-10.277,2.861-17.439,4.726-21.353,5.59c-4.047,0.84-8.28,1.253-12.861,1.253c-5.083,0-11.952-1.839-20.498-5.498l-11.979-12.538
		l18.796-1.571h29.044c10.224,0,19.116-1.411,26.489-4.274c1.173-4.539,0.851-9.972-0.879-16.238
		c-1.677-6.242-2.528-9.931-2.528-11.128c0-3.952,1.438-7.389,4.393-10.224c1.783-3.436,4.102-5.978,7.054-7.682
		c2.956-1.703,5.59-3.433,7.908-5.109l6.177,6.813c0.586,2.251,1.039,5.685,1.305,10.223c0.318,4.595,0.771,9.425,1.331,14.564
		c0,7.402,1.73,11.927,5.137,13.63c10.25-2.822,21.486-5.817,33.706-8.931c12.271-3.157,22.07-4.406,29.443-3.861l0.903-15.402
		c-2.366-7.358-6.682-13.629-12.856-18.783c-6.176-5.109-9.904-10.249-11.05-15.359c1.091-6.816,7.643-10.249,19.675-10.249
		c4.499,0,10.224,0.729,17.039,2.144c6.815,1.424,11.635,4.123,14.535,8.105c2.821,3.992,4.822,8.268,5.965,12.831l-2.554,31.574
		l28.138-3.406c7.402,0,15.122-0.292,23.111-0.878c7.956-0.546,12.777-0.825,14.454-0.825c5.722,0.572,11.446,1.118,17.089,1.703
		c2.852,1.145,5.992,5.14,9.397,11.953l-0.825,18.224c-9.132,2.315-17.354,3.473-24.756,3.473c-1.73,0-10.438-1.276-26.039-3.888
		c-15.708-2.606-30.028-3.925-43.156-3.925c-2.898,0-6.096,3.222-9.848,9.56c-3.648,6.389-9.773,15.652-18.319,27.805
		c2.825,1.118,6.953,1.411,12.354,0.839c5.459-0.546,10.996-1.131,16.719-1.677c10.223,0,16.455,0.838,18.77,2.541
		c2.263,1.707,3.409,7.429,3.409,17.067v15.373c0,17.066-0.771,30.482-2.183,40.12c-1.493,9.704-4.502,16.813-9.188,21.351
		L238.208,509.19z M169.734,476.763l-22.256,2.569c-3.409,8.52-2.558,14.204,2.502,17.04c6.575-2.25,13.124-4.818,19.754-7.682
		V476.763z M271.724,544.947c-2.769-1.025-6.123-2.026-10.114-2.891c-3.914-0.838-7.268-0.971-10.092-0.411l-7.508,1.704
		c2.821,1.982,5.14,4.777,6.816,8.293c1.731,3.499,3.727,7.001,5.963,10.503v33.317c-8.811,2.861-14.403,4.271-16.718,4.271
		l-10.597-1.704v-22.255c-12.484,3.446-20.58,5.857-24.441,7.267c-3.856,1.451-10.221,5.019-19.086,10.679
		c6.229,2.288,17.037,5.563,32.586,9.834c15.572,4.271,25.264,6.15,29.259,5.564c9.079-1.73,19.485-3.821,31.386-6.402
		c11.822-2.568,17.732-9.543,17.732-20.927c0-11.924-1.093-19.832-3.327-23.788C291.321,554.048,284.053,549.669,271.724,544.947z
		 M191.086,569.836c1.596-0.546,7.641-1.542,17.942-2.996c10.276-1.407,17.094-2.992,20.446-4.695v-18.796
		c-4.579-1.704-10.808-1.428-18.795,0.865c-7.96,2.275-13.952,3.432-17.919,3.432c-1.17,4.541-1.675,8.521-1.675,11.928V569.836z
		 M239.057,427.218h-18.979l-22.177,4.235v18.849c2.873,0,6.681,0,11.368,0c4.07,0,11.127,1.664,21.11,5.071v6.017l-18.478,8.518
		c-8.729,2.292-13.416,3.995-14.001,5.152c-0.586,1.119-0.586,4.528,0,10.223l35.806-2.541c2.315-2.292,4.899-4.541,7.722-6.856
		c1.73-8.546,2.581-15.626,2.581-21.338C244.01,447.731,242.333,438.628,239.057,427.218z"/>
	<path fill="#343466" d="M134.701,0.233c5.642,1.157,10.541,3.979,14.508,8.521c3.992,4.59,5.991,11.088,5.991,19.67
		c0,5.113-1.04,14.922-3.01,29.447c-1.999,14.534-2.981,28.618-2.981,42.278c33.837-19.354,63.733-35.304,89.718-47.843
		c25.985-12.498,48.532-18.77,67.7-18.77c10.73,0,19.038,1.45,24.946,4.246c5.99,2.86,8.945,8.838,8.945,17.932
		c0,8.559-2.182,13.122-6.443,13.668c-4.231,0.573-7.826,0.869-10.674,0.869c-48.987,12.538-90.972,24.465-125.953,35.846
		c-34.981,11.42-52.527,22.787-52.527,34.182v97.506c3.969,2.769,7.83,4.886,11.502,6.297c3.726,1.385,8.679,2.092,14.988,2.092
		c17.093-4.34,33.811-8.093,50.344-11.342c16.535-3.249,27.901-4.859,34.209-4.859c7.961,0,14.91,1.93,20.9,5.886
		c5.962,3.886,8.996,7.241,8.996,10.036c-1.17,2.249-1.729,4.751-1.729,7.585c-1.677,12.272-14.535,19.702-38.523,22.203
		c-23.931,2.542-42.702,3.769-56.201,3.769c-19.727,0-35.94-2.502-48.61-7.586c-12.726-5.047-20.58-11.288-23.722-18.586
		c-3.088-7.332-4.899-13.535-5.459-18.607c-0.586-5.045-0.852-11.264-0.852-18.583c0-9.036,0-20.67,0-34.862
		c0-14.203,0-23.017,0-26.422c-9.132-1.119-21.909,5.109-38.442,18.779C55.79,187.244,40.747,194.1,27.037,194.1
		c-8.468,0-15.494-0.878-20.874-2.585c-5.402-1.729-7.267-5.975-5.538-12.817c17.307-1.703,37.994-10.77,61.979-27.303
		c23.988-16.518,40.067-26.741,48.16-30.76v-52.09v-10.25c0-25.05-2.236-41.863-6.869-50.384c3.463-2.86,8.598-4.979,15.416-6.429
		C126.127,0.099,131.29-0.313,134.701,0.233z"/>
</g>
</svg>
