<?xml version="1.0" encoding="utf-8"?>
<!-- Generator: Adobe Illustrator 13.0.0, SVG Export Plug-In . SVG Version: 6.00 Build 14948)  -->
<!DOCTYPE svg PUBLIC "-//W3C//DTD SVG 1.1//EN" "http://www.w3.org/Graphics/SVG/1.1/DTD/svg11.dtd">
<svg version="1.1" id="Layer_1" xmlns="http://www.w3.org/2000/svg" xmlns:xlink="http://www.w3.org/1999/xlink" x="0px" y="0px"
	 width="425.885px" height="620.026px" viewBox="0 0 425.885 620.026" enable-background="new 0 0 425.885 620.026"
	 xml:space="preserve">
<g>
	<path fill="#981B1E" d="M245.246,487.619c-4.631-2.236-10.17-3.407-16.584-3.407c-8.758,0-18.344,2.263-28.808,6.761
		c-0.584,6.179-1.17,12.38-1.729,18.517c4.048-0.546,15.23-2.674,33.68-6.296c18.448-3.674,34.262-5.509,47.52-5.509
		c22.443,0,39.297,3.831,50.532,11.394c11.206,7.612,16.85,21.832,16.85,42.598c0,17.678-7.134,32.466-21.353,44.392
		c-14.267,11.967-31.041,17.945-50.396,17.945c-14.215,0-28.43-3.703-42.702-11.089c-15.944-9.717-31.894-19.395-47.843-29.032
		c-4.549,3.406-10.088,5.524-16.639,6.389c-6.494,0.865-12.668,1.839-18.342,3.021c-2.82-2.313-6.681-5.843-11.58-10.703
		c-4.818-4.856-6.922-10.381-6.363-16.651c5.166-0.547,13.978-1.253,26.49-2.157c12.539-0.839,19.622-1.25,21.299-1.25
		l-2.502-23.949c-13.711,2.891-25.212,5.206-34.609,6.909c-9.372,1.733-21.539,4.634-36.314,8.652
		c5.645,13.206,10.225,24.268,13.631,33.172c3.46,8.878,5.139,15.655,5.139,20.22c0,14.988-5.086,22.482-15.311,22.482
		c-6.31,0-10.673-4.725-13.232-14.12c-2.58-9.411-4.896-18.477-6.812-27.329c-2.079-8.8-3.861-18.358-5.617-28.605
		c-9.054,1.158-18.054,2.7-26.944,4.723c-8.73,1.959-14.002,2.956-15.731,2.956c-2.267,0-5.726-0.572-10.224-1.703
		c10.783-5.113,19.728-8.521,26.862-10.263c7.132-1.664,14.403-3.407,21.802-5.11l-4.311-11.983l-5.141-10.782l-3.354-13.071
		c11.316,3.94,18.797,7.866,22.443,11.661c3.675,3.86,7.48,9.039,11.394,15.63l76.33-17.067v-13.669
		c-9.984,2.275-19.941,4.564-29.898,6.853c2.822-1.131,7.375-3.699,13.631-7.651c6.283-3.996,11.447-6.244,15.416-6.818
		c-0.642-3.379-0.32-6.467,0.852-9.289c-8.573,1.704-16.132,3.114-22.709,4.233c-6.552,1.13-9.504,3.673-8.867,7.585
		c-2.902,0-5.484-0.663-7.721-2.087c-2.314-1.412-4.633-3.25-6.816-5.498c-2.82,0-4.232-2.529-4.232-7.616
		c1.094-8.451,1.65-14.949,1.65-19.447c-3.459-7.853-7.135-16.172-11.1-24.92c-3.992-8.742-5.992-14.24-5.992-16.49
		c1.786-1.41,3.463-2.477,5.219-3.184c1.729-0.703,3.408-1.062,5.191-1.062c2.262,0,4.766,0.743,7.347,2.154
		c2.56,1.384,5.778,3.955,9.507,7.655c3.727,3.726,6.174,7.131,7.319,10.25c1.172,3.152,2.079,5.537,2.587,7.267
		c2.313,0,5.771-0.704,10.406-2.157c4.631-1.41,10.678-3.821,18.211-7.267v-13.657l-29.847,0.891
		c-1.222-2.301-2.049-4.886-2.633-7.707c10.276-7.975,22.628-14.63,37.164-20.059c14.534-5.433,23.269-11.809,26.489-19.197
		c3.09-7.399,5.67-13.124,7.641-17.105c1.996-3.979,3.035-7.972,3.035-11.964c-11.953,1.704-22.948,3.407-32.932,5.15
		c-9.957,1.664-18.902,4.819-26.864,9.385c6.233,7.974,8.813,15.08,7.723,21.323c-1.171,6.259-5.167,9.412-11.979,9.412
		c-6.816-3.41-10.651-5.686-11.557-6.843c-0.85-1.131-1.811-7.682-2.956-19.622c-8.571-1.117-14.533-1.41-17.942-0.891
		c-10.222,2.861-17.436,4.726-21.352,5.59c-4.046,0.84-8.306,1.253-12.805,1.253c-5.137,0-11.954-1.839-20.579-5.498l-11.875-12.538
		l18.771-1.571h28.989c10.305,0,19.171-1.411,26.49-4.274c1.172-4.539,0.904-9.972-0.825-16.238
		c-1.731-6.242-2.503-9.931-2.503-11.128c0-3.952,1.412-7.389,4.367-10.224c1.783-3.436,4.102-5.978,7.055-7.682
		c2.902-1.703,5.535-3.434,7.855-5.109l6.174,6.813c0.641,2.251,1.04,5.685,1.359,10.223c0.318,4.595,0.689,9.425,1.332,14.564
		c0,7.402,1.676,11.927,5.084,13.63c10.223-2.822,21.537-5.817,33.758-8.931c12.219-3.157,21.99-4.406,29.444-3.861l0.907-15.402
		c-2.424-7.358-6.687-13.63-12.861-18.783c-6.229-5.109-9.905-10.249-11.05-15.359c1.093-6.816,7.644-10.249,19.595-10.249
		c4.579,0,10.225,0.729,17.067,2.144c6.813,1.424,11.687,4.123,14.508,8.105c2.849,3.992,4.819,8.268,6.044,12.831l-2.556,31.574
		l28.165-3.406c7.325,0,15.045-0.292,23.003-0.878c7.987-0.546,12.861-0.825,14.536-0.825c5.672,0.572,11.447,1.118,17.119,1.703
		c2.822,1.145,5.91,5.14,9.37,11.953l-0.903,18.224c-9.054,2.315-17.361,3.473-24.68,3.473c-1.813,0-10.411-1.276-26.117-3.888
		c-15.682-2.606-30.033-3.925-43.076-3.925c-2.9,0-6.176,3.222-9.821,9.56c-3.677,6.389-9.854,15.652-18.343,27.805
		c2.848,1.118,6.947,1.411,12.351,0.839c5.406-0.546,10.943-1.131,16.665-1.677c10.223,0,16.506,0.838,18.77,2.541
		c2.234,1.707,3.406,7.429,3.406,17.067v15.373c0,17.066-0.768,30.482-2.184,40.12c-1.412,9.704-4.498,16.813-9.131,21.351
		L245.246,487.619z M176.775,455.192l-22.203,2.569c-3.463,8.52-2.637,14.204,2.449,17.04c6.574-2.25,13.124-4.818,19.754-7.682
		V455.192z M278.816,523.376c-2.846-1.025-6.174-2.026-10.166-2.891c-3.859-0.838-7.188-0.971-10.039-0.411l-7.587,1.704
		c2.849,1.982,5.167,4.777,6.817,8.293c1.809,3.499,3.726,7.001,6.041,10.503v33.317c-8.867,2.861-14.403,4.271-16.719,4.271
		l-10.647-1.704v-22.255c-12.433,3.446-20.581,5.857-24.442,7.267c-3.859,1.451-10.223,5.019-19.113,10.679
		c6.256,2.288,17.117,5.563,32.612,9.834c15.548,4.271,25.317,6.15,29.313,5.564c8.997-1.73,19.435-3.821,31.308-6.402
		c11.847-2.568,17.836-9.543,17.836-20.927c0-11.924-1.17-19.832-3.354-23.788C298.361,532.478,291.092,528.099,278.816,523.376z
		 M198.125,548.266c1.65-0.546,7.643-1.542,17.918-2.996c10.302-1.407,17.117-2.992,20.474-4.695v-18.796
		c-4.528-1.704-10.808-1.428-18.796,0.865c-7.961,2.275-13.869,3.432-17.866,3.432c-1.17,4.541-1.729,8.521-1.729,11.928V548.266z
		 M246.15,405.647h-19.032l-22.124,4.235v18.849c2.822,0,6.682,0,11.316,0c4.123,0,11.127,1.664,21.084,5.071v6.017l-18.373,8.518
		c-8.809,2.292-13.52,3.995-14.027,5.152c-0.641,1.119-0.641,4.528,0,10.223l35.756-2.541c2.314-2.292,4.868-4.541,7.721-6.856
		c1.729-8.546,2.554-15.626,2.554-21.338C251.024,426.16,249.374,417.058,246.15,405.647z"/>
	<g>
		<path fill="#343466" d="M102.498,97.357l19.619-2.581c18.77,6.28,29.631,10.262,32.455,11.966
			c3.406,3.409,7.664,7.428,12.751,11.966c0,4.555-2.079,7.962-6.362,10.25c-4.313,2.252-10.678,9.267-19.249,20.901
			c-8.464,11.7-22.868,26.94-43.074,45.711c-20.259,18.782-47.977,37.296-83.329,55.493L0,250.225
			c39.883-39.867,66.875-68.604,81.092-86.256C95.311,146.356,102.498,124.142,102.498,97.357z"/>
		<path fill="#343466" d="M156.248,0c25.586,0,47.387,13.831,65.334,41.41c17.94,27.622,37.164,57.357,57.609,89.255
			c30.803,40.439,63.787,67.193,99.172,80.278c35.219,13.083,50.848,23.922,46.934,32.438H304.854
			c-10.86,0-19.485-3.445-26.037-10.26c-6.57-6.816-15.359-21.314-26.486-43.557c-11.075-22.189-22.525-46.362-34.158-72.561
			c-11.635-26.208-19.992-44.698-24.758-55.493c-4.874-10.835-11.58-20.513-20.047-29.073c-8.628-8.546-18.262-13.655-29.071-15.332
			c-1.677-2.319-2.956-4.729-3.861-7.271c-0.825-2.568-1.038-5.005-0.375-7.254L156.248,0z"/>
	</g>
</g>
</svg>
