<?xml version="1.0" encoding="utf-8"?>
<!-- Generator: Adobe Illustrator 13.0.0, SVG Export Plug-In . SVG Version: 6.00 Build 14948)  -->
<!DOCTYPE svg PUBLIC "-//W3C//DTD SVG 1.1//EN" "http://www.w3.org/Graphics/SVG/1.1/DTD/svg11.dtd">
<svg version="1.1" id="Layer_1" xmlns="http://www.w3.org/2000/svg" xmlns:xlink="http://www.w3.org/1999/xlink" x="0px" y="0px"
	 width="410.768px" height="658.444px" viewBox="0 0 410.768 658.444" enable-background="new 0 0 410.768 658.444"
	 xml:space="preserve">
<g>
	<path fill="#981B1E" d="M229.941,526.037c-4.633-2.236-10.17-3.407-16.585-3.407c-8.761,0-18.347,2.263-28.807,6.761
		c-0.586,6.179-1.174,12.38-1.812,18.517c4.049-0.546,15.307-2.674,33.707-6.296c18.445-3.674,34.263-5.509,47.574-5.509
		c22.443,0,39.299,3.831,50.531,11.394c11.207,7.612,16.849,21.832,16.849,42.598c0,17.678-7.136,32.466-21.347,44.392
		c-14.271,11.967-31.121,17.945-50.4,17.945c-14.271,0-28.487-3.703-42.702-11.089c-15.949-9.717-31.894-19.395-47.843-29.032
		c-4.549,3.406-10.088,5.524-16.639,6.389c-6.576,0.865-12.672,1.839-18.343,3.021c-2.877-2.313-6.681-5.843-11.581-10.703
		c-4.871-4.856-6.92-10.381-6.415-16.651c5.136-0.547,14.028-1.253,26.487-2.157c12.543-0.839,19.673-1.25,21.352-1.25
		l-2.582-23.949c-13.629,2.891-25.131,5.206-34.584,6.909c-9.315,1.733-21.48,4.634-36.26,8.652
		c5.646,13.206,10.145,24.268,13.633,33.172c3.46,8.878,5.137,15.655,5.137,20.22c0,14.988-5.137,22.482-15.309,22.482
		c-6.31,0-10.674-4.725-13.23-14.12c-2.582-9.411-4.898-18.477-6.896-27.329c-1.997-8.8-3.86-18.358-5.538-28.605
		c-9.131,1.158-18.049,2.7-26.941,4.723c-8.732,1.959-14.004,2.956-15.732,2.956c-2.315,0-5.727-0.572-10.225-1.703
		c10.783-5.113,19.674-8.521,26.861-10.263c7.085-1.664,14.404-3.407,21.754-5.11l-4.262-11.983l-5.137-10.782l-3.411-13.071
		c11.315,3.94,18.771,7.866,22.444,11.661c3.729,3.86,7.51,9.039,11.449,15.63l76.246-17.067V539.71
		c-9.904,2.275-19.914,4.564-29.82,6.853c2.828-1.131,7.326-3.699,13.635-7.651c6.281-3.996,11.368-6.244,15.36-6.818
		c-0.584-3.379-0.319-6.467,0.825-9.289c-8.494,1.704-16.053,3.114-22.629,4.233c-6.548,1.13-9.504,3.673-8.945,7.585
		c-2.873,0-5.459-0.663-7.641-2.087c-2.316-1.412-4.631-3.25-6.814-5.498c-2.904,0-4.314-2.529-4.314-7.616
		c1.092-8.451,1.73-14.949,1.73-19.447c-3.461-7.853-7.187-16.172-11.182-24.92c-3.913-8.742-5.908-14.24-5.908-16.49
		c1.73-1.41,3.459-2.477,5.137-3.184c1.811-0.703,3.488-1.062,5.217-1.062c2.318,0,4.74,0.743,7.403,2.154
		c2.554,1.384,5.699,3.955,9.503,7.655c3.729,3.726,6.178,7.131,7.323,10.25c1.171,3.152,2.075,5.537,2.581,7.267
		c2.314,0,5.777-0.704,10.41-2.157c4.63-1.41,10.674-3.821,18.129-7.267v-13.657l-29.82,0.891c-1.168-2.301-2.071-4.886-2.578-7.707
		c10.274-7.975,22.629-14.63,37.164-20.059c14.537-5.433,23.268-11.809,26.438-19.197c3.139-7.399,5.721-13.124,7.638-17.105
		c2.052-3.979,3.036-7.972,3.036-11.964c-11.9,1.704-22.892,3.407-32.875,5.15c-9.957,1.664-18.906,4.819-26.864,9.385
		c6.177,7.974,8.731,15.08,7.641,21.323c-1.146,6.259-5.139,9.412-11.902,9.412c-6.869-3.41-10.648-5.686-11.552-6.843
		c-0.908-1.131-1.865-7.682-2.956-19.622c-8.625-1.117-14.536-1.41-18.022-0.891c-10.145,2.861-17.359,4.726-21.353,5.59
		c-3.969,0.84-8.227,1.253-12.777,1.253c-5.087,0-11.9-1.839-20.53-5.498l-11.951-12.538l18.77-1.571h29.072
		c10.301,0,19.087-1.411,26.49-4.274c1.172-4.539,0.904-9.972-0.907-16.238c-1.652-6.242-2.503-9.931-2.503-11.128
		c0-3.952,1.494-7.389,4.445-10.224c1.732-3.436,4.049-5.978,7.006-7.682c2.898-1.703,5.588-3.434,7.904-5.109l6.178,6.813
		c0.586,2.251,1.036,5.685,1.277,10.223c0.318,4.595,0.771,9.425,1.409,14.564c0,7.402,1.677,11.927,5.089,13.63
		c10.219-2.822,21.48-5.817,33.752-8.931c12.225-3.157,21.994-4.406,29.449-3.861l0.852-15.402
		c-2.371-7.358-6.63-13.63-12.861-18.783c-6.229-5.109-9.9-10.249-11.076-15.359c1.092-6.816,7.67-10.249,19.674-10.249
		c4.581,0,10.225,0.729,17.067,2.144c6.817,1.424,11.687,4.123,14.51,8.105c2.851,3.992,4.819,8.268,5.989,12.831l-2.58,31.574
		l28.245-3.406c7.324,0,15.046-0.292,23.004-0.878c7.983-0.546,12.804-0.825,14.533-0.825c5.669,0.572,11.39,1.118,17.04,1.703
		c2.9,1.145,5.992,5.14,9.45,11.953l-0.907,18.224c-9.129,2.315-17.355,3.473-24.728,3.473c-1.763,0-10.357-1.276-26.071-3.888
		c-15.674-2.606-30.025-3.925-43.068-3.925c-2.957,0-6.18,3.222-9.905,9.56c-3.647,6.389-9.77,15.652-18.315,27.805
		c2.82,1.118,6.947,1.411,12.407,0.839c5.403-0.546,10.939-1.131,16.585-1.677c10.303,0,16.531,0.838,18.766,2.541
		c2.318,1.707,3.49,7.429,3.49,17.067v15.373c0,17.066-0.773,30.482-2.184,40.12c-1.412,9.704-4.498,16.813-9.133,21.351
		L229.941,526.037z M161.387,493.61l-22.124,2.569c-3.46,8.52-2.634,14.204,2.45,17.04c6.576-2.25,13.123-4.818,19.674-7.682V493.61
		z M263.434,561.794c-2.769-1.025-6.096-2.026-10.092-2.891c-3.861-0.838-7.189-0.971-10.037-0.411l-7.587,1.704
		c2.851,1.982,5.163,4.777,6.815,8.293c1.756,3.499,3.728,7.001,6.043,10.503v33.317c-8.865,2.861-14.455,4.271-16.773,4.271
		l-10.595-1.704v-22.255c-12.486,3.446-20.577,5.857-24.44,7.267c-3.859,1.451-10.221,5.019-19.166,10.679
		c6.307,2.288,17.091,5.563,32.667,9.834c15.548,4.271,25.317,6.15,29.255,5.564c9.053-1.73,19.49-3.821,31.305-6.402
		c11.904-2.568,17.896-9.543,17.896-20.927c0-11.924-1.17-19.832-3.355-23.788C283.05,570.896,275.787,566.517,263.434,561.794z
		 M182.738,586.684c1.676-0.546,7.72-1.542,17.996-2.996c10.303-1.407,17.119-2.992,20.474-4.695v-18.796
		c-4.524-1.704-10.808-1.428-18.796,0.865c-7.961,2.275-13.949,3.432-17.945,3.432c-1.091,4.541-1.729,8.521-1.729,11.928V586.684z
		 M230.769,444.065h-18.958l-22.176,4.235v18.849c2.873,0,6.68,0,11.366,0c4.128,0,11.048,1.664,21.084,5.071v6.017l-18.448,8.518
		c-8.813,2.292-13.443,3.995-14.002,5.152c-0.586,1.119-0.586,4.528,0,10.223l35.805-2.541c2.32-2.292,4.874-4.541,7.723-6.856
		c1.676-8.546,2.556-15.626,2.556-21.338C235.718,464.578,234.039,455.476,230.769,444.065z"/>
	<path fill="#343466" d="M153.668,0.839c7.027,1.157,13.575,3.406,19.672,6.816c6.179,3.433,11.581,7.172,16.295,11.128v11.089
		c-7.403,9.131-13.312,19.928-17.946,32.438c-4.577,12.539-6.812,24.492-6.812,35.876c11.951-2.825,24.758-8.388,38.387-16.613
		c13.687-8.267,23.324-12.699,28.994-13.284c10.275,3.991,20.578,8.997,30.801,14.948c10.223,6.015,15.359,14.666,15.359,26.077
		c-2.82,2.249-5.853,4.817-8.998,7.682c-3.086,2.86-8.09,9.97-14.908,21.348c-6.813,11.385-11.979,23.896-15.385,37.578
		c-3.409,13.673-5.088,29.032-5.088,46.113c0,18.22,6.391,29.443,19.172,33.728c12.857,4.275,28.936,6.393,48.291,6.393
		c33.568,0,52.074-7.655,55.48-23.084c2.264-20.447,4.262-39.506,5.992-57.157c4.585,22.761,11.396,40.121,20.525,52.074
		c9.129,9.677,18.134,19.354,27.268,29.032c-5.676,7.402-14.352,14.787-25.99,22.189c-11.715,7.389-31.76,11.088-60.243,11.088
		h-72.603c-21.618,0-36.9-7.228-45.66-21.766c-8.864-14.494-13.23-32.851-13.23-55.066c0-11.929,1.547-29.166,4.684-51.636
		c3.146-22.508,7.273-41.453,12.408-56.813l-52.978,12.831c-10.811,36.967-24.628,68.739-41.427,95.19
		c-16.823,26.465-48.532,50.794-95.148,73.014H0c18.77-17.105,37.884-34.146,57.238-51.252
		c27.318-26.74,44.994-60.913,52.98-102.457c-3.486,1.131-12.858,4.143-28.164,8.974c-15.444,4.856-25.082,7.229-29.074,7.229
		c-9.639,0-17.865-2.372-24.308-7.229c-6.55-4.831-9.903-11.25-9.903-19.234c22.762,0,41.531-1.414,56.389-4.234
		c14.854-2.861,29.924-6.853,45.283-11.992c2.82-15.92,4.951-29.033,6.361-39.295c1.412-10.251,2.186-19.356,2.186-27.291
		c0-19.354-1.277-30.894-3.861-34.594c-2.582-3.729-3.328-7.27-2.131-10.677L153.668,0.839z"/>
</g>
</svg>
