<?xml version="1.0" encoding="utf-8"?>
<!-- Generator: Adobe Illustrator 13.0.0, SVG Export Plug-In . SVG Version: 6.00 Build 14948)  -->
<!DOCTYPE svg PUBLIC "-//W3C//DTD SVG 1.1//EN" "http://www.w3.org/Graphics/SVG/1.1/DTD/svg11.dtd">
<svg version="1.1" id="Layer_1" xmlns="http://www.w3.org/2000/svg" xmlns:xlink="http://www.w3.org/1999/xlink" x="0px" y="0px"
	 width="546.834px" height="546.833px" viewBox="0 0 546.834 546.833" enable-background="new 0 0 546.834 546.833"
	 xml:space="preserve">
<g>
	<rect x="179.802" y="179.732" fill="none" width="187.299" height="187.359"/>
	<polygon fill="#343466" points="268.079,447.097 271.032,445.955 270.868,443.648 	"/>
	<g>
		<path fill="#343466" d="M275.341,424.953c-1.26,0-2.66,0.332-4.258,0.988c-1.578,0.684-3.611,1.672-6.12,3.033l4.341,2.875
			c0,0.471,0,1.031,0,1.715c0,0.686-0.148,1.416-0.447,2.168c1.049-0.283,2.66-1.766,4.837-4.449
			c2.144-2.691,3.131-4.658,2.952-5.906C276.354,425.085,275.905,424.953,275.341,424.953z"/>
		<path fill="#343466" d="M118.503,270.01c-2.598,0.283-4.951,0.729-7.118,1.307c-2.163,0.565-3.766,1.364-4.837,2.295
			c1.828,2.505,2.953,5.144,3.391,7.941c0.424,2.766,0.845,5.33,1.213,7.625c2.717-0.871,4.587-2.979,5.715-6.316
			C117.938,279.484,118.503,275.21,118.503,270.01z"/>
		<g>
			<path fill="#343466" d="M134.505,267.341c-0.635-0.307-1.496-0.497-2.564-0.497h-2.93c-2.096,6.533-4.437,12.308-7.061,17.296
				c-2.598,4.979-5.869,8.58-9.775,10.779c3.363-0.754,7.014-1.613,11.012-2.592c3.988-0.963,6.708-2.314,8.201-4.09
				c1.493-1.779,3.117-4.473,4.833-8.074c1.721-3.6,2.579-6.447,2.579-8.551c0-0.296,0-0.575,0-0.873
				c-0.201-0.364-0.811-0.963-1.799-1.719C135.961,268.257,135.13,267.682,134.505,267.341z"/>
			<path fill="#343466" d="M289.155,422.917c-1.157,0-2.437,0.127-3.789,0.391c-1.413,0.256-2.354,0.445-2.814,0.555
				c0.389,0.205,0.693,0.445,0.977,0.701c0.319,0.229,0.447,0.58,0.447,0.963c0,0.969-0.986,2.51-2.939,4.65
				c-1.967,2.143-3.013,3.25-3.084,3.342c0.939,0,1.952,0.037,3.002,0.072c1.068,0.059,1.598,0.316,1.598,0.813
				c0,0.785-0.529,1.516-1.516,2.246c-1,0.738-1.826,1.316-2.542,1.684v4.021c1.542-0.293,2.46-0.422,2.766-0.422
				c1.706,0,2.884,0.811,3.437,2.447c-2.885,0.762-4.66,1.494-5.39,2.137c-0.729,0.684-1.283,1.203-1.647,1.592
				c-0.389,3.199-0.707,6.023-0.858,8.498c-0.214,2.506-0.647,5.135-1.31,7.914c1.333,0,2.684,0.049,4.107,0.15
				c1.378,0.109,2.788,0.193,4.249,0.287c2.095,0,3.979-0.516,5.587-1.592c1.647-1.068,3.377-5.879,5.201-14.518
				c1.826-8.625,2.743-14.766,2.743-18.416c0-2.82-0.788-4.75-2.298-5.842C293.528,423.46,291.575,422.917,289.155,422.917z"/>
			<path fill="#343466" d="M432.71,274.683c1.045-0.834,1.986-2.318,2.795-4.459c0.836-2.177,1.25-4.166,1.25-5.979
				c0-1.729-0.236-2.692-0.697-2.881c-0.764-0.304-2.246-0.167-4.516,0.411c-2.236,0.59-4.189,1.339-5.883,2.307v4.175h2.036
				c2.095,0,3.164,0.623,3.164,1.885c0,0.941-0.577,1.645-1.648,2c-1.539,0.292-2.741,0.575-3.552,0.871v4.186
				c2.19-0.48,3.646-0.813,4.391-1.037C430.776,276.025,431.636,275.482,432.71,274.683z"/>
			<path fill="#343466" d="M273.378,48.92c-123.943,0-224.514,100.517-224.514,224.409c0,124.071,100.57,224.594,224.514,224.594
				c123.973,0,224.533-100.523,224.533-224.594C497.911,149.437,397.351,48.92,273.378,48.92z M399.304,265.095
				c0.214,0,0.615,0,1.178,0c0.608,0,1.154,0,1.625,0c0.989,0,2.067,0.21,3.176,0.633c1.128,0.416,2.328,1.886,3.564,4.392
				c1.209,2.505,1.824,5.353,1.824,8.503c0,1.262-0.263,2.508-0.791,3.742c-0.54,1.283-1.115,1.693-1.718,1.295
				c-2.917-1.82-4.573-4.508-4.929-8.037c-0.352-3.573-1.661-6.398-3.93-8.518V265.095z M273.21,81.372
				c-0.139-0.671-0.621-2.084-1.502-4.176c0.57-1.332,1.82-2.039,3.738-2.039c1.532,0,3.024,0.625,4.484,1.885
				c1.42,1.259,2.621,3.317,3.598,6.188c-1.161,3.94-2.338,8.411-3.541,13.39c-1.197,4.998-1.813,9.801-1.813,14.404
				c0.977-0.578,3.062-2.25,6.271-5.053c3.212-2.762,5.412-4.326,6.557-4.668c1.15-0.344,2.2-0.495,3.163-0.495
				c1.907,0,3.706,0.389,5.399,1.201c1.684,0.831,2.506,1.716,2.506,2.693c0.296,1.035-2.553,2.4-8.563,4.099
				c-6.005,1.668-11.204,4.043-15.616,7.129c0,1.045-0.083,3.34-0.212,6.831c-0.127,3.506-0.199,5.838-0.199,6.978
				c0,1.626,0,2.789,0,3.533c0,0.729,0.072,2.113,0.282,4.175c0.151,2.06,1.26,4.067,3.236,6.058
				c1.966,1.932,4.966,2.952,8.99,2.952c2.034,0,4.13-0.265,6.34-0.726c2.203-0.508,4.894-1.354,8.072-2.588
				c0.069-0.496,0.128-1.012,0.128-1.593c0-0.68-0.314-1.304-0.939-1.857c-0.625-0.603-1.013-1.446-1.224-2.612
				c2.694,0.673,4.988,1.426,6.915,2.297c1.943,0.869,3.852,1.69,5.778,2.459c0.651,0.754,0.989,1.609,0.989,2.609
				c0,2.2-1.99,4.084-5.988,5.676c-3.965,1.584-9.131,2.373-15.447,2.373c-9.615,0-15.992-1.624-19.168-4.918
				c-3.168-3.237-4.766-9.789-4.766-19.553c0-6.534,0.484-14.084,1.389-22.627c0.884-8.541,1.364-15.308,1.364-20.283
				C273.434,83.276,273.351,82.029,273.21,81.372z M250.221,118.952c-0.788,0-1.835-0.543-3.12-1.59
				c-1.306-1.07-2.693-2.083-4.153-3.106c-1.435-0.985-3.081-1.882-4.929-2.669c0.286-0.672,0.943-1.141,2.012-1.425
				c1.072-0.293,2.107-0.461,3.154-0.461c1.189,0,1.989,0.06,2.532,0.099c0.505,0.033,1.446,0.362,2.752,0.938
				c1.27,0.566,2.399,1.086,3.304,1.51c0.896,0.442,1.836,0.809,2.803,1.069c0-1.8-0.023-3.649-0.047-5.532
				c-0.085-1.88-0.154-3.482-0.283-4.834c-0.164-1.332-0.66-2.766-1.469-4.318c-0.861-1.528-1.451-2.603-1.757-3.234
				c-0.318-0.621-0.574-1.414-0.706-2.378c-0.129-0.966-0.257-1.72-0.33-2.306c0.539-0.164,1.247-0.328,2.063-0.424
				c0.776-0.118,1.482-0.036,2.035,0.154c2.849,0.941,4.716,2.339,5.61,4.259c0.921,1.85,1.365,4.224,1.365,7.093
				c0,0.895,0,1.707,0,2.46c0,0.776,0,1.54,0,2.296c0,2.893-0.211,6.765-0.577,11.669c-0.388,4.883-0.574,7.873-0.574,8.944
				c2.199-2.695,4.41-5.389,6.637-8.072c-0.898,5.271-3.721,11.543-8.545,18.766c-4.79,7.271-9.269,12.52-13.425,15.777
				c-0.494-0.291-1.729-0.598-3.657-0.916c-1.93-0.33-2.896-1.953-2.896-4.824c0-1.082,0.022-1.932,0.154-2.588
				c0.574-0.387,1.52-0.861,2.766-1.461c1.256-0.575,2.492-1.068,3.692-1.602l5.683-3.445c2.145-2.574,3.34-5.787,3.578-9.635
				c0.26-3.837,0.482-7.484,0.684-10.944C253.114,118.692,251.683,118.952,250.221,118.952z M106.14,240.442
				c8.714-2.635,14.673-4.644,17.824-5.975c4.057,1.331,6.483,2.212,7.365,2.658c0.871,0.426,1.578,1.694,2.141,3.813
				c-2.188,0.872-6.259,2.926-12.142,6.202c-5.905,3.258-9.812,4.869-11.755,4.869l1.729-2.445c-1.05,0-2.117,0.023-3.15,0.069
				c-1.076,0.059-2.075,0.081-3.039,0.081c-3.472,0-6.247-0.236-8.352-0.704c-2.095-0.493-4.262-1.587-6.472-3.344
				C92.112,244.795,97.387,243.056,106.14,240.442z M137.659,296.589c-2.885,4.543-5.259,6.852-7.047,6.852
				c-1.365,0-2.592-1.014-3.743-3.027c-1.177-2.012-2.4-3.035-3.755-3.035c-1.917,0-5.774,0.604-11.598,1.775
				c-5.801,1.26-9.483,1.932-11.026,2.117c-0.647-1.043-0.989-2.057-0.989-3.01c0-0.777,0.131-1.613,0.438-2.473
				c1.131,0,2.328-0.152,3.611-0.508c1.223-0.324,1.906-0.691,1.998-1.092c-3.751-4.67-5.609-11.07-5.609-19.141
				c-0.589,0.104-2.4,0.338-5.402,0.73c-3.021,0.383-5.187,0.574-6.555,0.574c-0.184,0.785-0.184,2.119,0.073,4.049
				c0.249,1.906,0.446,3.574,0.634,5.012c1.355,1.178,2.555,2.857,3.637,5.033c1.047,2.236,2.871,6.824,5.462,13.848
				c-1.649,0.473-2.933,0.707-3.896,0.707c-3.848,0-6.719-2.164-8.649-6.467c-1.907-4.346-3.942-10.686-6.056-19.154l5.914,1.879
				c0.507-1.25,0.813-2.248,0.941-2.953c0.164-0.719,0.295-1.326,0.375-1.787c1.071-1.367,2.896-2.539,5.458-3.616
				c3.413-1.141,5.958-2.01,7.626-2.61v-4.437c1.141-0.21,2.141-0.021,3.025,0.495c0.871,0.52,1.598,1.308,2.176,2.377
				c2.293-1.248,4.674-2.246,7.121-2.954c2.432-0.729,4.859-1.176,7.266-1.377c0.072-0.292,0.131-0.869,0.131-1.729
				c0-1.431-0.236-3.338-0.717-5.738c-0.482-2.4-0.953-4.39-1.424-5.906c0.941-0.579,1.955-0.861,3-0.861
				c1.154,0,2.41,0.26,3.756,0.775c1.328,0.52,3.08,1.461,5.176,2.825c0,0.554,0.081,1.697,0.213,3.364
				c0.151,1.707,0.225,3.117,0.225,4.261c2.88-0.575,5.386-0.861,7.506-0.861c4.693,0,8.012,1.378,9.997,4.181
				c1.967,2.773,2.953,6.813,2.953,12.095C144.637,285.414,140.53,292.025,137.659,296.589z M256.068,466.769
				c-0.425,0.449-0.79,0.756-1.155,0.941c-6.553-2.492-10.104-5.521-10.727-9.012c-0.625-3.508-1.437-9.531-2.377-18.072
				l-0.447-6.908c2.223,1.262,4.209,3.566,5.975,6.908c1.779,3.365,2.977,6.543,3.683,9.574c0.663,3.039,1.757,5.932,3.296,8.707
				c1.543,2.789,2.293,4.568,2.293,5.355C256.608,465.488,256.456,466.32,256.068,466.769z M301.039,456.58
				c-3.483,10-7.261,15.025-11.286,15.025c-2.226,0-4.341-0.402-6.353-1.166c-2.013-0.775-6.755-3.08-14.245-6.918l2.891,0.426
				c-0.293-1.813-0.497-4.264-0.598-7.34c-0.086-3.084-0.133-4.756-0.133-5.016l-8.543,2.998c-0.763,0-1.443-0.516-2.035-1.586
				c-0.619-1.051-0.94-1.955-0.94-2.719c0-0.492,1.2-1.668,3.6-3.518c2.46-1.881,4.942-4.541,7.472-8.002
				c-2.186,0.084-3.633,0.143-4.305,0.143c-0.684,0-1.601-0.189-2.741-0.574c1.437-0.662,2.896-1.369,4.327-2.121
				c-1.247-0.574-2.446-1.307-3.598-2.246c-1.155-0.941-2.117-1.93-2.871-2.975c-2.328,0.646-4.449,1.244-6.353,1.715
				c-1.897,0.473-3.153,0.73-3.753,0.73c-0.378,0-0.793-0.105-1.203-0.283c-0.42-0.211-0.809-0.365-1.092-0.447
				c1.352-1.141,3.178-2.234,5.551-3.236c2.354-1.012,4.003-1.693,4.966-2.08c-0.869-0.658-1.528-1.293-2.013-1.887
				c2.896-1.043,5.156-2.986,6.744-5.818c1.588-2.828,2.374-5.307,2.374-7.428c-1.939,0.199-3.597,0.367-5.034,0.496
				c-1.471,0.164-3.084,0.246-4.916,0.246c-3.47,0-6.662-1.059-9.533-3.199c2.802-0.365,6.012-0.943,9.615-1.721
				c3.601-0.752,7.646-2.059,12.121-3.865c0-4.225-0.24-6.73-0.756-7.498c-1.342-0.859-2.696-2.119-4.131-3.752
				c0-1.227,0.389-2.354,1.178-3.297c0.775-0.953,2.186-1.459,4.248-1.459c1.881,0,4.281,0.506,7.234,1.459
				c0.293,1.156,0.424,2.297,0.424,3.447c0,1.225-0.154,2.742-0.506,4.473c-0.306,1.719-0.492,2.766-0.492,3.15
				c1.127,0.191,2.399,0.131,3.869-0.197c1.46-0.342,3.021-0.766,4.695-1.234c2.858,0,4.236,2.01,4.236,6.068
				c-1.628,0.754-3.766,1.639-6.402,2.66c-2.635,0.988-5.094,1.822-7.412,2.506c-0.379,1.438-1.063,3.436-1.94,6.061
				c-0.908,2.576-1.72,4.67-2.368,6.316c3.546-0.986,7.143-2.033,10.779-3.117c3.953-0.799,7.836-1.201,11.684-1.201
				c4.592,0,7.904,0.641,9.871,1.967c1.955,1.283,2.917,3.963,2.917,8.025C306.283,437.226,304.567,446.578,301.039,456.58z
				 M367.101,367.091H179.802V179.732h187.299V367.091z M455.448,310.748c-2.469-0.461-6.619-2.734-12.445-6.791
				c-5.802-4.021-12.075-9.871-18.791-17.543l0.718,11.234c0,3.646,0.315,7.271,0.94,10.85c0.648,3.611,0.967,5.754,0.967,6.436
				c0,1.52-0.211,2.979-0.611,4.375c-0.389,1.389-1.145,2.096-2.281,2.096c-1.073,0-2.52-1.119-4.322-3.318
				c-1.821-2.227-2.761-4.27-2.761-6.189c0.104-0.281,0.21-0.574,0.302-0.857c0.766,0.283,1.518,0.576,2.309,0.857v-25.188
				c-1.826,2.963-4.674,6.174-8.544,9.648c-3.856,3.445-9.507,7.234-16.918,11.365l-3.474-0.732
				c4.039-2.398,8.192-5.354,12.451-8.941c4.238-3.518,8.362-8.377,12.295-14.521c-0.389-0.387-0.849-0.643-1.421-0.797
				c-0.592-0.143-0.944-0.553-1.157-1.225c0.473-1.127,1.328-1.74,2.578-1.74c0.812,0,1.684,0,2.623,0
				c0.603-0.166,1.33-0.563,2.141-1.143v-3.598c-1.278,0.295-2.245,0.457-2.824,0.516c-0.598,0.059-1.388,0.082-2.27,0.082
				c-0.775,0-1.437,0-1.943,0l-0.584-1.929c0.877-0.704,2.009-1.328,3.281-1.907c1.307-0.599,2.693-1.307,4.186-2.092l0.154-3.859
				c-1.775,0.388-3.316,0.706-4.646,0.907c-1.327,0.233-2.4,0.362-3.199,0.362c-1.378,0-2.367-0.493-2.943-1.506
				c2.85-1.317,4.828-2.201,5.875-2.694c1.066-0.517,2.715-1.413,4.914-2.716v-8.895c-0.574,0.163-1.588,0.384-3.033,0.647
				c-1.436,0.233-2.98,0.328-4.588,0.328c-1.369,0-2.496-0.095-3.404-0.328c-0.881-0.264-1.118-1.004-0.657-2.249
				c1.861-0.682,3.952-1.415,6.294-2.164c2.309-0.757,4.13-1.556,5.389-2.309c0-1.624,0-3.256,0-4.963c0-1.696,0-3.391,0-5.105
				v-1.722c0-1.811-0.154-3.176-0.424-4.022c1.236-0.683,2.355-1.036,3.321-1.036c0.572,0,1.269,0.249,2.138,0.742
				c0.872,0.461,1.368,1.068,1.492,1.779c0.179,0.727,0.264,2.082,0.264,4.127c0,0.461-0.107,1.377-0.318,2.707
				c-0.174,1.364-0.293,2.4-0.293,3.186c0,0.578,0.056,1.052,0.127,1.45c1.083-0.187,1.918-0.296,2.471-0.296
				c0.857,0,1.825,0.296,2.813,0.858c1.021,0.577,2.459,1.733,4.389,3.448l-0.282,2.014c-0.271,0.104-1.624,0.41-3.999,0.93
				c-2.4,0.54-4.413,0.892-6.084,1.105v1.717c0,0.575-0.131,1.491-0.377,2.716c-0.225,1.26-0.353,2.382-0.353,3.321
				c0.671-0.178,2.036-0.694,4.045-1.482c2.016-0.837,3.942-1.233,5.744-1.233c2.976,0,5.376,0.548,7.211,1.644
				c1.827,1.106,2.743,2.825,2.743,5.134c0,5.736-0.99,10.065-2.953,12.95c-1.953,2.859-4.202,4.977-6.695,6.318
				c-0.352,0.203-1.213,0.18-2.528-0.059c-1.309-0.232-2.318-0.365-3.048-0.365c-1.342,0-2.588,0.238-3.789,0.73
				c2.671,4.025,10.129,8.754,22.445,14.154c12.332,5.426,19.844,8.73,22.474,9.875c-1.729,1.045-4.199,2.137-7.386,3.268
				C459.958,310.189,457.39,310.748,455.448,310.748z"/>
		</g>
	</g>
	<path fill="#981B1E" d="M273.378,0C122.397,0,0,122.456,0,273.329c0,151.049,122.397,273.504,273.378,273.504
		c151,0,273.456-122.455,273.456-273.504C546.834,122.456,424.378,0,273.378,0z M273.457,520.328
		c-136.456,0-246.997-110.576-246.997-246.999c0-136.375,110.541-246.881,246.997-246.881
		c136.329,0,246.916,110.506,246.916,246.881C520.373,409.751,409.786,520.328,273.457,520.328z"/>
	<path fill="#356734" d="M343.027,203.722H203.675v139.391h139.353V203.722z M318.19,318.238h-89.594v-89.641h89.594V318.238z"/>
</g>
</svg>
