<?xml version="1.0" encoding="utf-8"?>
<!-- Generator: Adobe Illustrator 13.0.0, SVG Export Plug-In . SVG Version: 6.00 Build 14948)  -->
<!DOCTYPE svg PUBLIC "-//W3C//DTD SVG 1.1//EN" "http://www.w3.org/Graphics/SVG/1.1/DTD/svg11.dtd">
<svg version="1.1" id="Layer_1" xmlns="http://www.w3.org/2000/svg" xmlns:xlink="http://www.w3.org/1999/xlink" x="0px" y="0px"
	 width="306.946px" height="658.431px" viewBox="0 0 306.946 658.431" enable-background="new 0 0 306.946 658.431"
	 xml:space="preserve">
<g>
	<g>
		<path fill="#356734" d="M153.453,0C68.713,0,0,68.738,0,153.426c0,84.768,68.713,153.506,153.453,153.506
			c84.753,0,153.493-68.738,153.493-153.506C306.946,68.738,238.206,0,153.453,0z M153.493,292.05
			c-76.595,0-138.639-62.044-138.639-138.624c0-76.555,62.044-138.57,138.639-138.57c76.512,0,138.599,62.016,138.599,138.57
			C292.092,230.006,230.005,292.05,153.493,292.05z"/>
		<path fill="#356734" d="M153.453,27.447c-69.564,0-126.031,56.428-126.031,125.979c0,69.63,56.467,126.059,126.031,126.059
			c69.578,0,126.032-56.429,126.032-126.059C279.485,83.875,223.031,27.447,153.453,27.447z M206.046,206.047h-105.12V100.886
			h105.12V206.047z"/>
		<path fill="#356734" d="M192.548,114.357h-78.216v78.217h78.216V114.357z M178.6,178.625h-50.292v-50.318H178.6V178.625z"/>
	</g>
	<g>
		<path fill="#343466" d="M153.453,351.473C68.713,351.473,0,420.199,0,504.977c0,84.754,68.713,153.454,153.453,153.454
			c84.753,0,153.493-68.7,153.493-153.454C306.946,420.199,238.206,351.473,153.453,351.473z M153.493,643.578
			c-76.595,0-138.639-62.071-138.639-138.602c0-76.538,62.044-138.595,138.639-138.595c76.512,0,138.599,62.057,138.599,138.595
			C292.092,581.507,230.005,643.578,153.493,643.578z"/>
		<path fill="#343466" d="M153.453,378.946c-69.564,0-126.031,56.427-126.031,126.03c0,69.604,56.467,126.032,126.031,126.032
			c69.578,0,126.032-56.428,126.032-126.032C279.485,435.373,223.031,378.946,153.453,378.946z M206.046,557.545h-105.12V452.357
			h105.12V557.545z"/>
		<path fill="#343466" d="M192.548,465.856h-78.216v78.19h78.216V465.856z M178.6,530.123h-50.292v-50.318H178.6V530.123z"/>
	</g>
</g>
</svg>
