<?xml version="1.0" encoding="utf-8"?>
<!-- Generator: Adobe Illustrator 13.0.0, SVG Export Plug-In . SVG Version: 6.00 Build 14948)  -->
<!DOCTYPE svg PUBLIC "-//W3C//DTD SVG 1.1//EN" "http://www.w3.org/Graphics/SVG/1.1/DTD/svg11.dtd">
<svg version="1.1" id="Layer_1" xmlns="http://www.w3.org/2000/svg" xmlns:xlink="http://www.w3.org/1999/xlink" x="0px" y="0px"
	 width="525.133px" height="658.431px" viewBox="0 0 525.133 658.431" enable-background="new 0 0 525.133 658.431"
	 xml:space="preserve">
<g>
	<g>
		<path fill="#981B1E" d="M262.578,216.428c-62.244,0-112.776,50.519-112.776,112.785c0,62.272,50.532,112.75,112.776,112.75
			c62.271,0,112.747-50.478,112.747-112.75C375.325,266.946,324.85,216.428,262.578,216.428z M262.578,431.033
			c-56.254,0-101.831-45.591-101.831-101.82c0-56.223,45.577-101.815,101.831-101.815c56.228,0,101.83,45.593,101.83,101.815
			C364.408,385.442,318.806,431.033,262.578,431.033z"/>
		<path fill="#981B1E" d="M262.578,236.659c-51.143,0-92.595,41.44-92.595,92.554c0,51.117,41.452,92.597,92.595,92.597
			c51.114,0,92.54-41.479,92.54-92.597C355.118,278.1,313.692,236.659,262.578,236.659z M301.154,367.857h-77.231v-77.22h77.231
			V367.857z"/>
		<path fill="#981B1E" d="M291.275,300.502h-57.396v57.425h57.396V300.502z M281.001,347.729h-36.952V310.7h36.952V347.729z"/>
	</g>
	<g>
		<path fill="#356734" d="M112.72,0C50.449,0,0,50.449,0,112.746C0,174.991,50.449,225.44,112.72,225.44
			c62.294,0,112.692-50.449,112.692-112.694C225.412,50.449,175.014,0,112.72,0z M112.72,214.631
			c-56.201,0-101.832-45.656-101.832-101.885C10.888,56.52,56.519,10.9,112.72,10.9c56.228,0,101.751,45.619,101.751,101.846
			C214.471,168.975,168.947,214.631,112.72,214.631z"/>
		<path fill="#356734" d="M112.72,20.193c-51.118,0-92.595,41.41-92.595,92.553c0,51.117,41.477,92.592,92.595,92.592
			c51.14,0,92.566-41.475,92.566-92.592C205.286,61.604,163.859,20.193,112.72,20.193z M151.321,151.361H74.09V74.076h77.231
			V151.361z"/>
		<path fill="#356734" d="M141.392,83.967H84.046v57.49h57.346V83.967z M131.167,131.21h-36.95V94.203h36.95V131.21z"/>
	</g>
	<g>
		<path fill="#343466" d="M525.133,545.684c0-62.215-50.424-112.72-112.669-112.72c-62.349,0-112.721,50.505-112.721,112.72
			c0,62.245,50.372,112.747,112.721,112.747C474.709,658.431,525.133,607.929,525.133,545.684z M514.268,545.684
			c0,56.202-45.576,101.82-101.804,101.82c-56.306,0-101.806-45.618-101.806-101.82c0-56.227,45.5-101.793,101.806-101.793
			C468.691,443.891,514.268,489.457,514.268,545.684z"/>
		<path fill="#343466" d="M505.004,545.684c0-51.152-41.428-92.593-92.54-92.593c-51.196,0-92.675,41.44-92.675,92.593
			c0,51.088,41.479,92.566,92.675,92.566C463.576,638.25,505.004,596.771,505.004,545.684z M451.039,584.367h-77.232v-77.366h77.232
			V584.367z"/>
		<path fill="#343466" d="M441.217,516.971h-57.479v57.454h57.479V516.971z M430.911,564.175h-36.95v-36.981h36.95V564.175z"/>
	</g>
</g>
</svg>
