<?xml version="1.0" encoding="utf-8"?>
<!-- Generator: Adobe Illustrator 13.0.0, SVG Export Plug-In . SVG Version: 6.00 Build 14948)  -->
<!DOCTYPE svg PUBLIC "-//W3C//DTD SVG 1.1//EN" "http://www.w3.org/Graphics/SVG/1.1/DTD/svg11.dtd">
<svg version="1.1" id="Layer_1" xmlns="http://www.w3.org/2000/svg" xmlns:xlink="http://www.w3.org/1999/xlink" x="0px" y="0px"
	 width="525.263px" height="658.431px" viewBox="0 0 525.263 658.431" enable-background="new 0 0 525.263 658.431"
	 xml:space="preserve">
<g>
	<g>
		<path fill="#356734" d="M112.799,0C50.502,0,0,50.449,0,112.746C0,174.991,50.502,225.44,112.799,225.44
			s112.747-50.449,112.747-112.694C225.546,50.449,175.096,0,112.799,0z M112.799,214.631c-56.253,0-101.859-45.656-101.859-101.885
			C10.939,56.52,56.546,10.9,112.799,10.9c56.254,0,101.806,45.619,101.806,101.846
			C214.604,168.975,169.053,214.631,112.799,214.631z"/>
		<path fill="#356734" d="M112.799,20.193c-51.087,0-92.592,41.41-92.592,92.553c0,51.117,41.505,92.592,92.592,92.592
			c51.143,0,92.622-41.475,92.622-92.592C205.421,61.604,163.941,20.193,112.799,20.193z M151.431,151.361H74.197V74.076h77.233
			V151.361z"/>
		<path fill="#356734" d="M141.474,83.967H84.103v57.49h57.371V83.967z M131.25,131.21H94.377V94.203h36.873V131.21z"/>
	</g>
	<g>
		<path fill="#343466" d="M525.21,112.746C525.21,50.449,474.761,0,412.517,0c-62.324,0-112.773,50.449-112.773,112.746
			c0,62.245,50.449,112.694,112.773,112.694C474.761,225.44,525.21,174.991,525.21,112.746z M514.324,112.746
			c0,56.229-45.607,101.885-101.807,101.885c-56.281,0-101.83-45.656-101.83-101.885c0-56.227,45.549-101.846,101.83-101.846
			C468.716,10.9,514.324,56.52,514.324,112.746z"/>
		<path fill="#343466" d="M505.113,112.746c0-51.143-41.479-92.553-92.596-92.553c-51.166,0-92.645,41.41-92.645,92.553
			c0,51.117,41.479,92.592,92.645,92.592C463.634,205.338,505.113,163.863,505.113,112.746z M451.095,151.361h-77.207V74.076h77.207
			V151.361z"/>
		<path fill="#343466" d="M441.296,83.967H383.82v57.49h57.477V83.967z M431.019,131.21H394.07V94.203h36.949V131.21z"/>
	</g>
	<g>
		<path fill="#343466" d="M0,545.684c0,62.245,50.502,112.747,112.799,112.747s112.773-50.502,112.773-112.747
			c0-62.215-50.477-112.72-112.773-112.72S0,483.469,0,545.684z M10.966,545.684c0-56.227,45.58-101.793,101.833-101.793
			c56.254,0,101.833,45.566,101.833,101.793c0,56.202-45.579,101.82-101.833,101.82C56.546,647.504,10.966,601.886,10.966,545.684z"
			/>
		<path fill="#343466" d="M20.207,545.684c0,51.088,41.505,92.566,92.592,92.566c51.143,0,92.648-41.479,92.648-92.566
			c0-51.152-41.506-92.593-92.648-92.593C61.712,453.091,20.207,494.531,20.207,545.684z M74.197,507.001h77.233v77.366H74.197
			V507.001z"/>
		<path fill="#343466" d="M84.103,574.425h57.396v-57.454H84.103V574.425z M94.404,527.236h36.846V564.2H94.404V527.236z"/>
	</g>
	<g>
		<path fill="#356734" d="M412.517,658.431c62.244,0,112.746-50.502,112.746-112.747c0-62.215-50.502-112.681-112.746-112.681
			c-62.242,0-112.668,50.466-112.668,112.681C299.849,607.929,350.275,658.431,412.517,658.431z M412.517,443.891
			c56.199,0,101.807,45.566,101.807,101.793c0,56.202-45.607,101.82-101.807,101.82c-56.254,0-101.83-45.618-101.83-101.82
			C310.687,489.457,356.263,443.891,412.517,443.891z"/>
		<path fill="#356734" d="M412.517,638.25c51.117,0,92.596-41.479,92.596-92.566c0-51.152-41.479-92.593-92.596-92.593
			c-51.166,0-92.541,41.44-92.541,92.593C319.976,596.771,361.351,638.25,412.517,638.25z M373.888,507.001h77.207v77.366h-77.207
			V507.001z"/>
		<path fill="#356734" d="M383.82,574.425h57.477v-57.454H383.82V574.425z M394.07,527.236h36.949V564.2H394.07V527.236z"/>
	</g>
</g>
</svg>
