<?xml version="1.0" encoding="utf-8"?>
<!-- Generator: Adobe Illustrator 13.0.0, SVG Export Plug-In . SVG Version: 6.00 Build 14948)  -->
<!DOCTYPE svg PUBLIC "-//W3C//DTD SVG 1.1//EN" "http://www.w3.org/Graphics/SVG/1.1/DTD/svg11.dtd">
<svg version="1.1" id="Layer_1" xmlns="http://www.w3.org/2000/svg" xmlns:xlink="http://www.w3.org/1999/xlink" x="0px" y="0px"
	 width="525.184px" height="658.431px" viewBox="0 0 525.184 658.431" enable-background="new 0 0 525.184 658.431"
	 xml:space="preserve">
<g>
	<g>
		<path fill="#981B1E" d="M262.578,216.428c-62.244,0-112.775,50.519-112.775,112.785c0,62.272,50.531,112.75,112.775,112.75
			c62.242,0,112.772-50.478,112.772-112.75C375.351,266.946,324.82,216.428,262.578,216.428z M262.578,431.033
			c-56.2,0-101.858-45.591-101.858-101.82c0-56.223,45.658-101.815,101.858-101.815c56.202,0,101.856,45.593,101.856,101.815
			C364.435,385.442,318.78,431.033,262.578,431.033z"/>
		<path fill="#981B1E" d="M262.578,236.659c-51.116,0-92.595,41.44-92.595,92.554c0,51.117,41.479,92.597,92.595,92.597
			c51.115,0,92.594-41.479,92.594-92.597C355.172,278.1,313.693,236.659,262.578,236.659z M301.154,367.857H224v-77.22h77.154
			V367.857z"/>
		<path fill="#981B1E" d="M291.249,300.502h-57.345v57.425h57.345V300.502z M280.974,347.729h-36.898V310.7h36.898V347.729z"/>
	</g>
	<g>
		<path fill="#356734" d="M112.773,0C50.476,0,0,50.449,0,112.746C0,174.991,50.476,225.44,112.773,225.44
			c62.244,0,112.638-50.449,112.638-112.694C225.411,50.449,175.018,0,112.773,0z M112.773,214.631
			c-56.28,0-101.86-45.656-101.86-101.885c0-56.227,45.58-101.846,101.86-101.846c56.174,0,101.697,45.619,101.697,101.846
			C214.471,168.975,168.947,214.631,112.773,214.631z"/>
		<path fill="#356734" d="M112.773,20.193c-51.171,0-92.677,41.41-92.677,92.553c0,51.117,41.506,92.592,92.677,92.592
			c51.113,0,92.592-41.475,92.592-92.592C205.365,61.604,163.887,20.193,112.773,20.193z M151.348,151.361H74.114V74.076h77.233
			V151.361z"/>
		<path fill="#356734" d="M141.443,83.967h-57.37v57.49h57.37V83.967z M131.141,131.21H94.242V94.203h36.898V131.21z"/>
	</g>
	<g>
		<path fill="#343466" d="M525.184,112.746C525.184,50.449,474.761,0,412.465,0C350.088,0,299.69,50.449,299.69,112.746
			c0,62.245,50.397,112.694,112.774,112.694C474.761,225.44,525.184,174.991,525.184,112.746z M514.24,112.746
			c0,56.229-45.522,101.885-101.775,101.885c-56.337,0-101.859-45.656-101.859-101.885c0-56.227,45.522-101.846,101.859-101.846
			C468.718,10.9,514.24,56.52,514.24,112.746z"/>
		<path fill="#343466" d="M505.005,112.746c0-51.143-41.427-92.553-92.54-92.553c-51.118,0-92.648,41.41-92.648,92.553
			c0,51.117,41.53,92.592,92.648,92.592C463.578,205.338,505.005,163.863,505.005,112.746z M451.039,151.361h-77.206V74.076h77.206
			V151.361z"/>
		<path fill="#343466" d="M441.217,83.967h-57.506v57.49h57.506V83.967z M430.859,131.21h-36.846V94.203h36.846V131.21z"/>
	</g>
	<g>
		<path fill="#343466" d="M0,545.684c0,62.245,50.476,112.747,112.773,112.747c62.244,0,112.771-50.502,112.771-112.747
			c0-62.215-50.527-112.72-112.771-112.72C50.476,432.964,0,483.469,0,545.684z M10.913,545.684
			c0-56.227,45.58-101.793,101.86-101.793c56.174,0,101.828,45.566,101.828,101.793c0,56.202-45.654,101.82-101.828,101.82
			C56.493,647.504,10.913,601.886,10.913,545.684z"/>
		<path fill="#343466" d="M20.097,545.684c0,51.088,41.506,92.566,92.677,92.566c51.113,0,92.592-41.479,92.592-92.566
			c0-51.152-41.479-92.593-92.592-92.593C61.603,453.091,20.097,494.531,20.097,545.684z M74.168,507.001h77.18v77.366h-77.18
			V507.001z"/>
		<path fill="#343466" d="M84.073,574.425h57.37v-57.454h-57.37V574.425z M94.242,527.236h36.979V564.2H94.242V527.236z"/>
	</g>
	<g>
		<path fill="#356734" d="M412.465,658.431c62.296,0,112.719-50.502,112.719-112.747c0-62.215-50.423-112.681-112.719-112.681
			c-62.299,0-112.774,50.466-112.774,112.681C299.69,607.929,350.166,658.431,412.465,658.431z M412.465,443.891
			c56.253,0,101.775,45.566,101.775,101.793c0,56.202-45.522,101.82-101.775,101.82c-56.255,0-101.859-45.618-101.859-101.82
			C310.605,489.457,356.21,443.891,412.465,443.891z"/>
		<path fill="#356734" d="M412.465,638.25c51.113,0,92.54-41.479,92.54-92.566c0-51.152-41.427-92.593-92.54-92.593
			c-51.118,0-92.648,41.44-92.648,92.593C319.816,596.771,361.347,638.25,412.465,638.25z M373.833,507.001h77.206v77.366h-77.206
			V507.001z"/>
		<path fill="#356734" d="M383.711,574.425h57.506v-57.454h-57.506V574.425z M394.014,527.236h36.846V564.2h-36.846V527.236z"/>
	</g>
</g>
</svg>
