<?xml version="1.0" encoding="utf-8"?>
<!-- Generator: Adobe Illustrator 13.0.0, SVG Export Plug-In . SVG Version: 6.00 Build 14948)  -->
<!DOCTYPE svg PUBLIC "-//W3C//DTD SVG 1.1//EN" "http://www.w3.org/Graphics/SVG/1.1/DTD/svg11.dtd">
<svg version="1.1" id="Layer_1" xmlns="http://www.w3.org/2000/svg" xmlns:xlink="http://www.w3.org/1999/xlink" x="0px" y="0px"
	 width="389.65px" height="658.431px" viewBox="0 0 389.65 658.431" enable-background="new 0 0 389.65 658.431"
	 xml:space="preserve">
<g>
	<g>
		<path fill="#981B1E" d="M93.496,265.587C41.797,265.587,0,307.425,0,359.11c0,51.677,41.797,93.5,93.496,93.5
			c51.703,0,93.474-41.823,93.474-93.5C186.97,307.425,145.199,265.587,93.496,265.587z M93.496,443.615
			c-46.694,0-84.5-37.887-84.5-84.505c0-46.642,37.806-84.444,84.5-84.444c46.671,0,84.474,37.803,84.474,84.444
			C177.97,405.729,140.167,443.615,93.496,443.615z"/>
		<path fill="#981B1E" d="M93.496,282.306c-42.384,0-76.779,34.37-76.779,76.805c0,42.413,34.396,76.849,76.779,76.849
			c42.439,0,76.756-34.436,76.756-76.849C170.252,316.676,135.936,282.306,93.496,282.306z M125.577,391.166H61.472V327.06h64.105
			V391.166z"/>
		<path fill="#981B1E" d="M117.271,335.297H69.698v47.641h47.573V335.297z M108.78,374.447H78.189v-30.67h30.591V374.447z"/>
	</g>
	<g>
		<path fill="#981B1E" d="M296.044,265.587c-51.65,0-93.5,41.838-93.5,93.523c0,51.677,41.85,93.5,93.5,93.5
			c51.697,0,93.605-41.823,93.605-93.5C389.65,307.425,347.742,265.587,296.044,265.587z M296.044,443.615
			c-46.697,0-84.5-37.887-84.5-84.505c0-46.642,37.803-84.444,84.5-84.444c46.535,0,84.473,37.803,84.473,84.444
			C380.517,405.729,342.58,443.615,296.044,443.615z"/>
		<path fill="#981B1E" d="M296.044,282.306c-42.436,0-76.779,34.37-76.779,76.805c0,42.413,34.344,76.849,76.779,76.849
			s76.832-34.436,76.832-76.849C372.876,316.676,338.48,282.306,296.044,282.306z M328.042,391.166h-64.105V327.06h64.105V391.166z"
			/>
		<path fill="#981B1E" d="M319.898,335.297h-47.654v47.641h47.654V335.297z M311.351,374.447h-30.619v-30.67h30.619V374.447z"/>
	</g>
	<g>
		<path fill="#981B1E" d="M93.496,471.38C41.797,471.38,0,513.336,0,564.946c0,51.594,41.797,93.484,93.496,93.484
			c51.703,0,93.474-41.891,93.474-93.484C186.97,513.336,145.199,471.38,93.496,471.38z M93.496,649.404
			c-46.694,0-84.5-37.841-84.5-84.497c0-46.619,37.806-84.451,84.5-84.451c46.671,0,84.474,37.832,84.474,84.451
			C177.97,611.563,140.167,649.404,93.496,649.404z"/>
		<path fill="#981B1E" d="M93.496,488.1c-42.384,0-76.779,34.369-76.779,76.847c0,42.371,34.396,76.767,76.779,76.767
			c42.439,0,76.756-34.396,76.756-76.767C170.252,522.469,135.936,488.1,93.496,488.1z M125.577,596.96H61.472v-64.107h64.105
			V596.96z"/>
		<path fill="#981B1E" d="M117.271,541.095H69.698v47.612h47.573V541.095z M108.78,580.24H78.189v-30.669h30.591V580.24z"/>
	</g>
	<g>
		<path fill="#981B1E" d="M296.044,471.38c-51.65,0-93.5,41.956-93.5,93.566c0,51.594,41.85,93.484,93.5,93.484
			c51.697,0,93.605-41.891,93.605-93.484C389.65,513.336,347.742,471.38,296.044,471.38z M296.044,649.404
			c-46.697,0-84.5-37.841-84.5-84.497c0-46.619,37.803-84.451,84.5-84.451c46.535,0,84.473,37.832,84.473,84.451
			C380.517,611.563,342.58,649.404,296.044,649.404z"/>
		<path fill="#981B1E" d="M296.044,488.1c-42.436,0-76.779,34.369-76.779,76.847c0,42.371,34.344,76.767,76.779,76.767
			s76.832-34.396,76.832-76.767C372.876,522.469,338.48,488.1,296.044,488.1z M328.042,596.96h-64.105v-64.107h64.105V596.96z"/>
		<path fill="#981B1E" d="M319.898,541.095h-47.654v47.612h47.654V541.095z M311.351,580.24h-30.619v-30.669h30.619V580.24z"/>
	</g>
	<g>
		<path fill="#356734" d="M93.496,0C41.797,0,0,41.863,0,93.5c0,51.686,41.797,93.55,93.496,93.55
			c51.703,0,93.474-41.864,93.474-93.55C186.97,41.863,145.199,0,93.496,0z M93.496,177.984c-46.694,0-84.5-37.816-84.5-84.484
			c0-46.631,37.806-84.464,84.5-84.464c46.671,0,84.474,37.833,84.474,84.464C177.97,140.168,140.167,177.984,93.496,177.984z"/>
		<path fill="#356734" d="M93.496,16.718c-42.384,0-76.779,34.396-76.779,76.782c0,42.436,34.396,76.806,76.779,76.806
			c42.439,0,76.756-34.37,76.756-76.806C170.252,51.113,135.936,16.718,93.496,16.718z M125.577,125.512H61.472V61.445h64.105
			V125.512z"/>
		<path fill="#356734" d="M117.271,69.699H69.698v47.654h47.573V69.699z M108.78,108.795H78.189V78.15h30.591V108.795z"/>
	</g>
	<g>
		<path fill="#356734" d="M296.044,0c-51.65,0-93.5,41.863-93.5,93.5c0,51.686,41.85,93.55,93.5,93.55
			c51.697,0,93.605-41.864,93.605-93.55C389.65,41.863,347.742,0,296.044,0z M296.044,177.984c-46.697,0-84.5-37.816-84.5-84.484
			c0-46.631,37.803-84.464,84.5-84.464c46.535,0,84.473,37.833,84.473,84.464C380.517,140.168,342.58,177.984,296.044,177.984z"/>
		<path fill="#356734" d="M296.044,16.718c-42.436,0-76.779,34.396-76.779,76.782c0,42.436,34.344,76.806,76.779,76.806
			s76.832-34.37,76.832-76.806C372.876,51.113,338.48,16.718,296.044,16.718z M328.042,125.512h-64.105V61.445h64.105V125.512z"/>
		<path fill="#356734" d="M319.898,69.699h-47.654v47.654h47.654V69.699z M311.351,108.795h-30.619V78.15h30.619V108.795z"/>
	</g>
</g>
</svg>
