<?xml version="1.0" encoding="utf-8"?>
<!-- Generator: Adobe Illustrator 13.0.0, SVG Export Plug-In . SVG Version: 6.00 Build 14948)  -->
<!DOCTYPE svg PUBLIC "-//W3C//DTD SVG 1.1//EN" "http://www.w3.org/Graphics/SVG/1.1/DTD/svg11.dtd">
<svg version="1.1" id="Layer_1" xmlns="http://www.w3.org/2000/svg" xmlns:xlink="http://www.w3.org/1999/xlink" x="0px" y="0px"
	 width="498.83px" height="658.448px" viewBox="0 0 498.83 658.448" enable-background="new 0 0 498.83 658.448"
	 xml:space="preserve">
<g>
	<g>
		<g>
			<path fill="#981B1E" d="M158.698,306.47c-46.298,0-83.78,37.511-83.78,83.783c0,46.252,37.482,83.778,83.78,83.778
				c46.296,0,83.7-37.526,83.7-83.778C242.398,343.98,204.994,306.47,158.698,306.47z M158.698,465.927
				c-41.799,0-75.741-33.88-75.741-75.674c0-41.799,33.942-75.691,75.741-75.691c41.797,0,75.608,33.893,75.608,75.691
				C234.307,432.047,200.495,465.927,158.698,465.927z"/>
			<path fill="#981B1E" d="M158.698,321.444c-37.938,0-68.819,30.828-68.819,68.809c0,37.989,30.882,68.791,68.819,68.791
				c37.937,0,68.794-30.802,68.794-68.791C227.492,352.272,196.635,321.444,158.698,321.444z M187.425,418.949h-57.534v-57.345
				h57.534V418.949z"/>
			<path fill="#981B1E" d="M180.049,368.897h-42.649v42.732h42.649V368.897z M172.383,403.949h-27.449v-27.462h27.449V403.949z"/>
		</g>
		<g>
			<path fill="#981B1E" d="M340.158,306.47c-46.298,0-83.86,37.511-83.86,83.783c0,46.252,37.563,83.778,83.86,83.778
				c46.296,0,83.834-37.526,83.834-83.778C423.992,343.98,386.454,306.47,340.158,306.47z M340.158,465.927
				c-41.799,0-75.636-33.88-75.636-75.674c0-41.799,33.837-75.691,75.636-75.691c41.771,0,75.742,33.893,75.742,75.691
				C415.9,432.047,381.93,465.927,340.158,465.927z"/>
			<path fill="#981B1E" d="M340.158,321.444c-37.939,0-68.82,30.828-68.82,68.809c0,37.989,30.881,68.791,68.82,68.791
				c38.046,0,68.794-30.802,68.794-68.791C408.952,352.272,378.204,321.444,340.158,321.444z M368.833,418.949h-57.425v-57.345
				h57.425V418.949z"/>
			<path fill="#981B1E" d="M361.563,368.897h-42.704v42.732h42.704V368.897z M353.896,403.949h-27.448v-27.462h27.448V403.949z"/>
		</g>
		<g>
			<path fill="#981B1E" d="M158.698,490.911c-46.298,0-83.78,37.457-83.78,83.757c0,46.254,37.482,83.78,83.78,83.78
				c46.296,0,83.7-37.526,83.7-83.78C242.398,528.368,204.994,490.911,158.698,490.911z M158.698,650.381
				c-41.799,0-75.741-33.932-75.741-75.713c0-41.84,33.942-75.69,75.741-75.69c41.797,0,75.608,33.851,75.608,75.69
				C234.307,616.449,200.495,650.381,158.698,650.381z"/>
			<path fill="#981B1E" d="M158.698,505.82c-37.938,0-68.819,30.84-68.819,68.848c0,38.03,30.882,68.792,68.819,68.792
				c37.937,0,68.794-30.762,68.794-68.792C227.492,536.66,196.635,505.82,158.698,505.82z M187.425,603.365h-57.534v-57.45h57.534
				V603.365z"/>
			<path fill="#981B1E" d="M180.049,553.314h-42.649v42.731h42.649V553.314z M172.383,588.391h-27.449V560.93h27.449V588.391z"/>
		</g>
		<g>
			<path fill="#981B1E" d="M340.158,490.911c-46.298,0-83.86,37.457-83.86,83.757c0,46.254,37.563,83.78,83.86,83.78
				c46.296,0,83.834-37.526,83.834-83.78C423.992,528.368,386.454,490.911,340.158,490.911z M340.158,650.381
				c-41.799,0-75.636-33.932-75.636-75.713c0-41.84,33.837-75.69,75.636-75.69c41.771,0,75.742,33.851,75.742,75.69
				C415.9,616.449,381.93,650.381,340.158,650.381z"/>
			<path fill="#981B1E" d="M340.158,505.82c-37.939,0-68.82,30.84-68.82,68.848c0,38.03,30.881,68.792,68.82,68.792
				c38.046,0,68.794-30.762,68.794-68.792C408.952,536.66,378.204,505.82,340.158,505.82z M368.833,603.365h-57.425v-57.45h57.425
				V603.365z"/>
			<path fill="#981B1E" d="M361.563,553.314h-42.704v42.731h42.704V553.314z M353.896,588.391h-27.448V560.93h27.448V588.391z"/>
		</g>
	</g>
	<g>
		<g>
			<path fill="#356734" d="M83.836,0C37.539,0,0,37.5,0,83.797c0,46.23,37.539,83.783,83.836,83.783
				c46.191,0,83.729-37.553,83.729-83.783C167.564,37.5,130.027,0,83.836,0z M83.836,159.471c-41.852,0-75.744-33.955-75.744-75.674
				c0-41.798,33.893-75.688,75.744-75.688c41.797,0,75.688,33.89,75.688,75.688C159.523,125.516,125.633,159.471,83.836,159.471z"/>
			<path fill="#356734" d="M83.836,14.923c-38.046,0-68.927,30.831-68.927,68.874c0,37.99,30.881,68.82,68.927,68.82
				c37.938,0,68.818-30.83,68.818-68.82C152.654,45.754,121.773,14.923,83.836,14.923z M112.532,112.537H55.109V55.043h57.423
				V112.537z"/>
			<path fill="#356734" d="M105.135,62.445H62.433v42.729h42.702V62.445z M97.602,97.48h-27.53V70.035h27.53V97.48z"/>
		</g>
		<g>
			<path fill="#356734" d="M249.429,66.307c-46.244,0-83.783,37.553-83.783,83.836c0,46.27,37.539,83.818,83.783,83.818
				c46.35,0,83.833-37.549,83.833-83.818C333.262,103.859,295.778,66.307,249.429,66.307z M249.429,225.803
				c-41.875,0-75.634-33.89-75.634-75.66c0-41.785,33.759-75.744,75.634-75.744c41.717,0,75.662,33.959,75.662,75.744
				C325.091,191.913,291.146,225.803,249.429,225.803z"/>
			<path fill="#356734" d="M249.429,81.321c-38.02,0-68.821,30.788-68.821,68.821c0,38.003,30.802,68.804,68.821,68.804
				c37.991,0,68.793-30.801,68.793-68.804C318.222,112.109,287.42,81.321,249.429,81.321z M278.152,178.853h-57.424v-57.45h57.424
				V178.853z"/>
			<path fill="#356734" d="M270.701,128.83h-42.705v42.637h42.705V128.83z M263.111,163.877h-27.526v-27.486h27.526V163.877z"/>
		</g>
		<g>
			<path fill="#356734" d="M414.996,132.665c-46.299,0-83.73,37.483-83.73,83.779c0,46.297,37.432,83.809,83.73,83.809
				c46.297,0,83.834-37.512,83.834-83.809C498.83,170.148,461.293,132.665,414.996,132.665z M414.996,292.162
				c-41.799,0-75.607-33.959-75.607-75.718c0-41.797,33.809-75.647,75.607-75.647c41.851,0,75.741,33.851,75.741,75.647
				C490.737,258.203,456.847,292.162,414.996,292.162z"/>
			<path fill="#356734" d="M414.996,147.64c-37.937,0-68.794,30.802-68.794,68.805s30.857,68.806,68.794,68.806
				c38.068,0,68.924-30.803,68.924-68.806S453.064,147.64,414.996,147.64z M443.746,245.119h-57.425V187.73h57.425V245.119z"/>
			<path fill="#356734" d="M436.4,195.094h-42.702v42.637H436.4V195.094z M428.812,230.171h-27.448V202.68h27.448V230.171z"/>
		</g>
	</g>
</g>
</svg>
