<?xml version="1.0" encoding="utf-8"?>
<!-- Generator: Adobe Illustrator 13.0.0, SVG Export Plug-In . SVG Version: 6.00 Build 14948)  -->
<!DOCTYPE svg PUBLIC "-//W3C//DTD SVG 1.1//EN" "http://www.w3.org/Graphics/SVG/1.1/DTD/svg11.dtd">
<svg version="1.1" id="Layer_1" xmlns="http://www.w3.org/2000/svg" xmlns:xlink="http://www.w3.org/1999/xlink" x="0px" y="0px"
	 width="324.186px" height="658.431px" viewBox="0 0 324.186 658.431" enable-background="new 0 0 324.186 658.431"
	 xml:space="preserve">
<g>
	<g>
		<g>
			<path fill="#343466" d="M155.344,77.739C155.344,34.811,120.627,0,77.657,0C34.715,0,0,34.811,0,77.739
				c0,42.89,34.715,77.604,77.657,77.604C120.627,155.344,155.344,120.629,155.344,77.739z M7.455,77.739
				c0-38.818,31.495-70.219,70.202-70.219c38.847,0,70.232,31.4,70.232,70.219c0,38.707-31.386,70.11-70.232,70.11
				C38.95,147.85,7.455,116.446,7.455,77.739z"/>
			<path fill="#343466" d="M141.447,77.739c0-35.276-28.539-63.855-63.79-63.855c-35.221,0-63.787,28.579-63.787,63.855
				c0,35.194,28.566,63.788,63.787,63.788C112.908,141.527,141.447,112.934,141.447,77.739z M51.034,104.361V51.074h53.247v53.287
				H51.034z"/>
			<path fill="#343466" d="M97.466,97.479V57.864H57.852v39.614H97.466z M64.936,90.437V64.971h25.478v25.466H64.936z"/>
		</g>
		<g>
			<path fill="#343466" d="M155.344,245.368c0-42.89-34.717-77.671-77.687-77.671C34.715,167.697,0,202.479,0,245.368
				c0,42.956,34.715,77.736,77.657,77.736C120.627,323.104,155.344,288.324,155.344,245.368z M7.455,245.368
				c0-38.71,31.495-70.124,70.202-70.124c38.847,0,70.232,31.414,70.232,70.124c0,38.736-31.386,70.15-70.232,70.15
				C38.95,315.519,7.455,284.104,7.455,245.368z"/>
			<path fill="#343466" d="M141.447,245.368c0-35.208-28.539-63.721-63.79-63.721c-35.221,0-63.787,28.513-63.787,63.721
				c0,35.261,28.566,63.852,63.787,63.852C112.908,309.22,141.447,280.629,141.447,245.368z M51.034,272.018v-53.272h53.247v53.272
				H51.034z"/>
			<path fill="#343466" d="M97.466,265.204v-39.575H57.852v39.575H97.466z M64.936,258.133v-25.438h25.478v25.438H64.936z"/>
		</g>
		<g>
			<path fill="#343466" d="M155.344,413.091c0-42.85-34.717-77.672-77.687-77.672C34.715,335.419,0,370.242,0,413.091
				c0,42.926,34.715,77.711,77.657,77.711C120.627,490.802,155.344,456.017,155.344,413.091z M7.455,413.091
				c0-38.736,31.495-70.15,70.202-70.15c38.847,0,70.232,31.414,70.232,70.15c0,38.752-31.386,70.15-70.232,70.15
				C38.95,483.242,7.455,451.843,7.455,413.091z"/>
			<path fill="#343466" d="M141.447,413.091c0-35.238-28.539-63.816-63.79-63.816c-35.221,0-63.787,28.578-63.787,63.816
				c0,35.209,28.566,63.828,63.787,63.828C112.908,476.919,141.447,448.3,141.447,413.091z M51.034,439.714v-53.205h53.247v53.205
				H51.034z"/>
			<path fill="#343466" d="M97.466,432.923v-39.602H57.852v39.602H97.466z M64.936,425.857v-25.49h25.478v25.49H64.936z"/>
		</g>
		<g>
			<path fill="#343466" d="M155.344,580.853c0-42.955-34.717-77.74-77.687-77.74C34.715,503.113,0,537.898,0,580.853
				c0,42.863,34.715,77.578,77.657,77.578C120.627,658.431,155.344,623.716,155.344,580.853z M7.455,580.853
				c0-38.803,31.495-70.215,70.202-70.215c38.847,0,70.232,31.412,70.232,70.215c0,38.709-31.386,70.084-70.232,70.084
				C38.95,650.937,7.455,619.562,7.455,580.853z"/>
			<path fill="#343466" d="M141.447,580.853c0-35.234-28.539-63.813-63.79-63.813c-35.221,0-63.787,28.578-63.787,63.813
				c0,35.209,28.566,63.764,63.787,63.764C112.908,644.617,141.447,616.062,141.447,580.853z M51.034,607.384v-53.182h53.247v53.182
				H51.034z"/>
			<path fill="#343466" d="M97.466,600.552v-39.531H57.852v39.531H97.466z M64.936,593.527v-25.439h25.478v25.439H64.936z"/>
		</g>
	</g>
	<g>
		<g>
			<path fill="#343466" d="M324.186,77.739C324.186,34.811,289.336,0,246.395,0c-42.811,0-77.608,34.811-77.608,77.739
				c0,42.89,34.798,77.604,77.608,77.604C289.336,155.344,324.186,120.629,324.186,77.739z M176.241,77.739
				c0-38.818,31.442-70.219,70.153-70.219c38.842,0,70.228,31.4,70.228,70.219c0,38.707-31.386,70.11-70.228,70.11
				C207.684,147.85,176.241,116.446,176.241,77.739z"/>
			<path fill="#343466" d="M310.313,77.739c0-35.276-28.672-63.855-63.918-63.855c-35.25,0-63.79,28.579-63.79,63.855
				c0,35.194,28.54,63.788,63.79,63.788C281.641,141.527,310.313,112.934,310.313,77.739z M219.902,104.361V51.074h53.248v53.287
				H219.902z"/>
			<path fill="#343466" d="M266.2,97.479V57.864h-39.614v39.614H266.2z M233.668,90.437V64.971h25.584v25.466H233.668z"/>
		</g>
		<g>
			<path fill="#343466" d="M324.186,245.368c0-42.89-34.85-77.671-77.791-77.671c-42.811,0-77.608,34.781-77.608,77.671
				c0,42.956,34.798,77.736,77.608,77.736C289.336,323.104,324.186,288.324,324.186,245.368z M176.241,245.368
				c0-38.71,31.442-70.124,70.153-70.124c38.842,0,70.228,31.414,70.228,70.124c0,38.736-31.386,70.15-70.228,70.15
				C207.684,315.519,176.241,284.104,176.241,245.368z"/>
			<path fill="#343466" d="M310.313,245.368c0-35.208-28.672-63.721-63.918-63.721c-35.25,0-63.79,28.513-63.79,63.721
				c0,35.261,28.54,63.852,63.79,63.852C281.641,309.22,310.313,280.629,310.313,245.368z M219.902,272.018v-53.272h53.248v53.272
				H219.902z"/>
			<path fill="#343466" d="M266.2,265.204v-39.575h-39.614v39.575H266.2z M233.668,258.133v-25.438h25.584v25.438H233.668z"/>
		</g>
		<g>
			<path fill="#343466" d="M324.186,413.091c0-42.85-34.85-77.672-77.791-77.672c-42.811,0-77.608,34.822-77.608,77.672
				c0,42.926,34.798,77.711,77.608,77.711C289.336,490.802,324.186,456.017,324.186,413.091z M176.241,413.091
				c0-38.736,31.442-70.15,70.153-70.15c38.842,0,70.228,31.414,70.228,70.15c0,38.752-31.386,70.15-70.228,70.15
				C207.684,483.242,176.241,451.843,176.241,413.091z"/>
			<path fill="#343466" d="M310.313,413.091c0-35.238-28.672-63.816-63.918-63.816c-35.25,0-63.79,28.578-63.79,63.816
				c0,35.209,28.54,63.828,63.79,63.828C281.641,476.919,310.313,448.3,310.313,413.091z M219.902,439.714v-53.205h53.248v53.205
				H219.902z"/>
			<path fill="#343466" d="M266.2,432.923v-39.602h-39.614v39.602H266.2z M233.668,425.857v-25.49h25.584v25.49H233.668z"/>
		</g>
		<g>
			<path fill="#343466" d="M324.186,580.853c0-42.955-34.85-77.74-77.791-77.74c-42.811,0-77.608,34.785-77.608,77.74
				c0,42.863,34.798,77.578,77.608,77.578C289.336,658.431,324.186,623.716,324.186,580.853z M176.241,580.853
				c0-38.803,31.442-70.215,70.153-70.215c38.842,0,70.228,31.412,70.228,70.215c0,38.709-31.386,70.084-70.228,70.084
				C207.684,650.937,176.241,619.562,176.241,580.853z"/>
			<path fill="#343466" d="M310.313,580.853c0-35.234-28.672-63.813-63.918-63.813c-35.25,0-63.79,28.578-63.79,63.813
				c0,35.209,28.54,63.764,63.79,63.764C281.641,644.617,310.313,616.062,310.313,580.853z M219.902,607.384v-53.182h53.248v53.182
				H219.902z"/>
			<path fill="#343466" d="M266.2,600.552v-39.531h-39.614v39.531H266.2z M233.668,593.527v-25.439h25.584v25.439H233.668z"/>
		</g>
	</g>
</g>
</svg>
