<?xml version="1.0" encoding="utf-8"?>
<!-- Generator: Adobe Illustrator 13.0.0, SVG Export Plug-In . SVG Version: 6.00 Build 14948)  -->
<!DOCTYPE svg PUBLIC "-//W3C//DTD SVG 1.1//EN" "http://www.w3.org/Graphics/SVG/1.1/DTD/svg11.dtd">
<svg version="1.1" id="Layer_1" xmlns="http://www.w3.org/2000/svg" xmlns:xlink="http://www.w3.org/1999/xlink" x="0px" y="0px"
	 width="506.919px" height="614.866px" viewBox="0 0 506.919 614.866" enable-background="new 0 0 506.919 614.866"
	 xml:space="preserve">
<g>
	<g>
		<g>
			<path fill="#343466" d="M80.002,454.785C35.851,454.785,0,490.602,0,534.803c0,44.191,35.851,80.063,80.002,80.063
				c44.305,0,80.153-35.872,80.153-80.063C160.155,490.602,124.307,454.785,80.002,454.785z M80.002,607.146
				c-39.829,0-72.243-32.416-72.243-72.343c0-39.94,32.414-72.297,72.243-72.297c39.979,0,72.222,32.356,72.222,72.297
				C152.224,574.729,119.98,607.146,80.002,607.146z"/>
			<path fill="#343466" d="M80.002,469.069c-36.269,0-65.708,29.434-65.708,65.733c0,36.323,29.439,65.771,65.708,65.771
				c36.45,0,65.858-29.447,65.858-65.771C145.86,498.503,116.452,469.069,80.002,469.069z M107.5,562.272H52.558v-54.92H107.5
				V562.272z"/>
			<path fill="#343466" d="M100.413,514.415H59.642v40.798h40.771V514.415z M93.156,547.955H66.852v-26.254h26.305V547.955z"/>
		</g>
		<g>
			<path fill="#343466" d="M253.412,454.785c-44.2,0-79.982,35.816-79.982,80.018c0,44.191,35.782,80.063,79.982,80.063
				c44.304,0,80.101-35.872,80.101-80.063C333.513,490.602,297.716,454.785,253.412,454.785z M253.412,607.146
				c-39.931,0-72.247-32.416-72.247-72.343c0-39.94,32.316-72.297,72.247-72.297c39.927,0,72.294,32.356,72.294,72.297
				C325.707,574.729,293.339,607.146,253.412,607.146z"/>
			<path fill="#343466" d="M253.412,469.069c-36.223,0-65.636,29.434-65.636,65.733c0,36.323,29.413,65.771,65.636,65.771
				c36.324,0,65.738-29.447,65.738-65.771C319.15,498.503,289.736,469.069,253.412,469.069z M280.91,562.272h-54.95v-54.92h54.95
				V562.272z"/>
			<path fill="#343466" d="M273.82,514.415h-40.817v40.798h40.817V514.415z M266.562,547.955h-26.254v-26.254h26.254V547.955z"/>
		</g>
		<g>
			<path fill="#343466" d="M426.894,454.785c-44.279,0-80.182,35.816-80.182,80.018c0,44.191,35.902,80.063,80.182,80.063
				c44.176,0,80.025-35.872,80.025-80.063C506.919,490.602,471.07,454.785,426.894,454.785z M426.894,607.146
				c-40.006,0-72.371-32.416-72.371-72.343c0-39.94,32.365-72.297,72.371-72.297c39.926,0,72.225,32.356,72.225,72.297
				C499.119,574.729,466.82,607.146,426.894,607.146z"/>
			<path fill="#343466" d="M426.894,469.069c-36.395,0-65.836,29.434-65.836,65.733c0,36.323,29.441,65.771,65.836,65.771
				c36.248,0,65.729-29.447,65.729-65.771C492.623,498.503,463.142,469.069,426.894,469.069z M454.263,562.272h-54.895v-54.92
				h54.895V562.272z"/>
			<path fill="#343466" d="M447.23,514.415h-40.822v40.798h40.822V514.415z M440.017,547.955h-26.275v-26.254h26.275V547.955z"/>
		</g>
	</g>
	<g>
		<g>
			<path fill="#981B1E" d="M80.002,227.355C35.851,227.355,0,263.242,0,307.435c0,44.188,35.851,80.063,80.002,80.063
				c44.305,0,80.153-35.875,80.153-80.063C160.155,263.242,124.307,227.355,80.002,227.355z M80.002,379.729
				c-39.829,0-72.243-32.393-72.243-72.294c0-39.941,32.414-72.274,72.243-72.274c39.979,0,72.222,32.333,72.222,72.274
				C152.224,347.336,119.98,379.729,80.002,379.729z"/>
			<path fill="#981B1E" d="M80.002,241.676c-36.269,0-65.708,29.424-65.708,65.759c0,36.318,29.439,65.783,65.708,65.783
				c36.45,0,65.858-29.465,65.858-65.783C145.86,271.1,116.452,241.676,80.002,241.676z M107.5,334.869H52.558v-54.848H107.5
				V334.869z"/>
			<path fill="#981B1E" d="M100.413,287.046H59.642v40.796h40.771V287.046z M93.156,320.585H66.852V294.28h26.305V320.585z"/>
		</g>
		<g>
			<path fill="#981B1E" d="M253.412,227.355c-44.2,0-79.982,35.887-79.982,80.079c0,44.188,35.782,80.063,79.982,80.063
				c44.304,0,80.101-35.875,80.101-80.063C333.513,263.242,297.716,227.355,253.412,227.355z M253.412,379.729
				c-39.931,0-72.247-32.393-72.247-72.294c0-39.941,32.316-72.274,72.247-72.274c39.927,0,72.294,32.333,72.294,72.274
				C325.707,347.336,293.339,379.729,253.412,379.729z"/>
			<path fill="#981B1E" d="M253.412,241.676c-36.223,0-65.636,29.424-65.636,65.759c0,36.318,29.413,65.783,65.636,65.783
				c36.324,0,65.738-29.465,65.738-65.783C319.15,271.1,289.736,241.676,253.412,241.676z M280.91,334.869h-54.95v-54.848h54.95
				V334.869z"/>
			<path fill="#981B1E" d="M273.82,287.046h-40.817v40.796h40.817V287.046z M266.562,320.585h-26.254V294.28h26.254V320.585z"/>
		</g>
		<g>
			<path fill="#981B1E" d="M426.894,227.355c-44.279,0-80.182,35.887-80.182,80.079c0,44.188,35.902,80.063,80.182,80.063
				c44.176,0,80.025-35.875,80.025-80.063C506.919,263.242,471.07,227.355,426.894,227.355z M426.894,379.729
				c-40.006,0-72.371-32.393-72.371-72.294c0-39.941,32.365-72.274,72.371-72.274c39.926,0,72.225,32.333,72.225,72.274
				C499.119,347.336,466.82,379.729,426.894,379.729z"/>
			<path fill="#981B1E" d="M426.894,241.676c-36.395,0-65.836,29.424-65.836,65.759c0,36.318,29.441,65.783,65.836,65.783
				c36.248,0,65.729-29.465,65.729-65.783C492.623,271.1,463.142,241.676,426.894,241.676z M454.263,334.869h-54.895v-54.848h54.895
				V334.869z"/>
			<path fill="#981B1E" d="M447.23,287.046h-40.822v40.796h40.822V287.046z M440.017,320.585h-26.275V294.28h26.275V320.585z"/>
		</g>
	</g>
	<g>
		<g>
			<path fill="#356734" d="M80.002,0C35.851,0,0,35.838,0,80.063c0,44.232,35.851,80.082,80.002,80.082
				c44.305,0,80.153-35.85,80.153-80.082C160.155,35.838,124.307,0,80.002,0z M80.002,152.338
				c-39.829,0-72.243-32.344-72.243-72.275c0-39.926,32.414-72.32,72.243-72.32c39.979,0,72.222,32.395,72.222,72.32
				C152.224,119.994,119.98,152.338,80.002,152.338z"/>
			<path fill="#356734" d="M80.002,14.317c-36.269,0-65.708,29.423-65.708,65.745c0,36.323,29.439,65.761,65.708,65.761
				c36.45,0,65.858-29.438,65.858-65.761C145.86,43.74,116.452,14.317,80.002,14.317z M107.5,107.511H52.558V52.616H107.5V107.511z"
				/>
			<path fill="#356734" d="M100.413,59.68H59.642v40.795h40.771V59.68z M93.156,93.154H66.852V66.949h26.305V93.154z"/>
		</g>
		<g>
			<path fill="#356734" d="M253.412,0c-44.2,0-79.982,35.838-79.982,80.063c0,44.232,35.782,80.082,79.982,80.082
				c44.304,0,80.101-35.85,80.101-80.082C333.513,35.838,297.716,0,253.412,0z M253.412,152.338
				c-39.931,0-72.247-32.344-72.247-72.275c0-39.926,32.316-72.32,72.247-72.32c39.927,0,72.294,32.395,72.294,72.32
				C325.707,119.994,293.339,152.338,253.412,152.338z"/>
			<path fill="#356734" d="M253.412,14.317c-36.223,0-65.636,29.423-65.636,65.745c0,36.323,29.413,65.761,65.636,65.761
				c36.324,0,65.738-29.438,65.738-65.761C319.15,43.74,289.736,14.317,253.412,14.317z M280.91,107.511h-54.95V52.616h54.95
				V107.511z"/>
			<path fill="#356734" d="M273.82,59.68h-40.817v40.795h40.817V59.68z M266.562,93.154h-26.254V66.949h26.254V93.154z"/>
		</g>
		<g>
			<path fill="#356734" d="M426.894,0c-44.279,0-80.182,35.838-80.182,80.063c0,44.232,35.902,80.082,80.182,80.082
				c44.176,0,80.025-35.85,80.025-80.082C506.919,35.838,471.07,0,426.894,0z M426.894,152.338
				c-40.006,0-72.371-32.344-72.371-72.275c0-39.926,32.365-72.32,72.371-72.32c39.926,0,72.225,32.395,72.225,72.32
				C499.119,119.994,466.82,152.338,426.894,152.338z"/>
			<path fill="#356734" d="M426.894,14.317c-36.395,0-65.836,29.423-65.836,65.745c0,36.323,29.441,65.761,65.836,65.761
				c36.248,0,65.729-29.438,65.729-65.761C492.623,43.74,463.142,14.317,426.894,14.317z M454.263,107.511h-54.895V52.616h54.895
				V107.511z"/>
			<path fill="#356734" d="M447.23,59.68h-40.822v40.795h40.822V59.68z M440.017,93.154h-26.275V66.949h26.275V93.154z"/>
		</g>
	</g>
</g>
</svg>
