<?xml version="1.0" encoding="utf-8"?>
<!-- Generator: Adobe Illustrator 13.0.0, SVG Export Plug-In . SVG Version: 6.00 Build 14948)  -->
<!DOCTYPE svg PUBLIC "-//W3C//DTD SVG 1.1//EN" "http://www.w3.org/Graphics/SVG/1.1/DTD/svg11.dtd">
<svg version="1.1" id="Layer_1" xmlns="http://www.w3.org/2000/svg" xmlns:xlink="http://www.w3.org/1999/xlink" x="0px" y="0px"
	 width="433.445px" height="612.507px" viewBox="0 0 433.445 612.507" enable-background="new 0 0 433.445 612.507"
	 xml:space="preserve">
<g>
	<path fill="none" d="M159.256,376.234c-0.531,4.788,1.014,7.55,5.113,7.721c3.299-0.986,4.473-4.116,3.888-8.996
		C164.313,373.117,162.453,374.379,159.256,376.234z"/>
	<path fill="none" d="M53.938,416.05c-9.158-0.566-16.454,0.63-20.5,5.136c-1.225,10.201,0.906,17.013,6.391,20.539
		C54.896,443.92,62.351,425.44,53.938,416.05z"/>
	<path fill="none" d="M360.844,413.479c4.844-0.679,6.123-5.006,7.67-8.99C362.814,390.479,346.149,410.077,360.844,413.479z"/>
	<path fill="none" d="M335.179,310.757c-0.213,23.321,32.64,21.479,37.221,3.842c-2.717-6.282-1.65-16.291-5.167-21.829
		C352.909,286.063,336.883,296.578,335.179,310.757z"/>
	<path fill="none" d="M314.627,572.692c2.131-4.315,4.525-8.288,3.833-15.402c-3.462-18.152-25.289-14.785-29.499,1.281
		C286.249,575.125,304.298,580.399,314.627,572.692z"/>
	<path fill="none" d="M96.321,553.436c4.525-4.287,7.188-16.442,3.834-24.399C77.26,523.972,72.254,559.893,96.321,553.436z"/>
	<path fill="none" d="M227.305,451.984c5.963-2.577,9.958-7.13,11.557-14.107c-1.228-2.624-2.611-5.085-3.891-7.72
		c-10.221-3.901-19.221,2.479-20.5,11.567C215.589,448.313,220.008,451.603,227.305,451.984z"/>
	<path fill="none" d="M215.75,345.416c7.827,25.728,40.575,9.917,44.938-7.708c-4.896-7.919-12.192-13.521-19.272-19.257
		c-6.816,3.446-15.869,4.709-21.831,8.998C218.095,333.223,214.632,337.018,215.75,345.416z"/>
	<path fill="#343466" d="M56.493,82.198c5.909,31.2-35.622,32.401-24.334,56.478c9.319,0.788,11.661-5.43,17.945-7.691
		c7.082,11.512-4.102,33.318,6.389,41.091c25.452-0.559-0.585-44.79,21.884-47.506c7.083,6.162,1.332,25.182,12.83,26.967
		c18.64,1.197,40.467-21.006,50.053,1.278c-0.639,11.355-16.932,6.989-19.272,16.693c1.381,7.614,7.984,9.983,14.106,12.831
		c14.538-5.137,18.105-21.299,30.885-28.234c6.283-3.113,20.66,1.89,19.219-8.998c0-8.122-10.113-6.136-10.276-14.122
		c-1.756-6.59,0.534-17.64,6.446-20.538c18.475-11.757,34.396,10.445,48.773,2.553c-0.323-20.205-25.88-15.174-43.664-17.97
		c-5.751-7.506-7.027-19.46-14.109-25.69c-6.975-4.552-22.84-0.268-23.108-11.543c0.691-9.142,12.885-6.826,10.277-19.261
		c-4.473-5.361-13.26-0.745-20.556-1.277c-0.371-2.621-3.459-2.529-3.887-5.138c4.047-12.738,3.035-28.578-8.944-32.12
		c-0.852,0-1.703,0-2.607,0c-7.882,19.902-10.437,45.164-29.5,53.953c-16.878-0.268-17.036-16.36-11.555-29.541
		C77.578,14.363,68.315,1.225,55.215,2.568c-1.491,15.015,16.559,45.593-1.277,57.8c-8.999,6.322-24.972,2.061-32.054,7.694
		C21.459,85.541,46.803,78.339,56.493,82.198z M161.812,80.918c2.025,6.189,0.108,11.876-2.556,16.693
		c-9.956,4.008-20.552-0.294-20.552-10.275C138.809,76.539,155.208,74.185,161.812,80.918z M101.432,129.692
		c-0.799-12.312,16.613-17.356,25.718-11.542c-0.214,1.48,0.267,2.278,1.279,2.57C129.066,135.364,108.354,140.436,101.432,129.692z
		 M129.703,89.904c2.185,5.658-0.689,13.711-7.716,14.126C112.349,100.82,119.537,83.675,129.703,89.904z M84.767,83.475
		c1.384-9.53-9.373-6.896-8.998-15.412c2.556-8.346,17.57-9.852,25.663-5.14c8.732,0.148,14.163-9.77,19.275-8.97
		c5.376,0.17,5.271,5.881,5.166,11.538c-11.075,15.48-19.861,33.225-34.666,44.955c-7.983,0.292-15.918,0.502-19.271-3.862
		C68.953,91.662,82.316,93.034,84.767,83.475z"/>
	<path fill="#356734" d="M391.621,491.799c5.112-12.048,22.044-12.258,19.275-32.108c-8.201-21.084-48.348-19.538-51.331,3.868
		c-1.169,9.142,4.367,16.515,7.668,25.676c-11.659,5.432-21.402,12.785-38.496,12.844c-13.098-7.464-28.591-12.502-37.217-24.387
		c1.542-12.58,4.577-23.642,11.551-30.844c7.403-6.57,17.787-2.716,26.946-5.123c4.153-1.079,7.294-5.129,11.551-6.42
		c9.373-2.828,20.181-1.498,26.946-7.707c7.93,0.256,11.074,1.907,16.717-1.288c-1.172-31.55,34.29-26.491,37.272-53.93
		c-13.577-11.759-23.001,8.017-34.717,10.271c-23.056-9.495-65.919,4.842-52.607,32.122c-4.577,6.168-15.067,11.68-24.438,8.984
		c-3.036-9.366-3.193-21.586-3.835-33.403c4.738-12.148,18.849-21.059,17.944-34.665c-4.79-4.697-10.489-0.797-16.665,0
		c-11.342-16.759-5.323-49.496-1.279-69.332c2.769-4.091,7.188-6.497,9-11.549c37.911-13.863,58.464-45.135,84.714-70.641
		c1.275-13.257,11.233-17.89,10.276-33.373c-4.42-16.382-31.521-17.474-39.828-3.843c-2.184,12.499,3.459,17.128,6.442,24.386
		c-5.752,9.211-7.88,22.042-17.945,26.968c-15.228-6.602-30.563-13.137-34.715-30.815c-4.898-1.104-8.468-3.488-15.389-2.581
		c-10.276,4.524-21.191,14.363-16.665,29.55c6.283,11.088,25.185,11.795,39.827,7.694c2.664,3.289,6.441,5.512,6.39,11.566
		c-6.974,9.305-24.866,7.652-30.828,17.974c-1.97,6.543-4.952,12.16-7.668,17.959c-8.04,5.722-16.399,11.016-21.831,19.27
		c-0.158,36.265,5.219,78.947-11.607,101.433c2.93,12.062,15.122,14.855,19.328,25.695c-1.332,24.371-21.723,29.693-23.16,53.908
		c-27.743,6.15-44.993,29.365-71.935,32.12c-1.385-13.516-2.236-27.733-3.835-41.097c-8.145-8.933-9.903-24.308-16.664-34.672
		c-22.099-18.152-45.847-34.594-80.934-39.803c-12.301-16.586-2.824-38.671,3.887-53.935c10.382-3.316,19.381-8.004,21.829-19.265
		c-2.874-14.282-15.867-18.427-33.384-17.967c-21.936,7.491,3.992,35.844-12.831,43.644c-26.198-2.881-13.843-44.365-26.997-60.334
		c-3.834,0-7.668,0-11.555,0c-7.985,4.865-3.141,22.544-6.389,32.106C8.733,314.742,2.93,328.632,0,345.416
		c11.446,2.066,21.988-1.649,33.438-5.144c27.689,4.224,35.834,36.46,33.385,62.912c22.683,6.38,49.304-3.551,56.441,20.573
		c-13.313,11.047-22.047,26.74-30.775,42.352c-6.177,1.001-8.308-2.013-14.111-1.274c-17.996,2.144-43.873-3.598-52.659,7.708
		c2.131,8.142,11.555,8.944,20.553,10.272c18.528-6.919,41.211-1.854,55.161,6.419c14.005-2.71,11.927-21.486,20.556-29.544
		c16.557-4.906,29.71,0.159,37.269,10.268c-1.489,9.649-1.437,20.84-1.278,32.12c-11.766,28.063-27.685,51.923-43.659,75.758
		c-7.826,10.547-23.588,13.23-23.111,32.08c21.033,1.669,35.89-6.631,55.219,2.591c7.665-3.052,17.25-4.157,19.272-12.857
		c1.598-8.904-5.481-9.083-5.162-16.69c-1.65-13.207,6.122-16.976,6.442-28.235c26.887-26.621,64.267-42.734,106.544-53.927
		c20.286,6.655,35.143,18.77,53.935,26.965c15.604-3.658,31.575-6.946,43.61-14.142c24.438-3.828,42.17,11.128,61.712,3.867
		C438.475,494.463,406.102,498.935,391.621,491.799z M360.844,413.479c-14.695-3.401,1.97-22.999,7.67-8.99
		C366.967,408.473,365.688,412.8,360.844,413.479z"/>
	<path fill="#356734" d="M336.458,270.941c-4.313,3.867-9.795,6.498-14.161,10.286c-4.849,15.745-9.534,38.277-7.669,56.48
		c4.633,4.368,9.69,8.293,19.276,7.708c8.464,5.221,11.551,15.824,26.94,14.126c0.215-1.493,2.023-1.4,3.835-1.276
		c7.507-16.48,15.652-32.337,29.548-42.392c-2.127-18.376-9.049-32.035-17.993-43.656
		C364.997,267.864,351.687,272.218,336.458,270.941z M335.179,310.757c1.704-14.179,17.729-24.694,32.054-17.987
		c3.517,5.538,2.45,15.547,5.167,21.829C367.819,332.235,334.966,334.078,335.179,310.757z"/>
	<path fill="#356734" d="M201.64,303.049c1.17,19.591-8.839,28.016-11.607,43.643c11.874,14.654,19.168,33.935,39.829,39.815
		c12.938-6.295,26.355-12.141,38.496-19.243c3.087-13.431,1.864-27.279,3.888-43.682c-6.071-17.462-25.61-21.48-38.551-32.095
		C217.4,289.698,207.657,294.553,201.64,303.049z M241.416,318.451c7.08,5.735,14.377,11.338,19.272,19.257
		c-4.363,17.625-37.111,33.436-44.938,7.708c-1.118-8.398,2.345-12.193,3.834-17.967
		C225.546,323.16,234.599,321.897,241.416,318.451z"/>
	<path fill="#356734" d="M139.98,395.49c17.678,13.404,43.504,5.617,47.496-15.415C186.625,335.939,121.825,351.822,139.98,395.49z
		 M164.369,383.955c-4.1-0.171-5.645-2.933-5.113-7.721c3.197-1.855,5.058-3.117,9.001-1.275
		C168.842,379.839,167.668,382.969,164.369,383.955z"/>
	<path fill="#356734" d="M71.936,454.569c15.814-30.944-7.617-56.422-29.553-65.491c-2.981,0-5.962,0-8.945,0
		c-9.317,4.419-13.789,13.646-15.493,25.695c-4.101,6.544-11.503,9.884-12.778,19.256C11.66,455.556,48.505,462.184,71.936,454.569z
		 M39.828,441.725c-5.484-3.526-7.615-10.338-6.391-20.539c4.046-4.506,11.342-5.702,20.5-5.136
		C62.351,425.44,54.896,443.92,39.828,441.725z"/>
	<path fill="#356734" d="M249.136,460.981c-1.811-14.642,9.902-15.771,10.277-28.241c-6.551-17.875-27.479-21.354-50.105-23.109
		c-12.513,11.89-16.027,32.744-21.832,51.351C199.885,475.371,236.834,476.613,249.136,460.981z M234.971,430.157
		c1.279,2.635,2.663,5.096,3.891,7.72c-1.599,6.978-5.594,11.53-11.557,14.107c-7.297-0.382-11.716-3.671-12.834-10.26
		C215.75,432.636,224.75,426.256,234.971,430.157z"/>
	<path fill="#356734" d="M121.987,522.617c-10.599-7.353-19.971-15.987-34.667-19.264c-16.237,7.268-30.189,16.883-34.661,35.955
		c7.296,15.811,15.656,30.607,34.661,34.659C113.413,572.067,130.77,555.133,121.987,522.617z M96.321,553.436
		c-24.067,6.457-19.062-29.464,3.834-24.399C103.51,536.993,100.847,549.148,96.321,553.436z"/>
	<path fill="#356734" d="M291.52,525.183c-4.528,1.907-7.829,5.063-11.556,7.694c-1.864,17.862-19.327,20.097-16.718,42.387
		c8.465,13.805,20.977,23.537,37.271,29.534c17.783-7.049,31.36-18.281,43.608-30.83c0.905-11.747,3.993-25.194,0-34.659
		C333.104,528.129,305.629,533.324,291.52,525.183z M288.961,558.571c4.21-16.066,26.037-19.434,29.499-1.281
		c0.692,7.114-1.702,11.087-3.833,15.402C304.298,580.399,286.249,575.125,288.961,558.571z"/>
</g>
</svg>
