<?xml version="1.0" encoding="utf-8"?>
<!-- Generator: Adobe Illustrator 13.0.0, SVG Export Plug-In . SVG Version: 6.00 Build 14948)  -->
<!DOCTYPE svg PUBLIC "-//W3C//DTD SVG 1.1//EN" "http://www.w3.org/Graphics/SVG/1.1/DTD/svg11.dtd">
<svg version="1.1" id="Layer_1" xmlns="http://www.w3.org/2000/svg" xmlns:xlink="http://www.w3.org/1999/xlink" x="0px" y="0px"
	 width="461.168px" height="620.2px" viewBox="0 0 461.168 620.2" enable-background="new 0 0 461.168 620.2" xml:space="preserve">
<g>
	<path fill="#343466" d="M41.328,97.596c16.664-12.818,36.95-39.787,61.656-32.107c0.056,1.64,1.599,1.787,1.279,3.848
		c0.425,12.846-16.026,8.84-16.718,20.554c2.554,4.273,12.988,0.706,12.831,7.706c2.183,10.276-7.35,8.933-6.442,17.972
		c5.644,4.033,9.105-3.246,16.718-1.28c3.568,2.318,4.101,13.459-1.279,14.129c-7.559,1.156-7.346-5.539-12.831-6.419
		c-2.396,4.911-7.454,7.095-6.442,15.388c24.069-5.764,32.374,21.871,12.885,28.26c-4.525-5.643-22.31-13.948-24.438,0
		c1.064,7.083,9.477,6.787,17.996,6.431c5.856,2.662,6.552,10.542,14.11,11.54c7.402-0.694,10.862-5.389,15.39-8.973
		c-0.694-6.124-3.835-9.836-3.835-16.692c0.424-5.563,7.028-4.938,7.722-10.275c-7.511-9.625,1.276-28.408-9-35.956
		c1.864-6.283,8.52-7.691,7.722-16.69c-5.007-5.698-23.32,1.89-20.553-11.568c6.389-7.307,15.653-11.713,25.662-15.399
		c20.021,7.946,10.65,57.052,9,78.335c-3.938,0.772-6.709,2.717-10.275,3.834c1.865,10.117,12.406,11.555,12.831,23.123
		c-1.756,5.071-9.371,4.312-14.11,6.416c1.76,10.328,21.085,11.315,28.22,5.141c8.573-30.378,1.599-76.304,3.887-113.002
		c-1.756-0.841-2.394-2.741-2.607-5.139c-9.105-12.887-36.741,0.76-48.771-8.973c0.532-9.941-3.092-13.458-5.115-23.108
		c2.556-0.027,1.599-3.516,5.115-2.58c6.655-0.666,6.44,5.523,8.996,8.995c12.036,5.578,42.812,9.359,52.606-1.288
		c-1.014-16.748-27.316-1.171-32.055-12.835c0.215-6.612,6.975-6.708,6.446-14.137C143.772,7.136,138.873,2.144,131.205,0
		c-17.622,2.913-14.588,26.49-33.384,28.26c-7.882,0.998-8.148-5.564-14.11-6.431c-9.585,16.268,3.088,48.216-26.997,44.939
		c-6.44,0.449-7.08-4.887-14.11-3.848c-9.262,5.31-15.704,13.407-16.717,26.969C29.455,94.059,33.765,97.413,41.328,97.596z"/>
	<path fill="#981B1E" d="M284.02,129.691c22.203-11.992,9.477-59.172,0-77.047c-16.346,10.636-16.186,37.75-21.831,59.074
		C266.607,120.546,269.219,131.196,284.02,129.691z"/>
	<path fill="#343466" d="M77.266,119.414c-10.752,2.21-9.691-7.44-16.718-8.987c-4.844,6.342-3.193,16.084-1.278,24.404
		c-4.098,12.777-13.684,42.274,3.89,47.506c6.921-10.674,2.022-27.727,5.11-43.662C72.636,133.656,77.057,128.652,77.266,119.414z"
		/>
	<path fill="#981B1E" d="M312.24,164.365c12.512-5.044,20.87-14.215,35.994-16.69c-4.635-32.322-55.481-34.037-59.105,0
		C293.072,156.994,300.471,162.89,312.24,164.365z"/>
	<path fill="#981B1E" d="M264.744,138.675c-9.369-26.383-55.481-10.845-53.937,15.428
		C230.189,150.618,264.001,172.754,264.744,138.675z"/>
	<path fill="#981B1E" d="M309.685,238.84c10.648-1.288,18.317-5.656,23.107-12.838c3.462-25.655-17.358-36.023-37.218-26.974
		c-9.531-7.626-2.716-31.549-12.834-38.507c-5.058-0.758-7.507,1.104-10.328,2.556C251.751,195.382,273.212,236.946,309.685,238.84z
		"/>
	<path fill="#981B1E" d="M267.302,232.413c2.979-34.967-53.567-22.842-51.331,0C234.768,232.198,253.882,245.712,267.302,232.413z"
		/>
	<path fill="#356734" d="M411.117,231.133c-66.612-7.419-95.042,34.105-129.652,62.925c-3.782,7.365-7.615,14.699-12.888,20.546
		c-8.786,37.414-32.478,66.765-33.329,107.856c16.24-5.11,20.713-22.071,29.496-34.658c7.135-14.7,13.951-29.728,17.996-47.522
		c18.582-34.043,46.271-59.04,82.16-75.759c9.742-0.111,14.109-5.602,24.385-5.135c4.9,1.105,8.146,3.813,12.83,5.135
		c5.648,6.749,11.133,13.688,16.723,20.554c15.548,3.874,24.653,20.46,42.33,17.966c-4.367-18.413-23.43-32.941-29.499-53.934
		C426.185,241.76,418.838,236.236,411.117,231.133z"/>
	<path fill="#356734" d="M31.052,260.674c7.666,3.342,15.229,12.636,29.496,8.972c3.94,1.224,4.05,6.26,9,6.419
		c59.9,18.031,93.072,62.722,121.985,111.737c6.92,15.336,7.4,37.104,21.83,44.919c10.329-12.812-4.738-29.122-1.278-47.505
		c-22.683-59.326-52.499-130.803-130.93-134.828C57.194,243.971,26.951,243.785,5.334,235c-3.834,1.695-6.07,5.023-5.113,11.534
		c7.136,2.467,13.312,11.865,21.831,14.14C24.555,261.332,28.389,259.518,31.052,260.674z"/>
	<path fill="#981B1E" d="M239.082,344.119c7.026-5.372,7.345-17.461,7.664-29.516c7.35-27.294,22.897-43.617,32.107-66.773
		c-10.595-7.683-21.67,3.11-28.221,7.701c-7.718,10.246-11.928,24.019-17.996,35.962C234.61,308.71,216.186,340.89,239.082,344.119z
		"/>
	<path fill="#981B1E" d="M215.971,288.922c1.385-8.662-2.287-12.3-3.886-18.002c-9.05-6.799-11.129-20.491-25.72-21.813
		c-14,7.228-6.708,38.124,0,47.51C197.973,299.871,212.883,298.148,215.971,288.922z"/>
	<path fill="#981B1E" d="M221.084,344.119c6.071-9.326-0.746-25.018-5.113-32.095C194.938,307.369,203.621,346.52,221.084,344.119z"
		/>
	<path fill="#356734" d="M439.337,326.151c-48.188,20.718-122.307,15.468-156.597,50.076
		c-27.313,34.803-46.003,78.142-64.212,122.002c-0.16,10.103-3.729,23.129,1.277,30.798c3.463,3.368,11.127,2.56,17.996,2.571
		c18.265-13.817,30.295-33.862,52.608-43.648c46.906-0.961,46.906,51.331,96.32,43.648c13.363-8.069,23.055-19.697,33.383-30.798
		c9.48-6.47,27.953-28.292,10.277-38.539c-14.697,11.023-23.16,28.221-44.938,32.107c-27.209-8.786-39.03-32.871-68.103-39.814
		c-31.518-2.809-40.466,23.637-65.437,23.109c7.507-31.884,26.782-51.981,43.661-74.474c13.684-9.418,26.409-19.795,42.383-26.963
		c9.902-0.33,17.037-3.475,24.387-6.414c8.041,0.771,13.578-0.952,20.553-1.281c23.961-11.535,60.752-17.074,65.437-43.655
		c-2.394,0.275-2.82-1.449-5.11-1.304C441.678,324.191,440.348,324.94,439.337,326.151z"/>
	<path fill="#356734" d="M68.27,382.645c6.441-0.867,7.561-6.983,14.163-7.693c26.464-2.105,39.134,9.654,56.44,16.69
		c28.434,28.49,31.732,82.188,43.663,127.114c4.576,3.196,11.816,7.523,19.271,3.859c6.177-14.803-0.746-36.256-3.835-50.094
		c-5.642-55.56-22.52-99.874-61.655-121.983c-58.306-9.417-95.042,13.561-107.823,53.928c1.227,9.063-3.726,24.268,6.389,24.413
		c7.135-6.576,9.319-18.106,14.111-26.971C56.342,396.357,60.496,387.709,68.27,382.645z"/>
	<path fill="#356734" d="M91.377,475.104c12.459-2.688,20.075-3.688,34.665-2.583c13.046,11.398,19.22,29.567,24.438,48.813
		c7.773,6.694,7.294,21.78,21.775,21.821c8.414-3.967,3.835-17.251,3.887-26.965c-8.198-18.35-13.363-39.709-25.662-53.929
		c-32.853-33.732-92.967-10.271-101.486,26.965c1.064,7.483-3.247,20.427,5.165,20.545c10.81-0.71,10.702-12.377,16.666-17.966
		C78.175,486.74,83.179,479.296,91.377,475.104z"/>
	<path fill="#356734" d="M287.854,571.413c15.76-0.781,27.741,2.237,43.658,1.283c7.617-7.365,28.545-1.388,26.946-17.974
		c-14.485-3.898-34.559-2.21-52.66-2.571c-19.274-8.852-44.09-9.529-69.274-6.42c-4.949,7.485-20.338,4.507-20.553,16.687
		C232.583,570.284,272.945,556.019,287.854,571.413z"/>
	<path fill="#356734" d="M187.698,558.57c-13.683-9.905-44.353-2.77-59.048-11.555c-3.037,0-6.02,0-9,0
		c-10.277,0.822-26.623,6.748-41.104,7.707c-4.101,3.979-10.063,6.163-8.998,15.396c16.72,2.467,38.069-1.262,52.659-5.129
		C142.76,569.101,181.15,583.272,187.698,558.57z"/>
	<path fill="#356734" d="M240.357,594.519c-20.709-7.557-49.838-6.668-78.321-6.426c-10.918,5.366-30.884,1.639-28.276,20.552
		c23.535,15.587,57.879-16.336,80.936,5.117c15.705-0.763,29.392,0.526,42.33,2.59c16.558-4.433,43.179,1.198,47.494-15.414
		C295.998,583.568,264.104,599.596,240.357,594.519z"/>
	<path fill="#356734" d="M372.621,594.519c-6.123-1.172-11.661-2.92-19.277-2.564c-6.228,2.288-14.644,2.485-21.832,3.847
		c-3.887,6.398-14.428,6.096-14.162,16.679c18.054,2.729,53.673-3.02,70.656,7.721c20.875-1.389,41.799-2.689,47.496-19.263
		C422.511,590.81,393.92,596.32,372.621,594.519z"/>
</g>
</svg>
