<?xml version="1.0" encoding="utf-8"?>
<!-- Generator: Adobe Illustrator 13.0.0, SVG Export Plug-In . SVG Version: 6.00 Build 14948)  -->
<!DOCTYPE svg PUBLIC "-//W3C//DTD SVG 1.1//EN" "http://www.w3.org/Graphics/SVG/1.1/DTD/svg11.dtd">
<svg version="1.1" id="Layer_1" xmlns="http://www.w3.org/2000/svg" xmlns:xlink="http://www.w3.org/1999/xlink" x="0px" y="0px"
	 width="482.287px" height="634.538px" viewBox="0 0 482.287 634.538" enable-background="new 0 0 482.287 634.538"
	 xml:space="preserve">
<g>
	<path fill="none" d="M122.773,385.322c14.215,22.441,43.5-5.102,57.715-14.126c-3.191-21.629-42.168-6.813-55.16,2.552
		C124.9,378.023,121.599,379.465,122.773,385.322z"/>
	<path fill="none" d="M434.736,390.453c-20.979,1.867-64.747-8.366-65.437,17.981c6.071,8.956,17.835,2.162,26.94,0
		c13.419-1.166,31.736,2.643,41.107-2.579C437.559,399.634,437.612,393.597,434.736,390.453z"/>
	<path fill="none" d="M316.639,503.44c0.211-2.789-1.063-4.064-3.887-3.841C312.539,502.408,313.818,503.685,316.639,503.44z"/>
	<path fill="none" d="M219.039,455.938c-11.874-24.013-49.783-6.912-53.936,14.119C178.839,491.261,207.059,464.65,219.039,455.938z
		"/>
	<path fill="none" d="M257.588,339.089c-5.43-2.224-6.174-2.224-11.553,0c-4.206,19.703-1.385,50.903,8.998,64.202
		C275.479,397.056,265.308,351.992,257.588,339.089z"/>
	<path fill="none" d="M299.918,197.843c-37.379-17.821-30.081,56.44,2.611,51.367C304.286,233.438,294.861,217.85,299.918,197.843z"
		/>
	<path fill="none" d="M325.583,246.642c12.032-8.652-1.597-22.243,0-35.951c1.438-5.446,6.389-7.362,6.442-14.139
		C306.469,182.574,306.787,244.113,325.583,246.642z"/>
	<path fill="#343466" d="M46.952,187.566c12.831-1.292,11.979-16.292,23.161-19.25c5.539,4.49-2.875,8.616-1.279,16.695
		c8.998,6.324,18.851-0.414,26.943-2.567c8.733,1.502,11.873,8.678,17.996,12.831c28.647,9.008,36.58-19.237,48.773-34.68
		c3.033-22.828,10.223-63.532-5.11-78.322c-6.284-5.763-17.412-6.523-19.276-16.69c4.049-5.752,13.152-6.497,12.834-16.682
		c-0.109-16.066-19.543-7.347-28.221-12.843c2.716-13.071,26.889-4.767,28.221-19.265c-2.717-10.568-15.02-11.525-23.109-16.691
		c-20.34-1.504-23.641,14.018-41.105,15.403c-8.468-1.397-6.498-13.207-17.945-11.543C62.55,16.716,52.701,32.088,55.948,50.181
		c3.887,1.691,6.978,4.154,12.886,3.848c13.207-3.979,16.932-23.975,30.775-23.11c-6.068,22.564-23.64,33.731-50.052,35.941
		C39.124,86.056,63.134,88.983,77.779,91.271c-5.376,15.562-36.793-0.663-42.331,12.848c-0.478,14.137,8.415,18.939,20.5,20.538
		c7.667,0.08,11.185-9.852,19.274-5.139c-3.832,14.563-28.109,8.706-35.939,19.264c1.278,15.852,24.332,8.503,32.107,11.555
		c-7.189,9.555-22.31,11.909-38.55,8.983C22.617,171.193,34.81,186.157,46.952,187.566z M135.603,87.41
		c6.975,16.068,7.617,55.244-6.441,65.48c-10.917-2.755-20.394-6.947-28.273-12.833c0-1.705,0-3.42,0-5.123
		c1.386-9.372,17.199-4.236,23.161-8.997c3.354-15.364-14.429-9.586-21.884-14.114C88.908,93.11,116.541,77.973,135.603,87.41z
		 M99.609,151.613c10.704-3.433,15.334,6.869,15.442,17.982C103.763,179.06,90.613,162.435,99.609,151.613z M112.498,69.443
		c-0.852,3.874-2.079,7.399-6.498,7.705C91.731,74.449,107.384,55.89,112.498,69.443z"/>
	<path fill="#981B1E" d="M371.854,164.471c9.105-16.705-28.378-25.039-19.274-2.57C357.796,164.618,366.369,169.447,371.854,164.471
		z"/>
	<path fill="#981B1E" d="M414.185,165.748c3.354-14.577-23.64-15.438-23.054-2.567C395.227,167.811,408.805,170.063,414.185,165.748
		z"/>
	<path fill="#981B1E" d="M328.139,164.471c4.633-12.792-21.775-12.139-20.498-2.57C309.076,168.173,323.029,165.817,328.139,164.471
		z"/>
	<path fill="#981B1E" d="M472.01,226.089c-10.066,4.512-8.948,20.193-19.275,24.413c-16.242,9.053-46.699,10.568-70.604,7.695
		c-0.32-1.839-2.133-2.171-2.557-3.86c-2.343-22.814,19.915-21.15,28.222-33.387c1.702-8.984,6.335-15.081,7.72-24.398
		c-2.93-10.755-11.183-16.239-23.109-17.955c-10.915,10.779,10.01,35.95-10.275,39.785c-2.023-18.276-3.622-43.209-25.719-37.217
		c-7.72,10.235,2.502,19.181,5.165,26.954c-1.812,12.698,0.532,29.645-12.831,30.817c-19.063-15.974,10.861-59.769-21.883-62.925
		c-13.738,6.189-30.884,10.596-46.219,2.585c-22.415,4.205-38.175,18.596-33.333,46.213c6.655,11.717,23.003,13.792,26.944,28.248
		c-16.24,17.982-48.615,19.887-55.217,47.506c3.677,6.576,14.377,6.195,24.444,6.419c19.965-17.237,33.224-41.227,66.714-44.938
		c53.511-3.409,62.456,37.737,98.875,51.37c20.446,1.091,39.562,1.249,41.107-19.276c-16.026-7.746-51.064,6.295-53.938-19.25
		c18.957,0.721,35.089,4.302,55.214,3.848c15.019-8.957,30.67-17.25,30.833-41.077C479.57,233.051,479.674,225.692,472.01,226.089z
		 M302.529,249.21c-32.692,5.073-39.99-69.188-2.611-51.367C294.861,217.85,304.286,233.438,302.529,249.21z M325.583,210.69
		c-1.597,13.708,12.032,27.299,0,35.951c-18.796-2.528-19.114-64.067,6.442-50.09C331.972,203.328,327.021,205.244,325.583,210.69z"
		/>
	<path fill="#981B1E" d="M405.24,242.781c38.441,12.848,71.295-35.419,38.496-55.215c-0.852,0-1.705,0-2.559,0
		c-0.265,1.835-2.126,2.171-2.555,3.861c-2.717,12.739-9.373,21.455-15.385,30.802C418.018,229.886,406.25,231.015,405.24,242.781z"
		/>
	<path fill="#356734" d="M429.627,371.196c-5.647-5.485-6.551-15.69-11.556-21.847c-7.772-4.592-15.015-9.808-26.94-10.261
		c-9.64,0.639-15.176,5.42-21.831,8.985c-9.534,7.983-6.019,29.141-12.888,39.801c-7.24-0.908-18.902,2.664-20.5-3.834
		c7.083-29.989,29.339-80.359,5.113-106.585c-25.771-16.599-63.682-0.97-71.881,23.107c3.246,7.03,7.772,12.785,19.223,11.575
		c8.25-8.353,20.177-31.098,38.496-16.695c-7.723,38.028,1.971,100.351-38.496,101.414c-3.887-12.494,12.193-14.822,10.275-29.521
		c-8.096-12.857-21.299-20.592-24.387-38.52c-5.592-4.235-9.904-9.813-17.943-11.547c-13.364-2.33-24.761,5.233-30.885,14.112
		c0.48,23.683-8.359,45.404-5.108,70.634c9.528,13.18,38.6,6.761,44.939,23.122c-3.088,13.563-7.723,25.662-12.831,37.212
		c-14.698,13.514-27.105,29.396-38.55,46.246c-2.93,6.841-3.62,16.001-11.502,17.954c-11.181-9.378-29.554-11.547-37.271-24.386
		c35.139-8.114,58.888-27.558,74.436-55.217c-7.828-13.096-25.559-16.324-38.496-24.387c-3.889,0.907-4.632-1.329-7.722-1.276
		c-21.191,10.443-44.565,18.705-52.606,42.349c-1.488,8.903,5.912,23.075-2.555,26.957c-7.988-8.681-9.264-24.098-11.553-38.5
		c-3.357-8.397-9.162-20.639-9-28.248c9.904-6.807,27.05-6.358,38.549-11.567c12.568-17.389,36.045-23.842,48.772-41.078
		c2.609-4.926,0.267-9.825,0-15.429c-3.991-5.405-9.745-9.089-16.718-11.535c-25.611,3.327-34.661-9.839-55.215-11.575
		c-19.646,4.768-30.455,18.311-34.665,38.539c0,12.892,15.923,25.82,5.113,37.238c-17.093-0.816-11.821-24.125-17.944-35.963
		c0-9.837,0-19.703,0-29.535c11.447-16.815,21.937-34.56,29.552-55.188c-5.113-10.756-19.063-17.997-33.387-15.429
		c-14.907,8.826,3.569,37.977-8.996,46.23c-8.573-13.271-5.113-38.548-15.442-50.079c-16.932-7.095-32.265,4.979-34.609,20.553
		c5.805,17.682,26.518,20.511,28.221,42.357c4.899,5.379,12.777,7.76,15.389,15.401c-7.83,19.087,10.486,38.423,5.164,59.072
		c-4.738,2.999-13.578,1.867-19.273,3.854c-13.74,9.377-4.476,41.768-16.669,52.64c-6.866-10.602-2.979-30.41-1.327-43.644
		c4.363-9.773,15.333-12.943,15.437-26.97c-2.874-17.705-32.05-11.687-41.103-3.861c-8.787,18.638-9.424,52.191-7.669,77.046
		c10.861,9.647,28.329,12.711,32.055,29.536c6.974,1.513,14.111,7.129,21.83,3.866c6.071-4.677,3.249-18.178,3.835-28.267
		c6.548-9.74,18.901-13.68,24.44-24.386c0.955-8.024-3.036-21.033,5.107-21.829c8.631,0.796,8.631,10.24,12.835,15.403
		c1.011,32.173,10.491,66.418,35.996,78.334c21.455,1.612,40.357,5.828,47.492,21.821c10.916,25.242-5.59,54.521-1.275,80.894
		c6.707,7.825,13.787,15.31,29.494,14.119c6.071-2.532,9.32-7.839,14.112-11.566c2.819-25.439,0.584-55.877,1.331-83.446
		c10.648-42.841,41.85-65.108,66.771-93.729c3.515-7.983,7.772-15.337,8.995-25.688c7.189-6.07,12.516-14.021,24.334-15.402
		c15.869,15.48,21.514,60.978,55.271,42.367c3.302-13.813,8.996-25.216,24.386-26.965c12.297,6.109,18.263,18.572,34.662,20.539
		c18.264-6.979,29.923-20.578,33.386-42.36C471.529,378.103,453.213,371.986,429.627,371.196z M219.039,455.938
		c-11.979,8.713-40.199,35.323-53.936,14.119C169.255,449.025,207.165,431.925,219.039,455.938z M180.488,371.196
		c-14.215,9.024-43.5,36.567-57.715,14.126c-1.174-5.857,2.127-7.299,2.555-11.574C138.32,364.384,177.296,349.567,180.488,371.196z
		 M246.035,339.089c5.379-2.224,6.123-2.224,11.553,0c7.72,12.903,17.891,57.967-2.555,64.202
		C244.65,389.992,241.83,358.792,246.035,339.089z M396.24,408.435c-9.105,2.162-20.869,8.956-26.94,0
		c0.689-26.348,44.458-16.114,65.437-17.981c2.876,3.144,2.822,9.181,2.611,15.402C427.977,411.077,409.659,407.269,396.24,408.435z
		"/>
	<path fill="#356734" d="M346.137,509.872c-2.344-12.167-8.678-20.375-12.831-30.831c-7.35-2.434-11.446-8.221-21.833-7.695
		c-15.599,7.912-39.561,7.55-43.605,26.978c6.6,2.748,15.016,3.802,23.105,5.117c15.125,17.047,51.811,19.099,52.608,46.22
		c-34.024-3.224-46.749-34.526-78.323-35.934c-14.697,19.413-12.939,56.342,14.109,60.334c16.188-3.104,29.922-8.654,48.771-8.972
		c12.301,10.733,32.428,34.929,51.436,19.258C390.064,547.398,372.868,517.928,346.137,509.872z M316.639,503.44
		c-2.82,0.244-4.1-1.032-3.887-3.841C315.576,499.376,316.85,500.651,316.639,503.44z"/>
	<path fill="#356734" d="M125.328,526.55c-20.233,9.76-23.905,36.054-44.993,44.959c-2.236-27.162,26.678-34.08,32.163-57.782
		c-9.32-25.913-46.75-9.005-53.992,7.688c-1.118,10.147,1.861,16.105,3.887,23.122c-9.532,11.978-20.447,30.005-12.835,51.357
		c3.944,2.499,7.563,5.282,12.835,6.432c34.5-7.858,57.822-26.938,77.046-50.079c1.386-8.347,1.064-14.595-1.278-21.841
		C133.739,529.246,130.171,527.247,125.328,526.55z"/>
</g>
</svg>
