<?xml version="1.0" encoding="utf-8"?>
<!-- Generator: Adobe Illustrator 13.0.0, SVG Export Plug-In . SVG Version: 6.00 Build 14948)  -->
<!DOCTYPE svg PUBLIC "-//W3C//DTD SVG 1.1//EN" "http://www.w3.org/Graphics/SVG/1.1/DTD/svg11.dtd">
<svg version="1.1" id="Layer_1" xmlns="http://www.w3.org/2000/svg" xmlns:xlink="http://www.w3.org/1999/xlink" x="0px" y="0px"
	 width="470.372px" height="621.494px" viewBox="0 0 470.372 621.494" enable-background="new 0 0 470.372 621.494"
	 xml:space="preserve">
<g>
	<path fill="#343466" d="M87.324,70.631c21.084-11.914,26.146-39.814,48.771-50.078c0.589,2.878,7.084-0.201,6.445,3.86
		c-4.633,27.473-31.521,32.666-38.496,57.773c6.336,13.548,24.226,7.161,38.496,5.147c17.197,17.958,2.075,61.328,3.834,83.453
		c29.709-9.695,25.396-53.381,29.549-88.601c9-5.155,24.438-3.862,26.998-15.417c-5.699-7.987-10.334-17.067-20.556-20.539
		c-3.245,4.058-2.181,12.431-7.718,14.138c-9.746-0.813-23.432,5.337-27-3.874c3.037-11.543,15.658-13.473,17.998-25.665
		C165.01,13.072,153.614,6.058,141.26,0c-20.764,7.494-25.288,31.204-44.938,39.812c-15.492-0.33-19.01-12.708-33.385-14.119
		C59.264,43.008,68.316,67.688,87.324,70.631z"/>
	<path fill="#343466" d="M50.106,123.276c17.729,1.235,23.163-15.909,20.55-30.815c-9.475-0.826-17.25,1.943-26.992-2.571
		C40.682,101.192,42.171,118.657,50.106,123.276z"/>
	<path fill="#356734" d="M290.189,269.646c8.037,4.382,18.796,6.046,28.274,9.014c10.333-3.379,11.922-15.48,11.554-29.552
		c6.279-17.25,20.822-26.208,20.555-50.075c4.635-10.317,16.288-13.659,14.104-30.805c-5.537-7.097-26.412-8.891-35.934-3.859
		c-4.42,33.21-15.39,59.942-28.279,84.739C295.029,253.33,286.625,260.623,290.189,269.646z"/>
	<path fill="#356734" d="M192.645,256.814c-4.099-1.943-5.06-6.947-11.554-6.428c-21.993,9.275-20.929,41.597-37.274,56.507
		c-8.571-9.359-11.447-24.508-16.666-37.248c-1.754-10.687,0.054-24.905-11.556-25.675c-11.978,3.019-20.335,9.678-23.106,21.827
		c13.578,18.106,22.313,41.013,29.497,65.481c4.21,3.967,14.058,2.236,21.831,2.57c21.674-15.988,36.525-38.779,51.385-61.632
		c1.649,4.739,1.117,11.688,2.607,16.705c4.898,10.011,11.605,18.316,15.389,29.523c10.541,3.105,8.144,19.232,23.054,17.971
		c7.559-28.776-17.569-53.218-14.11-82.181c18.101,5.975,26.783,27.874,50.103,24.425c4.367-13.459-11.072-16.865-15.441-25.704
		c-9.742-5.232-14.747-15.188-28.218-16.679c-4.525,1.039-7.243,3.86-11.553,5.136C206.54,227.542,190.78,239.896,192.645,256.814z"
		/>
	<path fill="#356734" d="M386.511,359.539c0.527,9.762,5.274,15.258,6.446,24.387c10.48,7.893,6.385,30.416,28.214,26.963
		c11.074-30.633-9.959-61.838-12.832-87.316c-4.257-4.271-5.425-11.648-7.717-17.958c0.213-17.315-2.72-31.521-16.67-34.674
		c-3.139-0.52-2.77,2.344-6.439,1.277c-11.563,11.792-6.497,36.204-5.117,55.228C379.855,335.363,380.328,350.306,386.511,359.539z"
		/>
	<path fill="#356734" d="M431.451,281.215c-8.256-5.22-18.002-3.354-24.389,2.557c-2.182,15.88,8.149,19.234,11.504,29.537
		c16.979,9.158,24.117,28.158,35.986,42.383c0.855,8.596,3.519,15.332,14.166,14.121
		C477.611,329.095,448.541,304.43,431.451,281.215z"/>
	<path fill="#356734" d="M288.914,288.922c5.695,5.445,16.342,5.938,24.438,8.984C318.89,287.206,292.478,274.625,288.914,288.922z"
		/>
	<path fill="#356734" d="M53.939,446.851c4.26-35.986,21.723-58.756,25.719-95.008c16.717,18.35,20.924,49.24,50.049,55.193
		c2.291-30.201-11.501-66.268-30.83-83.465c-4.736-2.822-14.27-1.053-17.941,1.309c-3.837,4.295-2.93,13.375-6.443,17.955
		c-12.089-12.811,7.936-17.98,3.887-34.651c-6.176-8.654-21.457-15-30.828-6.417C27.851,325.714,11.238,352.779,0,385.214
		c0,4.275,0,8.576,0,12.838c3.252,2.301,5.805,5.32,11.557,5.129c14.642-3.354,13.202-22.74,26.994-26.949
		c3.406,21.563-5.324,41.668-2.607,66.764C39.188,447.154,47.232,450.074,53.939,446.851z"/>
	<path fill="#356734" d="M281.193,344.109c-3.358,19.785-17.468,35.541-19.224,52.668c13.363,2.486,28.536,9.182,38.493,1.275
		c4.313-11.076,2.025-28.818,2.559-43.643c3.729-15.691,15.598-29.57,11.605-48.796c-8.521-2.223-18.365-3.047-26.988-5.148
		c-3.788,0.943-5.486,3.899-7.721,6.429C281.404,318.3,281.404,331.103,281.193,344.109z"/>
	<path fill="#356734" d="M332.622,329.998c-5.853,23.334-19.696,50.73-14.158,77.039c4.042,1.795,11.292,1.795,15.44,0
		c3.189-12.621,12.351-19.277,10.279-37.225c13.47-11.26,35.14-33.936,17.941-56.504
		C344.606,311.19,339.763,321.748,332.622,329.998z"/>
	<path fill="#356734" d="M136.096,364.695c-1.01,10.896,8.415,11.273,11.553,17.955c11.876,15.105,9.213,44.76,25.72,55.219
		c5.699,0.498,14.006-3.014,16.667-1.283c-2.289,3.248-5.326,5.818-5.111,11.555c5.376,2.301,18.049,2.145,21.832-1.289
		c-1.066-3.625,1.808-3.314,1.275-6.418c-2.183-4.684-7.826-5.854-15.387-5.131c3.035-3.814,8.996-4.736,8.996-11.563
		c-1.064-8.799-6.815-12.916-12.883-16.703c-11.341-14.738-17.678-34.527-21.832-56.494c-3.353-1.33-7.882-1.531-12.834-1.275
		c-0.265-4.025,0.908-9.432-1.275-11.563c-10.331-3.656-21.245,2.531-21.831,12.838c3.034,3.42,13.792-0.934,16.663,2.576
		C144.988,358.107,137.002,357.824,136.096,364.695z"/>
	<path fill="#356734" d="M95.045,547.013c14.91-24.887,31.892-47.707,41.051-78.336c10.809,11.898,20.875,24.553,26.997,41.1
		c12.351,2.617,7.987,21.984,24.387,20.531c6.601-37.309-12.245-70.535-34.663-87.313c-13.791-1.367-16.132,8.695-21.831,15.416
		c-2.079-3.484-10.17-0.971-10.275-6.424c8.944-6.912,21.563-10.162,24.387-23.109c-1.066-7.479-6.339-10.781-11.556-14.107
		c-7.721-0.5-14.163,0.342-20.498,1.275c-14.432,7.406-26.252,17.428-38.551,26.949c-8.734,13.516-30.242,14.258-32.107,34.674
		c25.823,7.338,45.951-18.717,68.049-19.258c-18.157,20.389-35.837,47.965-32.055,86.025
		C81.628,547.566,88.549,547.119,95.045,547.013z"/>
	<path fill="#356734" d="M340.289,520.035c12.142,9.275,16.509,26.275,37.225,26.979c3.033-30.977-13.049-64.729-25.668-88.602
		c5.006-8.26,22.045-19.229,10.279-32.105c-12.299-1.594-14.166,7.246-21.836,10.279c-5.588-5.283-16.926-22.814-25.662-8.998
		c-0.531,12.543,9.372,14.574,10.223,25.684c-6.866,30.344-21.4,59.832-20.494,93.742
		C326.664,553.25,329.537,529.566,340.289,520.035z"/>
	<path fill="#356734" d="M261.969,428.878c-6.124,20.748-0.64,56.506-7.722,79.615c1.064,13.094-2.447,30.68,2.555,39.809
		c9.957,7.273,27.369,2.617,34.715-3.865c0-34.99-4.207-76.396,8.945-104.004C297.108,427.501,276.611,426.423,261.969,428.878z"/>
	<path fill="#356734" d="M205.476,561.126c15.124,3.631,31.36-1.803,37.217-11.541c-14.695-24.236-17.945-59.939-20.552-96.314
		c-13.205-9.248-28.753,5.299-38.496,11.561c1.385,10.641,8.625,15.324,11.557,24.398
		C198.234,513.589,199.834,539.359,205.476,561.126z"/>
	<path fill="#356734" d="M278.632,586.8c15.766,1.908,30.143-0.326,47.551,1.291c8.147-3.828,14.377-9.588,23.104-12.826
		c12.576-5.418,37.119,1.158,38.5-15.414c-3.143-9.734-23.217-2.42-32.107-6.42c-20.282,2.381-33.863,11.516-55.217,12.838
		c-15.337-4.328-35.246-4.104-55.211-3.854c-5.859,5.697-16.878,6.234-19.224,15.416c8.84,9.602,26.571-5.512,41.052,1.275
		C272.512,580.132,273.044,585.986,278.632,586.8z"/>
	<path fill="#356734" d="M169.481,590.656c-8.944-2.604-13.524-16.428-25.665-20.533c-21.617-7.293-54.576,0.646-56.492,21.836
		c23.057,3.775,55.959-19.994,65.492,8.971c-3.674,5.299-17.518,0.459-17.998,8.996c-2.767,5.117,3.781,10.352,8.998,11.568
		c23.215-3.342,35.57-17.539,65.494-14.146c5.75,3.07,18.635,6.826,23.107,0C229.436,583.052,189.608,590.38,169.481,590.656z"/>
	<path fill="#356734" d="M407.062,577.832c-11.502,9.088-21.992,19.084-42.387,19.25c-10.752-1.533-25.294-2.092-35.934,0
		c-12.838,0-25.721,0-38.553,0c-12.939-0.125-26.145-0.441-24.387,14.119c36.421,8.984,85.143,0.225,125.817,5.156
		c11.556-8.602,39.086-1.184,42.388-17.986C427.457,589.064,421.972,578.751,407.062,577.832z"/>
</g>
</svg>
