<?xml version="1.0" encoding="utf-8"?>
<!-- Generator: Adobe Illustrator 13.0.0, SVG Export Plug-In . SVG Version: 6.00 Build 14948)  -->
<!DOCTYPE svg PUBLIC "-//W3C//DTD SVG 1.1//EN" "http://www.w3.org/Graphics/SVG/1.1/DTD/svg11.dtd">
<svg version="1.1" id="Layer_1" xmlns="http://www.w3.org/2000/svg" xmlns:xlink="http://www.w3.org/1999/xlink" x="0px" y="0px"
	 width="454.485px" height="648.689px" viewBox="0 0 454.485 648.689" enable-background="new 0 0 454.485 648.689"
	 xml:space="preserve">
<g>
	<g>
		<path fill="none" d="M290.142,23.105c-13.59-6.803-29.243,2.159-33.396,12.846c5.778,8.332,13.046,15.216,23.095,19.262
			C289.081,50.725,296.186,34.901,290.142,23.105z"/>
		<path fill="#981B1E" d="M360.759,93.724c-23.003-5.657-47.895-9.478-59.089-26.958c6.163-9.687,10.023-21.645,17.971-29.535
			c5.391-2.329,13.447-1.97,15.441-7.695C330.198,13.443,316.418,6.241,301.67,0c-20.791,4.006-33.304,16.344-57.756,16.69
			c-6.563,12.206-26.904,16.29-24.43,33.371c9.146,7.521,15.631-3.192,25.706-2.555c7.603,6.082,13.909,13.458,17.97,23.105
			c-9.809,22.338-36.5,27.701-44.951,51.372c13.91,5.257,21.631-5.394,34.676-5.153c13.512,5.349,25.238,12.445,26.955,29.552
			c-3.66,15.587-23.881,14.616-25.68,32.093c19.902,9.226,38.685,19.54,57.813,29.55c7.59-3.113,14.723-6.67,15.391-16.691
			c-3.582-14.826-20.832-15.958-29.526-25.689c2.97-10.305,14.804-11.741,15.415-24.386c-6.057-20.512-31.295-21.791-44.938-34.691
			c4.286-7.227,9.517-13.591,17.941-16.69c21.578,21.271,46.911,38.709,78.337,50.077c13.221-3.37,30.152,9.664,35.955-2.567
			C396.076,119.149,373.672,107.777,360.759,93.724z M256.746,35.951c4.153-10.687,19.807-19.648,33.396-12.846
			c6.044,11.796-1.062,27.619-10.302,32.107C269.792,51.167,262.524,44.283,256.746,35.951z"/>
	</g>
	<path fill="#356734" d="M376.174,247.811c-19.088-0.21-29.086,8.615-43.701,12.865c-1.77-32.174-39.188-29.753-57.77-14.152
		c-5.62-11.892-9.014-26.074-25.678-26.956c-20.194,5.459-31.189,20.181-47.484,29.526c1.851-53.273,9.586-116.756-29.549-134.819
		c-52.646-2.129-47.536,53.472-51.37,100.171c-15.334-1.664-24.919,2.445-32.12,8.969c-0.852,3.421-2.01,6.548-3.831,8.995
		c-1.227,23.148,1.704,48.088,7.718,65.483c3.117,9.107,10.571,22.881,23.096,19.25c6.989-21.204-24.053-54.915-3.833-77.038
		c25.558,9.133-3.781,73.132,34.649,69.344c9.438-38.659-5.523-83.61-3.861-127.124c4.753-16.215,2.878-39.099,19.303-43.649
		c32.387,29.631,11.791,110.432,11.525,155.357c38.846,5.893,37.886-39.118,65.494-48.785c8.306,16.532-3.887,32.225-5.14,47.51
		c36.636,10.364,40.894-33.449,73.188-35.955c9.971,14.816-11.116,24.788-6.415,38.532c26.195,18.915,41.995-17.836,68.033-19.256
		c3.326,3.091,7.493,5.353,7.746,11.548c-1.357,18.375-27.143,12.26-24.426,34.665C394.373,341.923,426.532,256.006,376.174,247.811
		z"/>
	<g>
		<path fill="none" d="M120.623,430.154c6.935,12.667,26.862,0.585,35.981-3.867C153.755,408.083,122.741,417.686,120.623,430.154z"
			/>
		<path fill="none" d="M311.973,338.989c-28.806-22.149-81.623-4.077-92.488,23.104c0.908,8.608-1.301,14.095-1.275,21.815
			c-7.175,19.375-31.255,21.821-42.344,37.263c19.129,7.854,49.318,11.392,75.74,7.709c0.201-4.104,2.904-5.657,2.555-10.281
			c-1.939-6.16-12.949-3.327-11.524-12.83c9.542-14.402,38.138-9.813,33.369-38.525c-14.787-12.871-22.387,7.34-34.648,8.97
			c-8.8-9.062,2.091-26.385,11.528-29.521c16.027-7.228,29.326,1.861,39.814,7.707c7.773,0.48,13.273-1.281,17.998-3.86
			C311.747,347.341,312.334,343.658,311.973,338.989z"/>
		<path fill="none" d="M296.561,376.212c1.184,6.551-2.039,13.404,0,16.704c16.359,5.117,32.466-0.848,29.522-19.269
			C319.641,363.862,302.854,370.793,296.561,376.212z"/>
		<path fill="#981B1E" d="M346.61,371.09c-3.128-6.722-9.465-10.215-12.857-16.692c4.061-5.834,6.467-13.231,5.166-24.398
			c-17.945-26.273-87.483-24.563-111.711-5.123c-30.083-16.562-70.552-6.031-88.602,12.816c-6.28,6.57-3.673,18.423-10.289,24.399
			c-9.264,6.979-32.586-0.084-38.482,10.28c-4.473,4.972,3.196,8.733,1.278,15.429c-3.834,2.564-6.149,6.694-12.86,6.411
			c-7.319-2.531-11.181-8.502-11.565-18c6.015-20.15,49.052-9.957,43.686-37.224c-9.146-4.919-13.937,4.617-20.538,6.419
			c-14.281,0.697-22.828,7.155-34.676,10.273c-8.56,8.391-17.57,20.854-12.831,38.531c6.294,8.662,15.826,14.107,25.675,19.25
			c18.529,2.776,27.504-2.959,39.814-8.995c9.094-9.274,11.115-25.669,28.234-26.979c7.668,3.104,17.625,5.742,24.386,0
			c4.473-11.114-2.183-20.44-2.554-30.798c2.873-17.133,45.924-22.307,56.467-7.702c-4.246,10.285-20.833,8.261-23.098,20.533
			c-0.982,8.272,7.668,6.892,6.419,15.414c-10.572,21.1-34.531,28.834-68.049,26.965c-13.272,7.709-28.26,13.692-28.26,34.672
			c5.03,8.649,12.644,14.731,23.12,17.994c16.787-2.512,28.875-9.654,44.955-12.863c30.215-2.894,74.529,8.99,97.558-6.412
			c6.163-9.2-1.825-25.532,11.568-28.248C310.217,418.501,349.473,411.74,346.61,371.09z M120.623,430.154
			c2.118-12.468,33.133-22.07,35.981-3.867C147.485,430.739,127.557,442.821,120.623,430.154z M252.885,346.691
			c-9.438,3.137-20.328,20.46-11.528,29.521c12.262-1.63,19.861-21.841,34.648-8.97c4.769,28.713-23.827,24.123-33.369,38.525
			c-1.425,9.503,9.585,6.67,11.524,12.83c0.35,4.624-2.354,6.177-2.555,10.281c-26.422,3.683-56.611,0.145-75.74-7.709
			c11.089-15.441,35.169-17.888,42.344-37.263c-0.025-7.721,2.184-13.207,1.275-21.815c10.865-27.181,63.683-45.252,92.488-23.104
			c0.361,4.669-0.227,8.353-1.275,11.549c-4.725,2.579-10.225,4.341-17.998,3.86C282.211,348.552,268.913,339.463,252.885,346.691z
			 M296.561,392.917c-2.039-3.3,1.184-10.153,0-16.704c6.293-5.419,23.08-12.351,29.522-2.564
			C329.027,392.069,312.92,398.034,296.561,392.917z"/>
	</g>
	<path fill-rule="evenodd" clip-rule="evenodd" fill="#356734" d="M247.746,455.842c4.554,11.944,1.97,32.2,0,43.65
		c-27.396,4.702-57.425,6.792-84.724,11.542c-13.298-8.536-20.262-23.414-24.416-41.079
		C170.342,461.104,216.266,462.801,247.746,455.842z"/>
	<g>
		<path fill="none" d="M56.438,522.609c11.207,18.31,30.959,28.083,53.935,34.658c2.463-1.828,4.593-3.958,6.415-6.417
			C109.151,531.278,77.641,507.995,56.438,522.609z"/>
		<path fill="none" d="M89.834,616.339c14.869,3.513,35.26,1.513,51.327,3.848c19.397-6.307,52.103,6.57,64.214-5.123
			c-1.568-11.943-21.496,2.434-23.12-8.997c-0.039-9.878,15.905-3.788,14.136-15.401c-19.634,0.539-35.102,16.197-55.229,20.53
			c-3.192-1.09-6.866-1.669-11.539-1.275C118.708,614.418,94.948,606.041,89.834,616.339z"/>
		<path fill="none" d="M103.944,491.785c-10.063-4.926-19.486-10.477-26.967-17.961c-8.773,0.644-11.21-5.078-17.985-6.438
			c-8.624-0.079-18.302-1.184-20.538,5.136c8.518,18.862,30.762,24.032,44.939,37.237c17.65,9.768,31.254,23.545,51.383,30.837
			C141.069,517.533,114.208,506.695,103.944,491.785z"/>
		<path fill="none" d="M345.333,468.681c28.78-5.458,53.03-15.455,65.489-37.251c-1.013-6.695-2.952-12.443-8.943-14.127
			c-26.491,9.522-55.122,16.83-65.52,42.387C337.666,464.352,341.42,466.616,345.333,468.681z"/>
		<path fill="none" d="M191.252,575.249c0-2.13,0-4.275,0-6.419c-5.804-7.347-23.613,6.301-28.23-3.848
			c2.94-9.438,14.588-10.213,19.233-17.987c-31.19,3.026-40.174,28.32-62.909,39.815C145.514,599.978,168,580.267,191.252,575.249z"
			/>
		<path fill="none" d="M326.083,535.448c16.612,23.227,73.455,3.328,52.646-25.689C351.722,503.899,332.193,516.183,326.083,535.448
			z"/>
		<path fill="none" d="M252.885,590.666c1.971,1.847,1.104,6.563,1.275,10.259c-3.394,7.326-21.787-0.355-23.094,8.996
			c6.512,9.089,21.272-0.039,28.234-2.552c4.152,0.717,5.978-0.894,9.013-1.302c17.704-3.262,49.078,7.13,56.493-6.419
			c-21.473-5.913-49.785-5.024-60.367-21.848c-16.572,0.593-36.767-2.513-41.068,10.306
			C228.897,597.938,244.138,581.233,252.885,590.666z"/>
		<path fill="#356734" d="M390.272,477.664c28.754-11.496,60.326-20.123,64.213-56.493c-1.676-13.744-11.287-19.546-20.551-25.675
			c-1.838-0.71-6.604,1.486-6.418-1.283c-50.369,1.718-84.711,27.629-114.264,52.62c-25.08,21.191-40.906,51.784-64.227,71.91
			c-27.648-5.116-60.9,2.195-84.728,9.01c-6.788-4.38-12.245-10.037-15.416-17.994c-36.79-29.115-62.735-69.094-127.149-70.619
			c-8.359,3.604-15.748,8.193-20.5,15.428c-7.293,32.292,19.622,40.985,32.081,57.757c-0.397,5.604-3.367,8.614-3.834,14.139
			c11.367,26.677,44.476,31.72,65.494,48.786c8.864,0.756,19.259,6.104,19.233,11.562c-42.556-4.281-74.583,10.253-83.449,43.643
			c1.25,5.604,3.836,9.858,6.416,14.12c30.417,11.398,59.834-4.11,87.309-7.695c35.115,2.145,70.83,1.744,102.725,1.296
			c17.717-7.536,40.986-9.535,62.935-12.851c21.66,5.289,43.89,10.023,66.785,14.127c18.836-0.388,31.536-6.925,38.454-19.263
			c-0.105-2.296,1.598-2.689,1.332-5.123c-6.547-45.661-66.743-37.697-111.734-44.958c-13.909-18.139-52.659-1.565-69.324-5.124
			c4.059-7.93,23.934-0.052,23.107-12.843c-1.877-13.739-23.801-2.606-30.828-8.984c8.852-5.887,22.683,1.21,33.423-2.56
			c36.421,11.051,71.508,23.459,114.227,28.234c19.341-5.919,37.644-12.87,51.406-24.398c2.929-8.59,7.882-15.193,8.999-25.688
			c-2.448-9.115-6.789-16.364-11.555-23.11c-6.787-2.679-12.83-6.03-20.552-7.694c-6.429,0-12.849,0-19.29,0
			c-20.923,3.898-36.06,13.548-50.063,24.386c-4.084,7.812-14.308,19.967-24.387,10.285
			C305.637,489.752,344.36,480.084,390.272,477.664z M401.879,417.303c5.991,1.684,7.931,7.432,8.943,14.127
			c-12.459,21.796-36.709,31.793-65.489,37.251c-3.913-2.065-7.668-4.329-8.974-8.991
			C346.757,434.133,375.388,426.826,401.879,417.303z M129.623,609.92c4.673-0.394,8.347,0.186,11.539,1.275
			c20.128-4.333,35.596-19.991,55.229-20.53c1.77,11.613-14.175,5.523-14.136,15.401c1.624,11.431,21.552-2.946,23.12,8.997
			c-12.111,11.693-44.816-1.184-64.214,5.123c-16.067-2.335-36.458-0.335-51.327-3.848
			C94.948,606.041,118.708,614.418,129.623,609.92z M134.776,540.595c-20.129-7.292-33.732-21.069-51.383-30.837
			c-14.178-13.205-36.422-18.375-44.939-37.237c2.236-6.319,11.914-5.215,20.538-5.136c6.775,1.36,9.212,7.082,17.985,6.438
			c7.48,7.484,16.904,13.035,26.967,17.961C114.208,506.695,141.069,517.533,134.776,540.595z M116.788,550.85
			c-1.822,2.459-3.952,4.589-6.415,6.417c-22.976-6.575-42.728-16.349-53.935-34.658C77.641,507.995,109.151,531.278,116.788,550.85
			z M182.255,546.995c-4.646,7.774-16.293,8.55-19.233,17.987c4.617,10.148,22.427-3.499,28.23,3.848c0,2.144,0,4.289,0,6.419
			c-23.252,5.019-45.738,24.729-71.906,11.562C142.082,575.315,151.065,550.021,182.255,546.995z M264.44,577.8
			c10.582,16.823,38.895,15.935,60.367,21.848c-7.415,13.549-38.789,3.157-56.493,6.419c-3.035,0.408-4.86,2.019-9.013,1.302
			c-6.962,2.513-21.723,11.641-28.234,2.552c1.307-9.352,19.7-1.67,23.094-8.996c-0.171-3.696,0.695-8.412-1.275-10.259
			c-8.747-9.433-23.988,7.272-29.514-2.56C227.673,575.288,247.868,578.393,264.44,577.8z M326.083,535.448
			c6.109-19.265,25.639-31.549,52.646-25.689C399.539,538.776,342.696,558.674,326.083,535.448z"/>
	</g>
</g>
</svg>
