<?xml version="1.0" encoding="utf-8"?>
<!-- Generator: Adobe Illustrator 13.0.0, SVG Export Plug-In . SVG Version: 6.00 Build 14948)  -->
<!DOCTYPE svg PUBLIC "-//W3C//DTD SVG 1.1//EN" "http://www.w3.org/Graphics/SVG/1.1/DTD/svg11.dtd">
<svg version="1.1" id="Layer_1" xmlns="http://www.w3.org/2000/svg" xmlns:xlink="http://www.w3.org/1999/xlink" x="0px" y="0px"
	 width="450.671px" height="636.372px" viewBox="0 0 450.671 636.372" enable-background="new 0 0 450.671 636.372"
	 xml:space="preserve">
<g>
	<path fill="none" d="M340.24,44.951c2.048,17.893-30.937,0.733-30.802,16.692c10.726,0.44,17.276-3.271,28.246-2.569
		c0.533,2.438,2.796,3.224,2.556,6.416c-0.612,14.365-27.583,2.372-30.802,14.125c5.324,7.361,26.596-7.64,29.522,5.139
		c-1.197,14.631-29.339,2.34-32.081,15.415c16.109,5.565,36.421-6.178,50.052-11.567c-0.397-21.778,1.864-40.506,0-57.8
		c-14.774-0.147-37.27,2.878-47.493,11.569C317.929,45.912,336.619,31.682,340.24,44.951z"/>
	<path fill="#A72F27" d="M376.234,165.633c9.821-13.258,29.124-17.026,29.499-39.788c-2.184-4.67-8.336-5.351-12.834-7.721
		c-16.879,1.974-42.811-5.136-46.217,10.293c5.616,9.996,27.74-3.476,30.83,7.691c-8.628,30.097-45.793,13.044-52.688-7.691
		c11.421-35.448,73.48-18.145,106.597-24.413c3.01-5.287,3.01-11.384,0-16.694c-14.215-7.935-23.665,5.737-39.801,3.846
		c-6.734-13.763-3.459-40.12-2.555-57.785c3.087-8.386,16.454-6.603,17.97-16.679C401.205,7.987,390.37,4.245,380.094,0
		c-27.128,9.731-50.156,23.521-82.211,28.247c-6.201-0.665-7.878-5.79-15.416-5.14c-9.717,4.82-17.703,11.406-20.524,23.124
		c15.175,10.034,14.511,35.951,14.109,61.645c-4.738,8.106-15.651,10.023-21.805,16.693c11.476,6.03,30.937-5.806,43.636-2.571
		c5.856,22.214-16.931,26.678-25.691,38.512c17.386,14.762,34.238-9.599,46.217-16.708c7.722,6.005,14.67,12.739,17.997,23.107
		c0.135,9.572-12.564,6.258-12.857,15.43c9.132,4.088,13.364-6.949,24.413-5.139c15.228,14.724,35.143,24.746,56.493,33.384
		c13.442-0.931,33.916,7.734,41.078-2.555C429.906,191.591,392.366,185.853,376.234,165.633z M356.932,88.602
		c-13.631,5.39-33.942,17.133-50.052,11.567c2.742-13.075,30.884-0.784,32.081-15.415c-2.927-12.778-24.198,2.223-29.522-5.139
		c3.219-11.753,30.189,0.24,30.802-14.125c0.24-3.192-2.022-3.978-2.556-6.416c-10.97-0.702-17.521,3.01-28.246,2.569
		c-0.135-15.959,32.85,1.2,30.802-16.692c-3.621-13.27-22.312,0.961-30.802-2.58c10.224-8.691,32.719-11.717,47.493-11.569
		C358.796,48.096,356.534,66.823,356.932,88.602z"/>
	<path fill="none" d="M192.565,183.616c7.585-10.396,9.131-26.822,15.44-38.509c-20.555-14.456-24.148,8.32-26.971,21.802
		C183.83,173.538,186.416,180.354,192.565,183.616z"/>
	<path fill="none" d="M270.915,229.838c-12.646-5.903-23.962,6.531-20.528,16.706C259.627,243.412,266.628,237.967,270.915,229.838z
		"/>
	<path fill="none" d="M102.685,313.309c10.757,3.645,21.674-1.854,21.857-12.858C116.131,295.209,102.74,302.22,102.685,313.309z"/>
	<path fill="none" d="M168.205,249.107c-10.971,7.044-12.193,23.762-15.442,38.513c3.46,3.979,12.407,5.958,17.997,3.841
		C170.201,278.434,181.224,254.829,168.205,249.107z"/>
	<path fill="none" d="M270.915,229.838c-12.646-5.903-23.962,6.531-20.528,16.706C259.627,243.412,266.628,237.967,270.915,229.838z
		"/>
	<path fill="none" d="M192.565,183.616c7.585-10.396,9.131-26.822,15.44-38.509c-20.555-14.456-24.148,8.32-26.971,21.802
		C183.83,173.538,186.416,180.354,192.565,183.616z"/>
	<path fill="none" d="M168.205,249.107c-10.971,7.044-12.193,23.762-15.442,38.513c3.46,3.979,12.407,5.958,17.997,3.841
		C170.201,278.434,181.224,254.829,168.205,249.107z"/>
	<path fill="none" d="M102.685,313.309c10.757,3.645,21.674-1.854,21.857-12.858C116.131,295.209,102.74,302.22,102.685,313.309z"/>
	<g>
		<path fill="none" d="M270.915,229.838c-12.646-5.903-23.962,6.531-20.528,16.706C259.627,243.412,266.628,237.967,270.915,229.838
			z"/>
		<path fill="none" d="M102.685,313.309c10.757,3.645,21.674-1.854,21.857-12.858C116.131,295.209,102.74,302.22,102.685,313.309z"
			/>
		<path fill="none" d="M192.565,183.616c7.585-10.396,9.131-26.822,15.44-38.509c-20.555-14.456-24.148,8.32-26.971,21.802
			C183.83,173.538,186.416,180.354,192.565,183.616z"/>
		<path fill="none" d="M168.205,249.107c-10.971,7.044-12.193,23.762-15.442,38.513c3.46,3.979,12.407,5.958,17.997,3.841
			C170.201,278.434,181.224,254.829,168.205,249.107z"/>
		<path fill="#356734" d="M363.348,258.105c5.911-18.101,36.661-11.3,42.386-29.551c-0.589-4.55-7.747-2.488-10.253-5.14
			c-14.347,2.358-27.047,6.384-38.549,11.565c-14.644,10.175-18.662,30.964-32.107,42.36c-6.682,2.296-12.831,5.136-19.246,7.722
			c-17.491-3.887-32.588,12.541-42.357,3.848c7.935-8.307,24.971-7.539,29.552-19.257c-15.044-11.24-36.128,8.457-48.854,7.688
			c18.823-24.425,57.507-28.937,70.656-59.049c-1.385-2.874-2.127-6.428-3.859-8.984c-23.562-3.553-42.035,8.212-66.797,7.695
			c-8.171-5.061-9.957-16.52-21.805-17.974c-6.682,13.817,8.813,25.774,8.975,41.095c-1.6,23.203-5.939,43.689-20.526,53.929
			c-4.153-7.577,7.346-17.165,0-24.399c-11.69,0.697-14.459,10.337-21.831,15.409c5.695-24.563,3.459-48.583-8.996-64.215
			c0.69-5.737,2.127-10.717,6.441-12.818c5.481,0.918,4.389,8.454,11.525,7.694c19.223-13.79,12.966-52.938,26.971-71.922
			c-1.73-25.105,15.146-44.432,8.97-65.463c-19.247,6.812-13.844,38.322-26.94,51.354c-3.888-2.966-10.861-2.809-11.557-8.971
			c10.836-33.278,25.4-62.83,34.664-97.614c-0.24-1.425-1.385-1.995-2.556-2.568c-26.198,22.177-32.985,63.762-48.798,96.309
			c-5.966,1.372-10.145-3.355-14.111,0c-2.156,12.435,9.346,11.182,10.276,20.538c-1.97,3.198-2.634,7.644-6.415,8.997
			c-10.385-8.437-17.307-20.377-28.246-28.259c-35.064-3.992-60.727,11.86-68.076,39.802c20.395-6.109,29.711-23.349,53.938-25.662
			c25.16,10.792,37.912,33.995,47.521,60.351c-9.45,24.801-22.601,45.846-28.272,74.46c-5.83,3.972-3.381,16.31-11.525,17.988
			c-19.701-26.498-36.369-73.187-79.631-75.755c-11.074,6.657-28.779,18.304-23.106,33.381
			c13.071-3.057,20.739-15.863,38.522-10.259c19.887,13.035,36.365,29.516,47.494,51.338c-18.876,4.248-37.191,9.041-41.079,28.265
			c5.884,21.888,56.28,29.66,66.769,6.406c1.678-5.662-4.283-11.022,1.28-12.825c10.01,0.236,26.514,9.142,42.384,3.848
			c12.883,17.342,35.488,3.61,47.466-5.148c72.893,12.1,108.516-29.556,175.95-30.819c5.112,1.908,16.267,5.025,20.554,0
			C425.779,246.857,381.187,261.958,363.348,258.105z M270.915,229.838c-4.287,8.129-11.288,13.574-20.528,16.706
			C246.953,236.369,258.269,223.935,270.915,229.838z M208.006,145.107c-6.31,11.687-7.855,28.113-15.44,38.509
			c-6.149-3.262-8.735-10.078-11.53-16.707C183.857,153.428,187.451,130.651,208.006,145.107z M102.685,313.309
			c0.056-11.089,13.446-18.1,21.857-12.858C124.358,311.454,113.441,316.953,102.685,313.309z M170.76,291.461
			c-5.59,2.117-14.537,0.138-17.997-3.841c3.249-14.751,4.472-31.469,15.442-38.513C181.224,254.829,170.201,278.434,170.76,291.461
			z"/>
	</g>
	<g>
		<path fill="none" d="M310.715,594.512c5.938,22.64,43.714,12.575,55.19,1.291C349.931,592.941,328.794,595.256,310.715,594.512z"
			/>
		<path fill="none" d="M62.887,586.818c9.289,9.865,36.178,5.059,37.217-8.997C97.146,558.066,59.69,564.109,62.887,586.818z"/>
		<path fill="#356734" d="M404.454,454.567c7.001-7.99,26.648-3.328,29.553-15.407c-5.751-11.523-23.962-6.065-38.526-6.445
			c-6.307,3.563-13.044,6.668-21.802,7.721c-17.73,10.113-35.649,20.031-50.131,33.37c-13.419,13.113-23.027,30.055-35.915,43.655
			c-6.576-14.547,6.949-26.123,2.556-38.506c-17.679-9.57-37.165,6.74-55.24,8.977c-13.232-5.563-24.469-13.192-34.637-21.821
			c-14.669-4.604-18.263-20.243-38.522-19.263c-4.42,3.289-0.934,14.503-3.86,19.263c-40.759-36.724-73.215-81.76-129.682-102.74
			c-3.433,0-6.84,0-10.302,0C8.494,368.475,0.668,375.195,0,389.078c10.118-0.86,17.04-1.532,26.971,0
			c45.551,27.182,84.526,60.966,118.098,100.143c-34.371-19.966-60.564-48.14-100.152-62.925
			c-12.434-1.625-29.072-3.486-28.247,11.569c3.302,4.845,11.687,4.582,19.273,5.136c23.188,10.64,45.071,22.551,64.161,37.236
			c18.129,16.153,39.934,28.589,52.659,50.074c-4.314,13.219-32.321,2.769-35.94,16.692c1.758,3.406,7.536,2.755,10.305,5.144
			c44.886-1.337,72.015-20.428,116.791-21.836c8.708,7.143,27.103,4.592,32.134,15.417c-24.491-0.066-70.788-8.8-74.464,16.69
			c3.62,8.076,15.363,0.756,23.084,1.276c13.762,5.076,34.662-4.763,46.243,2.552c-36.608,11.93-91.13-3.604-142.512,0
			c-19.247-6.012-37.061-13.456-57.8-17.954c-21.828,5.654-37.484,24.004-33.383,51.357c25.984,17.501,75.767,2.249,101.432-5.139
			c40.466-2.169,82.451-2.313,120.708-1.275c-12.752,3.5-27.636,4.907-41.108,7.694c-20.709-3.049-40.784,0.408-61.604-1.28
			c-5.322,2.833-14.694,1.571-14.137,10.278c8.176,12.785,31.523,10.418,46.219,16.679c31.762-7.169,72.093,0.461,101.458-10.267
			c8.786,5.32,15.202,13.028,23.084,19.277c46.935,4.063,87.161-8.347,106.568-35.968c-0.268-2.44,1.466-2.835,1.331-5.139
			c-2.049-46.693-72.119-25.813-110.457-29.541c12.141-38.803,41.692-60.162,77.074-75.75c12.884-0.789,22.976-4.406,25.662-15.415
			c-10.516-6.932-26.089,7.063-37.217-2.571C380.121,460.159,394.602,459.691,404.454,454.567z M310.715,594.512
			c18.079,0.744,39.216-1.57,55.19,1.291C354.429,607.087,316.653,617.151,310.715,594.512z M62.887,586.818
			c-3.196-22.709,34.26-28.752,37.217-8.997C99.064,591.877,72.176,596.684,62.887,586.818z"/>
	</g>
	<g>
		<path fill="none" d="M258.08,360.818c1.975-24.532-25.129-32.547-37.242-15.402C219.772,368.408,244.982,375.984,258.08,360.818z"
			/>
		<path fill="none" d="M164.344,359.53c-14.004,3.564-28.512,6.602-33.387,19.27c10.198,11.218,22.818,19.965,41.082,23.109
			c4.097-0.585,4.524-4.88,8.996-5.143C188.809,379.471,178.852,362.588,164.344,359.53z"/>
		<path fill="none" d="M215.698,373.662c3.275-22.314-21.325-31.193-33.384-16.704C183.83,371.802,204.598,384.126,215.698,373.662z
			"/>
		<path fill="none" d="M279.912,363.37c20.74-0.684,36.847-12.679,39.802-26.951c-10.835-3.729-42.941-8.496-51.354,2.565
			C267.881,351.447,273.068,358.22,279.912,363.37z"/>
		<path fill="none" d="M322.27,363.37c0.852,3.011,4.261,3.445,5.14,6.445c14.801-0.434,38.204-15.312,48.825,0
			c-9.158,8.431-26.304,8.813-35.994,16.678c12.088,19.796,52.632-4.827,70.63-11.535
			C395.747,352.685,336.725,322.872,322.27,363.37z"/>
		<path fill="none" d="M215.698,432.715c12.167,24.373,61.979,15.862,70.604-6.419C276.637,399.858,221.58,410.354,215.698,432.715z
			"/>
		<path fill="none" d="M254.247,378.8c-23.426,9.97-53.804,13.021-69.377,30.805c1.489,7.063,6.843,10.286,14.11,11.548
			c21.644-4.473,31.68-20.545,57.824-20.531c21.723,1.82,33.676,13.402,51.354,19.256c7.241-3.88,17.704-4.551,19.25-14.12
			C324.692,373.261,287.261,378.233,254.247,378.8z"/>
		<path fill="#A72F27" d="M405.733,342.853c-14.005-3.973-25.826-10.149-39.828-14.127c-4.127-2.25-12.966,0.129-15.39-3.849
			c2.717-7.188,9.158-10.542,15.39-14.133c14.962-4.564,29.099-2.762,47.546-2.56c12.301,1.612,26.544,15.186,37.22,6.412
			c-14.643-29.331-86.416-29.134-110.431-8.983c-4.18,5.196-5.644,13.18-12.831,15.417c-85.618-10.418-162.532,10.049-217.003,42.34
			c-10.063-4.906-18.156-11.818-30.803-14.106c-13.337,0.375-31.146-3.742-28.271,12.831c3.75,4.011,13.258,2.169,19.271,3.874
			c58.97,28.324,109.262,65.384,161.764,100.142c6.359,0.934,12.804,1.742,20.604,1.276c46.51-18.06,84.234-44.966,136.095-57.782
			c4.313-1.637,6.549-5.406,11.555-6.419c18.529-5.841,41.344-7.386,50.051-23.109C446.357,357.024,419.469,356.517,405.733,342.853
			z M319.714,336.419c-2.955,14.272-19.062,26.268-39.802,26.951c-6.844-5.15-12.031-11.923-11.552-24.386
			C276.772,327.923,308.879,332.69,319.714,336.419z M258.08,360.818c-13.098,15.166-38.308,7.59-37.242-15.402
			C232.951,328.271,260.055,336.286,258.08,360.818z M215.698,373.662c-11.101,10.464-31.868-1.86-33.384-16.704
			C194.373,342.469,218.974,351.348,215.698,373.662z M181.035,396.767c-4.472,0.263-4.899,4.558-8.996,5.143
			c-18.264-3.145-30.884-11.892-41.082-23.109c4.875-12.668,19.383-15.705,33.387-19.27
			C178.852,362.588,188.809,379.471,181.035,396.767z M215.698,432.715c5.882-22.361,60.938-32.856,70.604-6.419
			C277.677,448.577,227.865,457.088,215.698,432.715z M308.159,419.877c-17.679-5.854-29.632-17.436-51.354-19.256
			c-26.145-0.014-36.181,16.059-57.824,20.531c-7.268-1.262-12.621-4.484-14.11-11.548c15.573-17.784,45.951-20.835,69.377-30.805
			c33.014-0.566,70.445-5.539,73.162,26.957C325.863,415.326,315.4,415.997,308.159,419.877z M340.24,386.493
			c9.69-7.864,26.836-8.247,35.994-16.678c-10.621-15.312-34.024-0.434-48.825,0c-0.879-3-4.288-3.435-5.14-6.445
			c14.455-40.498,73.478-10.686,88.601,11.588C392.872,381.666,352.328,406.289,340.24,386.493z"/>
	</g>
</g>
</svg>
