<?xml version="1.0" encoding="utf-8"?>
<!-- Generator: Adobe Illustrator 13.0.0, SVG Export Plug-In . SVG Version: 6.00 Build 14948)  -->
<!DOCTYPE svg PUBLIC "-//W3C//DTD SVG 1.1//EN" "http://www.w3.org/Graphics/SVG/1.1/DTD/svg11.dtd">
<svg version="1.1" id="Layer_1" xmlns="http://www.w3.org/2000/svg" xmlns:xlink="http://www.w3.org/1999/xlink" x="0px" y="0px"
	 width="453.244px" height="654.279px" viewBox="0 0 453.244 654.279" enable-background="new 0 0 453.244 654.279"
	 xml:space="preserve">
<g>
	<path fill="none" d="M190.512,455.253c0.109,0.012,0.161,0.025,0.321,0.053C190.673,455.278,190.621,455.265,190.512,455.253z"/>
	<path fill="none" d="M166.234,427.065c1.595,3.301,3.088,6.668,4.738,9.879C169.322,433.733,167.829,430.366,166.234,427.065z"/>
	<path fill="none" d="M173.899,442.139c0.642,0.986,1.331,1.947,2.024,2.866C175.23,444.086,174.541,443.125,173.899,442.139z"/>
	<path fill="none" d="M179.76,449.307L179.76,449.307c-1.122-1.013-2.132-2.145-3.092-3.328
		C177.628,447.162,178.638,448.294,179.76,449.307z"/>
	<path fill="none" d="M194.773,456.016c0.424,0.065,0.904,0.091,1.385,0.132C195.678,456.106,195.197,456.081,194.773,456.016z"/>
	<path fill="none" d="M162.505,419.831c-0.213-0.434-0.477-0.907-0.799-1.33C162.028,418.924,162.292,419.397,162.505,419.831z"/>
	<path fill="none" d="M164.051,422.659c0.266,0.539,0.585,1.078,0.851,1.617C164.636,423.737,164.316,423.198,164.051,422.659z"/>
	<path fill="none" d="M171.397,437.764c0.585,1.101,1.226,2.179,1.863,3.257C172.623,439.942,171.982,438.864,171.397,437.764z"/>
	<path fill="none" d="M294.021,106.482c5.857,2.824,15.762-0.132,20.553-2.568C321.019,80.619,291.785,86.782,294.021,106.482z"/>
	<path fill="none" d="M315.853,142.449c3.619-8.93-4.791-11.857-3.836-21.826c-6.707-0.693-10.326,1.677-15.439,2.554
		c-3.568,5.378-6.709,11.264-6.441,20.553C295.939,148.974,310.156,145.342,315.853,142.449z"/>
	<path fill="none" d="M179.76,449.372c5.162,4.046,19.059,5.393,26.94,2.513c1.971-15.731-9.477-27.752-11.556-43.63
		c-10.38-13.297-21.987,1.381-33.386,5.118c4.794,13.192,14.433,21.544,18.001,35.934c0,0,0,0,0,0.026
		C179.76,449.333,179.76,449.333,179.76,449.372z"/>
	<path fill="none" d="M264.525,451.885c-4.686-24.466-24.6-40.434-50.104-39.788c4.897,15.218,10.544,29.661,16.717,43.668
		C241.576,457.902,255.845,455.548,264.525,451.885z"/>
	<path fill="none" d="M290.136,182.24c5.004,4.101,19.219,3.341,24.438,0c3.301-3.408,3.301-12.993,1.279-17.985
		c-7.617-2.943-20.766-1.306-25.717,2.583C288.38,170.911,288.38,178.179,290.136,182.24z"/>
	<path fill="none" d="M327.408,412.097c-1.439-13.587-12.939-17.073-16.668-28.267c1.918-11.331,13.26-13.207,11.504-28.241
		c-7.295-12.39-21.938-1.644-35.943-2.563c-12.031-13.641-12.512-38.842-34.662-42.38c-28.433,0.303-45.046,19.045-41.105,47.516
		c15.706,1.454,25.13,9.161,34.716,16.697c24.385-5.608,41.318,5.131,38.498,30.813c-3.57,6.734-13.047,7.465-15.391,15.396
		c6.016,9.813,11.873,19.809,17.943,29.543C310.529,448.255,325.277,436.469,327.408,412.097z"/>
	<path fill="none" d="M173.313,571.315c2.878-6.108,6.018-11.994,5.166-21.833c-7.986-5.709-19.489-14.995-30.827-6.412
		c-0.532,8.852-5.699,15.651-3.887,23.103C149.94,571.199,162.934,574.658,173.313,571.315z"/>
	<path fill="none" d="M164.316,188.668c-16.931,1.676-5.271,30.51-3.833,41.099C172.623,225.333,165.222,199.69,164.316,188.668z"/>
	<path fill="none" d="M134.817,409.531c-12.992,1.578-20.232,8.878-28.272,15.401c-0.268,1.001,0,2.525-1.275,2.566
		c-1.866,19.007,8.943,25.306,20.551,30.832c15.28-0.974,35.514,2.984,39.772-8.998
		C157.609,433.812,148.822,419.034,134.817,409.531z"/>
	<path fill="none" d="M182.58,451.543c0.267,0.224,0.64,0.436,0.957,0.638C183.22,451.979,182.847,451.767,182.58,451.543z"/>
	<path fill="none" d="M185.826,453.444c0.322,0.19,0.693,0.361,1.065,0.52C186.52,453.806,186.148,453.635,185.826,453.444z"/>
	<path fill="none" d="M180.13,449.623c-0.107-0.092-0.266-0.158-0.37-0.251C179.864,449.465,180.022,449.531,180.13,449.623z"/>
	<path fill="none" d="M201.216,456.238c-0.534,0.014-1.013,0.014-1.547,0.014C200.203,456.252,200.682,456.252,201.216,456.238z"/>
	<path fill="none" d="M178.479,337.61c-29.765-2.198-42.064,31.844-28.271,53.953c4.842,1.882,14.428,1.882,19.22,0
		c4.206-13.862,11.341-24.669,21.883-32.119C188.756,350.461,185.349,342.238,178.479,337.61z"/>
	<path fill="#981B1E" d="M263.195,112.901c-16.828,5.844-42.545,2.796-55.219,12.857c8.839,20.181,37.858-7.547,47.497,6.416
		c-2.93,5.868-14.377,9.185-11.502,16.693c13.738,0.093,11.607-15.764,25.664-15.414c5.111,17.943-8.039,63.045,11.557,70.616
		c8.572-0.385,9.904-8.092,17.943-8.975c16.346-1.742,32.318,7.656,42.383-2.567c6.123-15.573-6.068-41.611,3.887-52.659
		c14.588,11.939,20.393,32.679,39.773,39.802c14.377-1.438,32.27,0.626,41.107-6.416c-17.893-24.919-56.439-29.153-70.604-57.785
		c6.229-16.001,44.244-0.24,47.492-19.246c-18.688-23.708-56.385,23.146-71.934-6.432c2.449-6.552,12.834-5.124,12.885-14.111
		c-1.969-10.94-26.783,1.105-28.271-10.275c2.77-15.68,32.744-4.071,37.273-17.997c-3.303-14.482-24.656-6.629-33.439-10.263
		c-1.117-16.133,13.258-16.679,16.666-28.233c-6.816-12.66-41.266-11.473-47.496,1.279c3.355,9.504,10.383,15.36,8.998,29.525
		c-6.869,11.923-31.148,6.494-39.773,16.691c2.662,13.617,27.9,0.598,34.662,7.722c6.443,18.539-23.746,11.259-28.219,23.094
		c1.119,6.563,12.99,2.383,14.107,9C275.011,103.329,270.539,109.547,263.195,112.901z M314.574,103.914
		c-4.791,2.437-14.695,5.393-20.553,2.568C291.785,86.782,321.019,80.619,314.574,103.914z M312.017,120.623
		c-0.955,9.969,7.455,12.896,3.836,21.826c-5.697,2.893-19.914,6.524-25.717,1.28c-0.268-9.289,2.873-15.175,6.441-20.553
		C301.691,122.3,305.31,119.93,312.017,120.623z M315.853,164.255c2.021,4.992,2.021,14.577-1.279,17.985
		c-5.219,3.341-19.434,4.101-24.438,0c-1.756-4.062-1.756-11.329,0-15.402C295.087,162.949,308.236,161.312,315.853,164.255z"/>
	<path fill="none" stroke="#FFFFFF" stroke-width="0" stroke-linecap="round" stroke-linejoin="round" d="M182.153,46.024
		c0.052,0.012,0.108,0.065,0.16,0.104c0.053,0.056,0,0.031,0.053,0.083c0.104,0.08,0.162,0.147,0.214,0.174"/>
	<path fill="#356734" d="M29.499,342.766c19.062-13.061,16.879-47.339,43.663-52.666c-1.971,18.335-17.573,29.259-14.111,48.812
		c2.556,4.703,14.695-0.157,16.665,5.131c-1.436,7.114-10.437,6.655-9,16.704c2.078,6.091,7.508,8.747,15.442,8.97
		c11.394-2.688,17.678-10.555,21.831-20.539c5.271-7.951,17.625-14.447,14.111-26.97c-6.39-5.96-19.648,4.234-25.666-2.578
		c7.882-9.215,6.816-27.411,16.664-34.652c19.33,2.952,25.133,19.367,46.218,20.538c18.958-4.13,14.111-30.266,9-46.22
		c2.289-4.986,8.197-6.348,12.884-9.01c16.88-18.436,20.342-69.006-2.607-83.447c-8.572-0.906-14.109,1.316-21.831,1.291
		c1.171-7.708-5.058-17.744,2.555-20.539c30.243,16.933,41.427-32.893,17.997-41.107c-7.135-1.063-11.607,5.686-16.717,2.571
		c-1.493-13.619,5.162-29.832,7.72-43.648c6.813-15.866,20.714-24.706,24.388-43.662c-1.652-1.784-5.538-1.276-8.944-1.291
		c-31.364,17.453-43.397,54.22-52.663,93.726c-8.731-2.394-7.455-14.787-19.273-14.111c-18.53,3.184-20.127,49.733-1.278,53.927
		c7.668-0.334,13.577-8.294,19.275-6.403c-2.982,42.784,9.424,87.002,11.554,124.541c-18.476,3.381-5.645-31.093-19.273-38.524
		c-5.646-2.394-14.059-3.84-19.222,0c-8.042,9.549,3.354,23.358,0,32.107c-15.389,2.538-10.916-14.812-11.556-26.965
		c-4.794-8.083-8.147-17.559-20.607-17.988c-20.709,3.625-5.856,26.025-10.275,37.258c-9.158-4.057-10.434-16.073-21.83-17.993
		C6.869,238.96,17.2,277.013,28.22,286.26C11.397,295.624-15.12,344.317,29.499,342.766z M164.316,188.668
		c0.905,11.022,8.307,36.665-3.833,41.099C159.045,219.178,147.386,190.344,164.316,188.668z"/>
	<path fill="#981B1E" d="M75.716,440.336c-0.266,9.676,4.738,14.106,5.163,23.124c7.776,11.484,19.063,19.414,32.107,25.676
		c4.419-0.566,7.188,0.513,10.224,1.274c38.709-0.025,70.922-8.267,106.596-7.693c21.299,2.235,40.363,6.722,64.215,6.419
		c34.771-10.628,70.5-20.263,80.881-55.217c-1.119-3.58-3.035-6.354-3.834-10.273c-2.822-3.999-12.938-0.738-15.387-5.132
		c1.385-18.519-0.533-33.729-7.721-43.655c23.906-31.179-7.615-58.584-41.107-46.22c-13.684-11.608-23.801-26.675-41.051-34.691
		c-36.365-9.332-57.185,13.245-77.098,28.26c-53.406-11.864-82.797,30.937-66.771,73.197
		C102.819,406.663,80.027,414.267,75.716,440.336z M264.525,451.885c-8.68,3.663-22.949,6.018-33.387,3.88
		c-6.173-14.007-11.82-28.45-16.717-43.668C239.925,411.451,259.839,427.419,264.525,451.885z M283.748,405.671
		c2.82-25.682-14.113-36.421-38.498-30.813c-9.586-7.536-19.01-15.243-34.716-16.697c-3.941-28.471,12.672-47.213,41.105-47.516
		c22.15,3.538,22.631,28.739,34.662,42.38c14.006,0.92,28.648-9.826,35.943,2.563c1.756,15.034-9.586,16.91-11.504,28.241
		c3.729,11.193,15.229,14.68,16.668,28.267c-2.131,24.372-16.879,36.158-41.107,38.513c-6.07-9.734-11.928-19.73-17.943-29.543
		C270.701,413.136,280.177,412.405,283.748,405.671z M161.759,413.373c11.398-3.737,23.006-18.415,33.386-5.118
		c2.079,15.878,13.526,27.898,11.556,43.63c-7.882,2.88-21.778,1.533-26.94-2.513c0-0.039,0-0.039,0-0.039c0-0.026,0-0.026,0-0.026
		l0,0c-1.122-1.013-2.132-2.145-3.092-3.328c0.96,1.184,1.97,2.315,3.092,3.328C176.191,434.917,166.553,426.565,161.759,413.373z
		 M175.924,445.005c-0.693-0.919-1.383-1.88-2.024-2.866C174.541,443.125,175.23,444.086,175.924,445.005z M173.261,441.021
		c-0.638-1.078-1.278-2.156-1.863-3.257C171.982,438.864,172.623,439.942,173.261,441.021z M170.973,436.944
		c-1.65-3.211-3.144-6.578-4.738-9.879C167.829,430.366,169.322,433.733,170.973,436.944z M164.901,424.276
		c-0.266-0.539-0.585-1.078-0.851-1.617C164.316,423.198,164.636,423.737,164.901,424.276z M162.505,419.831
		c-0.213-0.434-0.477-0.907-0.799-1.33C162.028,418.924,162.292,419.397,162.505,419.831z M196.158,456.147
		c-0.48-0.041-0.961-0.066-1.385-0.132C195.197,456.081,195.678,456.106,196.158,456.147z M190.833,455.306
		c-0.16-0.027-0.212-0.041-0.321-0.053C190.621,455.265,190.673,455.278,190.833,455.306z M186.892,453.964
		c-0.372-0.158-0.743-0.329-1.065-0.52C186.148,453.635,186.52,453.806,186.892,453.964z M183.537,452.181
		c-0.317-0.202-0.69-0.414-0.957-0.638C182.847,451.767,183.22,451.979,183.537,452.181z M180.13,449.623
		c-0.107-0.092-0.266-0.158-0.37-0.251C179.864,449.465,180.022,449.531,180.13,449.623z M201.216,456.238
		c-0.534,0.014-1.013,0.014-1.547,0.014C200.203,456.252,200.682,456.252,201.216,456.238z M169.428,391.563
		c-4.792,1.882-14.378,1.882-19.22,0c-13.793-22.109-1.493-56.151,28.271-53.953c6.869,4.628,10.276,12.851,12.831,21.834
		C180.769,366.895,173.634,377.701,169.428,391.563z M125.82,458.331c-11.607-5.526-22.417-11.825-20.551-30.832
		c1.275-0.041,1.008-1.565,1.275-2.566c8.04-6.523,15.28-13.823,28.272-15.401c14.005,9.503,22.792,24.28,30.775,39.802
		C161.334,461.315,141.101,457.357,125.82,458.331z"/>
	<path fill="#356734" d="M404.455,531.516c2.605-12.792,17.035-13.778,14.109-32.107c-3.41-3.434-8.148-5.563-14.109-6.432
		c-4.793,1.656-8.736,4.116-14.164,5.143c-12.035,5.563-10.756,31.055-26.943,28.26c1.916-10.463,11.021-19.29,7.721-30.818
		c-21.033-14.332-38.604,12.752-39.828,34.667c-23.004,6.826-34.502-30.288-65.438-15.405c-1.172,3.133-3.037,5.565-2.607,10.274
		c0.637,8.8,11.551,7.3,11.551,16.69c-11.02,0.974-22.15,8.63-29.496,8.979c2.555-8.032,9.795-23.419,1.279-30.806
		c-24.547-0.941-31.79,22.084-48.829,24.394c0.479-6.395,3.567-10.174,2.558-17.975c3.726-12.569,24.759-7.794,25.716-23.124
		c-6.496-13.351-43.394-12.128-47.494,2.572c0,8.088,8.521,7.721,12.831,11.548c-4.153,3.559-5.271,10.149-11.551,11.576
		c-28.116-3.999-50.105-14.102-80.881-15.429c-5.912,3.957-13.58,6.154-11.556,17.993c7.613,13.855,35.995,2.552,48.773,8.971
		c-6.389,17.177-19.486,27.634-41.107,29.542C79.441,551.336,20.926,531.753,0,562.32c5.38,9.557,18.586,11.377,32.055,12.844
		c18.315,9.982,36.954,19.591,53.991,30.824c15.389-5.983,29.87-12.89,48.771-15.415c24.762,2.195,34.929,19.013,52.606,28.253
		c20.98-7.695,28.272-29.102,50.105-35.96c15.494,13.191,10.916,46.47,19.223,66.779c8.625,3.59,16.984,5.932,28.273,3.853
		c5.482-3.953,9.477-9.352,14.109-14.139c-0.906-3.92,1.33-4.67,1.275-7.702c0.533-12.475-5.27-18.664-7.666-28.246
		c-6.975-5.445-11.818-13.021-17.998-19.265c-4.844-4.589-13.098-5.694-15.387-12.831c10.596-4.799,21.033-9.785,33.385-12.85
		c8.094,4.748,14.432,11.279,17.996,20.545c-19.912,42.394,54.523,36.127,50.051,0c-1.488-16.054-25.982-9.075-28.273-24.398
		c50.477-17.507,72.736,43.485,116.875,16.703c0-4.286,4.152-4.379,3.834-8.995C450.138,538.882,430.062,532.45,404.455,531.516z
		 M147.652,543.07c11.338-8.583,22.841,0.703,30.827,6.412c0.852,9.839-2.288,15.725-5.166,21.833
		c-10.38,3.343-23.373-0.116-29.548-5.143C141.953,558.722,147.12,551.922,147.652,543.07z"/>
</g>
</svg>
