<?xml version="1.0" encoding="utf-8"?>
<!-- Generator: Adobe Illustrator 13.0.0, SVG Export Plug-In . SVG Version: 6.00 Build 14948)  -->
<!DOCTYPE svg PUBLIC "-//W3C//DTD SVG 1.1//EN" "http://www.w3.org/Graphics/SVG/1.1/DTD/svg11.dtd">
<svg version="1.1" id="Layer_1" xmlns="http://www.w3.org/2000/svg" xmlns:xlink="http://www.w3.org/1999/xlink" x="0px" y="0px"
	 width="462.486px" height="645.365px" viewBox="0 0 462.486 645.365" enable-background="new 0 0 462.486 645.365"
	 xml:space="preserve">
<g>
	<path fill="none" d="M254.457,458.041c6.121,5.872,13.258,10.706,20.498,15.402c8.625,0.829,16.186,2.703,24.439,3.848
		c9.158-1.572,18.209-3.189,26.998-5.124c19.912-11.311,35.141-27.359,39.771-53.941c0.641-10.049-0.689-18.151-1.275-26.95
		c-8.416-46.366-63.098-46.524-88.602-75.758c-6.018-6.386-1.969-22.893-14.162-23.117c-6.232,2.696-9.801,8.156-14.111,12.826
		C251.792,354.241,236.83,418.574,254.457,458.041z M336.667,449.057c-5.271,0.118-10.596,0.225-14.111-1.302
		c-11.236-13.51,3.674-33.719,16.666-19.263C341.085,435.173,341.458,445.52,336.667,449.057z M330.222,383.541
		c5.859,6.122,6.711,21.242,0,26.978C308.341,415.017,308.341,379.069,330.222,383.541z M309.669,460.6
		c-7.984,3.491-16.289-0.929-20.5-5.137C278.791,423.197,327.134,432.55,309.669,460.6z M287.841,414.371
		c-0.16-5.273-0.266-10.536,1.328-14.127C312.333,382.034,311.267,434.378,287.841,414.371z M303.279,360.429
		c2.557,4.803,3.836,14.51,1.281,20.541c-5.645,2.688-13.473,0.932-17.998-1.276C278.523,367.375,289.437,350.775,303.279,360.429z
		 M273.675,348.894c5.006,3.618,5.006,14.344,0,17.969c-7.664,1.289-11.127-1.631-14.109-5.157
		C258.181,351.328,263.453,347.625,273.675,348.894z M276.287,407.954c-6.869,3.34-13.953-0.454-17.998-3.848
		C247.906,374.248,291.14,375.49,276.287,407.954z M276.287,431.063c3.035,5.406,3.035,12.731,0,17.993
		c-7.936,3.434-16.348-0.855-19.275-6.444C254.294,429.787,267.98,424.933,276.287,431.063z"/>
	<path fill="none" d="M138.86,217.918c-17.358-11.727-25.294,14.444-26.944,30.801c5.38,10.483,9,22.717,19.276,28.267
		C144.077,266.214,136.197,235.77,138.86,217.918z"/>
	<path fill="none" d="M305.835,537.645c-15.6-5.117-44.672-16.547-57.822-1.276c-5.484,13.39-8.682,38.283,5.162,44.926
		c11.557-4.289,18.797-12.871,29.553-17.974C289.65,553.993,307.808,555.895,305.835,537.645z"/>
	<path fill="none" d="M196.683,536.368c-15.866-2.623-40.199-23.412-52.658-8.996c0.532,10.193,10.755,10.641,11.607,20.531
		c-2.395,7.925-13.046,7.563-11.607,19.27c18.848-0.473,51.116,1.513,68.048-5.143C209.038,551.396,202.753,543.985,196.683,536.368
		z"/>
	<path fill="none" d="M205.684,298.813c8.52,16.291,1.863,47.746,19.22,55.197c8.786-2.773,3.887-19.216,5.165-29.501
		c-8.838-15.193-8.305-39.657-20.551-51.378c-0.267-1.013-1.065-1.485-2.559-1.275c0,2.525-3.512,1.624-2.556,5.13
		C203.394,285.674,206.164,290.639,205.684,298.813z"/>
	<path fill="#981B1E" d="M203.128,128.028c17.089,1.795,30.295-20.645,42.327-7.708c-3.191,16.547-24.011,22.124-25.662,35.955
		c15.654,3.873,17.945-14.963,32.107-16.679c1.49,7.721,3.195,22.695-2.559,26.954c-8.568,1.184-9.742-8.587-16.717-5.14
		c-0.052,20.034,22.201,29.032,39.777,23.123c8.357-14.962-5.488-44.767,3.885-56.506c5.271-2.639,16.451,4.859,21.83-1.28
		c-0.799-16.372-18.053-16.225-25.715-25.69c0.742-7.841-2.238-19.435,3.885-21.816c4.102-2.143,5.377-2.208,10.275-1.277
		c2.131,12.459,6.07,23.001,20.553,23.094c11.66-3.3,15.281-14.653,26.939-17.968c3.783,29.632-24.918,55.388-28.219,82.182
		c25.133-4.791,29.979-29.977,47.496-42.367c12.408,38.231,36.152,78.361,86.047,70.614c-0.533-22.256-24.334-32.064-35.994-47.506
		c-15.443-13.657-32.375-25.837-43.664-43.662c2.451-12.567,3.197-26.798,14.164-30.805c13.205,6.818,32.588,35.808,46.217,11.544
		c1.971-28.076-31.893-20.303-48.771-29.539c-2.717-21.552,15.334-22.298,19.219-37.23c-2.926-22.245-57.982-20.845-62.883-1.292
		c7.137,12.498,16.826,22.551,12.836,46.216c-9.586,8.626-32.32,28.807-44.943,14.15c1.441-4.966,4.102-11.153,1.281-16.704
		c-6.762-3.835-14.006,0.464-19.277-3.861c-4.311-12.874,12.727-20.966,9-33.373c-18.102-0.039-36.313-0.268-52.658-1.292
		c-3.036,6.656-7.563,17.812-3.835,26.957c7.722,7.242,21.937-2.169,29.498,1.303c1.227,14.417-14.906,11.567-10.225,29.54
		c-15.119,12.288-37.164,17.638-55.213,26.954C192.478,114.146,194.128,125.778,203.128,128.028z"/>
	<path fill="#981B1E" d="M187.686,315.518c3.46,30.746,32.531,53.192,24.387,79.599c-21.299-4.906-53.191-4.31-65.493,7.707
		c-13.897,15.902-19.912,47.062-8.997,70.62c12.299,16.861,31.736,26.477,59.101,28.233c24.015-1.65,37.54-13.832,52.659-24.386
		c7.35,2.479,11.557,8.068,19.223,10.267c10.438,1.578,20.98,2.979,30.83,5.136c53.244-8.412,94.51-28.766,105.266-79.604
		c2.662-22.341-4.738-34.602-7.664-51.385c-14.963-32.066-54.471-39.695-77.051-64.188c-1.756-3.366-5.43-4.865-6.441-8.982
		c-8.359-24.215,4.367-44.979,10.33-62.926c-2.504-2.617-4.045-6.276-9.051-6.412c-29.123,4.244-42.701,24.011-52.658,47.511
		c-8.893,0.039-17.945,0.939-26.945,3.847c-13.736-13.219-15.652-38.224-38.497-42.381c-15.119,4.986-10.647,29.582-11.551,48.813
		C186.992,288.823,186.568,302.884,187.686,315.518z M206.959,271.855c1.493-0.21,2.292,0.263,2.559,1.275
		c12.246,11.721,11.713,36.185,20.551,51.378c-1.278,10.285,3.621,26.728-5.165,29.501c-17.356-7.451-10.7-38.906-19.22-55.197
		c0.48-8.174-2.29-13.139-1.28-21.827C203.447,273.479,206.959,274.381,206.959,271.855z M248.013,305.227
		c4.311-4.67,7.879-10.13,14.111-12.826c12.193,0.225,8.145,16.731,14.162,23.117c25.504,29.233,80.186,29.392,88.602,75.758
		c0.586,8.799,1.916,16.901,1.275,26.95c-4.631,26.582-19.859,42.631-39.771,53.941c-8.789,1.935-17.84,3.552-26.998,5.124
		c-8.254-1.145-15.814-3.019-24.439-3.848c-7.24-4.696-14.377-9.53-20.498-15.402C236.83,418.574,251.792,354.241,248.013,305.227z"
		/>
	<path fill="#981B1E" d="M273.675,366.862c5.006-3.625,5.006-14.351,0-17.969c-10.223-1.269-15.494,2.435-14.109,12.812
		C262.548,365.231,266.011,368.151,273.675,366.862z"/>
	<path fill="#981B1E" d="M304.56,380.97c2.555-6.031,1.275-15.738-1.281-20.541c-13.842-9.653-24.756,6.946-16.717,19.265
		C291.087,381.901,298.916,383.658,304.56,380.97z"/>
	<g>
		<path fill="none" d="M111.916,248.719c5.38,10.483,9,22.717,19.276,28.267c12.885-10.771,5.005-41.216,7.668-59.067
			C121.502,206.191,113.566,232.362,111.916,248.719z"/>
		<path fill="#356734" d="M172.297,325.784c5.751-8.122,12.674-36.646-2.556-39.815c-7.935,4.097-5.962,18.008-14.109,21.815
			c-4.312-4.241-8.998-8.136-10.329-15.384c9.425-29.357,15.016-79.872-11.556-95.036c-18.529-1.409-18.742,15.469-29.496,21.832
			c-5.005-14.401-14.642-42.824-6.444-57.785c5.646,2.903,5.804,11.357,14.109,11.556c26.198,2.038,25.88-42.423,5.166-46.219
			c-10.01-2.794-13.419,6.672-19.275,3.848c3.087-38.881,43.29-40.641,48.772-77.045c-1.063-6.177-3.087-11.421-6.442-15.399
			c-0.956-0.296-2.502-0.043-2.555-1.293c-2.556,0-5.113,0-7.67,0c-27.473,20.514-38.496,57.385-52.657,91.17
			c-22.098-20.512-40.732,13.245-28.222,34.675c7.936,6.655,16.932,4.314,26.941,1.279c1.013,6.575-1.808,9.318-1.275,15.403
			c8.521,49.235,28.378,87.182,50.052,123.274c14.109,14.102,26.675,29.834,35.994,48.801c-11.45-1.396-23.43-2.25-29.553-8.986
			c-2.77-19.926-1.223-44.167-23.11-44.958c-15.014,11.45-1.224,35.173,5.113,44.958c-4.047,2.159-15.494,2.316-17.944-1.288
			c-3.515-23.432-4.524-49.456-29.552-51.377c-0.32,1.013-1.063,1.5-2.556,1.283c-12.726,21.368,6.604,40.32,15.39,52.658
			c-4.687,2.986-11.503,3.9-17.945,5.143c-14.108-18.006-14.374-49.837-38.496-57.801c-4.951,1.059-7.825,4.201-10.327,7.72
			c1.061,27.604,20.923,36.416,30.827,55.197c-16.398,9.289-35.514,15.856-35.994,41.106c2.821,7.912,8.467,12.955,19.33,12.838
			c11.073-7.723,12.406-25.27,20.498-35.955c11.713-2.52,23.269-11.687,35.994-8.991c-11.341,16.587-38.282,24.098-35.994,50.082
			c33.863,2.117,39.135-35.297,59.102-51.385c4.102,0.54,22.417-2.965,24.385,3.882c-13.683,19.15-48.505,29.857-44.937,57.77
			c34.928,1.078,43.606-35.094,64.214-52.653c16.505,2.44,33.173,12.141,43.659-2.564
			C193.49,346.508,176.663,342.358,172.297,325.784z M131.192,276.985c-10.276-5.55-13.896-17.783-19.276-28.267
			c1.65-16.356,9.586-42.527,26.944-30.801C136.197,235.77,144.077,266.214,131.192,276.985z"/>
	</g>
	<path fill="#981B1E" d="M276.287,407.954c14.854-32.464-28.381-33.706-17.998-3.848C262.333,407.5,269.417,411.294,276.287,407.954
		z"/>
	<path fill="#981B1E" d="M330.222,410.519c6.711-5.735,5.859-20.855,0-26.978C308.341,379.069,308.341,415.017,330.222,410.519z"/>
	<path fill="#981B1E" d="M289.169,400.244c-1.594,3.591-1.488,8.854-1.328,14.127C311.267,434.378,312.333,382.034,289.169,400.244z
		"/>
	<path fill="#981B1E" d="M322.556,447.755c3.516,1.526,8.84,1.42,14.111,1.302c4.791-3.537,4.418-13.884,2.555-20.564
		C326.23,414.036,311.32,434.245,322.556,447.755z"/>
	<path fill="#981B1E" d="M276.287,449.057c3.035-5.262,3.035-12.587,0-17.993c-8.307-6.131-21.992-1.276-19.275,11.549
		C259.939,448.201,268.351,452.49,276.287,449.057z"/>
	<path fill="#981B1E" d="M289.169,455.463c4.211,4.208,12.516,8.628,20.5,5.137C327.134,432.55,278.791,423.197,289.169,455.463z"/>
	<path fill="#356734" d="M414.935,523.518c22.631-3.984,46.326-6.826,47.551-32.12c-1.49-9.221-7.137-14.284-12.832-19.23
		c-11.184-2.42-20.98-2.42-32.107,0c-16.508,5.761-19.914,36.895-39.828,30.805c-0.533-6.938,5.166-13.087,1.279-19.27
		c-20.928-4.149-31.15,13.312-30.83,34.653c-6.975,4.177-13.527,8.719-21.775,11.581c-13.207-28.353-57.508-14.245-86.047-20.553
		c-11.393,1.508-10.115,15.588-19.276,19.277c-29.178-22.163-106.331-35.461-139.98-7.708c11.66,7.591,37.857-5.55,46.217,6.419
		c-4.791,7.569-17.039,7.747-17.945,19.255c1.386,10.576,13.846,10.182,14.112,21.822c-27.051-1.21-47.55-20.059-80.881-19.25
		c-14.748,3.19-28.539,7.373-38.549,15.396c-0.532,5.405-5.058,6.937-3.834,14.14c13.206,1.651,19.805-3.288,29.552-5.148
		c11.5,1.374,16.238,9.396,29.55,9.008c18.371,7.734,24.865,27.313,43.661,34.652c29.445-19.729,58.835-39.578,110.379-37.236
		c7.295,7.234,6.814,22.322,8.997,34.666c25.558,14.258,38.283-12.62,56.494-17.976c-1.117,13.932-7.561,29.373,0,41.079
		c9.105,9.721,36.74,11.353,42.383-2.564c3.729-29.378-10.223-41.091-21.83-55.205c2.611-3.801,6.441-6.411,11.555-7.707
		c2.184,22.583,40.68,28.319,51.381,10.291c1.012-9.2-1.387-14.907-5.164-19.274c-6.654-4.032-24.176,2.813-26.943-5.149
		c9.799-6.887,18.586-14.765,30.779-19.237c8.838,21.539,25.557,59.269,56.545,38.499c12.512-30.765-22.363-33.316-32.107-50.061
		c4.311-3.827,8.145-8.117,15.387-9.017C405.886,519.729,408.388,523.649,414.935,523.518z M282.728,563.32
		c-10.756,5.103-17.996,13.685-29.553,17.974c-13.844-6.643-10.646-31.536-5.162-44.926c13.15-15.271,42.223-3.841,57.822,1.276
		C307.808,555.895,289.65,553.993,282.728,563.32z M144.024,567.173c-1.438-11.706,9.213-11.345,11.607-19.27
		c-0.853-9.891-11.075-10.338-11.607-20.531c12.459-14.416,36.792,6.373,52.658,8.996c6.07,7.617,12.355,15.028,15.39,25.662
		C195.141,568.686,162.872,566.7,144.024,567.173z"/>
</g>
</svg>
