<?xml version="1.0" encoding="utf-8"?>
<!-- Generator: Adobe Illustrator 13.0.0, SVG Export Plug-In . SVG Version: 6.00 Build 14948)  -->
<!DOCTYPE svg PUBLIC "-//W3C//DTD SVG 1.1//EN" "http://www.w3.org/Graphics/SVG/1.1/DTD/svg11.dtd">
<svg version="1.1" id="Layer_1" xmlns="http://www.w3.org/2000/svg" xmlns:xlink="http://www.w3.org/1999/xlink" x="0px" y="0px"
	 width="487.395px" height="566.291px" viewBox="0 0 487.395 566.291" enable-background="new 0 0 487.395 566.291"
	 xml:space="preserve">
<path fill="#343466" d="M177.079,6.151C184.669,2.064,191.363,0,197.272,0c3.476,0,7.843,1.479,13.113,4.406
	c5.286,2.891,8.308,6.563,9.132,10.93c0.971,4.381,1.426,12.739,1.426,24.984c0,2.956-0.656,8.481-1.813,16.679
	c-1.157,8.175-1.729,14.631-1.729,19.263c0,3.539,0.319,6.469,0.84,8.773c6.428-1.147,11.445-1.733,14.908-1.733
	c5.284,0,10.993,1.733,17.105,5.245c6.176,3.543,15.055,10.517,26.754,21.06l-1.678,12.245c-1.664,0.586-9.836,2.476-24.424,5.725
	c-14.604,3.224-26.877,5.364-37.047,6.563v10.504c0,3.512-0.773,9.104-2.184,16.664c-1.411,7.587-2.181,14.334-2.181,20.154
	c4.11-1.158,12.272-4.249,24.558-9.2c12.219-4.952,23.919-7.426,35.051-7.426c18.062,0,32.719,3.381,43.78,10.036
	c11.128,6.748,16.718,17.133,16.718,31.147c0,35.05-5.975,61.354-17.879,78.898c-11.953,17.516-25.582,30.35-40.824,38.549
	c-2.249,1.199-7.402,1.064-15.36-0.412c-7.987-1.477-14.149-2.197-18.651-2.197c-7.971,0-15.691,1.451-23.027,4.381
	c16.215,24.561,61.738,53.365,136.774,86.322c74.97,33.053,120.56,53.047,136.761,60.061c-10.542,6.389-25.586,13.02-45.139,19.77
	c-19.607,6.682-35.234,10.063-46.938,10.063c-15.172-2.955-40.439-16.68-75.806-41.252c-35.369-24.531-73.494-60.18-114.397-106.891
	l4.38,68.314c0,22.242,1.927,44.301,5.656,66.225c3.86,21.924,5.792,34.953,5.792,38.973c0,9.385-1.228,18.318-3.543,26.77
	c-2.384,8.469-7.015,12.699-14.018,12.699c-6.495,0-15.242-6.746-26.304-20.152c-11.063-13.43-16.718-26.012-16.718-37.711
	c0.651-1.729,1.156-3.5,1.813-5.271c4.615,1.771,9.315,3.543,14.014,5.271V355.041c-11.193,18.105-28.486,37.67-51.952,58.729
	c-23.534,21.059-57.878,44.156-103.085,69.26L0,478.623c24.691-14.563,49.903-32.693,75.809-54.297
	c25.85-21.645,50.86-51.18,74.984-88.572c-2.385-2.357-5.288-3.93-8.813-4.859c-3.476-0.865-5.79-3.314-7.017-7.428
	c2.902-6.977,8.24-10.518,15.83-10.518c4.949,0,10.22,0,15.813,0c3.727-1.184,8.158-3.498,13.111-7v-21.924
	c-7.908,1.731-13.7,2.795-17.291,3.077c-3.662,0.291-8.228,0.453-13.765,0.453c-4.751,0-8.747,0-11.835,0l-3.594-11.704
	c5.459-4.18,12.154-8.066,20.059-11.674c7.843-3.564,16.336-7.774,25.465-12.591l0.961-23.64
	c-10.861,2.381-20.313,4.311-28.422,5.694c-8.039,1.438-14.586,2.184-19.355,2.184c-8.424,0-14.402-3.087-17.996-9.267
	c17.494-7.839,29.513-13.297,35.876-16.425c6.493-3.087,16.464-8.52,29.897-16.425v-54.297c-3.529,1.157-9.705,2.477-18.451,3.913
	c-8.743,1.45-18.063,2.196-28.033,2.196c-8.228,0-15.041-0.746-20.578-2.196c-5.524-1.437-6.883-5.978-3.982-13.564
	c11.25-4.114,23.976-8.493,38.191-13.15c14.149-4.688,25.211-9.346,32.854-14.044c0-9.943,0-19.967,0-30.229
	c0-10.224,0-20.608,0-31.15V30.709C179.717,19.62,178.756,11.384,177.079,6.151z M53.432,223.552c1.223,0,3.672,0,7.201,0
	c3.607,0,6.883,0,9.904,0c5.975,0,12.473,1.276,19.355,3.849c6.879,2.513,14.08,11.446,21.604,26.714
	c7.451,15.28,11.194,32.547,11.194,51.834c0,7.613-1.679,15.201-4.888,22.791c-3.354,7.625-6.761,10.26-10.421,7.879
	c-17.943-11.088-27.967-27.461-30.098-49.064c-2.118-21.635-10.023-38.872-23.854-51.73V223.552z M277.143,200.748
	c-4.633-1.769-13.699-0.903-27.396,2.638c-13.63,3.502-25.599,8.171-35.888,14.057v25.396h12.354c12.726,0,19.22,3.795,19.22,11.381
	c0,5.817-3.341,9.957-9.971,12.275c-9.385,1.769-16.586,3.541-21.604,5.245v25.425c13.311-2.891,22.258-4.953,26.69-6.1
	c4.434-1.158,9.837-4.246,16.265-9.237c6.363-4.953,12.088-14.016,17.04-27.155c5.018-13.153,7.52-25.277,7.52-36.409
	C281.374,207.762,279.965,201.936,277.143,200.748z"/>
</svg>
