<?xml version="1.0" encoding="utf-8"?>
<!-- Generator: Adobe Illustrator 13.0.0, SVG Export Plug-In . SVG Version: 6.00 Build 14948)  -->
<!DOCTYPE svg PUBLIC "-//W3C//DTD SVG 1.1//EN" "http://www.w3.org/Graphics/SVG/1.1/DTD/svg11.dtd">
<svg version="1.1" id="Layer_1" xmlns="http://www.w3.org/2000/svg" xmlns:xlink="http://www.w3.org/1999/xlink" x="0px" y="0px"
	 width="475.057px" height="477.783px" viewBox="0 0 475.057 477.783" enable-background="new 0 0 475.057 477.783"
	 xml:space="preserve">
<g>
	<path fill="#343466" d="M97.867,92.941c17.224,5.817,28.67,14.468,34.155,25.849c5.458,11.447,8.147,25.877,8.147,43.397
		c0,5.311,0,10.262,0,14.922c0,4.669,0,9.358,0,14.014c0,17.561-1.146,41.227-3.461,70.99c-2.315,29.805-3.486,47.936-3.486,54.365
		c13.443-16.332,26.889-32.719,40.332-49.053c-5.351,32.08-22.575,70.246-51.834,114.359c-29.26,44.164-56.52,76.129-81.867,95.998
		c-3.004-1.768-10.407-3.672-22.175-5.695C5.912,470.037,0,460.253,0,442.71c0-6.43,0.267-11.678,0.907-15.762
		c3.46-2.369,9.185-5.271,16.854-8.813c7.772-3.502,15.171-6.656,22.36-9.611l34.796-21.059
		c13.046-15.748,20.364-35.326,21.806-58.703c1.542-23.4,2.82-45.59,4.044-66.65c-8.813,2.955-17.677,4.404-26.569,4.404
		c-4.629,0-11.048-3.219-18.953-9.635c-7.908-6.443-16.347-12.738-25.212-18.847C21.22,231.899,11.185,226.532,0,221.794
		c1.732-4.074,5.777-7.001,12.222-8.772c6.416-1.729,12.858-2.635,19.273-2.635c7.083,0,12.167,0.158,15.442,0.454
		c3.088,0.315,8.678,2.181,16.587,5.683c7.852,3.541,14.669,6.629,20.205,9.236c5.512,2.638,11.233,4.821,17.037,6.59
		c0-11.128-0.131-22.377-0.397-33.797c-0.318-11.382-0.826-21.15-1.729-29.353c-0.825-8.158-3.859-16.905-8.865-26.303
		c-5.14-9.293-8.682-15.905-10.678-19.7c-1.943-3.795-3.354-8.613-4.258-14.47c-0.825-5.855-1.545-10.515-2.104-14.018
		c3.406-1.157,7.642-2.091,12.538-2.634C90.146,91.461,94.404,91.783,97.867,92.941z"/>
	<path fill="#343466" d="M277.012,49.121c-7.084,23.959-14.219,51.152-21.486,81.53c-7.32,30.391-10.996,59.607-10.996,87.64
		c5.861-3.498,18.582-13.695,38.123-30.666c19.623-16.947,32.881-26.465,39.883-28.486c7.082-2.065,13.498-3.088,19.301-3.088
		c11.688,0,22.629,2.473,32.906,7.425c10.223,5.019,15.309,10.45,15.309,16.268c1.809,6.429-15.629,14.762-52.156,24.987
		c-36.58,10.221-68.207,24.65-95.096,43.367c0,6.43-0.449,20.355-1.357,41.637c-0.826,21.354-1.277,35.527-1.277,42.531
		c0,9.943,0,17.105,0,21.512c0,4.338,0.586,12.793,1.73,25.396c1.17,12.537,7.723,24.826,19.752,36.818
		c11.955,11.953,30.219,17.973,54.844,17.973c12.219,0,25.08-1.477,38.521-4.447c13.422-2.861,29.768-8.131,49.041-15.748
		c0.588-2.926,0.908-6.135,0.908-9.65c0-4.045-1.918-7.865-5.648-11.381c-3.859-3.525-6.305-8.744-7.453-15.787
		c16.32,4.086,30.352,8.746,42.037,14.031c11.713,5.271,23.348,10.248,35.064,14.908c4.1,4.656,6.096,9.932,6.096,15.787
		c0,13.443-12.088,24.984-36.34,34.662c-24.227,9.609-55.615,14.404-94.246,14.404c-58.463,0-97.305-9.904-116.582-29.807
		c-19.297-19.832-28.937-59.605-28.937-119.176c0-39.748,2.771-85.618,8.36-137.677c5.538-51.982,8.28-93.168,8.28-123.543
		c0-11.131-0.453-18.717-1.279-22.805c-0.824-4.109-3.913-12.604-9.184-25.396C208.592,4.141,216.178,0,227.889,0
		c9.373,0,18.373,3.848,27.182,11.41C263.833,19.023,271.1,31.601,277.012,49.121z"/>
</g>
</svg>
