<?xml version="1.0" encoding="utf-8"?>
<!-- Generator: Adobe Illustrator 13.0.0, SVG Export Plug-In . SVG Version: 6.00 Build 14948)  -->
<!DOCTYPE svg PUBLIC "-//W3C//DTD SVG 1.1//EN" "http://www.w3.org/Graphics/SVG/1.1/DTD/svg11.dtd">
<svg version="1.1" id="Layer_1" xmlns="http://www.w3.org/2000/svg" xmlns:xlink="http://www.w3.org/1999/xlink" x="0px" y="0px"
	 width="395.374px" height="507.562px" viewBox="0 0 395.374 507.562" enable-background="new 0 0 395.374 507.562"
	 xml:space="preserve">
<path fill="#343466" d="M0,277.008c13.498,7.629,25.582,21.646,36.395,42.052c10.797,20.485,18.264,39.933,22.375,58.33
	c4.113,18.426,10.795,36.104,20.127,53.005c9.385,16.988,14.07,27.783,14.07,32.482c0,7.586-1.144,12.66-3.528,15.308
	c-2.384,2.66-4.699,4.524-7.013,5.711c-39.737-15.176-61.474-33.465-65.334-54.776c-3.781-21.352-8.611-58.038-14.402-110.06
	L0,277.008z M216.496,8.746c1.729,7.044,2.703,14.058,2.703,21.059c0,7.59-1.026,16.651-3.157,27.168
	c-1.93,10.517-2.952,16.975-2.952,19.289c6.813,1.157,14.652,0.743,23.53-1.317c8.866-1.984,18.451-4.499,28.675-7.455
	c17.237,0,25.783,12.246,25.783,36.845c-9.957,4.699-22.949,10.065-39.028,16.177c-16.067,6.136-31.121,11.312-45.139,15.398
	c-2.315,8.748-6.298,20.992-11.835,36.807c-5.521,15.786-10.407,28.578-14.469,38.549c21.617-6.015,43.543-12.381,65.787-19.01
	c23.918-4.844,47.588-7.294,70.987-7.294c28.033,0,48.095,3.952,60.062,11.9c11.952,7.882,17.931,24.172,17.931,48.772
	c0,52.729-10.607,109.567-31.949,170.519c-21.351,60.966-44.313,91.409-68.805,91.409c-13.499,0-26.369-2.314-38.575-7.013
	c-12.354-4.687-41.278-18.705-86.806-42.078l17.478,2.595c-1.664-11.049-2.887-25.942-3.472-44.686
	c-0.572-18.678-0.892-28.897-0.892-30.67l-51.955,18.398c-4.634,0-8.748-3.223-12.473-9.652c-3.795-6.389-5.656-11.952-5.656-16.654
	c0-2.889,7.32-10.063,21.989-21.47c14.787-11.381,29.897-27.596,45.522-48.611c-13.512,0.545-22.254,0.861-26.367,0.861
	c-4.115,0-9.639-1.157-16.653-3.499c8.813-4.018,17.557-8.306,26.304-12.896c-7.587-3.437-14.922-8.043-21.871-13.791
	c-7.07-5.686-12.857-11.729-17.543-18.066c-14.018,4.114-26.945,7.616-38.523,10.543c-11.702,2.956-19.354,4.366-22.83,4.366
	c-2.367,0-4.817-0.572-7.521-1.729c-2.568-1.156-4.817-2.064-6.563-2.637c8.24-7.015,19.421-13.604,33.759-19.713
	c14.35-6.137,24.438-10.382,30.298-12.727c-5.274-4.088-9.398-7.879-12.289-11.382c17.679-6.401,31.321-18.263,40.96-35.5
	c9.77-17.264,14.604-32.304,14.604-45.165c-11.714,1.184-21.937,2.224-30.802,3.062c-8.746,0.931-18.719,1.345-29.845,1.345
	c-21.085,0-40.505-6.43-58.065-19.329c17.172-2.314,36.727-5.817,58.65-10.45c21.924-4.725,46.484-12.59,73.757-23.691
	c0-25.745-1.542-40.921-4.634-45.58c-8.104-5.285-16.463-12.871-25.207-22.802c0-7.587,2.445-14.311,7.201-20.193
	C151.364,2.968,160.043,0,172.58,0C183.896,0,198.551,2.968,216.496,8.746z M143.775,248.083l26.355,17.547c0,2.927,0,6.43,0,10.516
	c0,4.111-0.892,8.491-2.699,13.11c6.428-1.702,16.211-10.795,29.391-27.128c13.176-16.36,19.089-28.355,17.944-35.94
	c-1.677-1.743-4.314-2.636-7.855-2.636c-7.587,0-16.199,2.05-25.85,6.137C171.423,233.772,159.004,239.912,143.775,248.083z
	 M179.781,337.522l0.826,13.979l-17.928,7.041L179.781,337.522z M250.773,216.923c2.303,1.29,4.364,2.703,6.044,4.246
	c1.795,1.611,2.7,3.568,2.7,5.909c0,5.925-6.058,15.377-18.011,28.324c-11.966,13.022-18.263,19.81-18.782,20.421
	c5.79,0,11.969,0.162,18.398,0.455c6.428,0.318,9.65,1.891,9.65,4.887c0,4.725-3.091,9.289-9.267,13.721
	c-6.109,4.406-11.193,7.814-15.307,10.197v24.519c9.332-1.757,14.923-2.635,16.718-2.635c10.424,0,17.49,4.991,20.966,14.896
	c-17.489,4.686-28.486,9.092-32.854,13.177c-4.446,4.113-7.786,7.297-10.102,9.611c-2.315,19.328-4.113,36.553-5.271,51.729
	c-1.157,15.241-3.794,31.283-7.908,48.2c8.162,0,16.521,0.319,25.014,0.931c8.491,0.572,17.104,1.162,25.85,1.704
	c12.857,0,24.309-3.181,34.213-9.651c9.9-6.455,20.442-35.873,31.574-88.371c11.114-52.541,16.651-89.893,16.651-112.217
	c0-16.997-4.698-28.832-14.018-35.58c-9.398-6.722-21.351-10.131-35.955-10.131c-7,0-14.853,0.771-23.268,2.384
	C259.386,215.221,253.661,216.313,250.773,216.923z"/>
</svg>
