<?xml version="1.0" encoding="utf-8"?>
<!-- Generator: Adobe Illustrator 13.0.0, SVG Export Plug-In . SVG Version: 6.00 Build 14948)  -->
<!DOCTYPE svg PUBLIC "-//W3C//DTD SVG 1.1//EN" "http://www.w3.org/Graphics/SVG/1.1/DTD/svg11.dtd">
<svg version="1.1" id="Layer_1" xmlns="http://www.w3.org/2000/svg" xmlns:xlink="http://www.w3.org/1999/xlink" x="0px" y="0px"
	 width="430.409px" height="429.558px" viewBox="0 0 430.409 429.558" enable-background="new 0 0 430.409 429.558"
	 xml:space="preserve">
<path fill="#343466" d="M303.364,117.476c0,3.512,0.375,10.381,1.279,20.605c0.906,10.236,1.359,18.821,1.359,25.849
	c17.488-3.528,32.719-5.231,45.574-5.231c28.566,0,48.883,8.454,60.889,25.425c11.979,16.945,17.943,41.439,17.943,73.626
	c-32.08,52.606-56.973,92.754-74.465,120.494c-17.49,27.779-31.893,41.637-42.941,41.637c-8.227,0-15.813-6.11-22.762-18.422
	c-7.084-12.249-14.67-18.385-22.896-18.385c-11.633,0-35.17,3.663-70.524,10.93c-35.302,7.4-57.691,11.609-67.063,12.766
	c-4.128-6.428-6.124-12.537-6.124-18.394c0-4.689,0.825-9.682,2.638-14.949c6.949,0,14.269-1,21.936-3.052
	c7.509-2.022,11.635-4.245,12.272-6.586c-22.813-28.619-34.208-67.49-34.208-116.581c-3.542,0.611-14.537,2.087-32.854,4.406
	c-18.449,2.341-31.705,3.499-39.933,3.499c-1.145,4.66-1.039,12.859,0.454,24.494c1.463,11.739,2.769,21.936,3.913,30.749
	c8.225,7.001,15.494,17.225,21.99,30.628c6.361,13.512,17.488,41.545,33.25,84.168c-9.957,2.969-17.81,4.406-23.666,4.406
	c-23.35,0-40.894-13.177-52.606-39.479C25.186,363.788,12.91,324.942,0,273.511l35.993,11.407c2.953-7.617,4.9-13.632,5.779-17.972
	c0.903-4.406,1.675-8.039,2.261-10.967c6.496-8.161,17.544-15.494,33.117-21.927c20.822-7.04,36.344-12.272,46.483-15.786v-27.129
	c7.005-1.197,13.128-0.132,18.451,3.021c5.219,3.209,9.664,8.07,13.124,14.469c14.031-7.56,28.487-13.574,43.396-17.967
	c14.857-4.381,29.658-7.148,44.25-8.334c0.584-1.732,0.824-5.248,0.824-10.516c0-8.772-1.41-20.42-4.367-35.037
	c-2.904-14.629-5.777-26.621-8.734-35.954c5.83-3.502,11.957-5.271,18.373-5.271c7.027,0,14.617,1.61,22.84,4.833
	C279.965,103.588,290.506,109.313,303.364,117.476z M272.614,0c24.576,8.202,39.484,13.604,44.754,16.202
	c5.271,2.676,9.666,10.381,13.125,23.281c-13.363,5.245-38.121,17.809-74.01,37.684c-35.941,19.862-59.795,29.806-71.508,29.806
	l10.542-14.923c-6.415,0-12.912,0.133-19.275,0.451c-6.442,0.293-12.617,0.414-18.395,0.414c-21.085,0-37.991-1.411-50.851-4.367
	c-12.884-2.93-25.984-9.651-39.427-20.167c11.049-5.271,43.154-15.948,96.373-31.985C217.135,20.354,253.395,8.202,272.614,0z
	 M166.577,238.434c11.13,15.228,17.944,31.282,20.661,48.227c2.554,16.935,5.004,32.426,7.4,46.483
	c16.373-5.271,27.899-18.129,34.637-38.575c6.707-20.447,10.035-46.497,10.035-78.032c-15.762,1.73-30.216,4.367-43.343,7.882
	C182.791,227.943,173.021,232.604,166.577,238.434z M303.364,197.251c-12.725,39.732-27.154,74.809-43.02,105.184
	c-15.949,30.417-35.807,52.313-59.61,65.743c20.444-4.683,42.834-9.888,67.143-15.771c24.172-5.817,40.893-14.153,49.943-24.985
	c8.998-10.812,18.848-27.198,29.393-49.095c10.488-21.924,15.68-39.295,15.68-52.152c0-1.757,0-3.502,0-5.271
	c-1.145-2.318-4.871-5.817-11.049-10.477c-6.229-4.699-11.316-8.066-15.176-10.131c-3.857-1.997-8.996-3.045-15.574-3.045H303.364z"
	/>
</svg>
